<?xml version="1.0" encoding="UTF-8" standalone="no"?>
<!-- Created with Inkscape (http://www.inkscape.org/) -->

<svg
   xmlns:dc="http://purl.org/dc/elements/1.1/"
   xmlns:cc="http://creativecommons.org/ns#"
   xmlns:rdf="http://www.w3.org/1999/02/22-rdf-syntax-ns#"
   xmlns:svg="http://www.w3.org/2000/svg"
   xmlns="http://www.w3.org/2000/svg"
   xmlns:xlink="http://www.w3.org/1999/xlink"
   xmlns:sodipodi="http://sodipodi.sourceforge.net/DTD/sodipodi-0.dtd"
   xmlns:inkscape="http://www.inkscape.org/namespaces/inkscape"
   width="172.9149mm"
   height="78.132744mm"
   viewBox="0 0 172.9149 78.132745"
   version="1.1"
   id="svg1382"
   inkscape:version="0.92.4 (5da689c313, 2019-01-14)"
   sodipodi:docname="logo.svg">
  <defs
     id="defs1376">
    <linearGradient
       inkscape:collect="always"
       id="linearGradient2241">
      <stop
         style="stop-color:#47a4ff;stop-opacity:1;"
         offset="0"
         id="stop2237" />
      <stop
         style="stop-color:#47a4ff;stop-opacity:0"
         offset="1"
         id="stop2239" />
    </linearGradient>
    <linearGradient
       inkscape:collect="always"
       id="linearGradient2119">
      <stop
         style="stop-color:#47a4ff;stop-opacity:1;"
         offset="0"
         id="stop2115" />
      <stop
         style="stop-color:#47a4ff;stop-opacity:0;"
         offset="1"
         id="stop2117" />
    </linearGradient>
    <linearGradient
       inkscape:collect="always"
       xlink:href="#linearGradient2119"
       id="linearGradient2121"
       x1="271.73801"
       y1="497.70499"
       x2="274.54999"
       y2="645.72198"
       gradientUnits="userSpaceOnUse" />
    <linearGradient
       inkscape:collect="always"
       xlink:href="#linearGradient2119"
       id="linearGradient2189"
       gradientUnits="userSpaceOnUse"
       x1="271.73801"
       y1="497.70499"
       x2="274.54999"
       y2="645.72198" />
    <linearGradient
       inkscape:collect="always"
       xlink:href="#linearGradient2119"
       id="linearGradient2191"
       gradientUnits="userSpaceOnUse"
       x1="271.73801"
       y1="497.70499"
       x2="274.54999"
       y2="645.72198" />
    <linearGradient
       inkscape:collect="always"
       xlink:href="#linearGradient2119"
       id="linearGradient2193"
       gradientUnits="userSpaceOnUse"
       x1="271.73801"
       y1="497.70499"
       x2="274.54999"
       y2="645.72198" />
    <linearGradient
       inkscape:collect="always"
       xlink:href="#linearGradient2119"
       id="linearGradient2195"
       gradientUnits="userSpaceOnUse"
       x1="271.73801"
       y1="497.70499"
       x2="274.54999"
       y2="645.72198" />
    <linearGradient
       inkscape:collect="always"
       xlink:href="#linearGradient2119"
       id="linearGradient2197"
       gradientUnits="userSpaceOnUse"
       x1="271.73801"
       y1="497.70499"
       x2="274.54999"
       y2="645.72198" />
    <linearGradient
       inkscape:collect="always"
       xlink:href="#linearGradient2119"
       id="linearGradient2199"
       gradientUnits="userSpaceOnUse"
       x1="271.73801"
       y1="497.70499"
       x2="274.54999"
       y2="645.72198" />
    <linearGradient
       inkscape:collect="always"
       xlink:href="#linearGradient2119"
       id="linearGradient2201"
       gradientUnits="userSpaceOnUse"
       x1="271.73801"
       y1="497.70499"
       x2="274.54999"
       y2="645.72198" />
    <linearGradient
       inkscape:collect="always"
       xlink:href="#linearGradient2119"
       id="linearGradient2203"
       gradientUnits="userSpaceOnUse"
       x1="271.73801"
       y1="497.70499"
       x2="274.54999"
       y2="645.72198" />
    <linearGradient
       inkscape:collect="always"
       xlink:href="#linearGradient2119"
       id="linearGradient2205"
       gradientUnits="userSpaceOnUse"
       x1="271.73801"
       y1="497.70499"
       x2="274.54999"
       y2="645.72198" />
    <linearGradient
       inkscape:collect="always"
       xlink:href="#linearGradient2119"
       id="linearGradient2207"
       gradientUnits="userSpaceOnUse"
       x1="271.73801"
       y1="497.70499"
       x2="274.54999"
       y2="645.72198" />
    <linearGradient
       inkscape:collect="always"
       xlink:href="#linearGradient2119"
       id="linearGradient2209"
       gradientUnits="userSpaceOnUse"
       x1="271.73801"
       y1="497.70499"
       x2="274.54999"
       y2="645.72198" />
    <linearGradient
       inkscape:collect="always"
       xlink:href="#linearGradient2119"
       id="linearGradient2211"
       gradientUnits="userSpaceOnUse"
       x1="271.73801"
       y1="497.70499"
       x2="274.54999"
       y2="645.72198" />
    <linearGradient
       inkscape:collect="always"
       xlink:href="#linearGradient2119"
       id="linearGradient2213"
       gradientUnits="userSpaceOnUse"
       x1="271.73801"
       y1="497.70499"
       x2="274.54999"
       y2="645.72198" />
    <linearGradient
       inkscape:collect="always"
       xlink:href="#linearGradient2119"
       id="linearGradient2215"
       gradientUnits="userSpaceOnUse"
       x1="271.73801"
       y1="497.70499"
       x2="274.54999"
       y2="645.72198" />
    <linearGradient
       inkscape:collect="always"
       xlink:href="#linearGradient2119"
       id="linearGradient2217"
       gradientUnits="userSpaceOnUse"
       x1="271.73801"
       y1="497.70499"
       x2="274.54999"
       y2="645.72198" />
    <linearGradient
       inkscape:collect="always"
       xlink:href="#linearGradient2119"
       id="linearGradient2219"
       gradientUnits="userSpaceOnUse"
       x1="271.73801"
       y1="497.70499"
       x2="274.54999"
       y2="645.72198" />
    <linearGradient
       inkscape:collect="always"
       xlink:href="#linearGradient2119"
       id="linearGradient2221"
       gradientUnits="userSpaceOnUse"
       x1="271.73801"
       y1="497.70499"
       x2="274.54999"
       y2="645.72198" />
    <linearGradient
       inkscape:collect="always"
       xlink:href="#linearGradient2119"
       id="linearGradient2223"
       gradientUnits="userSpaceOnUse"
       x1="271.73801"
       y1="497.70499"
       x2="274.54999"
       y2="645.72198" />
    <linearGradient
       inkscape:collect="always"
       xlink:href="#linearGradient2119"
       id="linearGradient2225"
       gradientUnits="userSpaceOnUse"
       x1="271.73801"
       y1="497.70499"
       x2="274.54999"
       y2="645.72198" />
    <linearGradient
       inkscape:collect="always"
       xlink:href="#linearGradient2119"
       id="linearGradient2227"
       gradientUnits="userSpaceOnUse"
       x1="271.73801"
       y1="497.70499"
       x2="274.54999"
       y2="645.72198" />
    <linearGradient
       inkscape:collect="always"
       xlink:href="#linearGradient2119"
       id="linearGradient2229"
       gradientUnits="userSpaceOnUse"
       x1="271.73801"
       y1="497.70499"
       x2="274.54999"
       y2="645.72198" />
    <linearGradient
       inkscape:collect="always"
       xlink:href="#linearGradient2119"
       id="linearGradient2231"
       gradientUnits="userSpaceOnUse"
       x1="271.73801"
       y1="497.70499"
       x2="274.54999"
       y2="645.72198" />
    <linearGradient
       inkscape:collect="always"
       xlink:href="#linearGradient2119"
       id="linearGradient2233"
       gradientUnits="userSpaceOnUse"
       x1="271.73801"
       y1="497.70499"
       x2="274.54999"
       y2="645.72198" />
    <linearGradient
       inkscape:collect="always"
       xlink:href="#linearGradient2241"
       id="linearGradient2243"
       x1="50.268078"
       y1="165.34364"
       x2="49.699333"
       y2="49.594463"
       gradientUnits="userSpaceOnUse" />
  </defs>
  <sodipodi:namedview
     id="base"
     pagecolor="#ffffff"
     bordercolor="#666666"
     borderopacity="1.0"
     inkscape:pageopacity="0.0"
     inkscape:pageshadow="2"
     inkscape:zoom="0.47236328"
     inkscape:cx="488.29221"
     inkscape:cy="265.86575"
     inkscape:document-units="mm"
     inkscape:current-layer="g2304"
     showgrid="true"
     inkscape:window-width="1600"
     inkscape:window-height="838"
     inkscape:window-x="-8"
     inkscape:window-y="-8"
     inkscape:window-maximized="1" />
  <metadata
     id="metadata1379">
    <rdf:RDF>
      <cc:Work
         rdf:about="">
        <dc:format>image/svg+xml</dc:format>
        <dc:type
           rdf:resource="http://purl.org/dc/dcmitype/StillImage" />
        <dc:title></dc:title>
      </cc:Work>
    </rdf:RDF>
  </metadata>
  <g
     inkscape:label="Camada 1"
     inkscape:groupmode="layer"
     id="layer1"
     transform="translate(74.748056,-7.3125615)">
    <g
       id="g2304">
      <g
         id="g2357"
         transform="matrix(0.4065029,0,0,0.4065029,-10.664166,14.508329)">
        <g
           inkscape:label="Ebene 1"
           transform="matrix(0.59992222,0,0,0.59992222,-117.58005,-312.09907)"
           id="layer1-3">
	<path
   d="m 100.923,651.636 c 5.332,0 8.531,-1.087 8.531,-6.156 0,-3.752 -2.327,-5.759 -7.658,-5.759 h -7.368 v 11.915 z m -9.306,15.655 v -29.984 h 10.955 c 7.755,0 9.792,3.877 9.792,8.375 0,6.699 -6.011,8.366 -11.537,8.366 h -6.399 v 13.242 l -2.811,0.001"
   id="path6905"
   inkscape:connector-curvature="0" />

	<path
   d="m 116.143,667.291 h 2.424 v -29.984 h -2.424 z"
   id="path6907"
   inkscape:connector-curvature="0" />

	<path
   d="m 138.925,655.958 c -2.132,0.872 -4.362,1.047 -6.494,1.213 -3.782,0.289 -6.107,1.666 -6.107,4.575 0,2.637 2.327,3.878 4.654,3.878 3.974,0 7.949,-1.92 7.949,-6.292 z m -4.265,-1.241 c 0.969,-0.087 2.521,-0.339 3.296,-0.718 0.873,-0.369 0.969,-1.492 0.969,-2.238 0,-2.54 -1.551,-4.372 -5.428,-4.372 -3.393,0 -5.816,1.124 -6.302,4.867 h -2.521 c 0.388,-5.081 4.168,-7.126 8.919,-7.126 4.362,0 7.756,1.716 7.756,6.708 v 11.741 c 0,1.957 0.581,2.414 2.617,1.666 v 1.959 c -0.291,0.126 -1.163,0.416 -1.938,0.416 -0.389,0 -0.679,-0.038 -1.066,-0.125 -1.745,-0.242 -2.037,-1.706 -2.037,-3.21 -2.037,2.338 -4.944,3.588 -8.046,3.588 -3.781,0 -7.175,-2.046 -7.175,-6.204 0,-3.616 2.521,-5.826 7.562,-6.495 l 3.394,-0.457"
   id="path6909"
   inkscape:connector-curvature="0" />

	<path
   d="m 147.553,673.156 c 0.679,0.126 1.356,0.262 2.036,0.262 2.909,0 3.296,-4.09 4.265,-5.962 l -8.434,-21.735 h 2.812 l 6.98,18.536 6.882,-18.536 h 2.715 L 156.762,667 c -2.037,5.409 -3.393,8.784 -6.883,8.784 -0.873,0 -1.648,-0.125 -2.327,-0.29 v -2.338"
   id="path6911"
   inkscape:connector-curvature="0" />

	<path
   d="m 170.722,658.334 c 0.485,5.37 3.976,7.328 8.628,7.328 5.332,0 7.562,-2.906 7.562,-6.204 0,-9.287 -18.226,-3.121 -18.226,-14.899 0,-4.17 3.393,-8.038 10.179,-8.038 6.689,0 10.082,4.072 9.985,8.959 h -2.617 c 0,-4.587 -3.587,-6.544 -7.368,-6.544 -5.817,0 -7.853,3.538 -7.368,6.621 1.26,7.736 18.323,2.161 18.323,13.775 0,5.508 -4.072,8.746 -10.955,8.746 -6.302,0 -10.955,-3.238 -10.955,-9.743 l 2.812,-0.001"
   id="path6913"
   inkscape:connector-curvature="0" />

	<path
   d="m 202.812,667.37 c -0.582,0.125 -1.648,0.504 -2.909,0.504 -2.424,0 -3.781,-1.086 -3.781,-4.294 v -15.783 h -3.103 v -2.074 h 3.103 v -6.001 h 2.521 v 6.001 h 3.975 v 2.074 h -3.975 v 14.785 c 0,2.133 0,3.043 2.132,3.043 0.679,0 1.356,-0.126 2.037,-0.29 v 2.035"
   id="path6915"
   inkscape:connector-curvature="0" />

	<path
   d="m 221.52,655.958 c -2.132,0.872 -4.264,1.047 -6.398,1.213 -3.78,0.289 -6.107,1.666 -6.107,4.575 0,2.637 2.327,3.878 4.655,3.878 3.974,0 7.851,-1.92 7.851,-6.292 v -3.374 z m -4.168,-1.241 c 0.873,-0.087 2.425,-0.339 3.297,-0.718 0.776,-0.369 0.872,-1.492 0.872,-2.238 0,-2.54 -1.454,-4.372 -5.332,-4.372 -3.489,0 -5.816,1.124 -6.301,4.867 h -2.521 c 0.387,-5.081 4.168,-7.126 8.821,-7.126 4.364,0 7.853,1.716 7.853,6.708 v 11.741 c 0,1.957 0.486,2.414 2.619,1.666 v 1.959 c -0.389,0.126 -1.262,0.416 -1.939,0.416 -0.388,0 -0.775,-0.038 -1.164,-0.125 -1.648,-0.242 -1.939,-1.706 -1.939,-3.21 -2.134,2.338 -4.943,3.588 -8.046,3.588 -3.781,0 -7.271,-2.046 -7.271,-6.204 0,-3.616 2.521,-5.826 7.562,-6.495 l 3.489,-0.457"
   id="path6917"
   inkscape:connector-curvature="0" />

	<path
   d="m 238.778,667.37 c -0.581,0.125 -1.649,0.504 -2.908,0.504 -2.423,0 -3.781,-1.086 -3.781,-4.294 v -15.783 h -3.006 v -2.074 h 3.006 v -6.001 h 2.521 v 6.001 h 3.975 v 2.074 h -3.975 v 14.785 c 0,2.133 0,3.043 2.132,3.043 0.678,0 1.358,-0.126 2.037,-0.29 v 2.035"
   id="path6919"
   inkscape:connector-curvature="0" />

	<path
   d="m 246.243,667.291 h -2.425 v -21.569 h 2.425 z m -2.619,-26.283 v -3.701 h 2.812 v 3.701 h -2.812"
   id="path6921"
   inkscape:connector-curvature="0" />

	<path
   d="m 260.978,647.389 c -5.235,0 -7.271,4.449 -7.271,9.112 0,5.371 2.521,9.122 7.271,9.122 5.234,0 7.368,-4.498 7.368,-9.122 0,-5.08 -2.036,-9.112 -7.368,-9.112 z m -9.985,9.111 c 0,-6.281 3.393,-11.371 9.985,-11.371 6.785,0 10.082,5.04 10.082,11.371 0,6.837 -3.975,11.372 -10.082,11.372 -5.429,-0.086 -9.985,-3.829 -9.985,-11.372"
   id="path6923"
   inkscape:connector-curvature="0" />

	<path
   d="m 277.071,667.291 h -2.521 v -21.569 h 2.521 v 2.995 c 1.938,-2.123 3.975,-3.587 6.883,-3.587 2.714,0 5.041,0.833 6.592,3.083 1.065,1.551 1.163,3.169 1.163,4.953 v 14.124 h -2.521 v -14.076 c 0,-3.867 -1.647,-5.826 -5.623,-5.826 -3.103,0 -5.235,1.997 -6.01,4.197 -0.486,1.377 -0.486,2.59 -0.486,4.092 v 11.614"
   id="path6925"
   inkscape:connector-curvature="0" />

	<path
   d="m 301.5,660.283 c -0.291,-0.136 -0.678,-0.204 -1.259,-0.204 h -0.777 v 1.997 h 0.875 c 0.386,0 0.774,-0.038 0.968,-0.114 0.387,-0.155 0.582,-0.446 0.582,-0.873 0,-0.399 -0.195,-0.671 -0.389,-0.806 z m -1.066,-0.883 c 0.68,0 1.164,0.059 1.551,0.194 0.582,0.243 0.775,0.708 0.775,1.416 0,0.494 -0.098,0.853 -0.484,1.086 -0.195,0.126 -0.484,0.214 -0.775,0.271 0.387,0.067 0.678,0.262 0.871,0.553 0.195,0.301 0.291,0.593 0.291,0.873 v 0.407 c 0,0.135 0,0.281 0.098,0.418 0,0.154 0,0.251 0,0.299 v 0.068 h -0.873 c 0,-0.02 0,-0.039 0,-0.049 0,-0.021 0,-0.049 0,-0.078 l -0.096,-0.173 v -0.447 c 0,-0.658 -0.195,-1.086 -0.486,-1.289 -0.193,-0.126 -0.58,-0.184 -1.066,-0.184 h -0.774 v 2.22 h -0.971 v -5.584 h 1.94 V 659.4 Z m -3.004,-0.29 c -0.873,0.853 -1.262,1.89 -1.262,3.091 0,1.232 0.389,2.27 1.262,3.123 0.872,0.863 1.841,1.289 3.103,1.289 1.261,0 2.229,-0.426 3.102,-1.289 0.873,-0.854 1.262,-1.89 1.262,-3.123 0,-1.201 -0.389,-2.238 -1.262,-3.091 -0.872,-0.854 -1.841,-1.281 -3.102,-1.281 -1.262,-10e-4 -2.231,0.426 -3.103,1.281 z m 6.689,6.687 c -0.97,0.99 -2.229,1.493 -3.586,1.493 -1.359,0 -2.619,-0.504 -3.587,-1.493 -0.971,-0.988 -1.455,-2.19 -1.455,-3.597 0,-1.386 0.484,-2.588 1.455,-3.567 0.968,-0.998 2.228,-1.483 3.587,-1.483 1.356,0 2.616,0.484 3.586,1.483 0.969,0.969 1.455,2.172 1.455,3.567 0,1.409 -0.487,2.61 -1.455,3.597"
   id="path6927"
   inkscape:connector-curvature="0" />

	<path
   d="m 322.634,651.636 c 5.332,0 8.628,-1.087 8.628,-6.156 0,-3.752 -2.423,-5.759 -7.755,-5.759 h -7.369 v 11.915 z m -9.305,15.655 v -29.984 h 10.956 c 7.755,0 9.789,3.877 9.789,8.375 0,6.699 -5.914,8.366 -11.535,8.366 h -6.4 v 13.242 l -2.81,0.001"
   id="path6929"
   inkscape:connector-curvature="0" />

	<path
   d="m 345.222,647.389 c -5.234,0 -7.366,4.449 -7.366,9.112 0,5.371 2.616,9.122 7.366,9.122 5.237,0 7.369,-4.498 7.369,-9.122 -0.097,-5.08 -2.036,-9.112 -7.369,-9.112 z m -9.984,9.111 c 0,-6.281 3.296,-11.371 9.984,-11.371 6.787,0 9.987,5.04 9.987,11.371 0,6.837 -3.976,11.372 -9.987,11.372 -5.525,-0.086 -9.984,-3.829 -9.984,-11.372"
   id="path6931"
   inkscape:connector-curvature="0" />

	<path
   d="m 361.413,667.291 h -2.521 v -21.569 h 2.521 v 4.043 h 0.098 c 1.354,-3.462 3.392,-4.634 6.98,-4.634 v 2.715 c -5.624,-0.126 -7.076,4.033 -7.076,8.861 v 10.584"
   id="path6933"
   inkscape:connector-curvature="0" />

	<path
   d="m 382.451,667.37 c -0.582,0.125 -1.648,0.504 -2.813,0.504 -2.519,0 -3.878,-1.086 -3.878,-4.294 v -15.783 h -3.005 v -2.074 h 3.005 v -6.001 h 2.521 v 6.001 h 4.071 v 2.074 h -4.071 v 14.785 c 0,2.133 0.098,3.043 2.132,3.043 0.682,0 1.455,-0.126 2.037,-0.29 v 2.035"
   id="path6935"
   inkscape:connector-curvature="0" />

	<path
   d="m 400.384,655.958 c -2.133,0.872 -4.265,1.047 -6.398,1.213 -3.782,0.289 -6.107,1.666 -6.107,4.575 0,2.637 2.327,3.878 4.652,3.878 3.976,0 7.854,-1.92 7.854,-6.292 v -3.374 z m -4.169,-1.241 c 0.871,-0.087 2.423,-0.339 3.296,-0.718 0.777,-0.369 0.873,-1.492 0.873,-2.238 0,-2.54 -1.455,-4.372 -5.332,-4.372 -3.489,0 -5.817,1.124 -6.301,4.867 h -2.521 c 0.387,-5.081 4.169,-7.126 8.822,-7.126 4.363,0 7.853,1.716 7.853,6.708 v 11.741 c 0,1.957 0.484,2.414 2.618,1.666 v 1.959 c -0.389,0.126 -1.262,0.416 -1.938,0.416 -0.389,0 -0.777,-0.038 -1.164,-0.125 -1.647,-0.242 -1.938,-1.706 -1.938,-3.21 -2.133,2.338 -4.944,3.588 -8.049,3.588 -3.779,0 -7.271,-2.046 -7.271,-6.204 0,-3.616 2.521,-5.826 7.562,-6.495 l 3.49,-0.457"
   id="path6937"
   inkscape:connector-curvature="0" />

	<path
   d="m 420.161,665.623 c 4.169,0 7.271,-3.043 7.369,-8.452 0.192,-5.41 -2.23,-9.782 -7.369,-9.782 -4.557,0 -7.271,4.158 -7.271,9.026 -10e-4,5.214 2.521,9.208 7.271,9.208 z m -7.272,1.668 h -2.521 v -29.984 h 2.521 v 11.865 c 1.553,-2.618 4.653,-4.043 7.66,-4.043 6.59,0 9.597,5.38 9.597,11.42 0,6.359 -2.714,11.323 -9.694,11.323 -2.812,0 -6.01,-1.541 -7.56,-4.372 v 0 3.791"
   id="path6939"
   inkscape:connector-curvature="0" />

	<path
   d="m 435.673,667.291 h 2.519 v -29.984 h -2.519 z"
   id="path6941"
   inkscape:connector-curvature="0" />

	<path
   d="m 459.908,654.999 c 0,-4.198 -2.326,-7.61 -6.785,-7.61 -4.46,0 -6.787,3.538 -7.271,7.61 z m -14.057,2.093 c 0,4.654 2.521,8.532 7.271,8.532 3.2,0 5.816,-1.794 6.494,-4.953 h 2.812 c -1.26,4.07 -3.78,7.203 -9.306,7.203 -6.885,0 -9.89,-4.915 -9.89,-11.282 0,-6.293 3.685,-11.461 9.89,-11.461 5.914,0 9.501,4.218 9.501,11.962 l -16.772,-10e-4"
   id="path6943"
   inkscape:connector-curvature="0" />

	<path
   d="M -2.322,490.726 H 174.31 v 52.38 H 4.657 v 45.399 h -6.979 v -52.38 H 167.33 v -38.42 H -2.322 v -6.979"
   id="path6945"
   inkscape:connector-curvature="0" />

	<path
   d="m 394.956,543.106 v 45.399 h -6.98 v -52.38 h 169.65 v -38.42 h -169.65 v -6.979 h 176.631 v 52.38 H 394.956"
   id="path6947"
   inkscape:connector-curvature="0" />

	<path
   d="m 264.371,490.726 v 90.798 H 174.31 v 6.981 h 97.428 v -90.8 h 90.063 v -6.979 h -97.43"
   id="path6949"
   inkscape:connector-curvature="0" />

</g>
        <g
           id="g2113"
           transform="matrix(0.59992222,0,0,0.59992222,-117.58005,-312.09907)"
           inkscape:label="Ebene 1"
           style="fill:url(#linearGradient2121);fill-opacity:1">
	<path
   inkscape:connector-curvature="0"
   id="path2067"
   d="m 100.923,651.636 c 5.332,0 8.531,-1.087 8.531,-6.156 0,-3.752 -2.327,-5.759 -7.658,-5.759 h -7.368 v 11.915 z m -9.306,15.655 v -29.984 h 10.955 c 7.755,0 9.792,3.877 9.792,8.375 0,6.699 -6.011,8.366 -11.537,8.366 h -6.399 v 13.242 l -2.811,0.001"
   style="fill:url(#linearGradient2189);fill-opacity:1" />

	<path
   inkscape:connector-curvature="0"
   id="path2069"
   d="m 116.143,667.291 h 2.424 v -29.984 h -2.424 z"
   style="fill:url(#linearGradient2191);fill-opacity:1" />

	<path
   inkscape:connector-curvature="0"
   id="path2071"
   d="m 138.925,655.958 c -2.132,0.872 -4.362,1.047 -6.494,1.213 -3.782,0.289 -6.107,1.666 -6.107,4.575 0,2.637 2.327,3.878 4.654,3.878 3.974,0 7.949,-1.92 7.949,-6.292 z m -4.265,-1.241 c 0.969,-0.087 2.521,-0.339 3.296,-0.718 0.873,-0.369 0.969,-1.492 0.969,-2.238 0,-2.54 -1.551,-4.372 -5.428,-4.372 -3.393,0 -5.816,1.124 -6.302,4.867 h -2.521 c 0.388,-5.081 4.168,-7.126 8.919,-7.126 4.362,0 7.756,1.716 7.756,6.708 v 11.741 c 0,1.957 0.581,2.414 2.617,1.666 v 1.959 c -0.291,0.126 -1.163,0.416 -1.938,0.416 -0.389,0 -0.679,-0.038 -1.066,-0.125 -1.745,-0.242 -2.037,-1.706 -2.037,-3.21 -2.037,2.338 -4.944,3.588 -8.046,3.588 -3.781,0 -7.175,-2.046 -7.175,-6.204 0,-3.616 2.521,-5.826 7.562,-6.495 l 3.394,-0.457"
   style="fill:url(#linearGradient2193);fill-opacity:1" />

	<path
   inkscape:connector-curvature="0"
   id="path2073"
   d="m 147.553,673.156 c 0.679,0.126 1.356,0.262 2.036,0.262 2.909,0 3.296,-4.09 4.265,-5.962 l -8.434,-21.735 h 2.812 l 6.98,18.536 6.882,-18.536 h 2.715 L 156.762,667 c -2.037,5.409 -3.393,8.784 -6.883,8.784 -0.873,0 -1.648,-0.125 -2.327,-0.29 v -2.338"
   style="fill:url(#linearGradient2195);fill-opacity:1" />

	<path
   inkscape:connector-curvature="0"
   id="path2075"
   d="m 170.722,658.334 c 0.485,5.37 3.976,7.328 8.628,7.328 5.332,0 7.562,-2.906 7.562,-6.204 0,-9.287 -18.226,-3.121 -18.226,-14.899 0,-4.17 3.393,-8.038 10.179,-8.038 6.689,0 10.082,4.072 9.985,8.959 h -2.617 c 0,-4.587 -3.587,-6.544 -7.368,-6.544 -5.817,0 -7.853,3.538 -7.368,6.621 1.26,7.736 18.323,2.161 18.323,13.775 0,5.508 -4.072,8.746 -10.955,8.746 -6.302,0 -10.955,-3.238 -10.955,-9.743 l 2.812,-0.001"
   style="fill:url(#linearGradient2197);fill-opacity:1" />

	<path
   inkscape:connector-curvature="0"
   id="path2077"
   d="m 202.812,667.37 c -0.582,0.125 -1.648,0.504 -2.909,0.504 -2.424,0 -3.781,-1.086 -3.781,-4.294 v -15.783 h -3.103 v -2.074 h 3.103 v -6.001 h 2.521 v 6.001 h 3.975 v 2.074 h -3.975 v 14.785 c 0,2.133 0,3.043 2.132,3.043 0.679,0 1.356,-0.126 2.037,-0.29 v 2.035"
   style="fill:url(#linearGradient2199);fill-opacity:1" />

	<path
   inkscape:connector-curvature="0"
   id="path2079"
   d="m 221.52,655.958 c -2.132,0.872 -4.264,1.047 -6.398,1.213 -3.78,0.289 -6.107,1.666 -6.107,4.575 0,2.637 2.327,3.878 4.655,3.878 3.974,0 7.851,-1.92 7.851,-6.292 v -3.374 z m -4.168,-1.241 c 0.873,-0.087 2.425,-0.339 3.297,-0.718 0.776,-0.369 0.872,-1.492 0.872,-2.238 0,-2.54 -1.454,-4.372 -5.332,-4.372 -3.489,0 -5.816,1.124 -6.301,4.867 h -2.521 c 0.387,-5.081 4.168,-7.126 8.821,-7.126 4.364,0 7.853,1.716 7.853,6.708 v 11.741 c 0,1.957 0.486,2.414 2.619,1.666 v 1.959 c -0.389,0.126 -1.262,0.416 -1.939,0.416 -0.388,0 -0.775,-0.038 -1.164,-0.125 -1.648,-0.242 -1.939,-1.706 -1.939,-3.21 -2.134,2.338 -4.943,3.588 -8.046,3.588 -3.781,0 -7.271,-2.046 -7.271,-6.204 0,-3.616 2.521,-5.826 7.562,-6.495 l 3.489,-0.457"
   style="fill:url(#linearGradient2201);fill-opacity:1" />

	<path
   inkscape:connector-curvature="0"
   id="path2081"
   d="m 238.778,667.37 c -0.581,0.125 -1.649,0.504 -2.908,0.504 -2.423,0 -3.781,-1.086 -3.781,-4.294 v -15.783 h -3.006 v -2.074 h 3.006 v -6.001 h 2.521 v 6.001 h 3.975 v 2.074 h -3.975 v 14.785 c 0,2.133 0,3.043 2.132,3.043 0.678,0 1.358,-0.126 2.037,-0.29 v 2.035"
   style="fill:url(#linearGradient2203);fill-opacity:1" />

	<path
   inkscape:connector-curvature="0"
   id="path2083"
   d="m 246.243,667.291 h -2.425 v -21.569 h 2.425 z m -2.619,-26.283 v -3.701 h 2.812 v 3.701 h -2.812"
   style="fill:url(#linearGradient2205);fill-opacity:1" />

	<path
   inkscape:connector-curvature="0"
   id="path2085"
   d="m 260.978,647.389 c -5.235,0 -7.271,4.449 -7.271,9.112 0,5.371 2.521,9.122 7.271,9.122 5.234,0 7.368,-4.498 7.368,-9.122 0,-5.08 -2.036,-9.112 -7.368,-9.112 z m -9.985,9.111 c 0,-6.281 3.393,-11.371 9.985,-11.371 6.785,0 10.082,5.04 10.082,11.371 0,6.837 -3.975,11.372 -10.082,11.372 -5.429,-0.086 -9.985,-3.829 -9.985,-11.372"
   style="fill:url(#linearGradient2207);fill-opacity:1" />

	<path
   inkscape:connector-curvature="0"
   id="path2087"
   d="m 277.071,667.291 h -2.521 v -21.569 h 2.521 v 2.995 c 1.938,-2.123 3.975,-3.587 6.883,-3.587 2.714,0 5.041,0.833 6.592,3.083 1.065,1.551 1.163,3.169 1.163,4.953 v 14.124 h -2.521 v -14.076 c 0,-3.867 -1.647,-5.826 -5.623,-5.826 -3.103,0 -5.235,1.997 -6.01,4.197 -0.486,1.377 -0.486,2.59 -0.486,4.092 v 11.614"
   style="fill:url(#linearGradient2209);fill-opacity:1" />

	<path
   inkscape:connector-curvature="0"
   id="path2089"
   d="m 301.5,660.283 c -0.291,-0.136 -0.678,-0.204 -1.259,-0.204 h -0.777 v 1.997 h 0.875 c 0.386,0 0.774,-0.038 0.968,-0.114 0.387,-0.155 0.582,-0.446 0.582,-0.873 0,-0.399 -0.195,-0.671 -0.389,-0.806 z m -1.066,-0.883 c 0.68,0 1.164,0.059 1.551,0.194 0.582,0.243 0.775,0.708 0.775,1.416 0,0.494 -0.098,0.853 -0.484,1.086 -0.195,0.126 -0.484,0.214 -0.775,0.271 0.387,0.067 0.678,0.262 0.871,0.553 0.195,0.301 0.291,0.593 0.291,0.873 v 0.407 c 0,0.135 0,0.281 0.098,0.418 0,0.154 0,0.251 0,0.299 v 0.068 h -0.873 c 0,-0.02 0,-0.039 0,-0.049 0,-0.021 0,-0.049 0,-0.078 l -0.096,-0.173 v -0.447 c 0,-0.658 -0.195,-1.086 -0.486,-1.289 -0.193,-0.126 -0.58,-0.184 -1.066,-0.184 h -0.774 v 2.22 h -0.971 v -5.584 h 1.94 V 659.4 Z m -3.004,-0.29 c -0.873,0.853 -1.262,1.89 -1.262,3.091 0,1.232 0.389,2.27 1.262,3.123 0.872,0.863 1.841,1.289 3.103,1.289 1.261,0 2.229,-0.426 3.102,-1.289 0.873,-0.854 1.262,-1.89 1.262,-3.123 0,-1.201 -0.389,-2.238 -1.262,-3.091 -0.872,-0.854 -1.841,-1.281 -3.102,-1.281 -1.262,-10e-4 -2.231,0.426 -3.103,1.281 z m 6.689,6.687 c -0.97,0.99 -2.229,1.493 -3.586,1.493 -1.359,0 -2.619,-0.504 -3.587,-1.493 -0.971,-0.988 -1.455,-2.19 -1.455,-3.597 0,-1.386 0.484,-2.588 1.455,-3.567 0.968,-0.998 2.228,-1.483 3.587,-1.483 1.356,0 2.616,0.484 3.586,1.483 0.969,0.969 1.455,2.172 1.455,3.567 0,1.409 -0.487,2.61 -1.455,3.597"
   style="fill:url(#linearGradient2211);fill-opacity:1" />

	<path
   inkscape:connector-curvature="0"
   id="path2091"
   d="m 322.634,651.636 c 5.332,0 8.628,-1.087 8.628,-6.156 0,-3.752 -2.423,-5.759 -7.755,-5.759 h -7.369 v 11.915 z m -9.305,15.655 v -29.984 h 10.956 c 7.755,0 9.789,3.877 9.789,8.375 0,6.699 -5.914,8.366 -11.535,8.366 h -6.4 v 13.242 l -2.81,0.001"
   style="fill:url(#linearGradient2213);fill-opacity:1" />

	<path
   inkscape:connector-curvature="0"
   id="path2093"
   d="m 345.222,647.389 c -5.234,0 -7.366,4.449 -7.366,9.112 0,5.371 2.616,9.122 7.366,9.122 5.237,0 7.369,-4.498 7.369,-9.122 -0.097,-5.08 -2.036,-9.112 -7.369,-9.112 z m -9.984,9.111 c 0,-6.281 3.296,-11.371 9.984,-11.371 6.787,0 9.987,5.04 9.987,11.371 0,6.837 -3.976,11.372 -9.987,11.372 -5.525,-0.086 -9.984,-3.829 -9.984,-11.372"
   style="fill:url(#linearGradient2215);fill-opacity:1" />

	<path
   inkscape:connector-curvature="0"
   id="path2095"
   d="m 361.413,667.291 h -2.521 v -21.569 h 2.521 v 4.043 h 0.098 c 1.354,-3.462 3.392,-4.634 6.98,-4.634 v 2.715 c -5.624,-0.126 -7.076,4.033 -7.076,8.861 v 10.584"
   style="fill:url(#linearGradient2217);fill-opacity:1" />

	<path
   inkscape:connector-curvature="0"
   id="path2097"
   d="m 382.451,667.37 c -0.582,0.125 -1.648,0.504 -2.813,0.504 -2.519,0 -3.878,-1.086 -3.878,-4.294 v -15.783 h -3.005 v -2.074 h 3.005 v -6.001 h 2.521 v 6.001 h 4.071 v 2.074 h -4.071 v 14.785 c 0,2.133 0.098,3.043 2.132,3.043 0.682,0 1.455,-0.126 2.037,-0.29 v 2.035"
   style="fill:url(#linearGradient2219);fill-opacity:1" />

	<path
   inkscape:connector-curvature="0"
   id="path2099"
   d="m 400.384,655.958 c -2.133,0.872 -4.265,1.047 -6.398,1.213 -3.782,0.289 -6.107,1.666 -6.107,4.575 0,2.637 2.327,3.878 4.652,3.878 3.976,0 7.854,-1.92 7.854,-6.292 v -3.374 z m -4.169,-1.241 c 0.871,-0.087 2.423,-0.339 3.296,-0.718 0.777,-0.369 0.873,-1.492 0.873,-2.238 0,-2.54 -1.455,-4.372 -5.332,-4.372 -3.489,0 -5.817,1.124 -6.301,4.867 h -2.521 c 0.387,-5.081 4.169,-7.126 8.822,-7.126 4.363,0 7.853,1.716 7.853,6.708 v 11.741 c 0,1.957 0.484,2.414 2.618,1.666 v 1.959 c -0.389,0.126 -1.262,0.416 -1.938,0.416 -0.389,0 -0.777,-0.038 -1.164,-0.125 -1.647,-0.242 -1.938,-1.706 -1.938,-3.21 -2.133,2.338 -4.944,3.588 -8.049,3.588 -3.779,0 -7.271,-2.046 -7.271,-6.204 0,-3.616 2.521,-5.826 7.562,-6.495 l 3.49,-0.457"
   style="fill:url(#linearGradient2221);fill-opacity:1" />

	<path
   inkscape:connector-curvature="0"
   id="path2101"
   d="m 420.161,665.623 c 4.169,0 7.271,-3.043 7.369,-8.452 0.192,-5.41 -2.23,-9.782 -7.369,-9.782 -4.557,0 -7.271,4.158 -7.271,9.026 -10e-4,5.214 2.521,9.208 7.271,9.208 z m -7.272,1.668 h -2.521 v -29.984 h 2.521 v 11.865 c 1.553,-2.618 4.653,-4.043 7.66,-4.043 6.59,0 9.597,5.38 9.597,11.42 0,6.359 -2.714,11.323 -9.694,11.323 -2.812,0 -6.01,-1.541 -7.56,-4.372 v 0 3.791"
   style="fill:url(#linearGradient2223);fill-opacity:1" />

	<path
   inkscape:connector-curvature="0"
   id="path2103"
   d="m 435.673,667.291 h 2.519 v -29.984 h -2.519 z"
   style="fill:url(#linearGradient2225);fill-opacity:1" />

	<path
   inkscape:connector-curvature="0"
   id="path2105"
   d="m 459.908,654.999 c 0,-4.198 -2.326,-7.61 -6.785,-7.61 -4.46,0 -6.787,3.538 -7.271,7.61 z m -14.057,2.093 c 0,4.654 2.521,8.532 7.271,8.532 3.2,0 5.816,-1.794 6.494,-4.953 h 2.812 c -1.26,4.07 -3.78,7.203 -9.306,7.203 -6.885,0 -9.89,-4.915 -9.89,-11.282 0,-6.293 3.685,-11.461 9.89,-11.461 5.914,0 9.501,4.218 9.501,11.962 l -16.772,-10e-4"
   style="fill:url(#linearGradient2227);fill-opacity:1" />

	<path
   inkscape:connector-curvature="0"
   id="path2107"
   d="M -2.322,490.726 H 174.31 v 52.38 H 4.657 v 45.399 h -6.979 v -52.38 H 167.33 v -38.42 H -2.322 v -6.979"
   style="fill:url(#linearGradient2229);fill-opacity:1" />

	<path
   inkscape:connector-curvature="0"
   id="path2109"
   d="m 394.956,543.106 v 45.399 h -6.98 v -52.38 h 169.65 v -38.42 h -169.65 v -6.979 h 176.631 v 52.38 H 394.956"
   style="fill:url(#linearGradient2231);fill-opacity:1" />

	<path
   inkscape:connector-curvature="0"
   id="path2111"
   d="m 264.371,490.726 v 90.798 H 174.31 v 6.981 h 97.428 v -90.8 h 90.063 v -6.979 h -97.43"
   style="fill:url(#linearGradient2233);fill-opacity:1" />

</g>
        <g
           transform="matrix(1.0215221,0,0,1.0215221,3.4283919,4.8632798)"
           id="g2250">
          <g
             id="g2246">
            <path
               inkscape:connector-curvature="0"
               id="path2235"
               d="m 258.0929,86.35792 -8.76082,0.0175 c -23.96871,0.0486 -34.13426,5.06751 -40.20625,19.85026 -1.99212,4.85002 -2.43135,7.55352 -2.83018,17.42216 -0.25963,6.42468 -1.03271,13.72467 -1.71767,16.22259 -1.36966,4.99485 -5.77086,10.11686 -10.70646,12.45895 -3.56028,1.68947 -13.27409,3.17487 -20.9172,3.1991 l -5.61561,0.0182 v 4.43844 4.43845 l 3.36904,0.3523 c 8.00415,0.83776 26.51341,-1.68834 32.24623,-4.40113 10.77596,-5.09924 16.49457,-17.78779 16.50611,-36.62498 0.006,-9.82617 1.10912,-14.25448 4.67553,-18.75933 5.27157,-6.65867 13.85369,-9.62466 27.89151,-9.64037 l 6.06577,-0.007 v -4.49311 z m -109.62378,16.09493 -6.51505,0.26362 -6.51425,0.26445 -0.28435,3.46436 c -0.15657,1.90523 -0.0679,4.02763 0.19646,4.71698 0.34831,0.90765 2.22313,1.25344 6.7986,1.25344 h 6.31859 v -4.98143 z m -143.769221,0.0788 v 4.49231 4.49317 h 6.738901 6.73889 v -4.49317 -4.49231 H 11.4388 Z m -56.616199,0.1608 c -3.319195,-0.0268 -6.787836,0.25893 -10.379017,0.86465 -9.123325,1.53885 -19.97643,7.0035 -21.429517,10.79019 -0.544899,1.41999 -2.178763,0.68855 -7.029872,-3.14604 -7.836626,-6.19449 -14.093094,-8.05036 -27.129684,-8.05036 -13.57213,0 -19.47725,1.90712 -27.08823,8.75004 -8.60041,7.7325 -10.37716,13.27028 -11.30665,35.23145 l -0.73947,17.47271 h 6.35508 6.3559 l 0.68225,-18.21798 c 0.74419,-19.88051 1.81318,-23.54135 8.52788,-29.19141 5.31213,-4.46985 16.30715,-6.65163 23.89163,-4.74184 9.78681,2.46435 12.976752,4.79355 16.279789,11.88779 2.754514,5.91609 3.069386,8.30731 3.080552,23.42573 l 0.01284,16.83771 h 6.262229 6.26223 l 0.408687,-18.85797 c 0.398596,-18.36765 0.503526,-18.99338 4.039686,-24.09059 8.662983,-12.48726 32.817223,-13.19721 41.94299,-1.2327 4.222303,5.5357 5.892485,14.32388 5.892485,31.01185 v 13.16941 h 5.718423 5.717577 v -16.59233 c 0,-20.30678 -1.360076,-26.1844 -7.738682,-33.43088 -6.789124,-7.71284 -16.734412,-11.79356 -28.588698,-11.88943 z m 129.974761,0.0447 c -2.79985,-0.0301 -5.72703,0.13925 -8.77077,0.51397 -9.45628,1.1643 -14.26988,3.23169 -20.438019,8.7774 -8.112018,7.29339 -10.903766,17.26675 -10.903766,38.95446 0,7.28726 0.171374,13.41779 0.380506,13.62369 0.209119,0.20591 2.981628,0.45575 6.161075,0.55543 l 5.780591,0.18155 0.466724,-17.91873 c 0.453931,-17.43992 0.534231,-18.05303 3.005937,-22.93826 2.824632,-5.58282 7.093992,-9.41102 12.510362,-11.21963 4.47496,-1.49423 15.86539,-1.57788 20.71407,-0.15174 4.9143,1.44549 10.57249,6.47069 13.127149,11.65814 1.95053,3.96075 2.12204,5.55078 2.40324,22.23696 l 0.30342,17.97095 5.08836,-0.0829 c 2.79866,-0.0454 5.59391,-0.14647 6.21167,-0.22466 1.41298,-0.1789 1.58418,-27.12 0.21803,-34.3237 -3.30662,-17.43569 -16.659589,-27.40223 -36.258579,-27.61297 z m -73.358562,22.2585 v 19.61816 c 0,10.79016 0.2121,19.83111 0.471691,20.09069 0.581417,0.58141 8.225188,0.70593 10.985006,0.17906 l 2.021094,-0.38547 V 144.7465 124.99569 H 11.4388 Z m 130.271541,0 0.23459,20.21171 0.23379,20.21173 6.51425,0.007 6.51505,0.006 v -20.21752 -20.21753 h -6.74884 z"
               style="fill:url(#linearGradient2243);fill-opacity:1;stroke:#47a4ff;stroke-width:1.27075124;stroke-opacity:0.01507538" />
          </g>
        </g>
      </g>
    </g>
  </g>
</svg>
