<?xml version="1.0" encoding="UTF-8" standalone="no"?>
<!-- Created with Inkscape (http://www.inkscape.org/) -->

<svg
   xmlns:dc="http://purl.org/dc/elements/1.1/"
   xmlns:cc="http://creativecommons.org/ns#"
   xmlns:rdf="http://www.w3.org/1999/02/22-rdf-syntax-ns#"
   xmlns:svg="http://www.w3.org/2000/svg"
   xmlns="http://www.w3.org/2000/svg"
   xmlns:sodipodi="http://sodipodi.sourceforge.net/DTD/sodipodi-0.dtd"
   xmlns:inkscape="http://www.inkscape.org/namespaces/inkscape"
   width="158.80438mm"
   height="48.818539mm"
   viewBox="0 0 158.80438 48.818539"
   version="1.1"
   id="svg8"
   inkscape:version="0.92.4 (5da689c313, 2019-01-14)"
   sodipodi:docname="logo1.svg">
  <defs
     id="defs2">
    <meshgradient
       inkscape:collect="always"
       id="meshgradient1431"
       gradientUnits="userSpaceOnUse"
       x="-17.181049"
       y="106.45971">
      <meshrow
         id="meshrow1433">
        <meshpatch
           id="meshpatch1435">
          <stop
             path="c 13.7424,-13.7424  36.0232,-13.7424  49.7656,0"
             style="stop-color:#ffffff;stop-opacity:1"
             id="stop1437" />
          <stop
             path="c 13.7424,13.7424  13.7424,36.0232  0,49.7656"
             style="stop-color:#fb0400;stop-opacity:1"
             id="stop1439" />
          <stop
             path="c -13.7424,13.7424  -36.0232,13.7424  -49.7656,0"
             style="stop-color:#ffffff;stop-opacity:1"
             id="stop1441" />
          <stop
             path="c -13.7424,-13.7424  -13.7424,-36.0232  -7.10543e-15,-49.7656"
             style="stop-color:#fb0400;stop-opacity:1"
             id="stop1443" />
        </meshpatch>
      </meshrow>
    </meshgradient>
  </defs>
  <sodipodi:namedview
     id="base"
     pagecolor="#ffffff"
     bordercolor="#666666"
     borderopacity="1.0"
     inkscape:pageopacity="0.0"
     inkscape:pageshadow="2"
     inkscape:zoom="0.94472656"
     inkscape:cx="192.40853"
     inkscape:cy="162.12233"
     inkscape:document-units="mm"
     inkscape:current-layer="layer1"
     showgrid="false"
     inkscape:window-width="1600"
     inkscape:window-height="838"
     inkscape:window-x="-8"
     inkscape:window-y="-8"
     inkscape:window-maximized="1" />
  <metadata
     id="metadata5">
    <rdf:RDF>
      <cc:Work
         rdf:about="">
        <dc:format>image/svg+xml</dc:format>
        <dc:type
           rdf:resource="http://purl.org/dc/dcmitype/StillImage" />
        <dc:title></dc:title>
      </cc:Work>
    </rdf:RDF>
  </metadata>
  <g
     inkscape:label="Camada 1"
     inkscape:groupmode="layer"
     id="layer1"
     transform="translate(-82.915174,-118.05673)">
    <g
       id="g3202"
       transform="matrix(0.58879791,0,0,0.68389242,99.395588,52.642054)">
      <path
         style="opacity:1;vector-effect:none;fill:#fb0400;fill-opacity:1;fill-rule:evenodd;stroke:#fa0000;stroke-width:1;stroke-linecap:butt;stroke-linejoin:miter;stroke-miterlimit:4;stroke-dasharray:none;stroke-dashoffset:0;stroke-opacity:1"
         d="M 10.601284,166.41242 A 35.189583,35.189583 0 0 1 -27.344858,134.51148 35.189583,35.189583 0 0 1 4.2635028,96.321287 35.189583,35.189583 0 0 1 42.695496,127.63521 35.189583,35.189583 0 0 1 11.677871,166.30673"
         id="path815" />
      <path
         style="opacity:0.12000002;vector-effect:none;fill:url(#meshgradient1431);fill-opacity:1;fill-rule:evenodd;stroke:#f50000;stroke-width:1;stroke-linecap:butt;stroke-linejoin:miter;stroke-miterlimit:4;stroke-dasharray:none;stroke-dashoffset:0;stroke-opacity:1"
         d="M 10.601284,166.41242 A 35.189583,35.189583 0 0 1 -27.344858,134.51148 35.189583,35.189583 0 0 1 4.2635028,96.321287 35.189583,35.189583 0 0 1 42.695496,127.63521 35.189583,35.189583 0 0 1 11.677871,166.30673"
         id="path1370" />
      <path
         inkscape:connector-curvature="0"
         id="path1412"
         d="m -11.650836,145.21774 0.02929,-3.38004 0.50493,-0.0579 c 1.1550572,-0.13217 2.4497942,-0.39181 3.0048542,-0.60265 0.325844,-0.124 0.610045,-0.22516 0.631596,-0.22516 0.05877,0 1.198824,-0.5789 1.5603388,-0.7923 1.4393123,-0.84961 3.2783506,-2.51521 4.5795936,-4.1477 0.5714955,-0.71697 2.1175243,-2.94177 2.1175243,-3.04718 0,-0.023 0.1719838,-0.34405 0.3821948,-0.71169 0.7680223,-1.34321 1.0561484,-1.89448 1.348034,-2.57922 0.1639107,-0.38447 0.3718267,-0.83123 0.4620448,-0.99276 0.090226,-0.1614 0.1640692,-0.32216 0.1640692,-0.35694 0,-0.0348 0.1227549,-0.32213 0.2727758,-0.63837 0.1500207,-0.31622 0.4544272,-0.97358 0.676423,-1.4606 1.7376446,-3.81194 3.8790987,-6.8501 6.5647395,-9.3137 1.498332,-1.37448 3.567209,-2.78575 5.020822,-3.42499 0.136486,-0.06 0.388961,-0.17356 0.561036,-0.25212 1.974741,-0.90251 4.696975,-1.48576 7.466616,-1.5997 l 1.654491,-0.0682 v 3.39915 3.39914 l -1.165165,0.1058 c -2.469667,0.22418 -4.452204,1.06294 -6.478628,2.7415 -0.78881,0.6534 -1.768807,1.61561 -2.257913,2.21689 -0.104235,0.12818 -0.33162,0.40077 -0.505254,0.60584 -0.689777,0.81458 -1.589747,2.22086 -1.595628,2.49332 -0.0032,0.15188 0.235578,0.16305 3.474883,0.16305 h 3.478404 v 3.40205 3.40208 H 15.146093 9.9909571 l -1.31486,2.16705 c -1.8704235,3.08272 -1.8691413,3.08076 -2.7659931,4.27276 -2.545038,3.38264 -4.9846302,5.42028 -7.9961769,6.67877 -1.081843,0.4521 -3.3617389,1.12869 -4.3178789,1.28142 -0.215989,0.0345 -0.796666,0.14036 -1.290377,0.23536 -0.493711,0.095 -1.402584,0.21729 -2.019719,0.27218 -0.6171402,0.0549 -1.3120462,0.12133 -1.5442442,0.14721 l -0.422175,0.0474 z"
         style="fill:#ffffff;stroke:none;stroke-width:0.10226662" />
      <g
         aria-label="Flash Games"
         transform="scale(0.68702954,1.4555415)"
         style="font-style:italic;font-variant:normal;font-weight:bold;font-stretch:normal;font-size:52.55659866px;line-height:1.25;font-family:'HP Simplified';-inkscape-font-specification:'HP Simplified, Bold Italic';font-variant-ligatures:normal;font-variant-caps:normal;font-variant-numeric:normal;font-feature-settings:normal;text-align:start;letter-spacing:0px;word-spacing:0px;writing-mode:lr-tb;text-anchor:start;fill:#fb130f;fill-opacity:1;stroke:none;stroke-width:0.52096057"
         id="text3179">
        <path
           d="m 84.479073,80.537059 -1.366471,7.200254 h 8.198829 q 1.629255,0 1.629255,1.366471 0,0.262783 -0.105113,0.946019 -0.105114,0.630679 -0.210227,1.261358 L 91.889554,95.04268 H 81.641017 l -2.7855,14.66329 h -6.622131 q -0.998575,0 -1.419028,-0.3679 -0.367896,-0.42045 -0.367896,-1.15624 0,-0.52557 0.262783,-2.04971 0.315339,-1.52414 0.630679,-3.20595 L 77.12115,73.284248 h 18.552479 q 1.629254,0 1.629254,1.366471 0,0.262783 -0.105113,0.946019 -0.105113,0.630679 -0.210226,1.261359 l -0.683236,3.678962 z"
           style="font-style:italic;font-variant:normal;font-weight:bold;font-stretch:normal;font-size:52.55659866px;font-family:'HP Simplified';-inkscape-font-specification:'HP Simplified, Bold Italic';font-variant-ligatures:normal;font-variant-caps:normal;font-variant-numeric:normal;font-feature-settings:normal;text-align:start;writing-mode:lr-tb;text-anchor:start;fill:#fb130f;fill-opacity:1;stroke-width:0.52096057"
           id="path3206" />
        <path
           d="m 105.52388,100.40345 q -0.10511,0.47301 -0.15767,0.94602 -0.0525,0.42045 -0.0525,0.78835 0,0.73579 0.42045,0.99858 0.42045,0.26278 0.94602,0.26278 h 0.84091 q 0.8409,0 1.15624,0.42045 0.3679,0.42045 0.47301,1.52414 l 0.31534,3.78408 q -0.15767,0.10511 -0.73579,0.26278 -0.57813,0.15767 -1.47159,0.3679 -0.8409,0.21022 -1.94459,0.31534 -1.10369,0.15767 -2.31249,0.15767 -1.26136,0 -2.47016,-0.31534 -1.208804,-0.26279 -2.102266,-0.94602 -0.893463,-0.68324 -1.471585,-1.78693 -0.525566,-1.15624 -0.525566,-2.7855 0,-1.05113 0.15767,-2.31249 0.157669,-1.31391 0.420452,-2.470156 l 5.623555,-27.644771 h 6.35935 q 1.89204,0 1.89204,1.366471 0,0.420453 -0.10512,0.893463 -0.0525,0.420452 -0.15767,1.051132 z"
           style="font-style:italic;font-variant:normal;font-weight:bold;font-stretch:normal;font-size:52.55659866px;font-family:'HP Simplified';-inkscape-font-specification:'HP Simplified, Bold Italic';font-variant-ligatures:normal;font-variant-caps:normal;font-variant-numeric:normal;font-feature-settings:normal;text-align:start;writing-mode:lr-tb;text-anchor:start;fill:#fb130f;fill-opacity:1;stroke-width:0.52096057"
           id="path3208" />
        <path
           d="m 127.27082,106.50002 q -1.5767,1.78692 -3.20595,2.7855 -1.62926,0.99857 -4.20453,0.99857 -3.67896,0 -5.46589,-2.73294 -1.73437,-2.73294 -1.73437,-7.41048 0,-3.626406 0.94602,-6.937471 0.99858,-3.311066 2.94317,-5.833783 1.9446,-2.522716 4.78265,-4.046858 2.83806,-1.524141 6.56958,-1.524141 2.36504,0 4.25708,0.473009 1.89204,0.420453 2.94317,0.893462 1.5767,0.735793 2.20738,1.313915 0.63068,0.578123 0.63068,1.944595 0,0.262783 -0.15767,1.103688 -0.10511,0.788349 -0.26278,1.419028 l -2.20738,9.670414 q -0.31534,1.313915 -0.52557,2.890612 -0.21022,1.52414 -0.36789,3.04828 -0.15767,1.52415 -0.26279,2.89062 -0.0525,1.31391 -0.0525,2.25993 h -4.41476 q -0.99857,0 -1.36647,-0.3679 -0.3679,-0.42045 -0.57812,-1.2088 z m 0.63068,-18.710151 q -1.89204,0 -3.20595,1.261358 -1.26136,1.208802 -2.04971,3.048283 -0.78835,1.786925 -1.15625,3.889189 -0.36789,2.049707 -0.36789,3.731518 0,1.629253 0.47301,2.522713 0.47301,0.89347 1.47158,0.89347 1.31392,0 1.9446,-0.47301 0.68323,-0.47301 1.26135,-1.10369 l 2.94317,-13.559604 q -0.26278,-0.105114 -0.57812,-0.15767 -0.31534,-0.05256 -0.73579,-0.05256 z"
           style="font-style:italic;font-variant:normal;font-weight:bold;font-stretch:normal;font-size:52.55659866px;font-family:'HP Simplified';-inkscape-font-specification:'HP Simplified, Bold Italic';font-variant-ligatures:normal;font-variant-caps:normal;font-variant-numeric:normal;font-feature-settings:normal;text-align:start;writing-mode:lr-tb;text-anchor:start;fill:#fb130f;fill-opacity:1;stroke-width:0.52096057"
           id="path3210" />
        <path
           d="m 149.04239,110.38921 q -1.47159,0 -3.46874,-0.31534 -1.99715,-0.31534 -3.78407,-1.05114 -1.36647,-0.57812 -2.04971,-1.05113 -0.68323,-0.52556 -0.68323,-1.47158 0,-0.63068 0.21022,-1.36647 0.26278,-0.78835 0.52557,-1.52414 l 0.73579,-1.89204 q 0.3679,0.21022 1.15625,0.57812 0.8409,0.31534 1.89203,0.63068 1.10369,0.31534 2.31249,0.57812 1.26136,0.21023 2.47016,0.21023 3.57385,0 3.57385,-2.15482 0,-0.73579 -0.47301,-1.31392 -0.42045,-0.57812 -1.94459,-1.156242 -1.52414,-0.630679 -2.89061,-1.261359 -1.36648,-0.683235 -2.41761,-1.629254 -1.05113,-0.946019 -1.68181,-2.207377 -0.57812,-1.261359 -0.57812,-3.048283 0,-2.259934 0.8409,-3.941745 0.89347,-1.734368 2.41761,-2.890613 1.5767,-1.156245 3.6264,-1.734368 2.10227,-0.630679 4.46731,-0.630679 1.26136,0 2.36505,0.15767 1.10369,0.15767 1.99715,0.420453 0.89346,0.210226 1.47159,0.420453 0.63068,0.210226 0.94601,0.367896 1.36648,0.630679 1.83949,1.156245 0.52556,0.473009 0.52556,1.051132 0,0.367896 -0.21022,0.946019 -0.15767,0.525566 -0.42046,1.313915 l -0.78835,2.207377 q -1.41902,-0.630679 -3.52129,-1.103689 -2.04971,-0.525566 -3.9943,-0.525566 -1.05113,0 -2.04971,0.47301 -0.94602,0.473009 -0.94602,1.629254 0,1.051132 0.84091,1.524142 0.89346,0.420452 2.25993,0.998575 1.47159,0.630679 2.73295,1.313915 1.26135,0.683236 2.15482,1.629255 0.94602,0.946018 1.47158,2.207377 0.52557,1.208801 0.52557,2.890617 0,2.36504 -0.89346,4.20452 -0.89347,1.78693 -2.47016,2.99573 -1.5767,1.15624 -3.67897,1.73437 -2.0497,0.63068 -4.41475,0.63068 z"
           style="font-style:italic;font-variant:normal;font-weight:bold;font-stretch:normal;font-size:52.55659866px;font-family:'HP Simplified';-inkscape-font-specification:'HP Simplified, Bold Italic';font-variant-ligatures:normal;font-variant-caps:normal;font-variant-numeric:normal;font-feature-settings:normal;text-align:start;writing-mode:lr-tb;text-anchor:start;fill:#fb130f;fill-opacity:1;stroke-width:0.52096057"
           id="path3212" />
        <path
           d="m 171.95379,109.70597 h -6.46447 q -1.2088,0 -1.52414,-0.42045 -0.31534,-0.47301 -0.31534,-0.99858 0,-0.21022 0.0526,-0.68323 0.10511,-0.47301 0.15767,-0.94602 0.10511,-0.52557 0.15767,-0.94602 0.10511,-0.47301 0.15767,-0.73579 l 6.51702,-33.005547 h 6.25423 q 1.05113,0 1.52414,0.31534 0.52557,0.262783 0.52557,1.261358 0,0.420453 -0.10511,0.998575 -0.10512,0.525566 -0.21023,0.998576 l -1.68181,8.514169 q 1.2088,-0.998576 2.7855,-1.629255 1.62925,-0.630679 3.52129,-0.630679 2.89061,0 4.73009,1.734368 1.89204,1.734367 1.89204,5.045433 0,1.681811 -0.21022,3.153396 -0.21023,1.419028 -0.47301,2.838056 l -3.04829,15.1363 h -6.20167 q -1.31392,0 -1.68182,-0.42045 -0.31534,-0.47301 -0.31534,-1.05113 0,-0.21023 0.0526,-0.57813 0.0526,-0.42045 0.10511,-0.89346 0.10512,-0.47301 0.15767,-0.94602 0.10512,-0.52556 0.21023,-0.89346 l 2.20738,-11.247112 q 0.10511,-0.578122 0.26278,-1.471585 0.21023,-0.946018 0.21023,-1.629254 0,-0.840906 -0.52557,-1.261359 -0.47301,-0.473009 -1.2088,-0.473009 -1.2088,0 -2.20738,0.578123 -0.94602,0.578122 -1.52414,1.103688 z"
           style="font-style:italic;font-variant:normal;font-weight:bold;font-stretch:normal;font-size:52.55659866px;font-family:'HP Simplified';-inkscape-font-specification:'HP Simplified, Bold Italic';font-variant-ligatures:normal;font-variant-caps:normal;font-variant-numeric:normal;font-feature-settings:normal;text-align:start;writing-mode:lr-tb;text-anchor:start;fill:#fb130f;fill-opacity:1;stroke-width:0.52096057"
           id="path3214" />
        <path
           d="m 224.83065,72.601012 q 0.94602,0 2.20738,0.15767 1.31391,0.15767 2.47016,0.525566 1.2088,0.315339 1.99715,0.840905 0.84091,0.47301 0.84091,1.156246 0,0.578122 -0.21023,1.208801 -0.15767,0.63068 -0.42045,1.366472 l -1.05114,3.048283 q -0.73579,-0.262783 -2.20737,-0.525566 -1.47159,-0.262783 -3.04829,-0.262783 -2.89061,0 -4.99287,1.261358 -2.10227,1.261358 -3.52129,3.521292 -1.36648,2.207377 -2.04971,5.203103 -0.63068,2.995727 -0.63068,6.464462 0,1.208802 0.21023,2.417604 0.21022,1.156245 0.73579,2.102265 0.57812,0.89346 1.5767,1.47158 0.99857,0.57813 2.52271,0.57813 0.57812,0 0.99858,0 0.42045,0 0.73579,-0.10512 l 1.36647,-6.990025 h -1.68181 q -1.5767,0 -1.5767,-1.313915 0,-0.262783 0.0526,-0.788349 0.10511,-0.578122 0.21023,-1.156245 l 0.63067,-3.573849 h 9.03974 q 1.62925,0 1.62925,1.313915 0,0.262783 -0.0525,0.683236 -0.0526,0.420453 -0.15767,0.893462 -0.0526,0.420453 -0.15767,0.788349 -0.0526,0.367896 -0.0526,0.420453 l -3.04828,15.293968 q -1.89204,0.78835 -4.15197,1.26136 -2.20738,0.52557 -5.04544,0.52557 -2.7855,0 -5.15054,-0.84091 -2.31249,-0.8409 -3.9943,-2.4176 -1.68182,-1.62926 -2.68039,-4.04686 -0.94602,-2.4176 -0.94602,-5.571 0,-5.518443 1.41903,-10.090867 1.47158,-4.572424 4.04686,-7.88349 2.62783,-3.311066 6.20168,-5.09799 3.6264,-1.839481 7.93604,-1.839481 z"
           style="font-style:italic;font-variant:normal;font-weight:bold;font-stretch:normal;font-size:52.55659866px;font-family:'HP Simplified';-inkscape-font-specification:'HP Simplified, Bold Italic';font-variant-ligatures:normal;font-variant-caps:normal;font-variant-numeric:normal;font-feature-settings:normal;text-align:start;writing-mode:lr-tb;text-anchor:start;fill:#fb130f;fill-opacity:1;stroke-width:0.52096057"
           id="path3216" />
        <path
           d="m 248.50001,106.50002 q -1.5767,1.78692 -3.20596,2.7855 -1.62925,0.99857 -4.20452,0.99857 -3.67897,0 -5.46589,-2.73294 -1.73437,-2.73294 -1.73437,-7.41048 0,-3.626406 0.94602,-6.937471 0.99858,-3.311066 2.94317,-5.833783 1.94459,-2.522716 4.78265,-4.046858 2.83806,-1.524141 6.56957,-1.524141 2.36505,0 4.25709,0.473009 1.89204,0.420453 2.94317,0.893462 1.5767,0.735793 2.20738,1.313915 0.63068,0.578123 0.63068,1.944595 0,0.262783 -0.15767,1.103688 -0.10512,0.788349 -0.26279,1.419028 l -2.20737,9.670414 q -0.31534,1.313915 -0.52557,2.890612 -0.21023,1.52414 -0.3679,3.04828 -0.15767,1.52415 -0.26278,2.89062 -0.0526,1.31391 -0.0526,2.25993 h -4.41475 q -0.99858,0 -1.36647,-0.3679 -0.3679,-0.42045 -0.57812,-1.2088 z m 0.63067,-18.710151 q -1.89203,0 -3.20595,1.261358 -1.26136,1.208802 -2.0497,3.048283 -0.78835,1.786925 -1.15625,3.889189 -0.3679,2.049707 -0.3679,3.731518 0,1.629253 0.47301,2.522713 0.47301,0.89347 1.47159,0.89347 1.31391,0 1.94459,-0.47301 0.68324,-0.47301 1.26136,-1.10369 l 2.94317,-13.559604 q -0.26278,-0.105114 -0.57812,-0.15767 -0.31534,-0.05256 -0.7358,-0.05256 z"
           style="font-style:italic;font-variant:normal;font-weight:bold;font-stretch:normal;font-size:52.55659866px;font-family:'HP Simplified';-inkscape-font-specification:'HP Simplified, Bold Italic';font-variant-ligatures:normal;font-variant-caps:normal;font-variant-numeric:normal;font-feature-settings:normal;text-align:start;writing-mode:lr-tb;text-anchor:start;fill:#fb130f;fill-opacity:1;stroke-width:0.52096057"
           id="path3218" />
        <path
           d="m 272.5315,85.477379 q 1.2088,-1.419028 3.1534,-2.522717 1.94459,-1.156245 4.46731,-1.156245 2.15482,0 3.67896,0.998575 1.5767,0.946019 2.31249,2.7855 1.52414,-1.681811 3.52129,-2.732943 2.04971,-1.051132 4.51987,-1.051132 2.89061,0 4.67754,1.734368 1.83948,1.734367 1.83948,5.045433 0,1.681811 -0.21023,3.153396 -0.21022,1.419028 -0.47301,2.838056 l -3.04828,15.1363 h -6.20168 q -1.31391,0 -1.68181,-0.42045 -0.31534,-0.47301 -0.31534,-1.05113 0,-0.21023 0.0526,-0.57813 0.0525,-0.42045 0.10511,-0.89346 0.10511,-0.47301 0.15767,-0.94602 0.10511,-0.52556 0.21023,-0.89346 l 2.20737,-11.247112 q 0.10512,-0.578122 0.26279,-1.471585 0.21022,-0.946018 0.21022,-1.629254 0,-0.840906 -0.52556,-1.261359 -0.47301,-0.473009 -1.2088,-0.473009 -1.15625,0 -2.10227,0.630679 -0.94602,0.630679 -1.5767,1.313915 -0.10511,0.998576 -0.26278,1.944594 -0.15767,0.946019 -0.31534,1.839481 l -3.04828,15.1363 h -6.20168 q -1.31391,0 -1.68181,-0.42045 -0.31534,-0.47301 -0.31534,-1.05113 0,-0.21023 0.0526,-0.57813 0.0525,-0.42045 0.10511,-0.89346 0.10511,-0.47301 0.15767,-0.94602 0.10511,-0.52556 0.21023,-0.89346 l 2.20737,-11.247112 q 0.10512,-0.578122 0.26279,-1.471585 0.21022,-0.946018 0.21022,-1.629254 0,-0.840906 -0.52556,-1.261359 -0.47301,-0.473009 -1.20881,-0.473009 -1.26135,0 -2.10226,0.630679 -0.78835,0.578123 -1.36647,1.103689 l -3.83663,19.130601 h -6.41191 q -1.2088,0 -1.52414,-0.42045 -0.31534,-0.47301 -0.31534,-0.99858 0,-0.21022 0.0526,-0.68323 0.10511,-0.47301 0.15767,-0.94602 0.10511,-0.52557 0.15767,-0.94602 0.10511,-0.47301 0.15767,-0.73579 l 4.46731,-22.546784 h 4.8352 q 0.99858,0 1.36648,0.262783 0.36789,0.210226 0.47301,0.893462 z"
           style="font-style:italic;font-variant:normal;font-weight:bold;font-stretch:normal;font-size:52.55659866px;font-family:'HP Simplified';-inkscape-font-specification:'HP Simplified, Bold Italic';font-variant-ligatures:normal;font-variant-caps:normal;font-variant-numeric:normal;font-feature-settings:normal;text-align:start;writing-mode:lr-tb;text-anchor:start;fill:#fb130f;fill-opacity:1;stroke-width:0.52096057"
           id="path3220" />
        <path
           d="m 313.72192,94.622227 q 3.10084,0 4.78265,-1.156245 1.68181,-1.208802 1.68181,-3.048283 0,-1.208802 -0.68323,-1.839481 -0.68324,-0.683236 -1.73437,-0.683236 -1.73437,0 -3.20595,1.786925 -1.47159,1.786924 -1.89204,4.94032 z m 10.61644,13.401933 q -1.89204,0.99857 -4.46732,1.68181 -2.57527,0.68324 -5.51844,0.68324 -2.31249,0 -4.20453,-0.7358 -1.89203,-0.78834 -3.25851,-2.20737 -1.31391,-1.47159 -2.0497,-3.5213 -0.7358,-2.0497 -0.7358,-4.624976 0,-2.838056 0.78835,-5.938895 0.84091,-3.10084 2.62783,-5.676113 1.78693,-2.575273 4.51987,-4.204528 2.7855,-1.681811 6.72725,-1.681811 4.30964,0 6.62213,2.102264 2.36504,2.102264 2.36504,5.886339 0,1.734368 -0.73579,3.521292 -0.73579,1.734368 -2.4176,3.205952 -1.62926,1.419029 -4.3622,2.312491 -2.68039,0.893462 -6.67469,0.893462 h -1.15624 q 0,2.259933 1.10369,3.100843 1.15624,0.8409 2.83805,0.8409 1.05113,0 2.10227,-0.10511 1.10368,-0.15767 1.83948,-0.3679 0.47301,-0.10511 0.89346,-0.21022 0.42045,-0.15767 0.73579,-0.15767 0.73579,0 0.99858,0.52556 0.31534,0.47301 0.57812,1.41903 z"
           style="font-style:italic;font-variant:normal;font-weight:bold;font-stretch:normal;font-size:52.55659866px;font-family:'HP Simplified';-inkscape-font-specification:'HP Simplified, Bold Italic';font-variant-ligatures:normal;font-variant-caps:normal;font-variant-numeric:normal;font-feature-settings:normal;text-align:start;writing-mode:lr-tb;text-anchor:start;fill:#fb130f;fill-opacity:1;stroke-width:0.52096057"
           id="path3222" />
        <path
           d="m 338.43092,110.38921 q -1.47159,0 -3.46874,-0.31534 -1.99715,-0.31534 -3.78407,-1.05114 -1.36648,-0.57812 -2.04971,-1.05113 -0.68324,-0.52556 -0.68324,-1.47158 0,-0.63068 0.21023,-1.36647 0.26278,-0.78835 0.52556,-1.52414 l 0.7358,-1.89204 q 0.36789,0.21022 1.15624,0.57812 0.84091,0.31534 1.89204,0.63068 1.10369,0.31534 2.31249,0.57812 1.26136,0.21023 2.47016,0.21023 3.57385,0 3.57385,-2.15482 0,-0.73579 -0.47301,-1.31392 -0.42045,-0.57812 -1.94459,-1.156242 -1.52415,-0.630679 -2.89062,-1.261359 -1.36647,-0.683235 -2.4176,-1.629254 -1.05113,-0.946019 -1.68181,-2.207377 -0.57812,-1.261359 -0.57812,-3.048283 0,-2.259934 0.8409,-3.941745 0.89346,-1.734368 2.4176,-2.890613 1.5767,-1.156245 3.62641,-1.734368 2.10226,-0.630679 4.46731,-0.630679 1.26136,0 2.36505,0.15767 1.10369,0.15767 1.99715,0.420453 0.89346,0.210226 1.47158,0.420453 0.63068,0.210226 0.94602,0.367896 1.36647,0.630679 1.83948,1.156245 0.52557,0.473009 0.52557,1.051132 0,0.367896 -0.21023,0.946019 -0.15767,0.525566 -0.42045,1.313915 l -0.78835,2.207377 q -1.41903,-0.630679 -3.52129,-1.103689 -2.04971,-0.525566 -3.9943,-0.525566 -1.05113,0 -2.04971,0.47301 -0.94602,0.473009 -0.94602,1.629254 0,1.051132 0.84091,1.524142 0.89346,0.420452 2.25993,0.998575 1.47158,0.630679 2.73294,1.313915 1.26136,0.683236 2.15482,1.629255 0.94602,0.946018 1.47159,2.207377 0.52556,1.208801 0.52556,2.890617 0,2.36504 -0.89346,4.20452 -0.89346,1.78693 -2.47016,2.99573 -1.5767,1.15624 -3.67896,1.73437 -2.04971,0.63068 -4.41475,0.63068 z"
           style="font-style:italic;font-variant:normal;font-weight:bold;font-stretch:normal;font-size:52.55659866px;font-family:'HP Simplified';-inkscape-font-specification:'HP Simplified, Bold Italic';font-variant-ligatures:normal;font-variant-caps:normal;font-variant-numeric:normal;font-feature-settings:normal;text-align:start;writing-mode:lr-tb;text-anchor:start;fill:#fb130f;fill-opacity:1;stroke-width:0.52096057"
           id="path3224" />
      </g>
    </g>
  </g>
</svg>
