<?xml version="1.0" encoding="UTF-8" standalone="no"?>
<!-- Created with Inkscape (http://www.inkscape.org/) -->

<svg
   xmlns:dc="http://purl.org/dc/elements/1.1/"
   xmlns:cc="http://creativecommons.org/ns#"
   xmlns:rdf="http://www.w3.org/1999/02/22-rdf-syntax-ns#"
   xmlns:svg="http://www.w3.org/2000/svg"
   xmlns="http://www.w3.org/2000/svg"
   xmlns:xlink="http://www.w3.org/1999/xlink"
   xmlns:sodipodi="http://sodipodi.sourceforge.net/DTD/sodipodi-0.dtd"
   xmlns:inkscape="http://www.inkscape.org/namespaces/inkscape"
   version="1.1"
   width="602"
   height="199.67055"
   id="svg3639"
   sodipodi:docname="logo_1.svg"
   inkscape:version="0.92.4 (5da689c313, 2019-01-14)">
  <sodipodi:namedview
     pagecolor="#ffffff"
     bordercolor="#666666"
     borderopacity="1"
     objecttolerance="10"
     gridtolerance="10"
     guidetolerance="10"
     inkscape:pageopacity="0"
     inkscape:pageshadow="2"
     inkscape:window-width="1600"
     inkscape:window-height="837"
     id="namedview84"
     showgrid="false"
     inkscape:zoom="1.678714"
     inkscape:cx="393.36301"
     inkscape:cy="96.647677"
     inkscape:window-x="-8"
     inkscape:window-y="-8"
     inkscape:window-maximized="1"
     inkscape:current-layer="g116" />
  <defs
     id="defs3641">
    <radialGradient
       cx="91.075203"
       cy="103.0259"
       r="65.542702"
       id="radialGradient3335"
       xlink:href="#SVGID_6_-4"
       gradientUnits="userSpaceOnUse"
       gradientTransform="matrix(0.33877,0,0,0.33877,140.87412,497.12976)" />
    <radialGradient
       cx="91.075203"
       cy="103.0259"
       r="65.542702"
       id="SVGID_6_-4"
       gradientUnits="userSpaceOnUse">
      <stop
         id="stop7763-1"
         style="stop-color:#dae2e9;stop-opacity:1"
         offset="0" />
      <stop
         id="stop7765-1"
         style="stop-color:#b2cdeb;stop-opacity:1"
         offset="0.0581" />
      <stop
         id="stop7767-3"
         style="stop-color:#84b5ed;stop-opacity:1"
         offset="0.13510001" />
      <stop
         id="stop7769-8"
         style="stop-color:#5ea1ef;stop-opacity:1"
         offset="0.2123" />
      <stop
         id="stop7771-7"
         style="stop-color:#4092f0;stop-opacity:1"
         offset="0.28850001" />
      <stop
         id="stop7773-4"
         style="stop-color:#2b87f1;stop-opacity:1"
         offset="0.36340001" />
      <stop
         id="stop7775-2"
         style="stop-color:#1e80f2;stop-opacity:1"
         offset="0.43650001" />
      <stop
         id="stop7777-7"
         style="stop-color:#1a7ef2;stop-opacity:1"
         offset="0.50550002" />
      <stop
         id="stop7779-7"
         style="stop-color:#1b7aea;stop-opacity:1"
         offset="0.5855" />
      <stop
         id="stop7781-9"
         style="stop-color:#1d6dd4;stop-opacity:1"
         offset="0.7098" />
      <stop
         id="stop7783-3"
         style="stop-color:#2159b0;stop-opacity:1"
         offset="0.86189997" />
      <stop
         id="stop7785-1"
         style="stop-color:#25448a;stop-opacity:1"
         offset="1" />
    </radialGradient>
    <radialGradient
       cx="-4586.6943"
       cy="-432.00101"
       r="68.887299"
       id="radialGradient3338"
       xlink:href="#SVGID_5_-9"
       gradientUnits="userSpaceOnUse"
       gradientTransform="matrix(-0.33877,0,0,-0.33877,-1376.9341,383.8837)" />
    <radialGradient
       cx="-4586.6943"
       cy="-432.00101"
       r="68.887299"
       id="SVGID_5_-9"
       gradientUnits="userSpaceOnUse"
       gradientTransform="rotate(180,-2240.175,-167.143)">
      <stop
         id="stop7748-5"
         style="stop-color:#d7de73;stop-opacity:1"
         offset="0" />
      <stop
         id="stop7750-4"
         style="stop-color:#bccb4e;stop-opacity:1"
         offset="0.18430001" />
      <stop
         id="stop7752-3"
         style="stop-color:#a1b829;stop-opacity:1"
         offset="0.39399999" />
      <stop
         id="stop7754-1"
         style="stop-color:#97b11b;stop-opacity:1"
         offset="0.50550002" />
      <stop
         id="stop7756-2"
         style="stop-color:#6d9620;stop-opacity:1"
         offset="0.68529999" />
      <stop
         id="stop7758-3"
         style="stop-color:#1b632b;stop-opacity:1"
         offset="1" />
    </radialGradient>
    <radialGradient
       cx="-4580.6606"
       cy="-438.4917"
       r="58.6884"
       id="radialGradient3341"
       xlink:href="#SVGID_4_-2"
       gradientUnits="userSpaceOnUse"
       gradientTransform="matrix(-0.33877,0,0,-0.33877,-1376.9341,383.8837)" />
    <radialGradient
       cx="-4580.6606"
       cy="-438.4917"
       r="58.6884"
       id="SVGID_4_-2"
       gradientUnits="userSpaceOnUse"
       gradientTransform="rotate(180,-2240.175,-167.143)">
      <stop
         id="stop7723-2"
         style="stop-color:#eee396;stop-opacity:1"
         offset="0" />
      <stop
         id="stop7725-1"
         style="stop-color:#efdf85;stop-opacity:1"
         offset="0.039" />
      <stop
         id="stop7727-6"
         style="stop-color:#f2d75f;stop-opacity:1"
         offset="0.1355" />
      <stop
         id="stop7729-8"
         style="stop-color:#f4d141;stop-opacity:1"
         offset="0.2317" />
      <stop
         id="stop7731-5"
         style="stop-color:#f5cd2c;stop-opacity:1"
         offset="0.32620001" />
      <stop
         id="stop7733-7"
         style="stop-color:#f6ca1f;stop-opacity:1"
         offset="0.41839999" />
      <stop
         id="stop7735-6"
         style="stop-color:#f6c91b;stop-opacity:1"
         offset="0.50550002" />
      <stop
         id="stop7737-1"
         style="stop-color:#f4c118;stop-opacity:1"
         offset="0.60930002" />
      <stop
         id="stop7739-8"
         style="stop-color:#efab10;stop-opacity:1"
         offset="0.77060002" />
      <stop
         id="stop7741-9"
         style="stop-color:#e78703;stop-opacity:1"
         offset="0.96829998" />
      <stop
         id="stop7743-2"
         style="stop-color:#e58101;stop-opacity:1"
         offset="1" />
    </radialGradient>
    <radialGradient
       cx="97.701698"
       cy="95.3936"
       r="58.6884"
       id="radialGradient3344"
       xlink:href="#SVGID_3_-7"
       gradientUnits="userSpaceOnUse"
       gradientTransform="matrix(0.33877,0,0,0.33877,140.87412,497.12976)" />
    <radialGradient
       cx="97.701698"
       cy="95.3936"
       r="58.6884"
       id="SVGID_3_-7"
       gradientUnits="userSpaceOnUse">
      <stop
         id="stop7702-1"
         style="stop-color:#deca00;stop-opacity:1"
         offset="0" />
      <stop
         id="stop7704-1"
         style="stop-color:#e4b900;stop-opacity:1"
         offset="0.0889" />
      <stop
         id="stop7706-5"
         style="stop-color:#eba400;stop-opacity:1"
         offset="0.2323" />
      <stop
         id="stop7708-2"
         style="stop-color:#f09700;stop-opacity:1"
         offset="0.37279999" />
      <stop
         id="stop7710-7"
         style="stop-color:#f19300;stop-opacity:1"
         offset="0.50550002" />
      <stop
         id="stop7712-6"
         style="stop-color:#ec8b04;stop-opacity:1"
         offset="0.58340001" />
      <stop
         id="stop7714-1"
         style="stop-color:#e0750e;stop-opacity:1"
         offset="0.70429999" />
      <stop
         id="stop7716-4"
         style="stop-color:#cc511e;stop-opacity:1"
         offset="0.85250002" />
      <stop
         id="stop7718-2"
         style="stop-color:#b42732;stop-opacity:1"
         offset="1" />
    </radialGradient>
    <filter
       id="gaussianBlur-1"
       style="color-interpolation-filters:sRGB">
      <feGaussianBlur
         id="feGaussianBlur7669-7"
         stdDeviation="4" />
    </filter>
    <filter
       id="filter3707"
       style="color-interpolation-filters:sRGB">
      <feGaussianBlur
         id="feGaussianBlur3709"
         stdDeviation="4" />
    </filter>
    <filter
       id="filter3711"
       style="color-interpolation-filters:sRGB">
      <feGaussianBlur
         id="feGaussianBlur3713"
         stdDeviation="4" />
    </filter>
    <linearGradient
       x1="101.0381"
       y1="7.7827001"
       x2="101.0381"
       y2="194.45261"
       id="linearGradient12475"
       xlink:href="#SVGID_2_-8"
       gradientUnits="userSpaceOnUse" />
    <linearGradient
       x1="101.0381"
       y1="7.7827001"
       x2="101.0381"
       y2="194.45261"
       id="SVGID_2_-8"
       gradientUnits="userSpaceOnUse">
      <stop
         id="stop7685-2"
         style="stop-color:#6b8fba;stop-opacity:1"
         offset="0" />
      <stop
         id="stop7687-4"
         style="stop-color:#092463;stop-opacity:1"
         offset="0.25" />
      <stop
         id="stop7689-5"
         style="stop-color:#145095;stop-opacity:1"
         offset="0.69999999" />
      <stop
         id="stop7691-5"
         style="stop-color:#3aaffa;stop-opacity:1"
         offset="1" />
    </linearGradient>
    <linearGradient
       x1="101.0376"
       y1="6.4141002"
       x2="101.0376"
       y2="197.6463"
       id="linearGradient12473"
       xlink:href="#SVGID_1_-0"
       gradientUnits="userSpaceOnUse" />
    <linearGradient
       x1="101.0376"
       y1="6.4141002"
       x2="101.0376"
       y2="197.6463"
       id="SVGID_1_-0"
       gradientUnits="userSpaceOnUse">
      <stop
         id="stop7678-9"
         style="stop-color:#151f47;stop-opacity:1"
         offset="0" />
      <stop
         id="stop7680-4"
         style="stop-color:#0099ed;stop-opacity:1"
         offset="1" />
    </linearGradient>
    <filter
       id="filter3725"
       style="color-interpolation-filters:sRGB">
      <feGaussianBlur
         id="feGaussianBlur3727"
         stdDeviation="4" />
    </filter>
    <linearGradient
       inkscape:collect="always"
       xlink:href="#SVGID_2_-8"
       id="linearGradient101"
       gradientUnits="userSpaceOnUse"
       x1="101.0381"
       y1="7.7827001"
       x2="101.0381"
       y2="194.45261" />
  </defs>
  <metadata
     id="metadata3644">
    <rdf:RDF>
      <cc:Work
         rdf:about="">
        <dc:format>image/svg+xml</dc:format>
        <dc:type
           rdf:resource="http://purl.org/dc/dcmitype/StillImage" />
        <dc:title></dc:title>
      </cc:Work>
    </rdf:RDF>
  </metadata>
  <g
     transform="matrix(1.4145761,0,0,1.4145761,-136.21015,-666.89743)"
     id="layer1">
    <g
       id="g100">
      <g
         id="g116"
         transform="matrix(0.88674472,0,0,0.88674472,20.394194,60.685813)">
        <g
           id="g118"
           transform="matrix(1.2638866,0,0,1.2638866,-22.585983,-164.244)">
          <path
             inkscape:connector-curvature="0"
             style="fill:#5495d6;fill-opacity:1;fill-rule:nonzero;stroke:none;stroke-width:1.35314286"
             id="path42027"
             d="m 354.27842,544.51821 c 0,1.38719 -0.21376,2.68907 -0.6413,3.9057 -0.42753,1.21092 -1.05995,2.27404 -1.89719,3.17228 -0.83728,0.90395 -1.88384,1.61458 -3.13973,2.1433 -1.26035,0.52303 -2.71663,0.78454 -4.37779,0.78454 -0.45871,0 -0.98423,-0.0456 -1.57656,-0.14218 -0.5923,-0.0966 -1.18907,-0.22171 -1.7992,-0.37521 -0.60568,-0.15918 -1.19354,-0.34112 -1.75914,-0.55145 -0.57005,-0.21035 -1.05548,-0.44345 -1.4652,-0.69359 v -6.95292 c 0.52552,0.48324 1.0822,0.91532 1.67452,1.29053 0.59232,0.38091 1.18908,0.69358 1.79921,0.94374 0.60568,0.25014 1.19801,0.44911 1.7725,0.57987 0.57451,0.13637 1.10001,0.20467 1.57653,0.20467 1.42958,0 2.46725,-0.31268 3.11746,-0.94373 0.65021,-0.62537 0.97532,-1.46677 0.97532,-2.51282 0,-0.54578 -0.0623,-1.02332 -0.18705,-1.43265 -0.1247,-0.40934 -0.36074,-0.80729 -0.71255,-1.19388 -0.35628,-0.38658 -0.85063,-0.79022 -1.49195,-1.21094 -0.6413,-0.42068 -1.47855,-0.90392 -2.51176,-1.4497 -0.92187,-0.50029 -1.75468,-1.029 -2.50287,-1.58615 -0.74819,-0.55714 -1.38059,-1.19956 -1.8972,-1.93294 -0.5166,-0.73906 -0.91741,-1.58614 -1.19354,-2.55261 -0.28057,-0.96079 -0.41862,-2.11487 -0.41862,-3.45657 0,-1.38716 0.21822,-2.67768 0.66357,-3.87156 0.44536,-1.19387 1.0822,-2.23424 1.91946,-3.11545 0.84172,-0.88119 1.85265,-1.56909 3.04619,-2.07508 1.18909,-0.50028 2.52513,-0.75611 4.00371,-0.75611 0.52551,0 1.05548,0.0456 1.5899,0.13072 0.53442,0.0797 1.05102,0.18761 1.54982,0.31269 0.50325,0.1251 0.97085,0.26719 1.40731,0.42638 0.432,0.15349 0.80608,0.31836 1.12228,0.48324 v 6.57769 c -0.39637,-0.33544 -0.82835,-0.64243 -1.29597,-0.91531 -0.46762,-0.2729 -0.9575,-0.50599 -1.4652,-0.70497 -0.50771,-0.19897 -1.02876,-0.35246 -1.55427,-0.45481 -0.52551,-0.10812 -1.04214,-0.15918 -1.54983,-0.15918 -1.13563,0 -2.03079,0.32405 -2.68545,0.97216 -0.65913,0.65379 -0.98869,1.48382 -0.98869,2.49009 0,0.62535 0.0713,1.16545 0.20934,1.61458 0.14249,0.45479 0.38299,0.86412 0.7259,1.22797 0.34737,0.36954 0.80163,0.7277 1.37168,1.0688 0.5656,0.34681 1.2737,0.73908 2.12878,1.18251 0.93522,0.48324 1.7992,1.00627 2.58748,1.57477 0.78827,0.56283 1.46965,1.21663 2.04417,1.96138 0.57894,0.74475 1.02429,1.60889 1.34494,2.58104 0.32066,0.97785 0.48097,2.11486 0.48097,3.41107 m -24.92625,-13.3373 c -0.2004,-0.96079 -0.5166,-1.7965 -0.9486,-2.49577 -0.43645,-0.70495 -0.99312,-1.25641 -1.6656,-1.65436 -0.67248,-0.39797 -1.48745,-0.59694 -2.44052,-0.59694 -0.77046,0 -1.49639,0.1876 -2.17777,0.56283 -0.68138,0.38088 -1.29596,0.9153 -1.83929,1.60887 -0.53887,0.6879 -0.9976,1.51792 -1.36722,2.4844 -0.36964,0.96648 -0.62795,2.03528 -0.77491,3.20641 h 11.50784 c 0,-1.10859 -0.098,-2.14897 -0.29392,-3.11544 m -11.21392,8.59022 c 0.11581,2.91647 0.81943,5.14502 2.10649,6.6857 1.29153,1.54066 3.11747,2.30816 5.48228,2.30816 1.4162,0 2.78789,-0.28426 4.11503,-0.86414 1.3316,-0.5742 2.48059,-1.31327 3.45146,-2.2172 v 6.13425 c -0.32956,0.27289 -0.77045,0.56852 -1.3316,0.8812 -0.55668,0.31268 -1.22026,0.6083 -1.9818,0.88119 -0.76599,0.27289 -1.62108,0.50028 -2.57414,0.67653 -0.95305,0.17624 -1.9729,0.2672 -3.05955,0.2672 -1.87046,0 -3.54944,-0.36386 -5.03691,-1.08586 -1.48747,-0.72202 -2.74781,-1.78513 -3.78103,-3.19504 -1.03768,-1.40423 -1.83483,-3.13818 -2.39152,-5.20189 -0.56115,-2.06938 -0.83728,-4.4287 -0.83728,-7.09503 0,-2.95626 0.3563,-5.51457 1.06886,-7.67491 0.717,-2.16034 1.64779,-3.94549 2.79681,-5.36106 1.15344,-1.41561 2.43604,-2.46736 3.85672,-3.14957 1.42512,-0.68222 2.84579,-1.02332 4.27537,-1.02332 1.84375,0 3.45145,0.38089 4.83204,1.13703 1.3806,0.75043 2.52515,1.80785 3.43811,3.16093 0.91297,1.35306 1.59435,2.979 2.05752,4.87215 0.4587,1.89881 0.69029,3.97958 0.69029,6.24794 v 3.61574 z m -14.4828,13.96835 v -18.18671 c 0,-1.75671 -0.11138,-3.21778 -0.34292,-4.37186 -0.23159,-1.1484 -0.55669,-2.05802 -0.98422,-2.71748 -0.42754,-0.6595 -0.9486,-1.12567 -1.56763,-1.38718 -0.6146,-0.26151 -1.31825,-0.39228 -2.10652,-0.39228 -0.77045,0 -1.48302,0.24447 -2.12878,0.72201 -0.65021,0.48324 -1.21135,1.13703 -1.67896,1.95569 -0.46762,0.81297 -0.8328,1.76239 -1.09556,2.84257 -0.26276,1.08017 -0.39636,2.22856 -0.39636,3.44518 v 18.09006 h -5.69157 v -18.81208 c 0,-1.51225 -0.11581,-2.79139 -0.34293,-3.83746 -0.23159,-1.05174 -0.5656,-1.89882 -0.9976,-2.54693 -0.43645,-0.65379 -0.95751,-1.12565 -1.56764,-1.4156 -0.60567,-0.29562 -1.28705,-0.44344 -2.04415,-0.44344 -0.75264,0 -1.4563,0.21036 -2.10651,0.63106 -0.65021,0.42069 -1.20691,1.01763 -1.67452,1.79081 -0.46761,0.77886 -0.83726,1.71691 -1.10891,2.81414 -0.27168,1.1029 -0.40526,2.34794 -0.40526,3.72944 v 18.09006 h -5.69604 v -32.21191 h 5.69604 v 4.96879 h 0.098 c 0.88625,-1.88745 2.00855,-3.3201 3.36241,-4.29227 1.35386,-0.97782 2.89477,-1.46675 4.61828,-1.46675 0.85507,0 1.66115,0.14785 2.41825,0.44344 0.75264,0.29561 1.43848,0.71063 2.05753,1.25641 0.61458,0.54578 1.15345,1.20524 1.61216,1.9841 0.4587,0.7732 0.8239,1.65439 1.08666,2.64359 1.0154,-2.20583 2.21785,-3.80903 3.60733,-4.8153 1.38949,-1.00627 3.01058,-1.51224 4.86769,-1.51224 2.67656,0 4.72071,1.04038 6.12357,3.11544 1.40284,2.07507 2.10651,5.40087 2.10651,9.97171 v 19.91499 h -5.7183 z m -47.03345,-14.7529 c -0.93526,0.14218 -1.70126,0.36384 -2.28912,0.65948 -0.59232,0.28993 -1.05548,0.65946 -1.39396,1.09722 -0.33401,0.44343 -0.57004,0.94374 -0.70365,1.51225 -0.12914,0.5685 -0.19595,1.2166 -0.19595,1.94999 0,0.64811 0.098,1.25642 0.2984,1.82492 0.19594,0.56851 0.47651,1.04607 0.83724,1.44971 0.36075,0.39796 0.80164,0.71063 1.31825,0.94373 0.5166,0.22741 1.09558,0.34111 1.73686,0.34111 0.88625,0 1.6879,-0.20467 2.40045,-0.60831 0.71702,-0.40932 1.32714,-0.96648 1.83485,-1.67143 0.51215,-0.69926 0.90405,-1.52361 1.18462,-2.46733 0.28057,-0.94374 0.41864,-1.96137 0.41864,-3.05292 v -2.89372 z m 5.39763,14.7529 v -4.44009 h -0.098 c -0.85507,1.69984 -1.90165,2.99606 -3.14417,3.88863 -1.23808,0.89255 -2.68101,1.336 -4.32436,1.336 -1.27815,0 -2.4227,-0.23878 -3.42475,-0.71064 -1.00202,-0.46618 -1.83929,-1.12565 -2.51176,-1.96137 -0.67249,-0.8414 -1.1891,-1.84767 -1.54092,-3.02448 -0.35183,-1.17113 -0.52996,-2.46166 -0.52996,-3.86589 0,-1.38717 0.15586,-2.672 0.4676,-3.87156 0.31176,-1.19387 0.80165,-2.25699 1.46521,-3.18936 0.66803,-0.93236 1.52311,-1.71122 2.56522,-2.33089 1.04212,-0.61969 2.29357,-1.04038 3.75877,-1.27348 l 7.36609,-1.29051 c 0,-2.30248 -0.41418,-3.9796 -1.24253,-5.01428 -0.8328,-1.04037 -2.00854,-1.55772 -3.53608,-1.55772 -1.52755,0 -3.02393,0.32405 -4.48468,0.97214 -1.4652,0.6538 -2.76117,1.52362 -3.89682,2.61516 v -6.41851 c 0.36518,-0.29561 0.87288,-0.6083 1.53201,-0.94372 0.65466,-0.33542 1.39394,-0.64242 2.21783,-0.92667 0.81946,-0.28426 1.68345,-0.52304 2.58304,-0.71064 0.90406,-0.18762 1.78587,-0.28426 2.63648,-0.28426 1.67897,0 3.12636,0.28426 4.35108,0.85277 1.2247,0.56282 2.23566,1.38716 3.03283,2.46734 0.79718,1.08017 1.3895,2.39912 1.78585,3.95115 0.39192,1.55206 0.59232,3.32012 0.59232,5.31561 v 20.41527 h -5.62032 z m -23.85743,-0.22174 c -2.11095,0.67086 -4.31544,1.00628 -6.6179,1.00628 -2.57857,0 -4.94783,-0.51735 -7.10779,-1.55773 -2.15995,-1.04037 -4.0215,-2.52987 -5.58024,-4.47987 -1.56318,-1.94999 -2.77453,-4.32638 -3.63407,-7.12915 -0.86397,-2.79707 -1.29596,-5.96938 -1.29596,-9.51119 0,-2.41619 0.21822,-4.68456 0.65468,-6.81078 0.43643,-2.13193 1.05547,-4.08193 1.8571,-5.84999 0.80609,-1.77377 1.78141,-3.36559 2.9215,-4.76982 1.14454,-1.40423 2.40934,-2.58674 3.80774,-3.55321 1.3984,-0.96647 2.91259,-1.70554 4.54704,-2.21719 1.63443,-0.51166 3.34457,-0.77318 5.13934,-0.77318 1.11338,0 2.18221,0.0739 3.20207,0.22172 1.01984,0.14785 1.95953,0.32973 2.81906,0.55146 0.86399,0.22171 1.62999,0.46049 2.29356,0.72201 0.66357,0.26151 1.20245,0.51734 1.61216,0.77316 v 7.70335 c -0.55668,-0.47755 -1.20689,-0.93236 -1.94618,-1.35305 -0.73928,-0.41502 -1.5409,-0.78455 -2.41379,-1.09725 -0.86844,-0.31835 -1.80367,-0.56281 -2.7968,-0.73904 -0.99314,-0.18194 -2.03081,-0.26722 -3.11746,-0.26722 -1.71015,0 -3.3134,0.3866 -4.8187,1.15977 -1.50082,0.77886 -2.81015,1.89315 -3.92798,3.35422 -1.11783,1.45539 -1.99962,3.23485 -2.64984,5.33265 -0.65021,2.09211 -0.97532,4.4742 -0.97532,7.14051 0,2.8312 0.30729,5.28717 0.91297,7.3736 0.61014,2.08644 1.44294,3.81473 2.50287,5.19053 1.05994,1.37579 2.31138,2.39912 3.75877,3.06996 1.44293,0.67084 3.00611,1.00627 4.68062,1.00627 1.08221,0 2.14214,-0.14784 3.17981,-0.44344 1.03321,-0.29563 1.96399,-0.71064 2.78345,-1.25642 v -10.66528 h -7.31713 v -6.44692 h 13.20463 v 21.44995 c -1.6745,1.23936 -3.56724,2.19445 -5.67822,2.86529" />
          <path
             inkscape:connector-curvature="0"
             style="fill:#231f20;fill-opacity:1;fill-rule:nonzero;stroke:none;stroke-width:1.33835649"
             id="path42047"
             d="m 459.46844,603.84253 c 0,2.60886 -0.76211,4.77917 -2.2907,6.49967 -1.67397,1.86669 -3.95587,2.80003 -6.85007,2.80003 -2.36999,0 -4.43601,-0.64096 -6.18928,-1.92854 v -5.47636 c 1.9471,2.03537 4.11004,3.04742 6.48443,3.04742 3.16733,0 4.7532,-1.47873 4.7532,-4.44742 0,-1.2426 -0.35241,-2.27152 -1.04843,-3.08118 -0.70043,-0.80964 -2.06604,-1.78235 -4.09683,-2.92372 -2.09686,-1.15824 -3.58141,-2.36148 -4.46245,-3.60968 -1.05284,-1.4731 -1.58147,-3.39041 -1.58147,-5.75187 0,-2.65384 0.81936,-4.85789 2.46251,-6.61213 1.63872,-1.75423 3.75321,-2.63135 6.33465,-2.63135 1.98234,0 3.76204,0.50039 5.33908,1.49559 v 5.13341 c -1.64312,-1.51247 -3.52416,-2.27152 -5.65625,-2.27152 -1.33037,0 -2.39643,0.41607 -3.18936,1.24258 -0.79733,0.83213 -1.19821,1.90043 -1.19821,3.20486 0,1.41126 0.3348,2.51328 0.99998,3.30043 0.60351,0.72531 1.85458,1.60806 3.75323,2.64262 2.1321,1.14137 3.66511,2.31648 4.6078,3.51409 1.22026,1.53495 1.82817,3.48598 1.82817,5.85307 m -15.43577,-23.33359 -7.48443,31.85739 h -4.14088 l -5.14525,-22.80508 c -0.1762,-0.83213 -0.30838,-1.80485 -0.38766,-2.92374 h -0.0969 c -0.0485,0.72531 -0.22025,1.67553 -0.51541,2.86188 l -5.58136,22.86694 h -3.9955 l -7.53288,-31.85739 h 4.19375 l 5.14526,23.95207 c 0.15857,0.83214 0.27311,1.78237 0.33918,2.86188 h 0.19383 c 0.0485,-0.88836 0.20265,-1.86669 0.46257,-2.92372 l 5.73112,-23.89023 h 3.65632 l 5.18931,24.01392 c 0.16299,0.77029 0.27753,1.72052 0.34359,2.86189 h 0.19385 c 0.0309,-0.80966 0.16298,-1.75987 0.38765,-2.86189 l 5.0968,-24.01392 h 3.94705 z m -38.8846,15.99052 c 0,-4.08758 -0.72244,-7.19685 -2.16735,-9.33342 -1.39644,-2.05223 -3.35674,-3.08116 -5.87652,-3.08116 -2.48452,0 -4.47566,1.03455 -5.96904,3.10926 -1.57705,2.22091 -2.36557,5.36392 -2.36557,9.42903 0,3.81772 0.75768,6.79768 2.26867,8.94549 1.51099,2.14218 3.53296,3.21609 6.06594,3.21609 2.63431,0 4.63865,-1.08514 6.0219,-3.2667 1.34799,-2.11408 2.02196,-5.12215 2.02196,-9.01859 m 4.09685,-0.18553 c 0,5.07716 -1.12335,9.15351 -3.36558,12.22344 -2.24225,3.06991 -5.2642,4.60486 -9.06588,4.60486 -3.75323,0 -6.72673,-1.53495 -8.9205,-4.60486 -2.14534,-2.9631 -3.2202,-6.87639 -3.2202,-11.72865 0,-5.53821 1.22024,-9.8226 3.66072,-12.84754 2.25546,-2.82253 5.27742,-4.23378 9.06587,-4.23378 3.72238,0 6.62541,1.47311 8.71346,4.41932 2.08806,2.94622 3.13209,7.00009 3.13209,12.16721 m -32.06096,1.64741 v -4.70046 c 0,-2.547 -0.65197,-4.69483 -1.9515,-6.43781 -1.34798,-1.82734 -3.05278,-2.73819 -5.11882,-2.73819 -2.43607,0 -4.35674,1.13575 -5.75317,3.40726 -1.39645,2.27152 -2.09687,5.42015 -2.09687,9.44027 0,3.84022 0.72685,6.81454 2.17175,8.92861 1.33038,1.95104 3.07041,2.92373 5.21574,2.92373 2.27308,0 4.11886,-1.05703 5.53292,-3.17113 1.33037,-2.03535 1.99995,-4.58237 1.99995,-7.65228 m 3.99551,14.40499 h -3.99551 v -5.41452 h -0.0969 c -1.85459,4.12695 -4.71355,6.19042 -8.5813,6.19042 -3.07042,0 -5.54172,-1.38877 -7.40953,-4.16629 -1.9515,-2.8619 -2.92504,-6.78644 -2.92504,-11.76241 0,-5.30768 1.03963,-9.5527 3.11888,-12.72383 2.07924,-3.17111 4.8501,-4.7623 8.31258,-4.7623 3.41401,0 5.90735,1.72611 7.48441,5.16712 h 0.0969 v -19.69579 h 3.99551 z m -25.94216,0 h -3.99989 v -18.17209 c 0,-6.73583 -1.93388,-10.10936 -5.80165,-10.10936 -1.99555,0 -3.65189,0.95583 -4.96023,2.86188 -1.30835,1.90605 -1.9603,4.32375 -1.9603,7.24748 v 18.17209 h -3.99552 v -31.85739 h 3.99552 v 5.2852 h 0.0969 c 1.8678,-4.04262 4.59902,-6.06674 8.18925,-6.06674 2.74884,0 4.84129,1.14138 6.27739,3.42413 1.43609,2.28276 2.15853,5.51572 2.15853,9.70452 z m -25.81879,0 h -3.99551 v -31.85739 h 3.99551 z m 0.6828,-43.27681 c 0,0.93335 -0.25551,1.72051 -0.7665,2.36711 -0.511,0.64097 -1.13213,0.96144 -1.8634,0.96144 -0.71804,0 -1.33036,-0.30924 -1.84137,-0.93334 -0.51099,-0.61847 -0.7665,-1.4225 -0.7665,-2.39521 0,-0.93334 0.25551,-1.71487 0.7665,-2.35021 0.51101,-0.62973 1.12333,-0.94459 1.84137,-0.94459 0.73127,0 1.3524,0.31486 1.8634,0.94459 0.51099,0.63534 0.7665,1.41687 0.7665,2.35021 m -6.63861,-1.33817 -9.87203,44.61498 h -4.80166 l -7.18926,-32.63893 c -0.30836,-1.40565 -0.48897,-2.9125 -0.53743,-4.50929 h -0.0969 c -0.11455,1.53495 -0.33479,3.01932 -0.65637,4.44743 l -7.24212,32.70079 h -4.7532 l -10.21123,-44.61498 h 4.48448 l 7.43596,34.22449 c 0.30835,1.40564 0.51101,2.90124 0.60791,4.47555 h 0.0969 c 0.066,-1.09639 0.30836,-2.59199 0.73125,-4.47555 l 7.75313,-34.22449 h 3.94705 l 7.3831,34.47188 c 0.2599,1.26508 0.45814,2.64261 0.58588,4.13821 h 0.0969 c 0.066,-1.05705 0.28633,-2.47955 0.66076,-4.26191 l 7.14083,-34.34818 h 4.43602 z m -54.61991,17.91909 c -0.69604,-0.68033 -1.71362,-1.0233 -3.04399,-1.0233 -1.62552,0 -2.99114,0.93333 -4.09683,2.80003 -1.25107,2.09159 -1.87662,4.9872 -1.87662,8.67559 v 16.24357 h -3.9955 v -31.85739 h 3.9955 v 6.56152 h 0.0969 c 0.58589,-2.32212 1.48896,-4.11572 2.70478,-5.3808 1.14095,-1.15824 2.41405,-1.74299 3.82811,-1.74299 1.05725,0 1.85458,0.14621 2.38762,0.43856 v 5.28521 z m -20.54581,10.82902 c 0,-4.08758 -0.72244,-7.19685 -2.16735,-9.33342 -1.39644,-2.05223 -3.35675,-3.08116 -5.87652,-3.08116 -2.48453,0 -4.47566,1.03455 -5.96902,3.10926 -1.57707,2.22091 -2.36559,5.36392 -2.36559,9.42903 0,3.81772 0.75329,6.79768 2.26867,8.94549 1.51099,2.14218 3.53296,3.21609 6.06594,3.21609 2.63431,0 4.63866,-1.08514 6.0219,-3.2667 1.34798,-2.11408 2.02197,-5.12215 2.02197,-9.01859 m 4.09683,-0.18553 c 0,5.07716 -1.12332,9.15351 -3.36556,12.22344 -2.24224,3.06991 -5.26421,4.60486 -9.06588,4.60486 -3.75322,0 -6.72673,-1.53495 -8.92051,-4.60486 -2.14531,-2.9631 -3.2202,-6.87639 -3.2202,-11.72865 0,-5.53821 1.22024,-9.8226 3.65632,-12.84754 2.25986,-2.82253 5.28181,-4.23378 9.07028,-4.23378 3.71799,0 6.6254,1.47311 8.71346,4.41932 2.08806,2.94622 3.13209,7.00009 3.13209,12.16721 M 229.13001,569.6799 c -0.77973,-0.55663 -1.66517,-0.83776 -2.65634,-0.83776 -2.79729,0 -4.19375,2.24902 -4.19375,6.74705 v 4.91975 h 5.85011 v 4.32374 h -5.85011 v 27.53365 h -3.9955 v -27.53365 h -4.24218 v -4.32374 h 4.24218 v -5.16714 c 0,-3.50284 0.85019,-6.25228 2.55943,-8.24265 1.4625,-1.72051 3.25543,-2.58075 5.38754,-2.58075 1.23345,0 2.19819,0.18553 2.89862,0.55662 z m 234.24582,12.39773 c 0,-0.23615 -0.0485,-0.41045 -0.15417,-0.51728 -0.11894,-0.11806 -0.31717,-0.17992 -0.59469,-0.17992 h -0.40089 v 1.40564 h 0.48457 c 0.44494,0 0.66518,-0.23615 0.66518,-0.70844 m 0.62555,2.92935 h -0.55066 l -0.35241,-0.98957 c -0.17623,-0.49479 -0.37005,-0.74218 -0.57267,-0.74218 h -0.29956 v 1.73175 h -0.45374 v -4.12133 h 0.91188 c 0.40087,0 0.70484,0.11245 0.91189,0.34297 0.17619,0.20241 0.26431,0.46104 0.26431,0.78153 0,0.28113 -0.0705,0.51728 -0.21586,0.71968 -0.14097,0.1968 -0.34362,0.33175 -0.60351,0.39921 v 0.0226 c 0.18061,0.0507 0.36122,0.3036 0.53742,0.75904 l 0.42291,1.0964 z m 1.00438,-2.0185 c 0,-0.81528 -0.21585,-1.49561 -0.64757,-2.04099 -0.4361,-0.53976 -0.96472,-0.81527 -1.58588,-0.81527 -0.64755,0 -1.18058,0.27551 -1.60787,0.8209 -0.4229,0.551 -0.63876,1.23133 -0.63876,2.03536 0,0.82089 0.22025,1.50684 0.66079,2.05786 0.4317,0.53976 0.96033,0.80964 1.58584,0.80964 0.61675,0 1.14537,-0.26988 1.58149,-0.8209 0.4361,-0.551 0.65196,-1.23133 0.65196,-2.0466 m 0.30396,-0.017 c 0,0.90524 -0.24228,1.6699 -0.73569,2.28838 -0.48896,0.61848 -1.09688,0.92772 -1.81493,0.92772 -0.72686,0 -1.33036,-0.30363 -1.81053,-0.90523 -0.48018,-0.60161 -0.71805,-1.36065 -0.71805,-2.28277 0,-0.90522 0.24229,-1.66989 0.73127,-2.28836 0.48456,-0.62412 1.09248,-0.93336 1.81494,-0.93336 0.71363,0 1.30833,0.29801 1.7929,0.88837 0.49338,0.61285 0.74008,1.37752 0.74008,2.30525" />
          <g
             transform="matrix(1.5490476,0,0,1.5490476,-124.23465,-265.22312)"
             id="g99">
            <path
               transform="matrix(0.33877,0,0,0.33877,140.87412,497.12976)"
               style="opacity:0.8;fill:#666666;filter:url(#gaussianBlur-1)"
               d="m 204,104.001 a 100,100 0 0 1 -100,100 A 100,100 0 0 1 4,104.001 100,100 0 0 1 104,4.0009995 100,100 0 0 1 204,104.001 Z"
               id="circle7671"
               inkscape:connector-curvature="0" />
            <path
               d="m 202.43066,557.65915 c 0,0.0383 -0.002,0.0711 -0.005,0.0982 -0.003,0.0271 -0.008,0.0491 -0.0149,0.0654 -0.007,0.0163 -0.0149,0.0288 -0.0247,0.0366 -0.01,0.008 -0.021,0.0119 -0.0329,0.0119 h -0.64299 v 2.07023 c 0,0.0132 -0.004,0.0251 -0.0129,0.0356 -0.008,0.0105 -0.0227,0.0193 -0.0427,0.0258 -0.02,0.006 -0.0467,0.0119 -0.0803,0.0159 -0.0335,0.004 -0.0759,0.006 -0.12602,0.006 -0.0501,0 -0.0922,-0.002 -0.12602,-0.006 -0.0339,-0.004 -0.0606,-0.009 -0.0803,-0.0159 -0.0197,-0.007 -0.0342,-0.0153 -0.0427,-0.0258 -0.008,-0.0105 -0.0129,-0.0224 -0.0129,-0.0356 v -2.07023 h -0.64299 c -0.0132,0 -0.0244,-0.004 -0.0339,-0.0119 -0.01,-0.008 -0.0173,-0.0203 -0.0237,-0.0366 -0.006,-0.0163 -0.0115,-0.0383 -0.0149,-0.0654 -0.003,-0.0271 -0.005,-0.06 -0.005,-0.0982 0,-0.0396 0.002,-0.0735 0.005,-0.10129 0.003,-0.0278 0.008,-0.0498 0.0149,-0.0664 0.007,-0.0166 0.0146,-0.0285 0.0237,-0.0356 0.009,-0.007 0.0207,-0.0108 0.0339,-0.0108 h 1.81039 c 0.0119,0 0.0227,0.004 0.0329,0.0108 0.0102,0.007 0.0183,0.0193 0.0247,0.0356 0.006,0.0163 0.0115,0.0386 0.0149,0.0664 0.003,0.0278 0.004,0.0617 0.004,0.10129 z"
               id="path7673"
               inkscape:connector-curvature="0" />
            <path
               d="m 205.72757,559.94179 c 0,0.0132 -0.004,0.0251 -0.0108,0.0356 -0.007,0.0105 -0.0207,0.0193 -0.0396,0.0258 -0.019,0.006 -0.0447,0.0119 -0.0766,0.0159 -0.0318,0.004 -0.0722,0.006 -0.12094,0.006 -0.0478,0 -0.0874,-0.002 -0.11925,-0.006 -0.0318,-0.004 -0.0569,-0.009 -0.0756,-0.0159 -0.0186,-0.007 -0.0318,-0.0152 -0.0396,-0.0258 -0.008,-0.0105 -0.0119,-0.0224 -0.0119,-0.0356 v -2.09021 h -0.004 l -0.74428,2.08817 c -0.005,0.0173 -0.0139,0.0315 -0.0258,0.0427 -0.0119,0.0112 -0.0281,0.0203 -0.0488,0.0268 -0.0207,0.006 -0.0468,0.0108 -0.0782,0.0129 -0.0315,0.002 -0.0701,0.003 -0.11518,0.003 -0.0451,0 -0.0833,-0.002 -0.11518,-0.005 -0.0318,-0.003 -0.0579,-0.008 -0.0783,-0.0159 -0.0203,-0.008 -0.0366,-0.0163 -0.0488,-0.0268 -0.0122,-0.0105 -0.02,-0.023 -0.0237,-0.0376 l -0.71849,-2.08811 h -0.004 v 2.09021 c 0,0.0132 -0.004,0.0251 -0.0108,0.0356 -0.007,0.0105 -0.021,0.0193 -0.0406,0.0258 -0.0197,0.006 -0.0454,0.0119 -0.0766,0.0159 -0.0312,0.004 -0.0711,0.006 -0.11993,0.006 -0.0478,0 -0.0874,-0.002 -0.11924,-0.006 -0.0318,-0.004 -0.0573,-0.009 -0.0766,-0.0159 -0.0193,-0.007 -0.0325,-0.0152 -0.0396,-0.0258 -0.007,-0.0105 -0.0108,-0.0224 -0.0108,-0.0356 v -2.28873 c 0,-0.0674 0.0179,-0.11925 0.0535,-0.15482 0.0356,-0.0356 0.0833,-0.0535 0.14297,-0.0535 h 0.34148 c 0.061,0 0.11315,0.005 0.15685,0.0149 0.0437,0.01 0.0813,0.0264 0.11315,0.0495 0.0318,0.023 0.0583,0.0535 0.0793,0.0915 0.021,0.0379 0.0396,0.0843 0.0556,0.13991 l 0.55592,1.53056 h 0.008 l 0.57557,-1.52649 c 0.0173,-0.0556 0.0359,-0.10265 0.0566,-0.14093 0.0207,-0.0383 0.0444,-0.0695 0.0715,-0.0932 0.0271,-0.0237 0.0593,-0.0407 0.0962,-0.0505 0.0369,-0.01 0.0799,-0.0149 0.12907,-0.0149 h 0.3513 c 0.0356,0 0.0664,0.005 0.0922,0.0139 0.0257,0.009 0.0471,0.0227 0.0637,0.0407 0.0166,0.018 0.0291,0.0396 0.0376,0.0654 0.009,0.0257 0.0129,0.0552 0.0129,0.0884 v 2.28839 z"
               id="path7675"
               inkscape:connector-curvature="0" />
            <path
               transform="matrix(0.33877,0,0,0.33877,140.87412,497.12976)"
               style="fill:url(#linearGradient12473)"
               d="m 201.038,101.118 a 100,100 0 0 1 -100,100 100,100 0 0 1 -99.999998,-100 A 100,100 0 0 1 101.038,1.1179962 100,100 0 0 1 201.038,101.118 Z"
               id="circle7682"
               inkscape:connector-curvature="0" />
            <path
               transform="matrix(0.33877,0,0,0.33877,140.87412,497.12976)"
               style="fill:url(#linearGradient101)"
               d="M 194.373,101.117 A 93.334999,93.334999 0 0 1 101.038,194.452 93.334999,93.334999 0 0 1 7.7030029,101.117 93.334999,93.334999 0 0 1 101.038,7.7819977 93.334999,93.334999 0 0 1 194.373,101.117 Z"
               id="circle7693"
               inkscape:connector-curvature="0" />
            <path
               d="m 46.146,97.482 c -3.888,9.072 -12.961,45.365 -12.961,45.365 0,0 19.442,-7.345 34.564,-4.321 7.479,1.603 14.691,8.642 14.691,8.642 0,0 10.369,-37.157 12.529,-45.367 C 88.056,95.753 72.934,85.384 46.146,97.482 Z"
               transform="matrix(0.33877,0,0,0.33877,140.87412,497.12976)"
               id="path7695"
               style="fill:#1a1a1a;filter:url(#gaussianBlur-1)"
               inkscape:connector-curvature="0" />
            <path
               d="m 130.261,61.072 c -7.478,-1.602 -14.689,-8.641 -14.689,-8.641 0,0 -10.37,37.157 -12.53,45.367 6.914,6.049 22.035,16.418 48.823,4.319 3.889,-9.073 12.962,-45.366 12.962,-45.366 0,0 -19.444,7.346 -34.566,4.321 z"
               transform="matrix(0.33877,0,0,0.33877,140.87412,497.12976)"
               id="path7697"
               style="fill:#1a1a1a;filter:url(#gaussianBlur-1)"
               inkscape:connector-curvature="0" />
            <path
               d="m 115,112.846 c -7.479,-1.602 -14.691,-8.64 -14.691,-8.64 0,0 -10.369,37.156 -12.53,45.365 6.914,6.049 22.035,16.418 48.823,4.32 3.889,-9.072 12.962,-45.366 12.962,-45.366 0,0 -19.443,7.345 -34.564,4.321 z"
               transform="matrix(0.33877,0,0,0.33877,140.87412,497.12976)"
               id="path7699"
               style="fill:#1a1a1a;filter:url(#gaussianBlur-1)"
               inkscape:connector-curvature="0" />
            <path
               d="m 168.99575,526.51908 c 2.53333,0.54305 4.97654,2.92731 4.97654,2.92731 0,0 3.5127,-12.58768 4.24478,-15.36864 -2.34225,-2.04922 -7.46513,-5.56193 -16.5401,-1.46349 -1.3168,3.07332 -4.3908,15.36864 -4.3908,15.36864 0,0 6.5867,-2.48826 11.70958,-1.46382 z"
               id="path7720"
               style="fill:url(#radialGradient3344)"
               inkscape:connector-curvature="0" />
            <path
               d="m 179.83267,535.3586 c -2.53366,-0.54271 -4.97687,-2.92697 -4.97687,-2.92697 0,0 -3.51271,12.58734 -4.24479,15.3683 2.34226,2.04922 7.4648,5.56193 16.53977,1.46349 1.31747,-3.07332 4.39113,-15.36864 4.39113,-15.36864 0,0 -6.5867,2.48826 -11.70924,1.46382 z"
               id="path7745"
               style="fill:url(#radialGradient3341)"
               inkscape:connector-curvature="0" />
            <path
               d="m 185.00264,517.81912 c -2.53333,-0.5427 -4.9762,-2.92731 -4.9762,-2.92731 0,0 -3.51304,12.58768 -4.24479,15.36898 2.34226,2.04922 7.4648,5.56193 16.53977,1.46315 1.31748,-3.07332 4.39114,-15.36864 4.39114,-15.36864 0,0 -6.58704,2.4886 -11.70992,1.46382 z"
               id="path7760"
               style="fill:url(#radialGradient3338)"
               inkscape:connector-curvature="0" />
            <path
               d="m 156.507,530.15374 c -1.31714,3.07332 -4.3908,15.3683 -4.3908,15.3683 0,0 6.58637,-2.48826 11.70891,-1.46382 2.53366,0.54304 4.97687,2.92765 4.97687,2.92765 0,0 3.5127,-12.58768 4.24445,-15.36898 -2.34124,-2.04888 -7.46446,-5.56159 -16.53943,-1.46315 z"
               id="path7787"
               style="fill:url(#radialGradient3335)"
               inkscape:connector-curvature="0" />
          </g>
        </g>
      </g>
    </g>
  </g>
</svg>
