<?xml version="1.0" encoding="UTF-8" standalone="no"?>
<!-- Created with Inkscape (http://www.inkscape.org/) -->

<svg
   xmlns:dc="http://purl.org/dc/elements/1.1/"
   xmlns:cc="http://creativecommons.org/ns#"
   xmlns:rdf="http://www.w3.org/1999/02/22-rdf-syntax-ns#"
   xmlns:svg="http://www.w3.org/2000/svg"
   xmlns="http://www.w3.org/2000/svg"
   xmlns:sodipodi="http://sodipodi.sourceforge.net/DTD/sodipodi-0.dtd"
   xmlns:inkscape="http://www.inkscape.org/namespaces/inkscape"
   version="1.1"
   id="svg2"
   width="601.68903"
   height="99.345032"
   viewBox="0 0 601.68903 99.345031"
   sodipodi:docname="snescd_1.svg"
   inkscape:version="0.92.4 (5da689c313, 2019-01-14)">
  <metadata
     id="metadata8">
    <rdf:RDF>
      <cc:Work
         rdf:about="">
        <dc:format>image/svg+xml</dc:format>
        <dc:type
           rdf:resource="http://purl.org/dc/dcmitype/StillImage" />
        <dc:title></dc:title>
      </cc:Work>
    </rdf:RDF>
  </metadata>
  <defs
     id="defs6" />
  <sodipodi:namedview
     pagecolor="#ffffff"
     bordercolor="#666666"
     borderopacity="1"
     objecttolerance="10"
     gridtolerance="10"
     guidetolerance="10"
     inkscape:pageopacity="0"
     inkscape:pageshadow="2"
     inkscape:window-width="1600"
     inkscape:window-height="837"
     id="namedview4"
     showgrid="false"
     inkscape:zoom="1.524"
     inkscape:cx="246.71898"
     inkscape:cy="41.474408"
     inkscape:window-x="-8"
     inkscape:window-y="-8"
     inkscape:window-maximized="1"
     inkscape:current-layer="svg2" />
  <g
     id="g824"
     transform="matrix(0.93680366,0,0,1.0092245,-1.9866632,-139.06637)">
	<g
   id="g821"
   transform="matrix(0.90255219,0,0,0.90255219,2.1206826,141.45768)">
		<path
   d="M 59.308,59.926 C 59.31,68.114 46.035,74.753 29.656,74.753 13.279,74.755 0.001,68.117 0,59.928 0,59.927 0,59.927 0,59.926 -0.001,51.737 13.274,45.098 29.652,45.097 c 16.377,0 29.655,6.639 29.656,14.826 0,0.002 0,0.002 0,0.003 z"
   id="path2842"
   inkscape:connector-curvature="0"
   style="fill:#01954b" />

		<path
   d="m 110.379,83.357 c 0.002,8.188 -13.273,14.828 -29.651,14.828 -16.377,0 -29.655,-6.637 -29.657,-14.825 0,-0.002 0,-0.002 0,-0.003 -0.002,-8.188 13.273,-14.828 29.651,-14.829 16.379,0 29.655,6.637 29.657,14.826 0,0.002 0,0.002 0,0.003 z"
   id="path3624"
   inkscape:connector-curvature="0"
   style="fill:#f9ec2b" />

		<path
   d="m 60.398,0.252 c -14.947,0 -27.095,11.946 -27.449,26.822 0.621,-0.043 1.239,-0.069 1.871,-0.069 15.169,0 27.466,12.309 27.466,27.492 0,0.227 -0.011,0.446 -0.017,0.671 14.3,-0.96 25.595,-12.867 25.595,-27.424 0,-15.183 -12.297,-27.492 -27.466,-27.492 z"
   id="path3644"
   inkscape:connector-curvature="0"
   style="fill:#323b98" />

		<path
   d="m 112.393,24.334 c -15.165,0 -27.458,12.301 -27.458,27.474 0,0.338 0.005,0.68 0.017,1.013 0.367,-0.014 0.728,-0.032 1.098,-0.032 14.824,0 26.905,11.759 27.441,26.46 14.659,-0.572 26.359,-12.631 26.359,-27.44 0.001,-15.174 -12.292,-27.475 -27.457,-27.475 z"
   id="path3897"
   inkscape:connector-curvature="0"
   style="fill:#eb2d2f" />

	</g>

	<path
   d="m 160.87561,137.79528 c -3.7846,0 -7.46446,3.09 -8.14021,6.918 v 0.069 0.068 0.069 l -0.0685,0.068 v 0.138 0.068 l -0.0695,0.137 v 0.138 l -0.0695,0.137 v 0.206 l -0.0685,0.137 v 0.206 l -0.0695,0.205 -0.0695,0.206 -0.0685,0.41 -0.13797,0.479 -0.0675,0.479 -0.13898,0.479 -0.0695,0.547 -0.13897,0.548 -0.13697,0.616 -0.13897,0.548 -0.20645,1.165 -0.13898,0.617 -0.13797,0.547 -0.0675,0.548 -0.13898,0.547 -0.13696,0.548 -0.0695,0.548 -0.0695,0.479 -0.13898,0.411 -0.0695,0.479 v 0.206 l -0.0675,0.137 v 0.206 0.137 l -0.0685,0.206 v 0.137 0.137 l -0.0695,0.137 v 0.069 0.068 c -0.0705,1.675 0.16415,3.96 0.68985,4.385 0.66971,3.688 13.04972,20.758 12.69321,23.358 -0.33435,2.606 -1.79361,10.276 -1.79361,10.276 -0.44915,2.585 -2.22564,4.657 -4.82793,4.657 -2.6043,0 -4.38179,-2.065 -3.93264,-4.657 l 2.34549,-12.741 h -9.24397 l -3.10482,17.674 c -0.63245,3.588 1.81375,6.438 5.4493,6.438 h 13.17761 c 3.64965,0 7.12609,-2.85 7.79378,-6.438 0,0 3.39586,-16.508 3.37975,-17.674 -0.0131,-1.174 -0.34341,-1.302 -0.34341,-1.302 0,-1.342 -11.01643,-19.4 -12.14133,-20.072 -0.48441,-0.281 -0.88321,-2.069 -0.89832,-3.15 -0.0212,-1.074 1.44919,-8.289 1.44919,-8.289 0.44714,-2.585 2.91448,-4.658 5.51878,-4.658 2.6033,0 3.68994,2.073 3.24179,4.658 l -2.00006,11.439 h 9.31245 l 3.24305,-17.194 c 0.73416,-3.825 -1.73318,-6.915 -5.51778,-6.915 z m 25.38542,0 -11.03657,63.16 c -0.63245,3.588 1.81475,6.438 5.4503,6.438 h 13.17661 c 3.64965,0 7.18852,-2.85 7.86427,-6.438 l 11.7949,-63.16 h -8.27717 l -11.24604,61.377 c -0.16416,0.892 -1.03528,1.645 -1.93057,1.645 h -6.55507 c -0.91745,0 -1.52975,-0.747 -1.38071,-1.645 l 10.97111,-61.377 z m 31.73403,0 -13.31458,69.597 h 8.83006 l 6.07167,-31.51 h 11.24504 c 3.6577,0 7.12407,-2.871 7.79377,-6.438 l 4.82894,-24.73 c 0.72913,-3.836 -1.73217,-6.919 -5.51576,-6.919 h -11.10807 z m 31.52758,0 -13.79596,69.597 h 19.86663 l 1.37969,-8.631 h -9.79584 l 4.00212,-23.496 h 9.79484 l 1.3797,-7.261 h -9.79383 l 4.34554,-21.578 h 9.79685 l 1.37769,-8.631 z m 23.73079,0 -13.24409,69.597 h 8.83006 l 6.00219,-31.51 h 6.27913 c 0.82379,0.763 0.92148,2.171 1.03125,2.877 0.16516,1.025 0.33636,2.333 0.20947,3.357 -0.11481,1.017 -4.83095,25.276 -4.83095,25.276 h 8.83106 c 0,0 4.96792,-26.428 4.96792,-26.852 0.0141,-0.431 0,-1.785 -0.48138,-2.534 -0.32428,-0.48 -0.87918,-1.583 -1.51969,-1.986 -1.23165,-0.785 -2.62142,-1.303 -2.62142,-1.303 h -0.62439 c 2.52978,-0.989 7.29125,-2.618 7.79881,-5.274 l 4.82794,-24.73 c 0.73315,-3.835 -1.73319,-6.918 -5.51778,-6.918 z m 47.25612,0 -13.31558,69.597 h 10.14228 l 8.20768,-40.346 3.2438,40.346 h 8.83107 l 13.31357,-69.597 H 340.7921 l -6.89949,36.375 -4.553,-36.375 z m 35.0443,0 -13.31357,69.597 h 8.83107 l 13.31155,-69.597 z m 13.45053,0 -13.31256,69.597 h 10.21076 l 8.2087,-40.346 3.24279,40.346 h 8.83106 l 13.31458,-69.597 h -10.21076 l -6.829,36.375 -4.554,-36.375 z m 34.21951,0 -1.65765,8.632 h 5.51979 l -10.90061,60.965 h 10.0738 l 11.10605,-60.965 h 5.31133 l 1.38071,-8.632 z m 24.28165,0 -13.79495,69.597 h 19.86562 l 1.3807,-8.631 h -9.79484 l 4.07061,-23.496 h 9.79383 l 1.38071,-7.261 h -9.79484 l 4.27504,-21.578 h 9.79686 l 1.37969,-8.631 z m 22.42159,0 -13.31357,69.597 h 10.20874 l 8.21071,-40.346 3.24178,40.346 h 8.83006 l 13.3166,-69.597 h -10.21077 l -6.83,36.375 -4.55501,-36.375 z m 35.1158,0 -13.3166,69.597 h 20.14459 c 3.65871,0 7.18751,-2.85 7.86527,-6.438 l 10.69114,-56.241 c 0.72611,-3.835 -1.73217,-6.918 -5.51677,-6.918 z m 37.87217,0 c -3.78661,0 -7.39598,3.09 -8.07173,6.918 l -9.86735,56.241 c -0.63949,3.588 1.75232,6.438 5.38485,6.438 h 14.55429 c 3.64965,0 7.18852,-2.85 7.86729,-6.438 l 10.69013,-56.241 c 0.73316,-3.828 -1.74124,-6.918 -5.51778,-6.918 z m -30.35333,8.015 h 4.07061 c 2.6033,0 4.37978,2.073 3.93063,4.658 l -8.69209,45.554 c -0.4542,2.585 -2.98297,4.727 -5.58727,4.727 h -4.00112 z m 35.52669,0 h 0.27695 c 2.60329,0 4.3113,2.073 3.86113,4.658 l -8.27516,45.554 c -0.45117,2.577 -2.84902,4.727 -5.4503,4.727 -2.60531,0 -3.69195,-2.142 -3.24581,-4.727 l 8.2107,-45.554 0.0675,-0.206 0.0705,-0.206 0.0675,-0.274 0.0685,-0.206 0.0705,-0.274 0.0675,-0.206 0.0705,-0.206 0.13495,-0.205 0.0695,-0.206 0.13898,-0.206 0.0685,-0.205 0.13897,-0.206 0.13898,-0.137 0.13596,-0.205 0.13897,-0.206 0.20645,-0.137 0.13898,-0.138 0.13797,-0.137 0.20645,-0.137 0.20746,-0.137 0.13898,-0.137 0.20544,-0.138 0.20746,-0.068 0.20846,-0.137 0.13797,-0.069 0.27494,-0.069 0.20645,-0.068 h 0.20544 l 0.20746,-0.069 h 0.27694 z m -301.60877,0.274 h 4.27807 c 0.9396,0 2.9316,2.136 2.7604,3.083 l -3.65771,17.194 c -0.17019,0.89 -1.3797,2.945 -2.27398,2.945 h -5.17638 -0.0685 -0.0685 l -0.0695,-0.068 h -0.0675 -0.0695 -0.0695 -0.0695 v -0.069 h -0.0695 -0.0685 l -0.0705,-0.068 h -0.0685 l -0.0685,-0.069 -0.0685,-0.068 h -0.0685 v -0.069 l -0.0695,-0.068 -0.0695,-0.069 v -0.069 l -0.0685,-0.068 -0.0705,-0.069 v -0.068 -0.069 l -0.0685,-0.068 v -0.069 -0.068 l -0.0705,-0.069 v -0.068 c 0,-0.114 -0.0121,-0.285 0,-0.412 l 4.1401,-21.03 c 0.37966,-0.309 0.84292,-0.547 1.31121,-0.547 z m 54.98142,0 h 0.0705 0.0685 0.0695 0.0685 4.00213 c 0.9396,0 2.94368,2.136 2.75738,3.083 l -3.65771,17.125 c -0.16013,0.897 -2.40591,3.014 -3.30926,3.014 h -3.79467 c -0.7825,0 -1.3233,-0.511 -1.37869,-1.231 0,-0.114 -0.0161,-0.278 0,-0.412 l 4.07061,-21.03 0.0675,-0.069 0.0705,-0.068 0.13495,-0.069 h 0.0685 l 0.0695,-0.069 0.0685,-0.068 h 0.0695 l 0.0685,-0.069 h 0.0705 l 0.13697,-0.068 h 0.0675 0.0685 0.0675 v -0.069 z m -140.1782,67.337 v 22.811 h 393.77251 v -22.811 z m 289.46844,2.397 h 0.0665 0.0675 0.0705 0.0675 0.0685 3.03835 c 0.81674,0 1.40487,0.651 1.24072,1.507 l -0.76034,3.838 h -1.86108 l 0.41189,-2.535 c 0.0947,-0.573 -0.24573,-1.029 -0.82882,-1.029 -0.57504,0 -1.14304,0.454 -1.24072,1.029 l -0.34241,1.85 c -0.0584,0.11 0.11481,0.629 0.20544,0.686 0.2558,0.146 2.68991,4.153 2.68991,4.451 0.0584,0.149 0.0906,0.22 0.0675,0.275 -0.0695,0.501 -0.75833,3.903 -0.75833,3.903 -0.14804,0.781 -0.91342,1.438 -1.72411,1.438 h -2.89737 c -0.80465,0 -1.32229,-0.657 -1.17324,-1.438 l 0.69085,-3.903 h 2.00207 l -0.48239,2.809 c -0.0926,0.571 0.24069,1.095 0.82379,1.095 0.55792,0 1.1521,-0.52 1.24576,-1.095 l 0.41189,-2.261 c -0.36959,-0.945 -2.81075,-4.388 -2.96685,-5.207 -0.10675,-0.092 -0.15307,-0.587 -0.13696,-0.959 0.0211,-0.407 0.55087,-2.946 0.55087,-2.946 h 0.0705 v -0.068 -0.067 -0.068 l 0.0675,-0.138 v -0.067 l 0.0665,-0.07 v -0.068 l 0.0695,-0.067 v -0.068 l 0.0685,-0.067 0.0705,-0.07 v -0.067 h 0.0675 l 0.0705,-0.068 0.0675,-0.07 0.0685,-0.067 v -0.07 h 0.0695 l 0.0665,-0.067 0.0675,-0.068 h 0.0705 l 0.0685,-0.067 h 0.0695 l 0.0685,-0.068 h 0.0675 0.13898 z m 15.8645,0 h 2.48446 l 0.34443,5.824 3.17229,-5.824 h 2.48547 l -5.10589,8.906 -1.24172,6.507 h -2.20651 l 1.10476,-6.988 z m 22.55956,0 h 0.0675 0.0705 0.0675 0.0705 0.0675 3.03433 c 0.81774,0 1.39077,0.651 1.24172,1.507 l -0.75933,3.838 h -1.8631 l 0.41593,-2.535 c 0.0916,-0.573 -0.24472,-1.029 -0.82782,-1.029 -0.57807,0 -1.1521,0.454 -1.24173,1.029 l -0.34543,1.85 c -0.0725,0.11 0.0926,0.629 0.20645,0.686 0.24372,0.146 2.68991,4.153 2.68991,4.451 0.0725,0.149 0.0705,0.22 0.0705,0.275 -0.0947,0.501 -0.69085,3.903 -0.69085,3.903 -0.14804,0.781 -0.92148,1.438 -1.72613,1.438 h -2.96484 c -0.80365,0 -1.3233,-0.657 -1.17526,-1.438 l 0.69085,-3.903 h 2.00107 l -0.48239,2.809 c -0.0926,0.571 0.26587,1.095 0.82882,1.095 0.57505,0 1.12692,-0.52 1.24072,-1.095 l 0.41291,-2.261 c -0.37665,-0.945 -2.80673,-4.388 -2.96585,-5.207 -0.10574,-0.092 -0.15005,-0.587 -0.13696,-0.959 0.0211,-0.407 0.55188,-2.946 0.55188,-2.946 l 0.0675,-0.068 v -0.067 -0.068 l 0.0685,-0.138 v -0.067 l 0.0695,-0.07 v -0.068 l 0.0685,-0.067 v -0.068 l 0.0695,-0.067 0.0685,-0.07 v -0.067 h 0.0705 l 0.0655,-0.068 0.0685,-0.07 0.0695,-0.067 0.0685,-0.07 0.0675,-0.067 0.0705,-0.068 h 0.0685 l 0.0695,-0.067 h 0.0685 l 0.0675,-0.068 h 0.0685 0.13697 z m 16.07296,0 h 4.6235 l -0.34644,1.851 h -1.17325 l -2.41295,13.563 h -2.276 l 2.41296,-13.563 h -1.17123 z m 18.07504,0 h 4.13808 l -0.34644,1.851 h -2.13903 l -0.96277,4.864 h 2.20651 l -0.34643,1.574 h -2.13904 l -0.89529,5.206 h 2.13601 l -0.27291,1.918 h -4.41604 z m 17.03875,0 h 2.55294 l 0.4119,8.906 3.93364,-8.836 2.48245,-0.07 -2.61941,15.413 h -1.93158 l 1.24072,-8.15 -3.45025,8.15 h -1.3807 l -0.41189,-8.358 -1.51868,8.358 h -2.27801 z m -370.52513,0.55 h 4.07061 l -0.27695,1.916 h -2.20651 l -0.89629,4.797 h 2.13903 l -0.27695,1.644 h -2.20751 l -0.82681,5.207 h 2.13802 l -0.34542,1.917 h -4.41503 z m 19.03982,0 h 1.93157 l 1.03427,8.083 1.51666,-8.083 h 2.27801 l -2.96786,15.48 h -1.93057 l -0.75933,-8.976 -1.7926,8.976 h -2.27801 z m 20.69645,0 h 4.553 l -0.27493,1.916 h -1.17324 l -2.48346,13.564 h -2.2055 l 2.41296,-13.564 h -1.24173 z m 20.0751,0 h 4.13909 l -0.34543,1.916 h -2.13903 l -0.96579,4.797 h 2.13903 l -0.27594,1.644 h -2.13802 l -0.8963,5.207 h 2.13802 l -0.27493,1.917 h -4.41503 z m 19.45473,0 h 4.41402 c 0.81876,0 1.33639,0.719 1.17325,1.574 l -1.03427,5.48 c -0.11481,0.593 -1.16519,1.078 -1.72613,1.302 h 0.13897 0.0685 0.0705 v 0.068 h 0.0685 0.0705 0.0665 0.0705 l 0.0685,0.067 h 0.0685 0.0685 0.0705 v 0.068 h 0.0685 0.0705 v 0.07 h 0.0685 c 0.0926,0.165 0.13696,0.659 0.13696,0.753 0,0.092 -1.10477,6.097 -1.10477,6.097 h -2.00005 c 0,0 1.06851,-5.394 1.10476,-5.617 0.0222,-0.24 -0.0262,-0.529 -0.0685,-0.753 -0.0161,-0.166 -0.0242,-0.45 -0.20746,-0.618 h -1.3807 l -1.31021,6.988 h -2.00106 z m 19.72866,0 h 4.62148 l -0.27494,1.916 h -1.17123 l -2.48446,13.564 h -2.20751 l 2.41396,-13.564 h -1.24072 z m 22.97245,0 h 2.62243 l -0.82782,15.48 h -2.62243 l 0.34442,-3.563 h -1.58514 l -1.31222,3.563 h -2.34347 z m 18.35299,0 h 2.00006 l -2.96786,15.48 h -1.93158 z m 17.79607,0 h 1.93359 l 1.03327,8.083 1.51968,-8.083 h 2.2065 l -2.89736,15.48 h -2.00006 l -0.68984,-8.976 -1.79663,8.976 h -2.27398 z m 22.8355,0 h 2.55294 l 0.41189,8.974 3.93566,-8.905 h 2.48044 l -2.62042,15.412 h -1.93057 l 1.24072,-8.152 -3.45125,8.152 h -1.3797 l -0.4119,-8.356 -1.51766,8.356 h -2.20852 z m 25.042,0 h 4.07061 l -0.27796,1.916 h -2.20651 l -0.89529,4.797 h 2.13803 l -0.27695,1.644 h -2.20651 l -0.89629,5.207 h 2.2055 l -0.34442,1.917 h -4.34555 z m 20.00459,0 h 1.93158 l 1.03528,8.083 1.51766,-8.083 h 2.20651 l -2.89535,15.48 h -1.93158 l -0.76034,-8.976 -1.79461,8.976 h -2.276 z m 20.49001,0 h 4.62148 l -0.34442,1.916 h -1.17123 l -2.41598,13.564 h -2.20852 l 2.41598,-13.564 h -1.24072 z m -165.35918,1.847 c -0.10876,0 -0.1994,0.064 -0.27795,0.138 l -0.8963,4.657 c 0,0.038 0,0.032 0,0.07 0,0.149 0.10474,0.273 0.27594,0.273 h 0.82681 c 0.20544,0 0.72208,-0.411 0.76034,-0.617 l 0.75632,-3.836 c 0.0362,-0.22 -0.34442,-0.686 -0.55087,-0.686 h -0.89429 z m 40.83802,4.658 -1.44717,3.905 h 1.10275 z"
   id="polyline2177"
   inkscape:connector-curvature="0"
   style="fill:#fb0b17;fill-opacity:1;stroke-width:1.00353277" />

<path
   style="fill:#ff0000;stroke:#ff0000;stroke-width:0.681059"
   d="m 552.93247,217.59252 c -0.46655,-0.43307 -0.84827,-1.32471 -0.84827,-1.98142 0,-1.12239 3.69571,-12.41072 5.00118,-15.2758 0.32888,-0.72178 2.36925,-6.33202 4.53414,-12.46719 2.16489,-6.13517 4.24516,-11.66758 4.62281,-12.29425 0.37766,-0.62666 0.68665,-1.59031 0.68665,-2.14145 0,-0.55113 0.30505,-1.51478 0.67788,-2.14145 0.37284,-0.62666 1.5383,-3.79687 2.5899,-7.0449 1.05162,-3.24803 2.17803,-6.18602 2.50315,-6.52887 0.32511,-0.34285 0.59112,-1.14501 0.59112,-1.78259 0,-0.63758 1.12396,-2.20254 2.49769,-3.47769 l 2.49769,-2.31846 h 11.53063 c 10.68988,0 11.62533,0.0971 12.82936,1.33209 1.26658,1.29912 1.23276,1.51428 -1.36651,8.69423 -4.35552,12.03125 -3.61623,10.97106 -7.65032,10.97106 -3.07133,0 -3.46156,-0.1476 -3.0359,-1.1483 2.06188,-4.84734 4.59428,-12.78177 4.24631,-13.30439 -0.23406,-0.35155 -3.53407,-0.63918 -7.33334,-0.63918 -8.10653,0 -7.1627,-0.89389 -11.08527,10.49869 -1.42899,4.15026 -2.86822,8.13648 -3.19831,8.85827 -0.3301,0.72178 -2.37477,6.33202 -4.54373,12.46719 -2.16895,6.13517 -4.22049,11.74541 -4.55896,12.46719 -1.21997,2.60146 -3.55344,9.79487 -3.55344,10.95418 0,1.06672 0.73552,1.18493 7.37316,1.18493 h 7.37315 l 2.21575,-6.39764 c 3.57017,-10.30835 3.35167,-10.00656 7.2449,-10.00656 3.42135,0 3.89841,0.44043 2.67486,2.46953 -0.37787,0.62667 -1.66549,3.92965 -2.86139,7.33997 -2.94174,8.38899 -4.07065,10.42277 -6.40829,11.54486 -2.59823,1.24718 -23.93105,1.38909 -25.2466,0.16795 z"
   id="path840"
   inkscape:connector-curvature="0" />
<path
   style="fill:#ff0000;stroke:#ff0000;stroke-width:0.681059"
   d="m 592.7171,217.23163 c 0.27015,-0.63156 2.50802,-6.71268 4.97303,-13.51359 2.46501,-6.80092 4.66377,-12.53418 4.88615,-12.7406 0.22236,-0.20641 0.4043,-0.92064 0.4043,-1.58718 0,-0.66653 0.30871,-1.7246 0.68602,-2.35126 0.37729,-0.62667 3.25717,-8.37365 6.39972,-17.21551 3.14253,-8.84186 6.05345,-16.88812 6.46868,-17.88058 l 0.75499,-1.80446 h 10.71004 10.71003 l 2.6352,2.01628 c 4.36382,3.33891 4.0353,5.28677 -5.22362,30.97232 -8.88071,24.63628 -9.81469,26.73403 -13.34625,29.97584 -5.11187,4.69246 -7.2813,5.27703 -19.58379,5.27703 -10.15937,0 -10.92957,-0.0844 -10.4745,-1.14829 z m 22.06021,-5.84402 c 1.35702,-0.59775 3.20921,-2.14794 4.11597,-3.44489 0.90676,-1.29694 5.22941,-12.33616 9.60589,-24.53161 8.57875,-23.90538 8.72642,-24.7103 4.86612,-26.52332 -1.89862,-0.8917 -9.01874,-1.12682 -10.34662,-0.34165 -0.44841,0.26514 -4.36932,10.37381 -8.71313,22.4637 -4.34382,12.0899 -8.17577,22.57218 -8.51545,23.29397 -1.22012,2.59256 -2.80951,7.61682 -2.80951,8.88119 0,1.1515 0.49892,1.28941 4.6647,1.28941 2.87766,0 5.60994,-0.41636 7.13203,-1.0868 z"
   id="path842"
   inkscape:connector-curvature="0" />
</g>
</svg>
