<?xml version="1.0" encoding="UTF-8" standalone="no"?>
<!-- Created with Inkscape (http://www.inkscape.org/) -->

<svg
   xmlns:dc="http://purl.org/dc/elements/1.1/"
   xmlns:cc="http://creativecommons.org/ns#"
   xmlns:rdf="http://www.w3.org/1999/02/22-rdf-syntax-ns#"
   xmlns:svg="http://www.w3.org/2000/svg"
   xmlns="http://www.w3.org/2000/svg"
   xmlns:sodipodi="http://sodipodi.sourceforge.net/DTD/sodipodi-0.dtd"
   xmlns:inkscape="http://www.inkscape.org/namespaces/inkscape"
   width="159.43845mm"
   height="75.073807mm"
   viewBox="0 0 159.43845 75.073807"
   version="1.1"
   id="svg8"
   inkscape:version="0.92.4 (5da689c313, 2019-01-14)"
   sodipodi:docname="logo.svg">
  <defs
     id="defs2" />
  <sodipodi:namedview
     id="base"
     pagecolor="#ffffff"
     bordercolor="#666666"
     borderopacity="1.0"
     inkscape:pageopacity="0.0"
     inkscape:pageshadow="2"
     inkscape:zoom="0.98994949"
     inkscape:cx="361.79694"
     inkscape:cy="74.595166"
     inkscape:document-units="mm"
     inkscape:current-layer="g276"
     showgrid="false"
     inkscape:window-width="1600"
     inkscape:window-height="838"
     inkscape:window-x="-8"
     inkscape:window-y="-8"
     inkscape:window-maximized="1" />
  <metadata
     id="metadata5">
    <rdf:RDF>
      <cc:Work
         rdf:about="">
        <dc:format>image/svg+xml</dc:format>
        <dc:type
           rdf:resource="http://purl.org/dc/dcmitype/StillImage" />
        <dc:title />
      </cc:Work>
    </rdf:RDF>
  </metadata>
  <g
     inkscape:label="Camada 1"
     inkscape:groupmode="layer"
     id="layer1"
     transform="translate(108.67468,-98.938295)">
    <g
       id="g276">
      <g
         id="g523">
        <g
           id="g1052"
           style="fill:#6c428a;fill-opacity:1;stroke:#0000dc;stroke-width:5.5999999;stroke-miterlimit:4;stroke-dasharray:none;stroke-opacity:1"
           transform="matrix(0.14387474,0,0,0.15789986,-112.37493,86.248141)">
          <path
             inkscape:connector-curvature="0"
             id="path1028"
             d="m 84.184211,353.32241 v -48.59407 h -27.91211 -27.91211 v -13.39781 -13.39781 h 74.815179 74.81518 l -0.10071,13.39781 -0.10071,13.39781 H 149.97869 122.1684 l -0.29098,48.28795 -0.29098,48.28795 -18.70112,0.30612 -18.701109,0.30612 z"
             style="fill:#6c428a;fill-opacity:1;stroke:#0000dc;stroke-width:5.5999999;stroke-miterlimit:4;stroke-dasharray:none;stroke-opacity:1" />
          <path
             inkscape:connector-curvature="0"
             id="path1030"
             d="m 187.6451,401.11816 c -0.40938,-0.40937 -0.74433,-28.29357 -0.74433,-61.96488 v -61.22056 h 56.34058 c 54.45742,0 56.54953,0.0782 62.59184,2.33889 6.93784,2.59578 13.36019,8.30784 15.73713,13.99665 2.17401,5.20314 3.22725,28.38765 1.66584,36.66916 -1.59728,8.47172 -7.4759,17.49731 -14.15564,21.73347 -2.80829,1.78097 -8.19675,3.77572 -12.28132,4.54642 -4.0027,0.75526 -7.13048,1.78354 -6.95063,2.28507 0.17986,0.50153 5.42628,4.83674 11.65872,9.63379 20.50685,15.78391 39.35955,31.03704 39.4144,31.88895 0.0297,0.46055 -9.94541,0.83737 -22.16683,0.83737 h -22.22077 l -15.46058,-12.03082 c -8.50332,-6.61694 -18.97751,-14.75899 -23.27598,-18.09343 -4.29846,-3.33444 -9.57385,-7.55882 -11.72308,-9.38751 l -3.9077,-3.32489 -0.55824,-13.75329 c -0.53515,-13.18427 -0.46586,-13.75516 1.67473,-13.7983 1.22813,-0.0248 10.95615,-0.003 21.61783,0.0485 25.26253,0.12189 24.71627,0.42989 24.71627,-13.93579 v -10.53604 l -4.18682,-1.21598 c -2.68671,-0.7803 -14.58753,-1.09638 -33.21541,-0.88218 l -29.02859,0.3338 -0.29098,48.28795 -0.29098,48.28795 h -17.10757 c -9.40916,0 -17.44251,-0.33495 -17.85189,-0.74433 z"
             style="fill:#6c428a;fill-opacity:1;stroke:#0000dc;stroke-width:5.5999999;stroke-miterlimit:4;stroke-dasharray:none;stroke-opacity:1" />
          <path
             inkscape:connector-curvature="0"
             id="path1032"
             d="m 347.58037,401.05278 c -0.0518,-0.47576 -0.17739,-28.38379 -0.27912,-62.01784 l -0.18496,-61.15282 18.42199,0.30442 18.42199,0.30442 v 61.40664 61.40664 l -18.14287,0.30678 c -9.97858,0.16873 -18.18524,-0.0825 -18.23703,-0.55824 z"
             style="fill:#6c428a;fill-opacity:1;stroke:#0000dc;stroke-width:5.5999999;stroke-miterlimit:4;stroke-dasharray:none;stroke-opacity:1" />
          <path
             inkscape:connector-curvature="0"
             id="path1034"
             d="m 407.61916,401.1448 c -0.42403,-0.42403 -0.77096,-28.32021 -0.77096,-61.99152 v -61.22056 h 58.61543 58.61543 v 13.39781 13.39781 h -39.63519 -39.6352 v 10.60661 10.6066 h 33.49453 33.49453 v 13.39781 13.39781 h -33.47276 -33.47275 l -0.3009,24.28354 -0.30089,24.28353 -17.93016,0.30576 c -9.86158,0.16817 -18.27708,-0.0412 -18.70111,-0.4652 z"
             style="fill:#6c428a;fill-opacity:1;stroke:#0000dc;stroke-width:5.5999999;stroke-miterlimit:4;stroke-dasharray:none;stroke-opacity:1" />
          <path
             inkscape:connector-curvature="0"
             id="path1036"
             d="m 562.03953,401.1151 c -13.45661,-2.58092 -21.02114,-7.30453 -24.7134,-15.43206 -1.8449,-4.06106 -2.03545,-8.21171 -2.0577,-44.82058 l -0.0245,-40.34507 3.07165,-5.87982 c 2.06853,-3.95962 4.84646,-7.1029 8.50622,-9.62497 10.20877,-7.03521 11.64243,-7.18205 66.72744,-6.83451 l 49.58959,0.31287 7.78666,3.9077 c 6.37209,3.19779 8.39516,4.90554 11.13613,9.40037 l 3.34946,5.49268 0.31929,39.98284 c 0.31014,38.83731 0.25033,40.14311 -2.08733,45.57715 -3.04045,7.06772 -8.9467,12.43326 -17.34525,15.75733 -6.47502,2.56275 -7.2223,2.60176 -54.01644,2.82006 -26.09782,0.12175 -48.70663,-0.0195 -50.2418,-0.31399 z m 87.08578,-61.2175 v -35.16926 h -37.96047 -37.96047 v 35.16926 35.16926 h 37.96047 37.96047 z"
             style="fill:#6c428a;fill-opacity:1;stroke:#0000dc;stroke-width:5.5999999;stroke-miterlimit:4;stroke-dasharray:none;stroke-opacity:1" />
          <path
             inkscape:connector-curvature="0"
             id="path1038"
             d="m 701.25519,401.14543 c -0.42438,-0.42437 -0.77159,-28.32084 -0.77159,-61.99215 v -61.22056 h 56.37048 c 52.94913,0 56.71403,0.13054 62.03085,2.15077 8.00803,3.04281 12.64795,6.95214 15.59952,13.14327 3.48325,7.30633 4.55529,31.26668 1.81995,40.67592 -3.64429,12.53592 -12.77385,20.78554 -25.88716,23.39204 -3.96939,0.78899 -7.18847,1.71917 -7.1535,2.06707 0.035,0.34789 2.42146,2.43598 5.3033,4.6402 9.81231,7.50506 44.31047,34.78416 45.9914,36.36725 1.44567,1.36153 -1.48988,1.55622 -21.46334,1.42339 l -23.13808,-0.15388 -24.2964,-18.99043 c -13.36303,-10.44474 -25.68531,-20.15911 -27.38285,-21.5875 -3.06309,-2.57741 -3.08645,-2.7011 -3.08778,-16.34608 l -10e-4,-13.74901 21.30583,0.34771 c 27.49123,0.44866 26.70568,0.85243 26.70568,-13.72645 v -10.53604 l -4.18682,-1.21598 c -2.68671,-0.7803 -14.58753,-1.09638 -33.21541,-0.88218 l -29.02859,0.3338 -0.24286,48.00882 -0.24286,48.00883 -17.12842,0.30639 c -9.42063,0.16852 -17.47564,-0.0409 -17.90001,-0.4652 z"
             style="fill:#6c428a;fill-opacity:1;stroke:#0000dc;stroke-width:5.5999999;stroke-miterlimit:4;stroke-dasharray:none;stroke-opacity:1" />
          <path
             inkscape:connector-curvature="0"
             id="path1040"
             d="m 874.91212,400.17414 c -3.23604,-0.89467 -7.30641,-2.36239 -9.04526,-3.26159 -4.13522,-2.1384 -9.93517,-8.8031 -11.01317,-12.65517 -0.46942,-1.67742 -0.85349,-21.89053 -0.85349,-44.91802 0,-40.90973 0.0558,-41.97247 2.43857,-46.42463 3.04119,-5.68248 8.7397,-10.10118 16.58108,-12.8572 5.58268,-1.96216 9.70133,-2.12398 53.80306,-2.1139 l 47.7576,0.0109 5.58243,2.6391 c 12.01041,5.67793 15.07253,11.93477 15.07253,30.79776 v 13.43367 h -17.3055 -17.30551 v -10.06404 -10.06404 l -35.44838,0.2948 -35.44838,0.29481 -0.29503,34.89013 -0.29502,34.89014 h 35.7434 35.74341 v -10.6066 -10.6066 h 17.30551 17.3055 l 0.22393,11.44396 c 0.32206,16.45894 -0.049,19.89492 -2.61869,24.25027 -2.67347,4.53117 -5.14226,6.46906 -12.08771,9.48829 -4.72947,2.05593 -8.12049,2.21618 -52.50659,2.48126 -38.77762,0.23159 -48.526,-0.014 -53.33429,-1.3433 z"
             style="fill:#6c428a;fill-opacity:1;stroke:#0000dc;stroke-width:5.5999999;stroke-miterlimit:4;stroke-dasharray:none;stroke-opacity:1" />
          <path
             inkscape:connector-curvature="0"
             id="path1042"
             d="m 1007.5168,339.8976 v -61.96488 h 61.4066 61.4067 v 13.39781 13.39781 h -41.8682 -41.8681 v 10.60661 10.6066 h 29.5868 29.5868 v 13.39781 13.39781 h -29.5868 -29.5868 v 11.16485 11.16484 h 41.8681 41.8682 v 13.39781 13.39782 h -61.4067 -61.4066 z"
             style="fill:#6c428a;fill-opacity:1;stroke:#0000dc;stroke-width:5.5999999;stroke-miterlimit:4;stroke-dasharray:none;stroke-opacity:1" />
        </g>
        <path
           style="fill:#6c428a;fill-opacity:1;stroke:#0000dc;stroke-width:0.84405583;stroke-miterlimit:4;stroke-dasharray:none;stroke-opacity:1"
           d="m -42.477389,126.91634 c 0.389501,-0.75524 1.454155,-2.76163 3.01689,-5.68544 0.466416,-0.87265 1.077878,-2.02296 1.358805,-2.55625 0.790033,-1.49973 3.96952,-7.49745 5.840973,-11.01829 0.92769,-1.7453 2.270879,-4.30095 2.984868,-5.67922 0.713986,-1.37828 1.343938,-2.508756 1.399889,-2.51218 0.05595,-0.0034 1.044366,1.79858 2.196476,4.00444 1.152109,2.20586 2.471195,4.72465 2.931303,5.5973 0.890092,1.68817 3.758329,7.15453 7.168904,13.66269 1.143272,2.18162 2.208979,4.18474 2.36824,4.45139 l 0.289565,0.4848 h -1.996818 -1.996818 l -0.379236,-0.74924 c -0.358621,-0.70853 -1.528159,-2.90039 -4.034509,-7.56119 -0.606917,-1.12862 -1.153208,-2.1996 -1.213985,-2.37996 -0.06077,-0.18034 -0.158718,-0.36757 -0.217649,-0.41605 -0.101671,-0.0836 -2.762292,-5.02001 -4.30961,-7.99581 l -0.720064,-1.38483 -0.286276,0.41522 c -0.157454,0.22837 -0.763492,1.32753 -1.34675,2.44259 -0.583261,1.11505 -1.508623,2.87236 -2.056363,3.90513 -0.547738,1.03277 -2.405452,4.5403 -4.128252,7.79451 l -3.132359,5.91675 -2.061816,0.006 -2.061816,0.006 z"
           id="path1597"
           inkscape:connector-curvature="0" />
        <path
           style="fill:#6c428a;fill-opacity:1;stroke:#0000dc;stroke-width:0.84405583;stroke-miterlimit:4;stroke-dasharray:none;stroke-opacity:1"
           d="m -66.405649,172.39986 c 0.04303,-0.1212 0.723892,-1.45 1.513028,-2.9529 0.789138,-1.5029 2.297644,-4.37867 3.352236,-6.39061 l 1.917441,-3.65808 h 1.964912 1.964909 l -0.550558,1.10183 c -0.302807,0.60601 -1.33782,2.68847 -2.300033,4.62769 l -1.74947,3.52585 32.367992,0.0445 c 17.802397,0.0245 32.396665,0.013 32.4317091,-0.0254 0.035047,-0.0385 -0.5189644,-1.19858 -1.2311327,-2.57804 -0.712171,-1.37946 -1.294855,-2.5316 -1.294855,-2.56032 0,-0.0287 -0.3223154,-0.65054 -0.7162535,-1.38181 -0.39394076,-0.73127 -0.86526421,-1.65015 -1.04738486,-2.04194 l -0.33113397,-0.71234 H 1.8890868 3.8924139 l 0.5614458,1.10183 c 0.3087978,0.60601 0.5591598,1.17229 0.5563605,1.25841 -0.00278,0.0861 0.065244,0.20512 0.1512041,0.26444 0.085958,0.0593 0.9474544,1.65483 1.914435,3.54557 0.9669833,1.89074 1.9249364,3.75503 2.1287819,4.14288 0.2038483,0.38784 0.6201516,1.20099 0.9251188,1.807 l 0.554481,1.10183 h -38.584062 c -30.801889,0 -38.568286,-0.0445 -38.505828,-0.22037 z"
           id="path1599"
           inkscape:connector-curvature="0" />
        <path
           style="fill:#0000dc;fill-opacity:1;stroke:none;stroke-width:0.16828129"
           d="m -100.63266,155.94749 c -0.46839,-0.63326 -0.89176,-1.2662 -0.94083,-1.40654 -0.14535,-0.41568 0.21648,-0.29251 0.8041,0.27371 0.935892,0.90183 1.068658,0.76897 1.068658,-1.06947 v -1.59834 l 0.441743,0.0558 c 0.242959,0.0307 0.423672,0.11528 0.401585,0.18801 -0.02209,0.0727 -0.04016,1.16353 -0.04016,2.42402 v 2.29181 l -0.441743,-0.004 c -0.347995,-0.003 -0.622476,-0.24814 -1.293353,-1.15517 z"
           id="path1601"
           inkscape:connector-curvature="0" />
        <path
           style="fill:#0000dc;fill-opacity:1;stroke:none;stroke-width:0.16828129"
           d="m -103.71658,154.74707 v -2.3594 l 0.39183,-0.0822 c 0.37963,-0.0797 0.89233,0.38651 1.90335,1.73055 0.26319,0.34989 0.26178,0.36608 -0.03,0.34249 -0.16843,-0.0136 -0.50043,-0.27805 -0.73778,-0.58762 -0.23735,-0.30957 -0.4974,-0.56285 -0.5779,-0.56285 -0.0805,0 -0.14635,0.87265 -0.14635,1.93922 v 1.93922 h -0.40159 -0.40158 z"
           id="path1603"
           inkscape:connector-curvature="0" />
        <path
           style="fill:#0000dc;fill-opacity:1;stroke:none;stroke-width:0.16828129"
           d="m -95.524251,154.83625 c 0,-1.73847 0.05305,-2.31854 0.226486,-2.47651 0.310128,-0.28247 3.841403,-0.22734 4.206532,0.0657 0.22475,0.18036 0.271663,0.58035 0.28716,2.44834 0.01828,2.20397 0.01386,2.23277 -0.342904,2.23274 -0.331,-3e-5 -0.361426,-0.0817 -0.361426,-0.96964 v -0.96961 h -1.686657 -1.686655 v 0.96961 c 0,0.85208 -0.03894,0.96961 -0.321268,0.96961 -0.304636,0 -0.321268,-0.11753 -0.321268,-2.27022 z m 4.015848,-0.9912 v -0.61702 h -1.686657 -1.686655 v 0.61702 0.61702 h 1.686655 1.686657 z"
           id="path1605"
           inkscape:connector-curvature="0" />
        <path
           style="fill:#0000dc;fill-opacity:1;stroke:none;stroke-width:0.16828129"
           d="m -87.456705,154.64457 0.04447,-2.38615 0.910035,-0.0524 0.910034,-0.0524 0.267538,1.02203 c 0.706909,2.7005 0.811292,3.04893 0.913447,3.04916 0.0603,1.3e-4 0.380223,-0.90201 0.71093,-2.00478 l 0.601287,-2.00502 0.935566,-0.0232 0.935567,-0.0232 v 2.46896 2.46897 H -81.629415 -82.031 v -1.93922 c 0,-1.78268 -0.02445,-1.93922 -0.30298,-1.93922 -0.240919,0 -0.430087,0.39723 -0.923478,1.93922 -0.607709,1.89926 -0.630659,1.93922 -1.113776,1.93922 -0.480265,0 -0.510196,-0.05 -1.13442,-1.89515 -0.523559,-1.54759 -0.705623,-1.90548 -0.992751,-1.95148 -0.343539,-0.055 -0.351611,-0.0118 -0.351611,1.88419 0,1.84041 -0.0168,1.93914 -0.325577,1.91361 -0.312146,-0.0258 -0.323741,-0.12534 -0.281108,-2.41307 z"
           id="path1607"
           inkscape:connector-curvature="0" />
        <path
           style="fill:#0000dc;fill-opacity:1;stroke:none;stroke-width:0.16828129"
           d="m -78.304295,156.89492 c -0.125783,-0.13805 -0.192762,-0.86364 -0.192762,-2.08819 0,-2.52865 -1.43e-4,-2.52849 2.666809,-2.60677 l 1.991575,-0.0584 v 0.54325 0.54326 h -1.766975 -1.766972 v 1.58663 1.58663 h 1.766972 c 1.659885,0 1.766975,0.0214 1.766975,0.35259 0,0.33491 -0.10709,0.35259 -2.136431,0.35259 -1.447491,0 -2.19859,-0.0682 -2.329191,-0.21155 z"
           id="path1609"
           inkscape:connector-curvature="0" />
        <path
           style="fill:#0000dc;fill-opacity:1;stroke:none;stroke-width:0.16828129"
           d="m -70.42962,156.83203 c -0.330171,-0.2538 -0.357008,-0.41284 -0.357008,-2.11551 0,-2.55526 0.04065,-2.59589 2.517841,-2.51698 2.391762,0.0762 2.461808,0.14898 2.461808,2.5581 0,2.41258 0.0624,2.34883 -2.299102,2.34883 -1.519881,0 -2.047613,-0.0623 -2.323539,-0.27444 z m 3.414085,-2.01737 -0.0038,-1.49849 -1.32143,-0.0512 -1.321427,-0.0512 v 1.60089 1.6009 l 1.325229,-0.0512 1.32523,-0.0512 z"
           id="path1611"
           inkscape:connector-curvature="0" />
        <path
           style="fill:#0000dc;fill-opacity:1;stroke:none;stroke-width:0.16828129"
           d="m -60.017756,155.08757 c -0.334494,-0.44233 -0.135736,-0.88993 0.395182,-0.88993 0.530918,0 0.729679,0.4476 0.395182,0.88993 -0.246634,0.32615 -0.543727,0.32615 -0.790364,0 z"
           id="path1613"
           inkscape:connector-curvature="0" />
        <path
           style="fill:#0000dc;fill-opacity:1;stroke:none;stroke-width:0.16828129"
           d="m -53.277532,156.75388 c 0,-0.33214 0.107087,-0.35259 1.847289,-0.35259 h 1.847289 v -0.61702 -0.61702 h -1.581444 c -1.932215,0 -2.113134,-0.14028 -2.113134,-1.63839 0,-0.80191 0.05994,-1.02881 0.310705,-1.1761 0.170889,-0.10037 1.146741,-0.18249 2.168557,-0.18249 h 1.857851 v 0.52888 0.52888 h -1.686655 -1.686658 v 0.44073 c 0,0.2424 -0.01807,0.50023 -0.04016,0.57295 -0.02209,0.0727 0.827267,0.17189 1.88745,0.22036 l 1.927606,0.0881 0.04858,1.02856 c 0.02865,0.60664 -0.02884,1.13093 -0.140145,1.27812 -0.146163,0.19329 -0.69143,0.24957 -2.417929,0.24957 -2.122117,0 -2.229204,-0.017 -2.229204,-0.35259 z"
           id="path1615"
           inkscape:connector-curvature="0" />
        <path
           style="fill:#0000dc;fill-opacity:1;stroke:none;stroke-width:0.16828129"
           d="m -44.731811,156.89492 c -0.274047,-0.30077 -0.266901,-4.29859 0.008,-4.49388 0.110434,-0.0784 1.194713,-0.17006 2.409507,-0.2036 l 2.208718,-0.061 v 0.54578 0.54579 h -1.937787 -1.937784 l 0.05034,0.57295 0.05034,0.57295 1.405546,0.0509 c 1.26338,0.0458 1.405546,0.0852 1.405546,0.38979 0,0.30437 -0.142029,0.34405 -1.395397,0.3898 l -1.395397,0.0509 -0.05923,0.57295 -0.05923,0.57295 h 1.936528 c 1.829443,0 1.936533,0.0195 1.936533,0.35259 0,0.33556 -0.10709,0.35259 -2.21675,0.35259 -1.509956,0 -2.278206,-0.0675 -2.409508,-0.21155 z"
           id="path1617"
           inkscape:connector-curvature="0" />
        <path
           style="fill:#0000dc;fill-opacity:1;stroke:none;stroke-width:0.16828129"
           d="m -36.409152,156.84444 c -0.139687,-0.18472 -0.180128,-0.8398 -0.13707,-2.22034 0.07865,-2.52174 0.0016,-2.45383 2.783009,-2.45383 h 2.104454 l -0.0064,0.52888 -0.0064,0.52888 h -1.968114 -1.968116 v 1.58663 1.58663 h 1.5362 1.5362 l -0.05034,-0.57295 c -0.04909,-0.55872 -0.07127,-0.57427 -0.893662,-0.62623 -0.689171,-0.0436 -0.84333,-0.11168 -0.84333,-0.37269 0,-0.28071 0.165444,-0.32341 1.36539,-0.35243 l 1.365387,-0.033 v 1.03949 c 0,1.54171 -0.130431,1.62302 -2.60328,1.62302 -1.587582,0 -2.057855,-0.0557 -2.213914,-0.26202 z"
           id="path1619"
           inkscape:connector-curvature="0" />
        <path
           style="fill:#0000dc;fill-opacity:1;stroke:none;stroke-width:0.16828129"
           d="m -27.736743,154.83625 c 0,-1.77143 0.05134,-2.31698 0.233662,-2.48305 0.360828,-0.32865 4.065995,-0.18136 4.267785,0.16966 0.08361,0.14544 0.153122,1.23625 0.154477,2.42402 0.0024,2.04296 -0.0149,2.15959 -0.31881,2.15959 -0.282565,0 -0.321268,-0.11753 -0.321268,-0.97558 v -0.97557 l -1.726813,0.05 -1.726814,0.05 -0.04855,0.92554 c -0.03493,0.66578 -0.113818,0.92554 -0.281109,0.92554 -0.190947,0 -0.232556,-0.4062 -0.232556,-2.27022 z m 4.015846,-0.9912 v -0.61702 h -1.766972 -1.766972 v 0.49949 c 0,0.27473 0.04819,0.55238 0.107087,0.61703 0.0589,0.0646 0.854038,0.11752 1.766975,0.11752 h 1.659882 z"
           id="path1621"
           inkscape:connector-curvature="0" />
        <path
           style="fill:#0000dc;fill-opacity:1;stroke:none;stroke-width:0.16828129"
           d="m -17.827303,155.31642 c -0.393023,-0.24139 -0.348528,-0.98002 0.06777,-1.12502 0.443135,-0.15436 0.853977,0.28421 0.715338,0.76361 -0.127736,0.44169 -0.427302,0.57994 -0.783111,0.36141 z"
           id="path1623"
           inkscape:connector-curvature="0" />
        <path
           style="fill:#0000dc;fill-opacity:1;stroke:none;stroke-width:0.16828129"
           d="m -11.512718,154.65008 v -2.47981 h 0.457005 c 0.253002,0 0.586792,0.15739 0.747749,0.35259 0.159909,0.19392 0.260355,0.35258 0.223218,0.35258 -0.03714,0 0.4045536,0.55533 0.9815358,1.23405 1.4417754,1.69602 1.6063383,1.65989 1.6063383,-0.35258 0,-1.57488 0.00299,-1.58664 0.4015846,-1.58664 h 0.4015846 v 2.4681 2.4681 l -0.4417431,-0.006 c -0.3647572,-0.005 -0.6920812,-0.34227 -1.8781924,-1.93468 -0.7900484,-1.06068 -1.4700438,-1.89164 -1.5111018,-1.84658 -0.04106,0.0451 -0.08137,0.89584 -0.08957,1.89062 l -0.01492,1.80868 -0.441743,0.0558 -0.441743,0.0558 z"
           id="path1625"
           inkscape:connector-curvature="0" />
        <path
           style="fill:#0000dc;fill-opacity:1;stroke:none;stroke-width:0.16828129"
           d="m -2.999122,154.6272 v -2.47927 l 0.5090531,0.0552 0.509053,0.0553 0.013018,2.42397 0.013017,2.42396 -0.5220626,6e-5 -0.52206,6e-5 z"
           id="path1627"
           inkscape:connector-curvature="0" />
        <path
           style="fill:#0000dc;fill-opacity:1;stroke:none;stroke-width:0.16828129"
           d="m 1.8198956,154.6604 v -2.44606 h 0.4047225 c 0.3077369,0 0.7023074,0.37156 1.6464995,1.55047 0.8413697,1.05052 1.3583126,1.55502 1.6031977,1.56459 0.348996,0.0136 0.3614261,-0.0404 0.3614261,-1.57249 0,-1.57488 0.00299,-1.58664 0.4015846,-1.58664 h 0.4015845 v 2.4681 2.4681 H 6.192233 c -0.3733667,0 -0.6831462,-0.31628 -1.8874475,-1.92702 -0.7924244,-1.05986 -1.4949831,-1.9325 -1.5612454,-1.93922 -0.066262,-0.007 -0.1204753,0.86045 -0.1204753,1.92702 v 1.93922 H 2.2214802 1.8198956 Z"
           id="path1629"
           inkscape:connector-curvature="0" />
        <path
           style="fill:#0000dc;fill-opacity:1;stroke:none;stroke-width:0.16828129"
           d="m 11.457931,155.17646 v -1.93001 l -0.84333,-0.0533 c -0.7795132,-0.0493 -0.8433281,-0.0866 -0.8433281,-0.49402 v -0.44073 h 2.3291901 2.329194 v 0.44073 c 0,0.41288 -0.05836,0.44407 -0.923645,0.4936 l -0.923644,0.0529 v 1.93043 1.93042 h -0.562221 -0.562216 z"
           id="path1631"
           inkscape:connector-curvature="0" />
        <path
           style="fill:#0000dc;fill-opacity:1;stroke:none;stroke-width:0.16828129"
           d="m 17.597643,154.68244 0.04469,-2.42402 h 2.007926 2.007923 v 0.44073 c 0,0.43469 -0.02035,0.44142 -1.485863,0.49142 l -1.485866,0.0507 v 0.61041 0.6104 h 1.42852 c 1.379434,0 1.623526,0.0949 1.623526,0.63145 0,0.0406 -0.686711,0.0737 -1.526022,0.0737 h -1.526024 v 0.61702 0.61702 h 1.526024 c 1.418932,0 1.526022,0.0248 1.526022,0.35259 0,0.33455 -0.10709,0.35259 -2.092775,0.35259 h -2.092772 z"
           id="path1633"
           inkscape:connector-curvature="0" />
        <path
           style="fill:#0000dc;fill-opacity:1;stroke:none;stroke-width:0.16828129"
           d="m 24.819341,154.68244 0.05152,-2.42402 0.411993,-0.0526 c 0.343146,-0.0438 0.624528,0.2151 1.683772,1.54946 1.68203,2.11891 1.901721,2.1129 1.966645,-0.0538 0.04464,-1.48964 0.06125,-1.55161 0.401584,-1.49849 0.344072,0.0537 0.356399,0.13017 0.399714,2.47944 l 0.04469,2.42403 h -0.471477 c -0.372806,0 -0.617482,-0.19333 -1.169127,-0.9238 -0.875234,-1.15894 -1.381377,-1.8123 -1.937856,-2.50152 l -0.437036,-0.54127 -0.0047,1.98329 -0.0047,1.9833 h -0.493262 -0.493263 z"
           id="path1635"
           inkscape:connector-curvature="0" />
        <path
           style="fill:#0000dc;fill-opacity:1;stroke:none;stroke-width:0.23798567"
           d="m 33.311638,154.69773 0.06502,-2.43083 1.979025,-0.0719 c 2.548914,-0.0926 2.905133,0.20865 2.905133,2.45678 0,2.40716 -0.07707,2.47677 -2.742266,2.47677 h -2.271943 z m 4.040492,0.0623 v -1.62055 h -1.590188 -1.590191 v 1.62055 1.62055 h 1.590191 1.590188 z"
           id="path1637"
           inkscape:connector-curvature="0" />
        <path
           style="fill:#0000dc;fill-opacity:1;stroke:none;stroke-width:0.23798567"
           d="m 41.948799,156.83796 c -0.371557,-0.40777 -0.37793,-3.99035 -0.0078,-4.39654 0.372292,-0.40858 3.610091,-0.3951 4.12384,0.0172 0.330711,0.2654 0.38344,0.65692 0.327385,2.43083 l -0.06683,2.11447 -2.048071,0.0709 c -1.398709,0.0484 -2.137002,-0.0267 -2.328513,-0.23685 z m 3.354311,-2.0779 v -1.62055 h -1.363027 -1.363025 v 1.62055 1.62055 h 1.363025 1.363027 z"
           id="path1639"
           inkscape:connector-curvature="0" />
      </g>
    </g>
  </g>
</svg>
