<?xml version="1.0" encoding="UTF-8" standalone="no"?>
<!-- Generator: Adobe Illustrator 19.0.0, SVG Export Plug-In . SVG Version: 6.00 Build 0)  -->

<svg
   xmlns:dc="http://purl.org/dc/elements/1.1/"
   xmlns:cc="http://creativecommons.org/ns#"
   xmlns:rdf="http://www.w3.org/1999/02/22-rdf-syntax-ns#"
   xmlns:svg="http://www.w3.org/2000/svg"
   xmlns="http://www.w3.org/2000/svg"
   xmlns:sodipodi="http://sodipodi.sourceforge.net/DTD/sodipodi-0.dtd"
   xmlns:inkscape="http://www.inkscape.org/namespaces/inkscape"
   version="1.1"
   id="svg2"
   x="0px"
   y="0px"
   viewBox="-63.3 282.9 601.22552 228.63699"
   xml:space="preserve"
   sodipodi:docname="logo.svg"
   width="601.22552"
   height="228.63699"
   inkscape:version="0.92.4 (5da689c313, 2019-01-14)"><metadata
   id="metadata46"><rdf:RDF><cc:Work
       rdf:about=""><dc:format>image/svg+xml</dc:format><dc:type
         rdf:resource="http://purl.org/dc/dcmitype/StillImage" /><dc:title></dc:title></cc:Work></rdf:RDF></metadata><defs
   id="defs44" /><sodipodi:namedview
   pagecolor="#ffffff"
   bordercolor="#666666"
   borderopacity="1"
   objecttolerance="10"
   gridtolerance="10"
   guidetolerance="10"
   inkscape:pageopacity="0"
   inkscape:pageshadow="2"
   inkscape:window-width="1600"
   inkscape:window-height="838"
   id="namedview42"
   showgrid="false"
   inkscape:zoom="1.4893322"
   inkscape:cx="299.40944"
   inkscape:cy="114.58698"
   inkscape:window-x="-8"
   inkscape:window-y="-8"
   inkscape:window-maximized="1"
   inkscape:current-layer="svg2" />
<g
   id="g39"
   transform="matrix(1.0467604,0,0,1,-44.082074,6.1035156e-6)">
	<rect
   x="-18"
   y="282.89999"
   width="573.40002"
   height="228.10001"
   id="rect2"
   style="fill:none" />
	<g
   id="g20"
   transform="translate(134.8949,116.4184)">
		<path
   id="path22"
   d="m 15.7,249.1 c -0.3,1.2 0.6,2.4 1,2.4 1.2,-0.7 3.5,-1.9 5,-2 5.6,-0.5 11.1,-1.8 16.8,-2.6 10.4,-1.6 20.9,-3.4 31.2,-5.1 6,-1 12,-2 18,-3.3 1.8,-0.4 2.4,0.3 2.8,1.8 3.9,14.5 7.6,28.9 11.6,43.3 0.5,1.6 0.1,2.5 -1.6,3.1 -7.2,2.6 -14.9,4 -22.4,5.8 -15.5,3.5 -31,6.9 -46.6,10.4 -1,0.3 -2.6,0.1 -2.4,2 0.3,1.9 1,2.4 2.8,2 3.8,-0.9 7.5,-1.6 11.1,-2.6 1.6,-0.4 3.1,0 4.6,-0.6 0.8,-0.3 0.9,0.5 1,1 4.5,17.9 8.9,35.9 13.4,53.8 0.5,2.3 0.4,2.8 -1.9,3.4 -25.1,7.3 -50.4,14.6 -75.5,21.9 -12.4,3.6 -24.9,7.3 -37.3,10.9 -2.5,0.8 -2.8,0.6 -3.4,-1.9 -2.1,-9.1 -4,-18.4 -6.3,-27.5 -0.8,-3.2 0,-5.5 2.5,-7.6 6.9,-6.1 13.6,-12.5 20.5,-18.8 1.3,-1.3 1.5,-2.5 1.1,-4.1 -4.5,-20.5 -9.1,-40.9 -13.8,-61.5 -2.4,-10.6 -4.9,-21.2 -7.2,-31.9 -0.5,-2.4 0.9,-4 2.5,-5.9 -4.3,-0.8 -8.3,-1.6 -12.3,-2.4 -15.1,-2.9 -30.3,-5.8 -45.5,-8.6 -10.1,-1.9 -20.2,-3.9 -30.4,-5.6 -2.3,-0.4 -3,-1.6 -3.4,-3.6 -1.4,-7 -2.8,-14.1 -4.1,-21.3 -0.1,-0.8 -0.4,-1.6 -0.5,-2.4 -1,-4.3 1,-8.8 5.1,-10.4 2,-0.8 4.1,-0.5 6.3,-0.8 9.1,-0.8 18.1,-1.5 27.1,-2.3 7.1,-0.5 14.3,-1 21.4,-1.6 8.6,-0.8 17.3,-1.5 25.9,-2.1 7.2,-0.5 14.5,-1 21.8,-1.6 10.1,-0.8 20.4,-1.8 30.5,-2.5 7.1,-0.5 14.3,-1 21.4,-1.6 7.9,-0.6 15.6,-1.3 23.5,-1.9 6,-0.5 12,-0.4 17.8,2.3 15,7 26.1,17.9 31.6,33.6 3,8.4 4.9,17.1 7.3,25.6 v 0.3 c 1.4,5 1.3,4.9 -3.1,7.6 -5.3,3.3 -11,4.1 -17,5.1 -9.6,1.5 -19.3,3.1 -29,4.8 -5.2,0.8 -10.5,2.1 -15.8,2.7 -0.3,0 -1.5,0.4 -3.1,0.5 -0.7,0.1 -2.1,-0.4 -2.7,-0.3"
   inkscape:connector-curvature="0" />
	</g>
	<g
   id="g24"
   transform="translate(5.1949,168.5184)">
		<path
   id="path26"
   d="m -16.7,131.8 c 1,-0.6 2.1,-0.8 3.2,-0.8 7.9,-0.5 15.9,-1.1 23.8,-1.8 7.3,-0.5 14.4,-1.1 21.6,-1.6 6.6,-0.5 13.2,-1.1 20,-1.6 7.4,-0.6 14.6,-1.1 22,-1.8 7.1,-0.5 14.4,-1.3 21.4,-1.8 6.9,-0.5 13.9,-1.1 20.8,-1.6 7.3,-0.5 14.4,-1.1 21.6,-1.8 5.6,-0.5 11.3,-0.8 16.8,-1.3 2.4,-0.3 4.9,-0.5 7.3,-0.8 8.9,-0.8 16.3,2.6 23.5,7.3 13.5,8.9 21.5,21.3 25,36.9 1.3,5.8 2.9,11.2 4.4,17 0.1,0.3 0,0.6 0,0.9 -0.8,0.6 -1.6,0.8 -2.5,0.9 -14.8,2.3 -29.5,4.9 -44.2,7 -2.8,0.4 -5.5,0.9 -8.3,1.3 -2.1,0.3 -4.2,0.1 -6.4,-0.4 -24,-4.9 -48,-9.6 -72,-14.4 -17,-3.6 -34.3,-6.9 -51.5,-10.4 -13,-2.4 -25.9,-5 -38.8,-7.5 -2.9,-0.5 -4.4,-1.9 -4.8,-4.8 -0.9,-5.5 -2.1,-11 -3.3,-16.5 0.1,-0.7 -0.1,-1.6 0.4,-2.4"
   inkscape:connector-curvature="0"
   style="fill:#cd8258" />
	</g>
	<g
   id="g28"
   transform="translate(84.8949,127.2184)">
		<path
   id="path30"
   d="m 3.2,224.8 c 14.8,2.9 29.5,5.8 44.4,8.6 3.6,0.8 7.1,1.4 10.8,2.1 3.4,0.6 3.8,0.9 4.5,4.3 4.6,19.3 9.4,38.6 14,57.9 0.1,0.4 0.3,0.8 0.4,1 1.9,1 3.6,1 5.6,0.5 3.8,-1.1 7.5,-1.8 11.4,-2.6 0.6,-0.1 1.4,-0.3 2,0.3 2,7.5 4,15.1 6,22.6 2.1,8.4 4.1,16.8 6.3,25.1 0.1,0.6 0.2,1.4 0.2,2 -0.5,1.4 -1.8,1.6 -2.9,1.9 -11.8,3.4 -23.5,7 -35.1,10.4 -21,6.1 -42.1,12.3 -63.1,18.4 -0.4,0.1 -0.8,0.3 -1.1,0.3 -2.2,0.5 -3.1,0 -3.6,-2.4 -1.1,-5.8 -2.3,-11.4 -3.6,-17 -0.3,-1.4 -0.6,-2.8 -0.9,-4 -0.5,-2 0,-3.8 1.5,-5.1 4.8,-4.3 9.3,-8.8 13.9,-13 2.5,-2.3 4.8,-4.8 7.4,-6.8 2.1,-1.6 2.6,-3.9 2.1,-6.4 C 22.3,317.6 21,312.3 19.9,307 14.3,282.7 8.8,258.5 3.4,234.2 2.9,231.8 2.3,229.6 1.8,227.2 1.3,225.5 1.6,225 3.2,224.8"
   inkscape:connector-curvature="0"
   style="fill:#cd8258" />
	</g>
	<g
   id="g32"
   transform="translate(192.6949,121.9184)">
		<path
   id="path34"
   d="m 30.2,236.7 c 1.9,6.9 3.8,13.9 5.6,20.8 1.6,6.3 3.3,12.4 5,18.6 0.1,0.4 0.1,0.9 0.3,1.3 -0.1,1.5 -1.4,1.5 -2.4,1.8 -5.9,1.3 -11.9,2.5 -17.8,3.8 -13.2,2.9 -26.5,5.6 -39.6,8.6 -3.2,0.8 -4.1,0.3 -4.9,-2.9 -3.2,-12.8 -6.3,-25.5 -9.4,-38.1 -0.1,-0.5 -0.3,-1 -0.3,-1.5 -0.3,-1.9 0.3,-2.6 2.1,-2.9 6.6,-1 13.1,-2.1 19.8,-3.3 9.1,-1.6 18.1,-3 27.3,-4.6 4,-0.8 8,-1.3 12,-2.1 0.6,-0.3 1.5,-0.3 2.3,0.5"
   inkscape:connector-curvature="0"
   style="fill:#cd8258" />
	</g>
	<g
   id="g36"
   transform="translate(5.1949,168.5184)">
		<path
   id="path38"
   d="m -16.7,131.8 c 1.2,6.5 2.6,13.1 3.9,19.8 0.4,2 1.5,3 3.6,3.4 14,2.8 28,5.6 42,8.4 12,2.4 24,4.8 35.9,7 13.6,2.8 27.4,5.5 41,8.1 13.5,2.6 27,5.1 40.4,8.3 6.8,1.6 13,0.3 19.5,-0.6 6.3,-0.9 12.5,-1.9 18.8,-2.9 6.4,-1 12.7,-2.1 19.2,-3.1 2.4,-0.4 4.8,-0.6 7,-1 0.2,1.6 -0.6,2.1 -2,2.4 -7.1,1.1 -14.2,2.3 -21.4,3.4 -9.1,1.4 -18.1,2.6 -27.1,4.4 -5.3,1 -10.1,0.3 -15.3,-0.8 -18.3,-3.8 -36.8,-7.3 -55,-10.9 -14.3,-2.9 -28.5,-5.6 -42.9,-8.4 -15.3,-3 -30.4,-6 -45.6,-8.9 -5.9,-1.1 -11.8,-2.4 -17.8,-3.4 -1.4,-0.3 -2.1,-0.9 -2.4,-2.3 -1.4,-6.9 -2.8,-13.8 -4.1,-20.6 -0.2,-2.3 0,-2.5 2.3,-2.3"
   inkscape:connector-curvature="0"
   style="fill:#af5e3a" />
	</g>
	<g
   id="g40"
   transform="translate(84.8949,127.2184)">
		<path
   id="path42"
   d="m 3.2,224.8 c -1.6,0.3 -1.4,1.4 -1.1,2.5 1.9,8.1 3.6,16.3 5.5,24.4 3.8,16.6 7.5,33.4 11.4,50 1.6,7.1 3.1,14.3 4.9,21.4 0.6,2.9 -0.5,5 -2.6,6.9 -2.6,2.1 -5,4.4 -7.4,6.8 -4.6,4 -8.9,8.2 -13.4,12.3 -1.6,1.4 -2,2.9 -1.6,5 1.6,6.9 2.9,13.9 4.4,20.8 0.5,2.5 1,2.8 3.5,2 23.7,-6.9 47.5,-13.9 71.1,-20.8 9.4,-2.8 18.8,-5.5 28.1,-8.3 1,-0.3 1.9,-0.8 2.6,-1.3 0.6,2.1 -1.1,2.3 -2.4,2.6 -5.6,1.8 -11.3,3.3 -16.8,5 -28.3,8.4 -56.6,16.6 -84.9,25 -2.8,0.8 -2.9,0.8 -3.5,-2.4 -1.6,-7.9 -3.4,-15.6 -5.1,-23.4 -0.5,-2 0,-3.4 1.6,-4.8 7.6,-7 15.1,-14.1 22.6,-21.1 1.4,-1.3 1.6,-2.8 1.3,-4.4 -4,-18 -8.1,-36 -12.3,-54 -3.1,-14 -6.4,-28.1 -9.5,-42.2 -0.5,-2.5 -0.3,-2.8 2.1,-2.1 0.5,-0.2 1.1,-0.4 1.5,0.1"
   inkscape:connector-curvature="0"
   style="fill:#af5e3a" />
	</g>
	<g
   id="g44"
   transform="translate(192.6949,121.9184)">
		<path
   id="path46"
   d="m 30.2,236.7 c -2.9,-1 -5.5,0.5 -8.3,1 -8.5,1.3 -17,2.9 -25.5,4.3 -7,1.1 -13.9,2.4 -20.9,3.5 -2.1,0.4 -4.4,0.6 -6.5,1 -1.5,0.3 -2.6,0.5 -2,2.6 1.9,6.8 3.4,13.6 5,20.4 1.6,6.5 3.2,13 4.9,19.5 0.6,2.4 1,2.6 3.4,2.1 15.3,-3.4 30.5,-6.6 45.9,-9.9 4.3,-0.9 8.6,-1.9 12.9,-2.8 0.8,-0.1 1.5,-0.3 1.9,-1.1 0.8,1.8 -0.4,2.4 -1.9,2.8 -5.5,1.3 -10.9,2.5 -16.4,3.6 -14.6,3.3 -29.3,6.4 -43.9,9.6 -2.5,0.5 -2.9,0.4 -3.5,-2.1 -3.5,-14.1 -7,-28.4 -10.5,-42.5 -0.5,-1.8 -0.1,-2.5 1.8,-2.9 8.9,-1.4 17.9,-2.9 26.8,-4.4 11,-1.9 21.9,-3.8 32.9,-5.5 1.2,-0.1 2.9,-1.2 3.9,0.8"
   inkscape:connector-curvature="0"
   style="fill:#af5e3a" />
	</g>
	<g
   id="g48"
   transform="translate(159.1949,69.6184)">
		<path
   id="path50"
   d="m 21.8,354.4 c -4.9,0.9 -9.6,2 -14.4,3.3 -1.7,0.5 -3.4,0.5 -4.5,-1.3 4.9,-0.4 9.4,-1.9 14.1,-2.9 1,-0.3 2,-0.5 2.9,-0.5 1,-0.4 1.8,0.1 1.9,1.4"
   inkscape:connector-curvature="0"
   style="fill:#af5e3a" />
	</g>
	<g
   id="g52"
   transform="translate(437.6084,64.0523)">
		<path
   id="path54"
   stroke-miterlimit="10"
   d="m 91.4,366.9 h 15.5 c 2.9,0 5.4,0.8 7.5,2.6 1.9,1.8 3.1,3.9 3.4,6.4 0.1,1.4 0.1,2.8 0.1,4.1 v 29.3 c 0,2.4 -0.6,4.5 -2,6.4 -1.8,2.4 -4.1,3.8 -7,4.1 -0.8,0.1 -1.4,0.1 -2.1,0.1 H 75.7 c -3.1,0 -5.9,-1.1 -8,-3.4 -1.5,-1.8 -2.5,-3.8 -2.6,-6 C 65,407.7 65,405 65,402.2 v -24.5 c 0,-2.3 0.5,-4.4 1.9,-6.3 1.8,-2.5 4.1,-4 7.3,-4.4 0.6,-0.1 1.3,-0.1 1.9,-0.1 4.8,0 10.1,0 15.3,0 z m -15.9,26.5 c 0.1,8.8 6.9,15.6 15.4,15.9 9.1,0.3 16,-7 16.3,-15.5 0.1,-8.8 -6.8,-15.8 -15.3,-16.1 -9.1,-0.4 -16.4,6.8 -16.4,15.7 z"
   inkscape:connector-curvature="0"
   style="fill:none;stroke:#000000;stroke-miterlimit:10" />
	</g>
	<g
   id="g56">
		<path
   id="path58_1_"
   d="m 253,483.3 v -52.5 h 4.1 c 1.5,0 1.3,-0.1 1.3,1.3 v 8.5 0.9 h 5.5 c 0.6,0 1.3,0.1 1.8,0.3 2.1,0.6 3.5,2.9 3.5,4.9 v 31.8 c 0,2.8 -2.4,5.1 -5.1,5.1 -3.8,-0.3 -7.4,-0.3 -11.1,-0.3 m 10.7,-36.6 h -5.4 V 478 h 5.4"
   inkscape:connector-curvature="0"
   style="fill:#8b0304" />
	</g>
	<g
   id="g60">
		<path
   id="path62_1_"
   d="m 237.6,483.3 h -16.1 v -52.5 h 3.4 c 1.9,0 1.9,0 1.9,1.9 v 44.3 1 h 1.4 c 1.8,0 3.6,0 5.4,0.1 2.4,0.3 4,2.6 4.3,4.8 -0.3,0 -0.3,0.1 -0.3,0.4"
   inkscape:connector-curvature="0"
   style="fill:#8b0304" />
	</g>
	<g
   id="g64">
		<path
   id="path66_1_"
   d="m 247.2,441.3 v 42.4 c -1.4,0.1 -2.5,-0.5 -3.5,-1.4 -1.3,-1.1 -1.9,-2.5 -1.9,-4.1 v -36 -0.9 c 0,0 5.4,0 5.4,0 z"
   inkscape:connector-curvature="0"
   style="fill:#8b0304" />
	</g>
	<path
   id="path68"
   d="m 242,430.9 h 5.3 v 5.4 H 242 Z"
   inkscape:connector-curvature="0"
   style="fill:#8b0304" />
	<g
   id="g70"
   transform="translate(294.5409,47.2752)">
		<path
   id="path72"
   d="m 55.6,404.6 h 33.3 v 11.1 H 55.8 v 9.8 h 38.8 v 11 H 39.1 V 435.7 402 c 0,-1.1 0.4,-2.3 0.9,-3.3 2.5,-4.5 5,-9.1 7.5,-13.6 0.5,-1 1.5,-1.1 2.4,-1.3 h 0.6 43.2 0.8 V 395 h -0.9 -32 c -1.3,0 -2.1,0.5 -2.6,1.8 -1,2.5 -2.1,5.1 -3.1,7.6 -0.1,-0.1 -0.1,0 -0.3,0.2"
   inkscape:connector-curvature="0" />
	</g>
	<g
   id="g74"
   transform="translate(370.1277,64.0131)">
		<path
   id="path76"
   d="m 74.5,367 h 0.9 42.6 c 1.9,0 3.1,0.9 4,2.4 1.4,2.8 2.8,5.6 4.1,8.5 1.1,2.3 2.1,4.5 3.3,6.8 0.4,0.9 0.8,1.9 0.3,2.9 -0.4,0.8 -0.9,1.4 -1.4,1.9 -2.6,3.1 -5.4,6.3 -8.1,9.4 -0.4,0.4 -0.6,0.8 -1,1.1 -0.4,0.3 -0.3,0.5 -0.1,0.9 2.9,5 5.8,10 8.6,15 0.7,1.3 1.5,2.5 2.2,3.9 h -0.6 -15.4 c -0.5,0 -0.8,-0.1 -1,-0.5 -4.3,-7 -8.5,-14.1 -12.8,-21.1 -0.5,-0.8 -0.9,-1.5 -1.4,-2.1 -0.4,-0.6 -0.5,-1.1 -0.1,-1.8 0.4,-0.6 0.9,-0.8 1.5,-0.8 h 5.1 c 1.1,0 2.1,-0.4 2.9,-1.4 1.5,-1.9 3.1,-3.5 4.8,-5.3 0.3,-0.3 0.4,-0.5 0.1,-0.8 -0.9,-2.1 -1.8,-4.3 -2.5,-6.4 C 110,378.5 109.2,378 108,378 H 91.9 91 v 41.8 H 74.5 Z"
   inkscape:connector-curvature="0" />
	</g>
	<g
   id="g78"
   transform="translate(437.6084,64.0523)">
		<path
   id="path80"
   d="m 91.4,366.9 h 15.5 c 2.9,0 5.4,0.8 7.5,2.6 1.9,1.8 3.1,3.9 3.4,6.4 0.1,1.4 0.1,2.8 0.1,4.1 v 29.3 c 0,2.4 -0.6,4.5 -2,6.4 -1.8,2.4 -4.1,3.8 -7,4.1 -0.8,0.1 -1.4,0.1 -2.1,0.1 H 75.7 c -3.1,0 -5.9,-1.1 -8,-3.4 -1.5,-1.8 -2.5,-3.8 -2.6,-6 C 65,407.7 65,405 65,402.2 v -24.5 c 0,-2.3 0.5,-4.4 1.9,-6.3 1.8,-2.5 4.1,-4 7.3,-4.4 0.6,-0.1 1.3,-0.1 1.9,-0.1 4.8,0 10.1,0 15.3,0 m -15.9,26.5 c 0.1,8.8 6.9,15.6 15.4,15.9 9.1,0.3 16,-7 16.3,-15.5 0.1,-8.8 -6.8,-15.8 -15.3,-16.1 -9.1,-0.4 -16.4,6.8 -16.4,15.7"
   inkscape:connector-curvature="0" />
	</g>
	<g
   id="g82"
   transform="translate(325.8262,34.9877)">
		<path
   id="path84"
   d="m 63.5,432.3 v -19.6 h 0.8 15.1 c 0.6,0 0.8,-0.1 0.8,-0.8 v -15 -0.9 h 19.6 v 16.6 h 16.5 v 19.6 H 99.6 v 16.6 H 80 V 448 433 c 0,-0.6 -0.1,-0.9 -0.9,-0.9 h -15 c 0.1,0.2 -0.6,0.2 -0.6,0.2 m 26.3,-15.6 c -3.3,0 -5.9,2.5 -5.9,5.8 0,3.3 2.6,5.8 5.8,5.9 3.3,0 5.8,-2.5 5.9,-5.8 0,-3.3 -2.5,-5.9 -5.8,-5.9 m 15,11.3 5.5,-5.5 -5.5,-5.5 z M 84.3,407.3 h 11.1 l -5.5,-5.5 c -1.9,1.9 -3.7,3.7 -5.6,5.5 m -15.1,15.1 c 1.8,1.8 3.6,3.6 5.4,5.5 V 417 c -1.8,1.8 -3.6,3.7 -5.4,5.4 M 89.7,443 c 1.9,-1.9 3.8,-3.6 5.5,-5.5 h -11 c 1.9,1.9 3.8,3.8 5.5,5.5"
   inkscape:connector-curvature="0" />
	</g>
	<g
   id="g86"
   transform="translate(247.7735,55.1985)">
		<path
   id="path88"
   d="m 43.9,386.8 v 41.8 H 27.3 v -52.8 h 0.9 43 c 1.5,0 2.6,0.5 3.3,1.8 1,1.9 1.9,3.8 2.9,5.6 1.6,3.5 3.4,6.9 5,10.4 0.6,1.4 0.5,2.6 -0.6,3.8 -2.1,2.4 -4.1,4.8 -6.1,7.1 -1.1,1.4 -2.4,2.8 -3.5,4.1 -0.4,0.4 -0.4,0.6 -0.1,1 3.5,6.3 7.1,12.4 10.6,18.6 0,0.1 0.1,0.1 0.1,0.3 H 82.3 66.8 c -0.4,0 -0.6,-0.1 -0.9,-0.5 -4.6,-7.8 -9.4,-15.5 -14,-23.4 -0.4,-0.6 -0.5,-1.3 -0.1,-1.9 0.4,-0.6 0.9,-0.8 1.6,-0.8 h 4.9 c 1.3,0 2.3,-0.4 3,-1.4 1.5,-1.8 3,-3.5 4.6,-5.3 0.3,-0.4 0.4,-0.6 0.1,-0.9 -0.8,-2 -1.6,-4 -2.4,-6 -0.6,-1.4 -1.3,-1.9 -2.8,-1.9 h -16 -1 v 0.4"
   inkscape:connector-curvature="0" />
	</g>
</g>
</svg>