<?xml version="1.0" encoding="UTF-8" standalone="no"?>
<!-- Created with Inkscape (http://www.inkscape.org/) -->

<svg
   xmlns:dc="http://purl.org/dc/elements/1.1/"
   xmlns:cc="http://creativecommons.org/ns#"
   xmlns:rdf="http://www.w3.org/1999/02/22-rdf-syntax-ns#"
   xmlns:svg="http://www.w3.org/2000/svg"
   xmlns="http://www.w3.org/2000/svg"
   xmlns:sodipodi="http://sodipodi.sourceforge.net/DTD/sodipodi-0.dtd"
   xmlns:inkscape="http://www.inkscape.org/namespaces/inkscape"
   width="159.27917mm"
   height="55.93174mm"
   viewBox="0 0 159.27917 55.93174"
   version="1.1"
   id="svg8"
   inkscape:version="0.92.4 (5da689c313, 2019-01-14)"
   sodipodi:docname="system.svg">
  <defs
     id="defs2" />
  <sodipodi:namedview
     id="base"
     pagecolor="#ffffff"
     bordercolor="#666666"
     borderopacity="1.0"
     inkscape:pageopacity="0.0"
     inkscape:pageshadow="2"
     inkscape:zoom="0.7"
     inkscape:cx="45.34828"
     inkscape:cy="-13.589617"
     inkscape:document-units="mm"
     inkscape:current-layer="layer1"
     showgrid="false"
     inkscape:window-width="1600"
     inkscape:window-height="837"
     inkscape:window-x="-8"
     inkscape:window-y="-8"
     inkscape:window-maximized="1" />
  <metadata
     id="metadata5">
    <rdf:RDF>
      <cc:Work
         rdf:about="">
        <dc:format>image/svg+xml</dc:format>
        <dc:type
           rdf:resource="http://purl.org/dc/dcmitype/StillImage" />
        <dc:title></dc:title>
      </cc:Work>
    </rdf:RDF>
  </metadata>
  <g
     inkscape:label="Camada 1"
     inkscape:groupmode="layer"
     id="layer1"
     transform="translate(-124.04614,-82.134144)">
    <g
       id="g215"
       transform="matrix(3.879473,0,0,3.879473,-357.18751,-397.55699)">
      <g
         aria-label="PERSONAL WORKSTATION"
         transform="scale(0.95125438,1.0512435)"
         style="font-style:italic;font-variant:normal;font-weight:bold;font-stretch:normal;font-size:2.14201617px;line-height:1.25;font-family:sans-serif;-inkscape-font-specification:'sans-serif, Bold Italic';font-variant-ligatures:normal;font-variant-caps:normal;font-variant-numeric:normal;font-feature-settings:normal;text-align:start;letter-spacing:0px;word-spacing:0px;writing-mode:lr-tb;text-anchor:start;fill:#000000;fill-opacity:1;stroke:none;stroke-width:0.08032534"
         id="text152">
        <path
           d="m 139.0489,130.1769 q 0,0.27821 -0.23115,0.4487 -0.2301,0.17048 -0.64428,0.17048 h -0.1527 l -0.11714,0.50726 h -0.40372 l 0.35979,-1.55735 h 0.55956 q 0.1527,0 0.26566,0.0209 0.11401,0.0209 0.19663,0.0722 0.0816,0.0513 0.12447,0.13387 0.0429,0.0816 0.0429,0.20395 z m -0.42882,0.0387 q 0,-0.091 -0.0659,-0.13492 -0.0659,-0.0439 -0.19558,-0.0439 h -0.16212 l -0.10772,0.46648 h 0.14433 q 0.18303,0 0.28449,-0.0743 0.1025,-0.0753 0.1025,-0.21337 z"
           style="font-style:italic;font-variant:normal;font-weight:bold;font-stretch:normal;font-size:2.14201617px;font-family:sans-serif;-inkscape-font-specification:'sans-serif, Bold Italic';font-variant-ligatures:normal;font-variant-caps:normal;font-variant-numeric:normal;font-feature-settings:normal;text-align:start;writing-mode:lr-tb;text-anchor:start;stroke-width:0.08032534"
           id="path217"
           inkscape:connector-curvature="0" />
        <path
           d="m 140.55709,129.74599 -0.068,0.29495 h -0.7269 l -0.0649,0.27821 h 0.67461 l -0.069,0.29599 h -0.67461 l -0.091,0.39326 h 0.7269 l -0.0669,0.29494 h -1.12853 l 0.35979,-1.55735 z"
           style="font-style:italic;font-variant:normal;font-weight:bold;font-stretch:normal;font-size:2.14201617px;font-family:sans-serif;-inkscape-font-specification:'sans-serif, Bold Italic';font-variant-ligatures:normal;font-variant-caps:normal;font-variant-numeric:normal;font-feature-settings:normal;text-align:start;writing-mode:lr-tb;text-anchor:start;stroke-width:0.08032534"
           id="path219"
           inkscape:connector-curvature="0" />
        <path
           d="m 142.09771,130.13821 q 0,0.18721 -0.114,0.31481 -0.114,0.1276 -0.30959,0.19245 l 0.35979,0.65787 h -0.44869 l -0.29285,-0.57106 h -0.22592 l -0.13178,0.57106 h -0.40163 l 0.35979,-1.55735 h 0.60767 q 0.28553,0 0.44137,0.0973 0.15584,0.0962 0.15584,0.29495 z m -0.433,0.0669 q 0,-0.0941 -0.0607,-0.13283 -0.0596,-0.0397 -0.17676,-0.0397 h -0.19872 l -0.0973,0.41941 h 0.19767 q 0.16003,0 0.24788,-0.0648 0.0879,-0.0659 0.0879,-0.18199 z"
           style="font-style:italic;font-variant:normal;font-weight:bold;font-stretch:normal;font-size:2.14201617px;font-family:sans-serif;-inkscape-font-specification:'sans-serif, Bold Italic';font-variant-ligatures:normal;font-variant-caps:normal;font-variant-numeric:normal;font-feature-settings:normal;text-align:start;writing-mode:lr-tb;text-anchor:start;stroke-width:0.08032534"
           id="path221"
           inkscape:connector-curvature="0" />
        <path
           d="m 142.78278,131.33158 q -0.19976,0 -0.35665,-0.0345 -0.15584,-0.0345 -0.26984,-0.0858 l 0.0805,-0.37338 h 0.0439 q 0.10773,0.0983 0.25311,0.1527 0.14538,0.0533 0.31272,0.0533 0.17153,0 0.25207,-0.046 0.0805,-0.0471 0.0805,-0.13388 0,-0.0324 -0.0136,-0.0554 -0.0126,-0.024 -0.0502,-0.0471 -0.0376,-0.023 -0.10354,-0.045 -0.0649,-0.023 -0.16839,-0.0523 -0.11401,-0.0314 -0.205,-0.068 -0.09,-0.0366 -0.15375,-0.0868 -0.0638,-0.0513 -0.0973,-0.11819 -0.0324,-0.0669 -0.0324,-0.16002 0,-0.23428 0.20604,-0.37339 0.20709,-0.14015 0.56584,-0.14015 0.17257,0 0.32527,0.0282 0.15375,0.0282 0.26043,0.0763 l -0.0764,0.35875 h -0.0429 q -0.0816,-0.0753 -0.21546,-0.12551 -0.13283,-0.0512 -0.29076,-0.0512 -0.15479,0 -0.23951,0.045 -0.0847,0.045 -0.0847,0.12447 0,0.0366 0.0126,0.0607 0.0126,0.024 0.0512,0.0471 0.0335,0.0209 0.10564,0.046 0.0722,0.0241 0.16943,0.0502 0.26148,0.0701 0.37339,0.1642 0.11192,0.0941 0.11192,0.25521 0,0.13492 -0.0607,0.23742 -0.0607,0.1025 -0.16734,0.1663 -0.11191,0.068 -0.25416,0.0994 -0.14224,0.0314 -0.32214,0.0314 z"
           style="font-style:italic;font-variant:normal;font-weight:bold;font-stretch:normal;font-size:2.14201617px;font-family:sans-serif;-inkscape-font-specification:'sans-serif, Bold Italic';font-variant-ligatures:normal;font-variant-caps:normal;font-variant-numeric:normal;font-feature-settings:normal;text-align:start;writing-mode:lr-tb;text-anchor:start;stroke-width:0.08032534"
           id="path223"
           inkscape:connector-curvature="0" />
        <path
           d="m 145.45717,130.32542 q 0,0.1914 -0.0648,0.37653 -0.0649,0.18512 -0.18826,0.32318 -0.13493,0.15061 -0.31482,0.23115 -0.1799,0.0795 -0.41418,0.0795 -0.319,0 -0.49994,-0.16421 -0.1799,-0.16525 -0.1799,-0.45392 0,-0.20291 0.069,-0.38594 0.069,-0.18304 0.19768,-0.32214 0.12551,-0.13492 0.31063,-0.21546 0.18513,-0.0805 0.40372,-0.0805 0.32005,0 0.49994,0.16525 0.18095,0.16525 0.18095,0.4466 z m -0.57421,0.53132 q 0.0711,-0.0931 0.11087,-0.21545 0.0408,-0.12342 0.0408,-0.28344 0,-0.16735 -0.0805,-0.26148 -0.0795,-0.0952 -0.228,-0.0952 -0.0973,0 -0.18617,0.045 -0.0879,0.0439 -0.16212,0.13492 -0.0722,0.0868 -0.1161,0.2165 -0.0439,0.12865 -0.0439,0.28972 0,0.17885 0.0816,0.26984 0.0826,0.091 0.228,0.091 0.10041,0 0.1935,-0.0491 0.0931,-0.0502 0.16211,-0.14225 z"
           style="font-style:italic;font-variant:normal;font-weight:bold;font-stretch:normal;font-size:2.14201617px;font-family:sans-serif;-inkscape-font-specification:'sans-serif, Bold Italic';font-variant-ligatures:normal;font-variant-caps:normal;font-variant-numeric:normal;font-feature-settings:normal;text-align:start;writing-mode:lr-tb;text-anchor:start;stroke-width:0.08032534"
           id="path225"
           inkscape:connector-curvature="0" />
        <path
           d="m 146.97164,131.30334 h -0.34201 l -0.45706,-1.07832 -0.24893,1.07832 h -0.37025 l 0.35979,-1.55735 h 0.44974 l 0.39117,0.90157 0.20709,-0.90157 h 0.37025 z"
           style="font-style:italic;font-variant:normal;font-weight:bold;font-stretch:normal;font-size:2.14201617px;font-family:sans-serif;-inkscape-font-specification:'sans-serif, Bold Italic';font-variant-ligatures:normal;font-variant-caps:normal;font-variant-numeric:normal;font-feature-settings:normal;text-align:start;writing-mode:lr-tb;text-anchor:start;stroke-width:0.08032534"
           id="path227"
           inkscape:connector-curvature="0" />
        <path
           d="m 148.82498,131.30334 h -0.40476 l -0.0356,-0.31795 h -0.57316 l -0.18199,0.31795 h -0.41941 l 0.934,-1.55735 h 0.46438 z m -0.47065,-0.59721 -0.0628,-0.55956 -0.32109,0.55956 z"
           style="font-style:italic;font-variant:normal;font-weight:bold;font-stretch:normal;font-size:2.14201617px;font-family:sans-serif;-inkscape-font-specification:'sans-serif, Bold Italic';font-variant-ligatures:normal;font-variant-caps:normal;font-variant-numeric:normal;font-feature-settings:normal;text-align:start;writing-mode:lr-tb;text-anchor:start;stroke-width:0.08032534"
           id="path229"
           inkscape:connector-curvature="0" />
        <path
           d="m 150.15851,131.30334 h -1.12434 l 0.35979,-1.55735 h 0.40372 l -0.28972,1.25613 h 0.72063 z"
           style="font-style:italic;font-variant:normal;font-weight:bold;font-stretch:normal;font-size:2.14201617px;font-family:sans-serif;-inkscape-font-specification:'sans-serif, Bold Italic';font-variant-ligatures:normal;font-variant-caps:normal;font-variant-numeric:normal;font-feature-settings:normal;text-align:start;writing-mode:lr-tb;text-anchor:start;stroke-width:0.08032534"
           id="path231"
           inkscape:connector-curvature="0" />
        <path
           d="m 153.64034,129.74599 -0.75724,1.55735 h -0.43091 l -0.0669,-1.0323 -0.50517,1.0323 h -0.44765 l -0.0711,-1.55735 h 0.41941 l 0.003,1.07205 0.52296,-1.07205 h 0.40058 l 0.0471,1.07205 0.47694,-1.07205 z"
           style="font-style:italic;font-variant:normal;font-weight:bold;font-stretch:normal;font-size:2.14201617px;font-family:sans-serif;-inkscape-font-specification:'sans-serif, Bold Italic';font-variant-ligatures:normal;font-variant-caps:normal;font-variant-numeric:normal;font-feature-settings:normal;text-align:start;writing-mode:lr-tb;text-anchor:start;stroke-width:0.08032534"
           id="path233"
           inkscape:connector-curvature="0" />
        <path
           d="m 155.27195,130.32542 q 0,0.1914 -0.0648,0.37653 -0.0649,0.18512 -0.18827,0.32318 -0.13492,0.15061 -0.31482,0.23115 -0.17989,0.0795 -0.41417,0.0795 -0.31901,0 -0.49995,-0.16421 -0.17989,-0.16525 -0.17989,-0.45392 0,-0.20291 0.069,-0.38594 0.069,-0.18304 0.19767,-0.32214 0.12551,-0.13492 0.31064,-0.21546 0.18512,-0.0805 0.40372,-0.0805 0.32004,0 0.49994,0.16525 0.18094,0.16525 0.18094,0.4466 z m -0.5742,0.53132 q 0.0711,-0.0931 0.11087,-0.21545 0.0408,-0.12342 0.0408,-0.28344 0,-0.16735 -0.0805,-0.26148 -0.0795,-0.0952 -0.22801,-0.0952 -0.0973,0 -0.18617,0.045 -0.0879,0.0439 -0.16211,0.13492 -0.0722,0.0868 -0.1161,0.2165 -0.0439,0.12865 -0.0439,0.28972 0,0.17885 0.0816,0.26984 0.0826,0.091 0.22801,0.091 0.10041,0 0.19349,-0.0491 0.0931,-0.0502 0.16212,-0.14225 z"
           style="font-style:italic;font-variant:normal;font-weight:bold;font-stretch:normal;font-size:2.14201617px;font-family:sans-serif;-inkscape-font-specification:'sans-serif, Bold Italic';font-variant-ligatures:normal;font-variant-caps:normal;font-variant-numeric:normal;font-feature-settings:normal;text-align:start;writing-mode:lr-tb;text-anchor:start;stroke-width:0.08032534"
           id="path235"
           inkscape:connector-curvature="0" />
        <path
           d="m 156.93285,130.13821 q 0,0.18721 -0.114,0.31481 -0.11401,0.1276 -0.30959,0.19245 l 0.35979,0.65787 h -0.44869 l -0.29286,-0.57106 h -0.22591 l -0.13179,0.57106 h -0.40163 l 0.3598,-1.55735 h 0.60767 q 0.28553,0 0.44137,0.0973 0.15584,0.0962 0.15584,0.29495 z m -0.43301,0.0669 q 0,-0.0941 -0.0607,-0.13283 -0.0596,-0.0397 -0.17676,-0.0397 h -0.19872 l -0.0973,0.41941 h 0.19768 q 0.16002,0 0.24788,-0.0648 0.0879,-0.0659 0.0879,-0.18199 z"
           style="font-style:italic;font-variant:normal;font-weight:bold;font-stretch:normal;font-size:2.14201617px;font-family:sans-serif;-inkscape-font-specification:'sans-serif, Bold Italic';font-variant-ligatures:normal;font-variant-caps:normal;font-variant-numeric:normal;font-feature-settings:normal;text-align:start;writing-mode:lr-tb;text-anchor:start;stroke-width:0.08032534"
           id="path237"
           inkscape:connector-curvature="0" />
        <path
           d="m 158.5174,131.30334 h -0.44242 l -0.35038,-0.63068 -0.16211,0.1412 -0.11296,0.48948 h -0.40372 l 0.35874,-1.55735 h 0.40372 l -0.15793,0.68611 0.70285,-0.68611 h 0.47694 l -0.78653,0.72481 z"
           style="font-style:italic;font-variant:normal;font-weight:bold;font-stretch:normal;font-size:2.14201617px;font-family:sans-serif;-inkscape-font-specification:'sans-serif, Bold Italic';font-variant-ligatures:normal;font-variant-caps:normal;font-variant-numeric:normal;font-feature-settings:normal;text-align:start;writing-mode:lr-tb;text-anchor:start;stroke-width:0.08032534"
           id="path239"
           inkscape:connector-curvature="0" />
        <path
           d="m 159.27045,131.33158 q -0.19977,0 -0.35665,-0.0345 -0.15584,-0.0345 -0.26985,-0.0858 l 0.0805,-0.37338 h 0.0439 q 0.10772,0.0983 0.2531,0.1527 0.14539,0.0533 0.31273,0.0533 0.17153,0 0.25206,-0.046 0.0805,-0.0471 0.0805,-0.13388 0,-0.0324 -0.0136,-0.0554 -0.0126,-0.024 -0.0502,-0.0471 -0.0376,-0.023 -0.10355,-0.045 -0.0648,-0.023 -0.16839,-0.0523 -0.114,-0.0314 -0.20499,-0.068 -0.0899,-0.0366 -0.15375,-0.0868 -0.0638,-0.0513 -0.0973,-0.11819 -0.0324,-0.0669 -0.0324,-0.16002 0,-0.23428 0.20605,-0.37339 0.20709,-0.14015 0.56583,-0.14015 0.17258,0 0.32528,0.0282 0.15375,0.0282 0.26043,0.0763 l -0.0763,0.35875 h -0.0429 q -0.0816,-0.0753 -0.21546,-0.12551 -0.13283,-0.0512 -0.29076,-0.0512 -0.1548,0 -0.23951,0.045 -0.0847,0.045 -0.0847,0.12447 0,0.0366 0.0125,0.0607 0.0126,0.024 0.0513,0.0471 0.0335,0.0209 0.10563,0.046 0.0722,0.0241 0.16944,0.0502 0.26148,0.0701 0.37339,0.1642 0.11191,0.0941 0.11191,0.25521 0,0.13492 -0.0607,0.23742 -0.0607,0.1025 -0.16735,0.1663 -0.11191,0.068 -0.25415,0.0994 -0.14224,0.0314 -0.32214,0.0314 z"
           style="font-style:italic;font-variant:normal;font-weight:bold;font-stretch:normal;font-size:2.14201617px;font-family:sans-serif;-inkscape-font-specification:'sans-serif, Bold Italic';font-variant-ligatures:normal;font-variant-caps:normal;font-variant-numeric:normal;font-feature-settings:normal;text-align:start;writing-mode:lr-tb;text-anchor:start;stroke-width:0.08032534"
           id="path241"
           inkscape:connector-curvature="0" />
        <path
           d="m 161.73251,130.04721 h -0.4853 l -0.28971,1.25613 h -0.40372 l 0.28971,-1.25613 h -0.4853 l 0.069,-0.30122 h 1.37432 z"
           style="font-style:italic;font-variant:normal;font-weight:bold;font-stretch:normal;font-size:2.14201617px;font-family:sans-serif;-inkscape-font-specification:'sans-serif, Bold Italic';font-variant-ligatures:normal;font-variant-caps:normal;font-variant-numeric:normal;font-feature-settings:normal;text-align:start;writing-mode:lr-tb;text-anchor:start;stroke-width:0.08032534"
           id="path243"
           inkscape:connector-curvature="0" />
        <path
           d="m 163.13717,131.30334 h -0.40477 l -0.0356,-0.31795 h -0.57316 l -0.18198,0.31795 h -0.41941 l 0.93399,-1.55735 h 0.46438 z m -0.47066,-0.59721 -0.0628,-0.55956 -0.32109,0.55956 z"
           style="font-style:italic;font-variant:normal;font-weight:bold;font-stretch:normal;font-size:2.14201617px;font-family:sans-serif;-inkscape-font-specification:'sans-serif, Bold Italic';font-variant-ligatures:normal;font-variant-caps:normal;font-variant-numeric:normal;font-feature-settings:normal;text-align:start;writing-mode:lr-tb;text-anchor:start;stroke-width:0.08032534"
           id="path245"
           inkscape:connector-curvature="0" />
        <path
           d="m 164.85768,130.04721 h -0.4853 l -0.28971,1.25613 h -0.40372 l 0.28971,-1.25613 h -0.4853 l 0.069,-0.30122 h 1.37432 z"
           style="font-style:italic;font-variant:normal;font-weight:bold;font-stretch:normal;font-size:2.14201617px;font-family:sans-serif;-inkscape-font-specification:'sans-serif, Bold Italic';font-variant-ligatures:normal;font-variant-caps:normal;font-variant-numeric:normal;font-feature-settings:normal;text-align:start;writing-mode:lr-tb;text-anchor:start;stroke-width:0.08032534"
           id="path247"
           inkscape:connector-curvature="0" />
        <path
           d="m 165.64943,131.30334 h -0.91203 l 0.0638,-0.27611 h 0.25416 l 0.23219,-1.00512 h -0.25416 l 0.0638,-0.27612 h 0.91204 l -0.0638,0.27612 h -0.25415 l -0.23219,1.00512 h 0.25415 z"
           style="font-style:italic;font-variant:normal;font-weight:bold;font-stretch:normal;font-size:2.14201617px;font-family:sans-serif;-inkscape-font-specification:'sans-serif, Bold Italic';font-variant-ligatures:normal;font-variant-caps:normal;font-variant-numeric:normal;font-feature-settings:normal;text-align:start;writing-mode:lr-tb;text-anchor:start;stroke-width:0.08032534"
           id="path249"
           inkscape:connector-curvature="0" />
        <path
           d="m 167.7015,130.32542 q 0,0.1914 -0.0648,0.37653 -0.0649,0.18512 -0.18827,0.32318 -0.13492,0.15061 -0.31482,0.23115 -0.17989,0.0795 -0.41417,0.0795 -0.31901,0 -0.49995,-0.16421 -0.17989,-0.16525 -0.17989,-0.45392 0,-0.20291 0.069,-0.38594 0.069,-0.18304 0.19767,-0.32214 0.12551,-0.13492 0.31064,-0.21546 0.18512,-0.0805 0.40372,-0.0805 0.32004,0 0.49994,0.16525 0.18094,0.16525 0.18094,0.4466 z m -0.5742,0.53132 q 0.0711,-0.0931 0.11087,-0.21545 0.0408,-0.12342 0.0408,-0.28344 0,-0.16735 -0.0805,-0.26148 -0.0795,-0.0952 -0.22801,-0.0952 -0.0973,0 -0.18617,0.045 -0.0879,0.0439 -0.16211,0.13492 -0.0722,0.0868 -0.1161,0.2165 -0.0439,0.12865 -0.0439,0.28972 0,0.17885 0.0816,0.26984 0.0826,0.091 0.22801,0.091 0.10041,0 0.19349,-0.0491 0.0931,-0.0502 0.16212,-0.14225 z"
           style="font-style:italic;font-variant:normal;font-weight:bold;font-stretch:normal;font-size:2.14201617px;font-family:sans-serif;-inkscape-font-specification:'sans-serif, Bold Italic';font-variant-ligatures:normal;font-variant-caps:normal;font-variant-numeric:normal;font-feature-settings:normal;text-align:start;writing-mode:lr-tb;text-anchor:start;stroke-width:0.08032534"
           id="path251"
           inkscape:connector-curvature="0" />
        <path
           d="m 169.21597,131.30334 h -0.34201 l -0.45706,-1.07832 -0.24892,1.07832 h -0.37025 l 0.35979,-1.55735 h 0.44974 l 0.39117,0.90157 0.20709,-0.90157 h 0.37025 z"
           style="font-style:italic;font-variant:normal;font-weight:bold;font-stretch:normal;font-size:2.14201617px;font-family:sans-serif;-inkscape-font-specification:'sans-serif, Bold Italic';font-variant-ligatures:normal;font-variant-caps:normal;font-variant-numeric:normal;font-feature-settings:normal;text-align:start;writing-mode:lr-tb;text-anchor:start;stroke-width:0.08032534"
           id="path253"
           inkscape:connector-curvature="0" />
      </g>
      <g
         transform="matrix(0.10264227,0,0,0.10419821,124.04614,123.64853)"
         id="g193">
        <g
           id="g22"
           transform="matrix(0.52944194,0,0,0.52944194,0.52944194,0.2696818)">
    <g
   id="g8">
      <path
   inkscape:connector-curvature="0"
   d="m 30.9,81.2 74.4,127.6 h 101 L 131.9,81.2 Z m 15.9,7.9 h 77.1 l 63.6,109 h -77.1 z"
   id="path2"
   style="fill:#ff0000" />

      <path
   inkscape:connector-curvature="0"
   d="M 57.5,149.5 -1,208.7 h 93 z m -3.1,16.7 21.7,34.6 H 20.3 Z"
   id="path4"
   style="fill:#ff0000" />

      <path
   inkscape:connector-curvature="0"
   d="m 177.2,140.3 58.5,-59.2 h -93 z M 180.3,123.6 158.6,89 h 55.8 z"
   id="path6"
   style="fill:#ff0000" />

    </g>

    <g
   id="g20">
      <path
   inkscape:connector-curvature="0"
   d="m 251.7,164.2 c -0.1,-0.2 -0.4,1.4 -0.9,4.9 -0.5,3.4 -0.7,6 -0.8,7.7 0.5,3.6 1.7,3.6 3.7,5.4 1.6,1 3,0.7 7,1.2 3.9,0.5 27.4,0.5 31.4,0 4,-0.4 7.3,-1 9.4,-2.4 4.2,-2.6 7.1,-6.5 8.6,-16.8 1.1,-5.6 1.5,-7 1.4,-9.6 -0.2,-3.5 -1.9,-5.9 -5.4,-7.1 -3.4,-1.2 -8.4,-0.6 -14,-0.6 h -10.9 c -11.8,0 -18.9,0.1 -22.4,2.5 -4,2.7 -5.6,6.3 -7.1,14.8 z m 84.2,-41 h -16.7 c 0.6,-4 0.4,-6.7 0.3,-9.2 -0.1,-2.5 -0.4,-4.7 -1.5,-5.5 -2.4,-2 -12,-1.9 -22.3,-1.9 H 286 c -10.2,0 -16.2,-0.1 -19.3,2.2 -4,3.1 -6.4,7.9 -7.3,14.3 l -2.7,11.1 c 0,0 1.8,-2.7 5.9,-3.1 7.1,-0.8 19,-0.1 23.4,-0.1 10.9,0.2 19.8,-0.5 25.7,0.5 5.8,1 12.2,2.2 15.2,5.5 2.7,2.8 4.2,7 4.4,12.7 0.2,3.8 -0.6,9.9 -2.2,18.4 -0.9,4.1 -2,7.8 -3.3,11.1 -1.2,3.3 -2.9,6.4 -5.1,9.2 -2.2,2.8 -4.8,7.7 -7.8,9.3 -4.7,2.4 -10.8,2.3 -16.3,2.9 -5.5,0.6 -14.3,0 -23,0 -7.8,0 -15.7,0.2 -21.4,-0.5 -5.7,-0.7 -10.4,-2.3 -14,-4.9 -4.5,-3.3 -7,-8.7 -7.6,-16.2 0,-3.9 0.4,-8.3 1.3,-13.3 l 9.3,-48.8 c 1.8,-10.7 5,-19 12.8,-24 4.3,-2.7 9.6,-4.5 15.7,-5.3 6.2,-0.9 16.4,-1.3 25.2,-1.3 h 13.7 c 9.3,0 11.9,1.2 18.4,3.7 6.5,2.5 9.9,7.4 10.3,14.8 0.2,2.4 -0.3,12 -1.4,18.4 z"
   id="path10"
   style="fill:#ff0000" />

      <path
   inkscape:connector-curvature="0"
   d="m 400,102.1 c -11,0 -20.9,0.5 -24.6,1.5 -3.6,1 -5.8,0.9 -7.5,3.5 -1.6,2.6 -2.6,5.3 -3.1,8.1 -0.4,2.8 -0.8,6.6 -1.2,11.4 0.3,2.9 1.3,4.8 2.7,5.9 2.8,1.8 12.8,2 25.7,2 11.6,0 20.2,-0.2 24.7,-2.2 1.9,-0.8 3.6,-2.5 4.9,-5.1 1.4,-2.6 2.2,-4.6 3.2,-9.6 0.5,-3 0.8,-5.6 0.7,-7.7 -0.1,-2.7 -0.9,-4.4 -2.5,-5.3 -1.7,-1 -4.4,-1.6 -8,-1.9 -3.4,-0.5 -8.5,-0.6 -15,-0.6 z m 27.9,39.5 c 6.9,2.8 6.9,9.4 7,17.1 0,1.1 0.3,6.9 -0.1,8.9 -0.4,2 -0.2,3.5 -0.4,4.2 -1.5,7 -2,10.1 -4.4,14.2 -2.4,4.1 -3.8,7.1 -7.9,9.3 -3.6,2 -8.2,3.5 -13.7,4.2 -5.5,0.8 -15.2,1.2 -23.7,1.2 h -11 c -9.5,0 -17,-0.3 -22.4,-1 -5.4,-0.7 -8.5,-3.2 -11.7,-6.1 -3,-2.6 -5.8,-8.9 -6.3,-15 0.2,-2.8 0.7,-4.3 1.5,-9.7 1.1,-5 1.4,-8.9 2.3,-11.6 0.9,-2.7 2.6,-5.8 4.6,-8.2 1.9,-2.4 4.8,-4.2 8.1,-6.1 2.1,-1.2 2.7,-1.6 0.6,-3.4 -2.3,-1.9 -3,-3.8 -3.6,-6.1 -0.3,-0.7 -0.5,-8 -0.5,-8.2 1,-16.5 5.4,-24.9 13.1,-31.3 4.5,-3.9 6.5,-6.2 16.6,-6.9 5.2,-0.4 19.4,-0.6 26.6,-0.6 10,0 19.7,0.2 23.8,0.6 3.6,0.5 6.8,1.3 9.5,2.3 2.7,1 2.4,2.8 4.5,5.2 1.8,2.3 2.8,5.9 2.9,10.8 0.1,3.4 -0.1,7 -0.7,10.7 -0.5,3.7 -1.5,7.3 -2.9,10.7 -1.4,3.4 -3.2,6.2 -5.4,8.3 -2.8,3 -2.4,5.2 -6.1,6.4 -0.8,0.3 -1.2,0.1 -1.2,0 0,-0.1 0.3,-0.1 0.9,0.1 z m -39.1,7.4 c -7,0 -14.2,0 -18,0.4 -3.8,0.4 -6.9,1.2 -9.3,2.4 -2.2,1 -4,2.8 -5.4,5.5 -1.4,2.6 -2.6,6.3 -3.6,11.1 -0.9,5.5 -0.8,6.6 -0.9,8.2 0.3,2.9 0.9,4.6 3.1,5.6 2.2,1 5.4,2.7 9.7,2.8 3.3,0.4 12,0.5 20.8,0.5 9.1,0 16.2,0.6 21.1,-1.2 2.3,-1 4.9,-1.3 6.4,-3.9 1.5,-2.6 2.1,-5.3 3.2,-10.4 0.9,-3.9 1.3,-6.9 1.3,-9.1 -0.1,-2.5 -0.8,-7.1 -2.1,-8.4 -1.1,-1.3 -3.6,-2.2 -7.5,-2.8 -4.1,-0.6 -10.9,-0.7 -18.8,-0.7 z"
   id="path12"
   style="fill:#ff0000" />

      <path
   inkscape:connector-curvature="0"
   d="m 484.3,200.8 c -9.9,0 -20.5,-0.6 -26.3,-1.9 -5.8,-1.3 -10.1,-3.5 -12.7,-6.6 -3.3,-3.7 -2.7,-9 -3.1,-16.2 0.2,-5.8 0.9,-11.6 1.9,-17.1 l 6,-31.6 c 1.3,-6.8 3,-12.9 5.3,-18.4 2.3,-5.5 5.6,-10.1 9.7,-13.7 2.4,-2.3 5.5,-4.1 9.4,-5.5 3.9,-1.3 8.3,-2.2 13.3,-2.6 5,-0.4 11,-0.6 18.3,-0.6 5.5,0 10.4,0.2 14.7,0.6 4.4,0.4 8.2,1 11.5,2 3.3,1 6.1,2.5 8.4,4.4 4.1,3.8 6.3,9.7 6.5,17.8 0.1,3.3 -0.4,8.9 -1.5,16.8 l -6.1,31.8 c -3.3,18 -7.3,29.9 -17.2,35.5 -4,2.2 -8.9,3.7 -14.6,4.4 -5.8,0.5 -15.3,0.9 -23.5,0.9 z m 18.9,-98 c -7.6,0 -13,0.1 -16.3,0.4 -3.3,0.3 -6.1,0.9 -8.4,1.8 -1.8,0.7 -3.4,1.8 -4.9,3.2 -1.4,1.4 -2.9,3.7 -4.3,6.9 -1.4,3.2 -2.7,5 -3.7,10.4 l -6.8,36.1 c -0.8,5.3 -1.3,7 -1.5,10.4 0.2,3 0.7,5.2 1.5,6.6 0.8,1.4 2,2.5 3.6,3.3 2,1 4.6,1.7 7.7,2 3.1,0.3 8.2,0.4 15.4,0.4 8.7,0 15.1,-0.3 19.4,-0.8 4.3,-0.5 7.5,-1.7 9.7,-3.6 4.1,-3.6 6.4,-9.1 8.8,-20.5 l 6.3,-33.3 c 0.9,-6.4 1.3,-8.5 1.3,-11.8 -0.1,-4.5 -0.3,-6.9 -2.2,-8.3 -1.9,-1.4 -4.6,-2.3 -8,-2.7 -3.6,-0.3 -9.4,-0.5 -17.6,-0.5 z"
   id="path14"
   style="fill:#ff0000" />

      <path
   inkscape:connector-curvature="0"
   d="m 588,200.8 c -9.9,0 -20.5,-0.6 -26.3,-1.9 -5.8,-1.3 -10.1,-3.5 -12.7,-6.6 -3.3,-3.7 -2.7,-9 -3.1,-16.2 0.2,-5.8 0.9,-11.6 1.9,-17.1 l 6,-31.6 c 1.3,-6.8 3,-12.9 5.3,-18.4 2.3,-5.5 5.6,-10.1 9.7,-13.7 2.4,-2.3 5.5,-4.1 9.4,-5.5 3.9,-1.3 8.3,-2.2 13.3,-2.6 5,-0.4 11,-0.6 18.3,-0.6 5.5,0 10.4,0.2 14.7,0.6 4.4,0.4 8.2,1 11.5,2 3.3,1 6.1,2.5 8.4,4.4 4.1,3.8 6.3,9.7 6.5,17.8 0.1,3.3 -0.4,8.9 -1.5,16.8 l -6.1,31.8 c -3.3,18 -7.3,29.9 -17.2,35.5 -4,2.2 -8.9,3.7 -14.6,4.4 -5.8,0.5 -15.4,0.9 -23.5,0.9 z m 18.8,-98 c -7.6,0 -13,0.1 -16.3,0.4 -3.3,0.3 -6.1,0.9 -8.4,1.8 -1.8,0.7 -3.4,1.8 -4.9,3.2 -1.4,1.4 -2.9,3.7 -4.3,6.9 -1.4,3.2 -2.7,5 -3.7,10.4 l -6.8,36.1 c -0.8,5.3 -1.3,7 -1.5,10.4 0.2,3 0.7,5.2 1.5,6.6 0.8,1.4 2,2.5 3.6,3.3 2,1 4.6,1.7 7.7,2 3.1,0.3 8.2,0.4 15.4,0.4 8.7,0 15.1,-0.3 19.4,-0.8 4.3,-0.5 7.5,-1.7 9.7,-3.6 4.1,-3.6 6.4,-9.1 8.8,-20.5 l 6.3,-33.3 c 0.9,-6.4 1.3,-8.5 1.3,-11.8 -0.1,-4.5 -0.3,-6.9 -2.2,-8.3 -1.9,-1.4 -4.6,-2.3 -8,-2.7 -3.5,-0.3 -9.3,-0.5 -17.6,-0.5 z"
   id="path16"
   style="fill:#ff0000" />

      <path
   inkscape:connector-curvature="0"
   d="m 691.6,200.8 c -9.9,0 -20.5,-0.6 -26.3,-1.9 -5.8,-1.3 -10.1,-3.5 -12.7,-6.6 -3.3,-3.7 -2.7,-9 -3.1,-16.2 0.2,-5.8 0.9,-11.6 1.9,-17.1 l 6,-31.6 c 1.3,-6.8 3,-12.9 5.3,-18.4 2.3,-5.5 5.6,-10.1 9.7,-13.7 2.4,-2.3 5.5,-4.1 9.4,-5.5 3.9,-1.3 8.3,-2.2 13.3,-2.6 5,-0.4 11,-0.6 18.3,-0.6 5.5,0 10.4,0.2 14.7,0.6 4.4,0.4 8.2,1 11.5,2 3.3,1 6.1,2.5 8.4,4.4 4.1,3.8 6.3,9.7 6.5,17.8 0.1,3.3 -0.4,8.9 -1.5,16.8 l -6.1,31.8 c -3.3,18 -7.3,29.9 -17.2,35.5 -4,2.2 -8.9,3.7 -14.6,4.4 -5.8,0.5 -15.3,0.9 -23.5,0.9 z m 18.9,-98 c -7.6,0 -13,0.1 -16.3,0.4 -3.3,0.3 -6.1,0.9 -8.4,1.8 -1.8,0.7 -3.4,1.8 -4.9,3.2 -1.4,1.4 -2.9,3.7 -4.3,6.9 -1.4,3.2 -2.7,5 -3.7,10.4 l -6.8,36.1 c -0.8,5.3 -1.3,7 -1.5,10.4 0.2,3 0.7,5.2 1.5,6.6 0.8,1.4 2,2.5 3.6,3.3 2,1 4.6,1.7 7.7,2 3.1,0.3 8.2,0.4 15.4,0.4 8.7,0 15.1,-0.3 19.4,-0.8 4.3,-0.5 7.5,-1.7 9.7,-3.6 4.1,-3.6 6.4,-9.1 8.8,-20.5 l 6.3,-33.3 c 0.9,-6.4 1.3,-8.5 1.3,-11.8 -0.1,-4.5 -0.3,-6.9 -2.2,-8.3 -1.9,-1.4 -4.6,-2.3 -8,-2.7 -3.6,-0.3 -9.4,-0.5 -17.6,-0.5 z"
   id="path18"
   style="fill:#ff0000" />

    </g>

  </g>
        <g
           id="g34"
           transform="matrix(0.52944194,0,0,0.52944194,0.52944194,0.2696818)">
    <path
   style="fill:#ff0000"
   d="M 272,60.2 V 37.1 h 38.3 v 23.1 h 19.9 V 2 H 310.3 V 24.3 H 272 V 2 h -19.9 v 58.2 z"
   id="polygon24"
   inkscape:connector-curvature="0" />

    <path
   inkscape:connector-curvature="0"
   d="m 375.2,14.6 12.6,20.9 h -25.2 z m 19.9,32.8 7.7,12.8 h 23.1 L 390.8,2 h -8 -15.1 l -35.1,58.2 h 15.1 l 7.7,-12.8 z"
   id="path26"
   style="fill:#ff0000" />

    <path
   inkscape:connector-curvature="0"
   d="m 512,2 v 58.2 h 19.1 V 39.1 c 6.3,1.3 13.5,1.9 21.1,1.9 25.3,0 36.9,-9.1 37.1,-20.3 0.2,-13.5 -14.9,-21.1 -40.3,-21.1 -6.6,0 -8.9,0.3 -17.9,0.8 C 522.1,0.9 512,2 512,2 Z m 19.1,9.2 c 0,0 4.7,-0.5 8.9,-0.8 4.2,-0.3 5.3,-0.2 8.4,-0.2 11.7,0 18.8,3.7 18.6,10.6 -0.1,5.8 -5.5,10.4 -17.2,10.4 -3.5,0 -8.9,-0.5 -12.4,-1 -3.6,-0.5 -6.2,-1.6 -6.2,-1.6 V 11.2 Z"
   id="path28"
   style="fill:#ff0000" />

    <path
   inkscape:connector-curvature="0"
   d="m 428.3,2 v 58.2 h 19.1 v -49 c 0,0 4.7,-0.5 8.9,-0.8 4.2,-0.3 5.3,-0.2 8.4,-0.2 11.7,0 19.6,3.7 19.4,10.6 -0.1,5.8 -6.3,8.8 -18,8.8 -3.5,0 -7.9,-0.5 -11.5,-1 -0.2,0 -4,6.2 -4,6.2 l 28.7,25.4 H 508 L 482.7,38.4 c 15.9,-2.7 23.7,-9.9 23.8,-17.7 0,-15.1 -15,-21.4 -41.1,-21.1 -6.6,0.1 -8.9,0.3 -17.9,0.8 C 438.3,0.9 428.3,2 428.3,2 Z"
   id="path30"
   style="fill:#ff0000" />

    <path
   inkscape:connector-curvature="0"
   d="m 239.3,19.5 c 0,0 6.7,-12.3 6.4,-12.8 C 245.4,6.2 232.2,-0.8 205.8,-0.5 164.9,0 165.1,17 165.1,17 c 0,0 -4.1,15.9 27.7,19.1 19.5,2 33.4,5.3 33.3,10 -0.1,4.7 -8.3,4.5 -11.9,4.2 C 182.3,47.7 170.9,38.8 170.9,38.8 L 164,53.3 c 0,0 15.4,9.6 47.4,9.3 32,-0.3 36.4,-7.9 37,-18.1 0.7,-12.7 -17.1,-17.8 -17.1,-17.8 0,0 -9.8,-2.1 -19.9,-3.6 -11.7,-1.7 -23.8,-3.5 -22.3,-8.2 0,-0.2 3.4,-6.8 27.9,-2.2 11.9,2.3 22.3,6.8 22.3,6.8 z"
   id="path32"
   style="fill:#ff0000" />

  </g>
      </g>
    </g>
  </g>
</svg>
