<?xml version="1.0" encoding="UTF-8" standalone="no"?>
<!-- Creator: CorelDRAW X5 -->

<svg
   xmlns:osb="http://www.openswatchbook.org/uri/2009/osb"
   xmlns:dc="http://purl.org/dc/elements/1.1/"
   xmlns:cc="http://creativecommons.org/ns#"
   xmlns:rdf="http://www.w3.org/1999/02/22-rdf-syntax-ns#"
   xmlns:svg="http://www.w3.org/2000/svg"
   xmlns="http://www.w3.org/2000/svg"
   xmlns:xlink="http://www.w3.org/1999/xlink"
   xmlns:sodipodi="http://sodipodi.sourceforge.net/DTD/sodipodi-0.dtd"
   xmlns:inkscape="http://www.inkscape.org/namespaces/inkscape"
   xml:space="preserve"
   width="280.55106mm"
   height="98.830559mm"
   style="clip-rule:evenodd;fill-rule:evenodd;image-rendering:optimizeQuality;shape-rendering:geometricPrecision;text-rendering:geometricPrecision"
   viewBox="0 0 280.55106 98.830559"
   id="svg3015"
   version="1.1"
   inkscape:version="0.92.4 (5da689c313, 2019-01-14)"
   sodipodi:docname="laser.svg"><metadata
   id="metadata3043"><rdf:RDF><cc:Work
       rdf:about=""><dc:format>image/svg+xml</dc:format><dc:type
         rdf:resource="http://purl.org/dc/dcmitype/StillImage" /><dc:title></dc:title></cc:Work></rdf:RDF></metadata><sodipodi:namedview
   pagecolor="#ffffff"
   bordercolor="#666666"
   borderopacity="1"
   objecttolerance="10"
   gridtolerance="10"
   guidetolerance="10"
   inkscape:pageopacity="0"
   inkscape:pageshadow="2"
   inkscape:window-width="1600"
   inkscape:window-height="838"
   id="namedview3041"
   showgrid="false"
   inkscape:zoom="0.66553275"
   inkscape:cx="467.87169"
   inkscape:cy="161.36007"
   inkscape:window-x="-8"
   inkscape:window-y="-8"
   inkscape:window-maximized="1"
   inkscape:current-layer="g4865"
   showguides="false" />
 <defs
   id="defs3017"><linearGradient
   id="linearGradient7040"
   osb:paint="solid"><stop
     style="stop-color:#0098ef;stop-opacity:1;"
     offset="0"
     id="stop7038" /></linearGradient><linearGradient
   id="linearGradient4855"><stop
     style="stop-color:#8a8a8a;stop-opacity:1;"
     offset="0"
     id="stop4857" /><stop
     style="stop-color:#4d4d4d;stop-opacity:0;"
     offset="1"
     id="stop4859" /></linearGradient><linearGradient
   id="linearGradient4756"><stop
     style="stop-color:#0000ff;stop-opacity:0;"
     offset="0"
     id="stop4758" /><stop
     id="stop4764"
     offset="0.5"
     style="stop-color:#0000ff;stop-opacity:1;" /><stop
     style="stop-color:#0000ff;stop-opacity:0;"
     offset="1"
     id="stop4760" /></linearGradient><linearGradient
   id="linearGradient4744"><stop
     style="stop-color:#0000ff;stop-opacity:1;"
     offset="0"
     id="stop4746" /><stop
     id="stop4752"
     offset="0.5"
     style="stop-color:#ffffff;stop-opacity:1;" /><stop
     style="stop-color:#0000ff;stop-opacity:1;"
     offset="1"
     id="stop4748" /></linearGradient><linearGradient
   inkscape:collect="always"
   id="linearGradient4392"><stop
     style="stop-color:#00ff00;stop-opacity:1;"
     offset="0"
     id="stop4394" /><stop
     style="stop-color:#00ff00;stop-opacity:0;"
     offset="1"
     id="stop4396" /></linearGradient><linearGradient
   id="linearGradient4332"><stop
     style="stop-color:#fffff1;stop-opacity:1;"
     offset="0"
     id="stop4334" /><stop
     style="stop-color:#ffff00;stop-opacity:1;"
     offset="1"
     id="stop4336" /></linearGradient><linearGradient
   id="linearGradient3894"><stop
     style="stop-color:#ffacac;stop-opacity:1;"
     offset="0"
     id="stop3896" /><stop
     style="stop-color:#ff1010;stop-opacity:0.84684682;"
     offset="1"
     id="stop3898" /></linearGradient><linearGradient
   id="linearGradient3862"><stop
     style="stop-color:#cf0000;stop-opacity:1;"
     offset="0"
     id="stop3864" /><stop
     style="stop-color:#800000;stop-opacity:1;"
     offset="1"
     id="stop3866" /></linearGradient><linearGradient
   id="linearGradient3080"><stop
     style="stop-color:#6a6a6a;stop-opacity:1;"
     offset="0"
     id="stop3082" /><stop
     style="stop-color:#1a1a1a;stop-opacity:1;"
     offset="1"
     id="stop3084" /></linearGradient>
  <style
   type="text/css"
   id="style3019">
   
    .str0 {stroke:#373435;stroke-width:0.2}
    .fil0 {fill:none}
   
  </style>
 
  
  
 
   
   
   
   
   
   
   
   
   
   
   
   
   
   
   
   
   
  <filter
   id="filter4002"
   inkscape:label="Apparition"
   x="0"
   y="0"
   width="1"
   height="1"
   inkscape:menu="Blurs"
   inkscape:menu-tooltip="Edges are partly feathered out"
   style="color-interpolation-filters:sRGB"><feMorphology
     id="feMorphology4004"
     radius="4"
     in="SourceGraphic"
     result="result0" /><feGaussianBlur
     id="feGaussianBlur4006"
     in="result0"
     stdDeviation="8"
     result="result91" /><feComposite
     id="feComposite4008"
     in2="result91"
     operator="in"
     in="SourceGraphic" /></filter><radialGradient
   inkscape:collect="always"
   xlink:href="#linearGradient3894"
   id="radialGradient4120"
   gradientUnits="userSpaceOnUse"
   cx="430.49063"
   cy="279.24506"
   fx="430.49063"
   fy="279.24506"
   r="3.2682762" /><radialGradient
   inkscape:collect="always"
   xlink:href="#linearGradient3894"
   id="radialGradient4126"
   gradientUnits="userSpaceOnUse"
   cx="430.49063"
   cy="279.24506"
   fx="430.49063"
   fy="279.24506"
   r="3.2682762" /><radialGradient
   inkscape:collect="always"
   xlink:href="#linearGradient4332"
   id="radialGradient4342"
   cx="348.67865"
   cy="267.59998"
   fx="348.67865"
   fy="267.59998"
   r="17.879005"
   gradientTransform="matrix(1,0,0,0.2,0,214.07998)"
   gradientUnits="userSpaceOnUse" /><linearGradient
   inkscape:collect="always"
   xlink:href="#linearGradient3080"
   id="linearGradient4378"
   gradientUnits="userSpaceOnUse"
   x1="347.9874"
   y1="271.1925"
   x2="348.24283"
   y2="263.79614" /><radialGradient
   inkscape:collect="always"
   xlink:href="#linearGradient4332"
   id="radialGradient4380"
   gradientUnits="userSpaceOnUse"
   gradientTransform="matrix(1,0,0,0.2,0,214.07998)"
   cx="348.67865"
   cy="267.59998"
   fx="348.67865"
   fy="267.59998"
   r="17.879005" /><radialGradient
   inkscape:collect="always"
   xlink:href="#linearGradient3080"
   id="radialGradient4382"
   cx="430.49063"
   cy="279.24506"
   fx="430.49063"
   fy="279.24506"
   r="3.2682762"
   gradientUnits="userSpaceOnUse" /><linearGradient
   inkscape:collect="always"
   xlink:href="#linearGradient4756"
   id="linearGradient4762"
   x1="232.23694"
   y1="66.706215"
   x2="232.23694"
   y2="75.458939"
   gradientUnits="userSpaceOnUse" /><radialGradient
   inkscape:collect="always"
   xlink:href="#linearGradient3080"
   id="radialGradient4838"
   gradientUnits="userSpaceOnUse"
   gradientTransform="matrix(0.25412818,0.06341404,-0.19712142,0.78995307,63.960863,9.9442854)"
   cx="121.73859"
   cy="120.81126"
   fx="121.73859"
   fy="120.81126"
   r="48.259651" /><radialGradient
   inkscape:collect="always"
   xlink:href="#linearGradient3080"
   id="radialGradient4849"
   cx="183.69801"
   cy="77.107681"
   fx="183.69801"
   fy="77.107681"
   r="51.722538"
   gradientTransform="matrix(2.5546832,-0.00426826,2.2651443e-4,0.13557513,-287.07053,67.303189)"
   gradientUnits="userSpaceOnUse" /><radialGradient
   inkscape:collect="always"
   xlink:href="#linearGradient4855"
   id="radialGradient4861"
   cx="656.22894"
   cy="251.32477"
   fx="656.22894"
   fy="251.32477"
   r="8.7721081"
   gradientTransform="matrix(1.2765399,0.01199606,-0.0216695,3.2964003,-176.02742,-585.01443)"
   gradientUnits="userSpaceOnUse" /><linearGradient
   inkscape:collect="always"
   xlink:href="#linearGradient4756"
   id="linearGradient4928"
   gradientUnits="userSpaceOnUse"
   x1="232.23694"
   y1="66.706215"
   x2="232.23694"
   y2="75.458939"
   gradientTransform="translate(-27.516677)" /><linearGradient
   inkscape:collect="always"
   xlink:href="#linearGradient3080"
   id="linearGradient4930"
   gradientUnits="userSpaceOnUse"
   gradientTransform="translate(-78.03684,-5.1885566)"
   x1="88.701599"
   y1="69.553398"
   x2="222.7399"
   y2="69.553398" /><radialGradient
   inkscape:collect="always"
   xlink:href="#linearGradient3080"
   id="radialGradient4932"
   gradientUnits="userSpaceOnUse"
   gradientTransform="matrix(0.25412818,0.06341404,-0.19712142,0.78995307,36.44418,9.9442854)"
   cx="121.73859"
   cy="120.81126"
   fx="121.73859"
   fy="120.81126"
   r="48.259651" /><linearGradient
   inkscape:collect="always"
   xlink:href="#linearGradient3080"
   id="linearGradient4934"
   gradientUnits="userSpaceOnUse"
   gradientTransform="translate(-78.03684,-5.1885566)"
   x1="107.19636"
   y1="65.091743"
   x2="107.18702"
   y2="68.132652" /><linearGradient
   inkscape:collect="always"
   xlink:href="#linearGradient4392"
   id="linearGradient4936"
   gradientUnits="userSpaceOnUse"
   gradientTransform="translate(-78.03684,-5.1885566)"
   x1="100.84211"
   y1="63.904701"
   x2="100.82131"
   y2="65.655327" /><linearGradient
   inkscape:collect="always"
   xlink:href="#linearGradient3080"
   id="linearGradient4938"
   gradientUnits="userSpaceOnUse"
   x1="147.5872"
   y1="81.937698"
   x2="147.85495"
   y2="89.809998" /><linearGradient
   inkscape:collect="always"
   xlink:href="#linearGradient3080"
   id="linearGradient4940"
   gradientUnits="userSpaceOnUse"
   x1="109.6818"
   y1="72.870911"
   x2="109.72417"
   y2="81.385185" /><linearGradient
   inkscape:collect="always"
   xlink:href="#linearGradient3862"
   id="linearGradient4942"
   gradientUnits="userSpaceOnUse"
   gradientTransform="translate(-78.03684,-5.1885566)"
   x1="145.57442"
   y1="106.68048"
   x2="145.89597"
   y2="93.629936" /><linearGradient
   inkscape:collect="always"
   xlink:href="#linearGradient4392"
   id="linearGradient4944"
   gradientUnits="userSpaceOnUse"
   gradientTransform="translate(-78.03684,-5.1885566)"
   x1="224.78554"
   y1="65.175392"
   x2="224.97282"
   y2="70.243568" /><radialGradient
   inkscape:collect="always"
   xlink:href="#linearGradient3080"
   id="radialGradient4946"
   gradientUnits="userSpaceOnUse"
   gradientTransform="matrix(2.5546832,-0.00426826,2.2651443e-4,0.13557513,-365.10752,62.114632)"
   cx="183.69801"
   cy="77.107681"
   fx="183.69801"
   fy="77.107681"
   r="51.722538" /><radialGradient
   inkscape:collect="always"
   xlink:href="#linearGradient3080"
   id="radialGradient4948"
   gradientUnits="userSpaceOnUse"
   cx="430.49063"
   cy="279.24506"
   fx="430.49063"
   fy="279.24506"
   r="3.2682762"
   gradientTransform="matrix(0.19538462,0,0,0.19538462,-71.017511,15.503444)" /><radialGradient
   inkscape:collect="always"
   xlink:href="#linearGradient3894"
   id="radialGradient4950"
   gradientUnits="userSpaceOnUse"
   cx="430.49063"
   cy="279.24506"
   fx="430.49063"
   fy="279.24506"
   r="3.2682762"
   gradientTransform="matrix(0.19538462,0,0,0.19538462,-71.05432,19.685018)" /><radialGradient
   inkscape:collect="always"
   xlink:href="#linearGradient3894"
   id="radialGradient4952"
   gradientUnits="userSpaceOnUse"
   cx="430.49063"
   cy="279.24506"
   fx="430.49063"
   fy="279.24506"
   r="3.2682762"
   gradientTransform="matrix(0.19538462,0,0,0.19538462,-71.024873,17.527973)" /><linearGradient
   inkscape:collect="always"
   xlink:href="#linearGradient3080"
   id="linearGradient4954"
   gradientUnits="userSpaceOnUse"
   x1="347.9874"
   y1="271.1925"
   x2="348.24283"
   y2="263.79614"
   gradientTransform="matrix(0.30677866,0,0,0.32781131,-86.592892,-16.883857)" /><radialGradient
   inkscape:collect="always"
   xlink:href="#linearGradient4332"
   id="radialGradient4956"
   gradientUnits="userSpaceOnUse"
   gradientTransform="matrix(0.28230873,0,0,0.05644445,-78.060749,55.733909)"
   cx="348.67865"
   cy="267.59998"
   fx="348.67865"
   fy="267.59998"
   r="17.879005" /><linearGradient
   inkscape:collect="always"
   xlink:href="#linearGradient3080"
   id="linearGradient4958"
   gradientUnits="userSpaceOnUse"
   x1="347.9874"
   y1="271.1925"
   x2="348.24283"
   y2="263.79614"
   gradientTransform="matrix(0.30677866,0,0,0.32781131,-86.660796,-13.525317)" /><radialGradient
   inkscape:collect="always"
   xlink:href="#linearGradient4332"
   id="radialGradient4960"
   gradientUnits="userSpaceOnUse"
   gradientTransform="matrix(0.28230873,0,0,0.05644445,-78.128653,59.092448)"
   cx="348.67865"
   cy="267.59998"
   fx="348.67865"
   fy="267.59998"
   r="17.879005" /><radialGradient
   inkscape:collect="always"
   xlink:href="#linearGradient4855"
   id="radialGradient4962"
   gradientUnits="userSpaceOnUse"
   gradientTransform="matrix(0.41350255,0.00325001,-0.00701928,0.89307122,-112.49455,-155.53603)"
   cx="656.22894"
   cy="251.32477"
   fx="656.22894"
   fy="251.32477"
   r="8.7721081" /></defs>
 
<g
   id="g4865"
   transform="translate(150.01453,-21.230387)"><g
     id="g7323"
     transform="translate(87.566605,5.8159478)"><g
       inkscape:groupmode="layer"
       id="layer2"
       inkscape:label="Layer 2" /><g
       id="g7537"><g
         transform="matrix(1.1511456,0,0,1.3732154,-205.80291,-99.289602)"
         id="g444"><path
           inkscape:connector-curvature="0"
           style="clip-rule:evenodd;fill:#602f75;fill-rule:evenodd;stroke-width:0.17738336;image-rendering:optimizeQuality;shape-rendering:geometricPrecision;text-rendering:geometricPrecision"
           d="m 146.28785,146.95072 c -21.41864,0 -38.84354,-13.27665 -38.84354,-29.59661 0,-16.31996 17.4249,-29.596447 38.84354,-29.596447 21.41866,0 38.84356,13.276647 38.84356,29.596447 0,16.31981 -17.4247,29.59661 -38.84356,29.59661 z m 0,-57.079069 c -19.88865,0 -36.06887,12.328579 -36.06887,27.482459 0,15.15389 16.18042,27.48247 36.06887,27.48247 19.88846,0 36.06889,-12.32858 36.06889,-27.48247 0,-15.15388 -16.18023,-27.482459 -36.06889,-27.482459 z"
           id="path392" /><path
           id="path394"
           d="M 172.646,117.35411 A 26.358141,20.083426 0 0 1 146.28786,137.43754 26.358141,20.083426 0 0 1 119.92972,117.35411 26.358141,20.083426 0 0 1 146.28786,97.270685 26.358141,20.083426 0 0 1 172.646,117.35411 Z"
           style="clip-rule:evenodd;fill:#00e7ff;fill-rule:evenodd;stroke-width:0.17738336;image-rendering:optimizeQuality;shape-rendering:geometricPrecision;text-rendering:geometricPrecision"
           inkscape:connector-curvature="0" /><path
           inkscape:connector-curvature="0"
           style="clip-rule:evenodd;fill:#602f75;fill-rule:evenodd;stroke-width:0.17738336;image-rendering:optimizeQuality;shape-rendering:geometricPrecision;text-rendering:geometricPrecision"
           d="m 146.28785,138.49461 c -15.29868,0 -27.74527,-9.4836 -27.74527,-21.14034 0,-11.65674 12.44659,-21.140501 27.74527,-21.140501 15.29869,0 27.74528,9.483601 27.74528,21.140341 0,11.65674 -12.44639,21.1405 -27.74528,21.1405 z m 0,-40.166853 c -13.7693,0 -24.9708,8.534923 -24.9708,19.026353 0,10.49144 11.2015,19.02636 24.9708,19.02636 13.76931,0 24.97082,-8.53492 24.97082,-19.02636 0,-10.49143 -11.20151,-19.026353 -24.97082,-19.026353 z"
           id="path396" /><path
           id="path398"
           d="m 157.38593,117.35411 a 11.098068,8.4561052 0 0 1 -11.09807,8.45611 11.098068,8.4561052 0 0 1 -11.09807,-8.45611 11.098068,8.4561052 0 0 1 11.09807,-8.4561 11.098068,8.4561052 0 0 1 11.09807,8.4561 z"
           style="clip-rule:evenodd;fill:#ffe600;fill-rule:evenodd;stroke-width:0.17738336;image-rendering:optimizeQuality;shape-rendering:geometricPrecision;text-rendering:geometricPrecision"
           inkscape:connector-curvature="0" /><path
           inkscape:connector-curvature="0"
           style="clip-rule:evenodd;fill:#602f75;fill-rule:evenodd;stroke-width:0.17738336;image-rendering:optimizeQuality;shape-rendering:geometricPrecision;text-rendering:geometricPrecision"
           d="m 146.28785,126.86729 c -6.88424,0 -12.4854,-4.26777 -12.4854,-9.51318 0,-5.24541 5.60116,-9.51318 12.4854,-9.51318 6.88425,0 12.48541,4.26777 12.48541,9.51318 0,5.24541 -5.60096,9.51318 -12.48541,9.51318 z m 0,-16.91221 c -5.35486,0 -9.71093,3.31908 -9.71093,7.39919 0,4.0801 4.35607,7.39919 9.71093,7.39919 5.35487,0 9.71094,-3.31909 9.71094,-7.39919 0,-4.08011 -4.35607,-7.39919 -9.71094,-7.39919 z"
           id="path400" /><path
           inkscape:connector-curvature="0"
           style="clip-rule:evenodd;fill:#ea3457;fill-rule:evenodd;stroke-width:0.17738336;image-rendering:optimizeQuality;shape-rendering:geometricPrecision;text-rendering:geometricPrecision"
           d="m 146.28785,151.17885 c -0.7657,0 -1.38733,-0.47349 -1.38733,-1.05707 V 84.586604 c 0,-0.583425 0.62143,-1.057071 1.38733,-1.057071 0.76591,0 1.38734,0.473491 1.38734,1.057071 v 65.535176 c 0,0.58342 -0.62143,1.05707 -1.38734,1.05707 z"
           id="path402" /><path
           inkscape:connector-curvature="0"
           style="clip-rule:evenodd;fill:#ea3457;fill-rule:evenodd;stroke-width:0.17738336;image-rendering:optimizeQuality;shape-rendering:geometricPrecision;text-rendering:geometricPrecision"
           d="m 189.29321,118.41118 h -86.0105 c -0.7657,0 -1.38733,-0.47349 -1.38733,-1.05707 0,-0.58358 0.62142,-1.05707 1.38733,-1.05707 h 86.0105 c 0.7657,0 1.38733,0.47349 1.38733,1.05707 0,0.58358 -0.62163,1.05707 -1.38733,1.05707 z"
           id="path404" /><g
           style="clip-rule:evenodd;fill-rule:evenodd;image-rendering:optimizeQuality;shape-rendering:geometricPrecision;text-rendering:geometricPrecision"
           id="g406"
           transform="matrix(0.20321294,0,0,0.15483687,101.89538,83.529533)" /><g
           style="clip-rule:evenodd;fill-rule:evenodd;image-rendering:optimizeQuality;shape-rendering:geometricPrecision;text-rendering:geometricPrecision"
           id="g408"
           transform="matrix(0.20321294,0,0,0.15483687,101.89538,83.529533)" /><g
           style="clip-rule:evenodd;fill-rule:evenodd;image-rendering:optimizeQuality;shape-rendering:geometricPrecision;text-rendering:geometricPrecision"
           id="g410"
           transform="matrix(0.20321294,0,0,0.15483687,101.89538,83.529533)" /><g
           style="clip-rule:evenodd;fill-rule:evenodd;image-rendering:optimizeQuality;shape-rendering:geometricPrecision;text-rendering:geometricPrecision"
           id="g412"
           transform="matrix(0.20321294,0,0,0.15483687,101.89538,83.529533)" /><g
           style="clip-rule:evenodd;fill-rule:evenodd;image-rendering:optimizeQuality;shape-rendering:geometricPrecision;text-rendering:geometricPrecision"
           id="g414"
           transform="matrix(0.20321294,0,0,0.15483687,101.89538,83.529533)" /><g
           style="clip-rule:evenodd;fill-rule:evenodd;image-rendering:optimizeQuality;shape-rendering:geometricPrecision;text-rendering:geometricPrecision"
           id="g416"
           transform="matrix(0.20321294,0,0,0.15483687,101.89538,83.529533)" /><g
           style="clip-rule:evenodd;fill-rule:evenodd;image-rendering:optimizeQuality;shape-rendering:geometricPrecision;text-rendering:geometricPrecision"
           id="g418"
           transform="matrix(0.20321294,0,0,0.15483687,101.89538,83.529533)" /><g
           style="clip-rule:evenodd;fill-rule:evenodd;image-rendering:optimizeQuality;shape-rendering:geometricPrecision;text-rendering:geometricPrecision"
           id="g420"
           transform="matrix(0.20321294,0,0,0.15483687,101.89538,83.529533)" /><g
           style="clip-rule:evenodd;fill-rule:evenodd;image-rendering:optimizeQuality;shape-rendering:geometricPrecision;text-rendering:geometricPrecision"
           id="g422"
           transform="matrix(0.20321294,0,0,0.15483687,101.89538,83.529533)" /><g
           style="clip-rule:evenodd;fill-rule:evenodd;image-rendering:optimizeQuality;shape-rendering:geometricPrecision;text-rendering:geometricPrecision"
           id="g424"
           transform="matrix(0.20321294,0,0,0.15483687,101.89538,83.529533)" /><g
           style="clip-rule:evenodd;fill-rule:evenodd;image-rendering:optimizeQuality;shape-rendering:geometricPrecision;text-rendering:geometricPrecision"
           id="g426"
           transform="matrix(0.20321294,0,0,0.15483687,101.89538,83.529533)" /><g
           style="clip-rule:evenodd;fill-rule:evenodd;image-rendering:optimizeQuality;shape-rendering:geometricPrecision;text-rendering:geometricPrecision"
           id="g428"
           transform="matrix(0.20321294,0,0,0.15483687,101.89538,83.529533)" /><g
           style="clip-rule:evenodd;fill-rule:evenodd;image-rendering:optimizeQuality;shape-rendering:geometricPrecision;text-rendering:geometricPrecision"
           id="g430"
           transform="matrix(0.20321294,0,0,0.15483687,101.89538,83.529533)" /><g
           style="clip-rule:evenodd;fill-rule:evenodd;image-rendering:optimizeQuality;shape-rendering:geometricPrecision;text-rendering:geometricPrecision"
           id="g432"
           transform="matrix(0.20321294,0,0,0.15483687,101.89538,83.529533)" /><g
           style="clip-rule:evenodd;fill-rule:evenodd;image-rendering:optimizeQuality;shape-rendering:geometricPrecision;text-rendering:geometricPrecision"
           id="g434"
           transform="matrix(0.20321294,0,0,0.15483687,101.89538,83.529533)" /><g
           id="g580"
           transform="matrix(1.4824721,0,0,1.2767183,-102.93529,-31.054955)"><path
             inkscape:connector-curvature="0"
             id="path436"
             d="m 113.7745,92.042379 -2.03023,1.571319 -2.03023,1.571497 -2.21759,5.783295 c -1.21959,3.18077 -2.27857,6.04207 -2.35335,6.35854 -0.0748,0.31647 0.13073,1.20862 0.45665,1.98255 l 0.59259,1.40715 h 3.58273 3.58274 l 1.9827,-1.1911 c 1.21821,-0.73178 2.08763,-1.44684 2.25495,-1.85457 0.14978,-0.36499 0.73507,-1.90108 1.30059,-3.41358 l 1.02834,-2.75012 h -2.53016 -2.53016 l -0.36492,0.83156 c -0.203,0.46228 -0.25637,0.86917 -0.12003,0.91658 0.43401,0.15094 0.26147,1.82318 -0.29704,2.87829 l -0.54228,1.02443 -1.78018,-0.0754 c -1.70629,-0.0723 -1.78354,-0.10366 -1.86174,-0.75491 -0.0771,-0.64177 3.14749,-9.154704 3.74383,-9.883874 0.18193,-0.222452 0.80059,-0.306284 1.88745,-0.255796 l 1.61668,0.07505 -0.0438,1.225504 -0.0438,1.225501 2.03448,-0.0743 2.03468,-0.0743 0.69246,-1.912852 0.69265,-1.912856 -0.9292,-1.348857 -0.92921,-1.348679 h -3.43976 z m 14.72156,0 -1.20738,3.133725 c -3.09547,8.034676 -5.76314,15.128336 -5.76314,15.324576 0,0.11888 0.80606,0.21436 1.79146,0.21231 l 1.79164,-0.004 1.55361,-3.58917 1.55342,-3.58917 1.63166,0.0754 c 1.464,0.0677 1.64034,0.13488 1.71674,0.65349 0.0468,0.31788 -0.41412,1.75162 -1.02446,3.18613 -0.61034,1.43451 -1.16905,2.75741 -1.24159,2.9396 -0.10187,0.25584 0.40532,0.3312 2.22776,0.3312 h 2.35982 l 2.61543,-6.97085 c 1.43856,-3.834007 3.01515,-8.035889 3.50338,-9.337342 l 0.88759,-2.366159 h -2.09181 -2.09201 L 135.464,95.29795 c -1.71419,4.486113 -1.48946,4.201326 -3.2439,4.111086 -0.98422,-0.0506 -1.5692,-0.209547 -1.7406,-0.472904 -0.22893,-0.351747 0.43395,-2.417081 2.06908,-6.446414 0.16377,-0.403573 -0.027,-0.447599 -1.93554,-0.447599 z m 17.7755,0 -0.69432,1.805368 c -0.38187,0.992933 -0.69431,1.913721 -0.69431,2.046369 0,0.132649 0.82804,0.24118 1.8401,0.24118 1.59932,0 1.86193,0.06616 2.00656,0.505353 0.13053,0.396365 -3.14956,9.754371 -4.77698,13.628481 -0.16969,0.40395 0.0155,0.44719 1.89725,0.44332 l 2.08554,-0.004 2.68922,-7.22254 2.68923,-7.22235 2.05076,-0.127987 2.05096,-0.127809 0.74868,-1.982554 0.7487,-1.982554 h -6.3206 z m 21.11298,0 -2.02707,1.559554 -2.02728,1.559376 -2.32005,6.051031 c -1.27607,3.32803 -2.32133,6.23697 -2.32266,6.46443 -0.001,0.22745 0.2525,1.0045 0.56393,1.72675 l 0.56633,1.31321 h 3.5781 3.57812 l 1.9827,-1.1911 c 1.22636,-0.73667 2.08511,-1.44411 2.25107,-1.85457 0.1476,-0.36499 0.73116,-1.90108 1.2969,-3.41358 l 1.02871,-2.75012 h -2.60193 -2.60174 l -0.2852,0.89537 c -0.1604,0.50369 -0.17992,0.89538 -0.0446,0.89538 0.38145,0 0.28028,1.28967 -0.19531,2.48986 -0.49091,1.23891 -0.89814,1.4214 -2.89951,1.29931 -1.19734,-0.073 -1.31661,-0.13848 -1.39159,-0.76365 -0.0779,-0.6499 3.14383,-9.158138 3.74105,-9.879597 0.18395,-0.222214 0.80509,-0.306231 1.89079,-0.255796 l 1.61686,0.07505 -0.0431,1.215165 -0.0429,1.214983 h 1.96364 1.96384 l 0.41837,-0.959186 c 0.23005,-0.527616 0.55137,-1.435491 0.7141,-2.017492 0.27762,-0.993013 0.24211,-1.138801 -0.57521,-2.366337 l -0.87095,-1.308036 h -3.4527 z m 16.81007,0 c -1.7495,0 -2.12483,0.07376 -2.27567,0.447599 -1.02682,2.544743 -5.46886,14.244422 -5.60132,14.753092 -0.11211,0.43051 0.0355,1.16193 0.4178,2.06972 l 0.59132,1.40394 3.61879,-0.0159 3.6188,-0.0159 1.96882,-1.21196 1.96865,-1.21213 2.87251,-7.66159 c 1.57989,-4.213871 2.9415,-7.863123 3.02584,-8.109343 0.13684,-0.399515 -0.0592,-0.447599 -1.82345,-0.447599 h -1.97697 l -1.33722,3.389521 c -3.33746,8.459121 -4.61397,11.410851 -4.99559,11.551991 -0.53351,0.1973 -2.32872,0.19498 -2.86604,-0.004 -0.23091,-0.0854 -0.41985,-0.43906 -0.41985,-0.78575 0,-0.3467 1.19443,-3.6297 2.65428,-7.295618 1.45984,-3.665923 2.65427,-6.7083 2.65427,-6.760857 0,-0.05256 -0.94272,-0.09554 -2.09497,-0.09554 z m 15.47782,0 -0.88314,2.366158 c -0.89775,2.405294 -2.34368,6.200143 -4.77754,12.537563 -0.74351,1.93602 -1.35201,3.5764 -1.35201,3.64532 0,0.0689 0.81701,0.12531 1.8155,0.12531 h 1.81551 l 1.47352,-3.38952 c 1.40298,-3.22705 1.51007,-3.38952 2.23239,-3.38952 h 0.75868 l 0.16886,3.32552 c 0.0928,1.82907 0.18236,3.35435 0.19901,3.38953 0.0166,0.0352 1.2015,0.064 2.633,0.064 h 2.60266 l 2.74064,-7.35463 c 1.50733,-4.045051 3.08028,-8.246765 3.49544,-9.337172 l 0.75479,-1.982554 h -2.09459 -2.09461 l -1.16594,3.371161 c -1.19868,3.465817 -1.67532,4.151371 -2.52794,3.636227 -0.34401,-0.20785 -0.51835,-0.804805 -0.67194,-2.301096 -0.11406,-1.111203 -0.27194,-2.624655 -0.35086,-3.363317 l -0.14352,-1.342975 h -2.31395 z m -112.182769,0.02834 c -0.365254,-0.0037 -0.869047,0.0042 -1.423217,0.02478 l -2.015068,0.07469 -2.895262,7.631984 c -1.592362,4.197537 -2.895261,7.763847 -2.895261,7.925217 0,0.16137 0.260811,0.89999 0.579643,1.64138 l 0.57983,1.34796 h 5.195713 5.195712 l 0.59481,-1.59877 c 0.327191,-0.87936 0.594839,-1.68523 0.59481,-1.79075 -3e-5,-0.10552 -1.648228,-0.1918 -3.662817,-0.1918 -3.834418,0 -4.299984,-0.12336 -4.299984,-1.13888 0,-0.28866 1.134617,-3.50839 2.521471,-7.154968 1.386855,-3.646585 2.521655,-6.672975 2.521655,-6.725384 0,-0.02621 -0.226782,-0.04173 -0.592035,-0.04546 z m 16.899199,0.01284 c -0.24066,-0.0024 -0.50734,0.0012 -0.78957,0.01159 l -2.05261,0.07505 -1.13654,2.941923 c -0.625063,1.618021 -2.092455,5.474428 -3.260916,8.569778 -1.168461,3.09535 -2.250475,5.94453 -2.404393,6.33144 l -0.279837,0.7034 h 2.055945 2.055939 l 3.445132,-9.12381 c 1.89481,-5.018068 3.48662,-9.224847 3.53742,-9.3484 0.0381,-0.09267 -0.44859,-0.153697 -1.17057,-0.160965 z"
             style="clip-rule:evenodd;fill:#5f9ea0;fill-rule:evenodd;stroke:#0095ee;stroke-width:2.56585026;stroke-miterlimit:4;stroke-dasharray:none;stroke-opacity:0.96482412;image-rendering:optimizeQuality;shape-rendering:geometricPrecision;text-rendering:geometricPrecision" /><path
             style="clip-rule:evenodd;fill:#ff0000;fill-rule:evenodd;stroke:none;stroke-width:0.26057601;image-rendering:optimizeQuality;shape-rendering:geometricPrecision;text-rendering:geometricPrecision"
             d="m 113.39572,91.740545 -2.03024,1.57132 -2.03023,1.571496 -2.21759,5.783289 c -1.21959,3.18077 -2.27857,6.04207 -2.35335,6.35854 -0.0748,0.31647 0.13073,1.20862 0.45665,1.98256 l 0.5926,1.40714 h 3.58273 3.58273 l 1.9827,-1.1911 c 1.21821,-0.73178 2.08763,-1.44684 2.25495,-1.85457 0.14978,-0.36498 0.73508,-1.90108 1.3006,-3.41358 l 1.02834,-2.75012 h -2.53017 -2.53016 l -0.36491,0.83156 c -0.203,0.46228 -0.25637,0.86917 -0.12004,0.91659 0.43401,0.15093 0.26147,1.82318 -0.29703,2.87828 l -0.54229,1.02443 -1.78017,-0.0754 c -1.7063,-0.0723 -1.78355,-0.10366 -1.86174,-0.75491 -0.0771,-0.64177 3.14748,-9.154702 3.74382,-9.88387 0.18193,-0.222452 0.80059,-0.306284 1.88745,-0.255798 l 1.61668,0.07505 -0.0438,1.225505 -0.0438,1.225501 2.03449,-0.0743 2.03467,-0.0743 0.69247,-1.912855 0.69265,-1.912857 -0.92921,-1.348854 -0.9292,-1.348679 h -3.43977 z m 14.72156,0 -1.20738,3.133726 c -3.09547,8.034679 -5.76315,15.128339 -5.76315,15.324579 0,0.11887 0.80606,0.21435 1.79146,0.2123 l 1.79164,-0.004 1.55361,-3.58917 1.55342,-3.58916 1.63166,0.0754 c 1.464,0.0677 1.64034,0.13488 1.71674,0.65348 0.0468,0.31788 -0.41411,1.75162 -1.02446,3.18613 -0.61033,1.43451 -1.16904,2.75741 -1.24159,2.93961 -0.10186,0.25584 0.40533,0.33119 2.22777,0.33119 h 2.35982 l 2.61542,-6.97084 c 1.43856,-3.834004 3.01515,-8.035892 3.50339,-9.337345 l 0.88759,-2.366159 h -2.09182 -2.09201 l -1.24418,3.25583 c -1.71419,4.48612 -1.48946,4.201333 -3.2439,4.111093 -0.98422,-0.0506 -1.56919,-0.209547 -1.74059,-0.472904 -0.22894,-0.351757 0.43395,-2.417088 2.06907,-6.446419 0.16377,-0.403575 -0.027,-0.4476 -1.93554,-0.4476 z m 17.77549,0 -0.69431,1.805368 c -0.38188,0.992934 -0.69432,1.913723 -0.69432,2.046368 0,0.132648 0.82805,0.241182 1.8401,0.241182 1.59933,0 1.86193,0.06616 2.00656,0.505351 0.13053,0.396365 -3.14955,9.754366 -4.77697,13.628476 -0.16969,0.40395 0.0155,0.44719 1.89725,0.44332 l 2.08554,-0.004 2.68922,-7.22254 2.68922,-7.222343 2.05076,-0.127988 2.05096,-0.127809 0.74868,-1.982553 0.7487,-1.982556 h -6.3206 z m 21.11299,0 -2.02709,1.559554 -2.02726,1.559378 -2.32006,6.051033 c -1.27607,3.32802 -2.32133,6.23696 -2.32265,6.46442 -10e-4,0.22746 0.2525,1.00451 0.56393,1.72676 l 0.56633,1.3132 h 3.5781 3.57812 l 1.9827,-1.1911 c 1.22635,-0.73667 2.0851,-1.44411 2.25107,-1.85457 0.14759,-0.36498 0.73116,-1.90108 1.29689,-3.41358 l 1.02871,-2.75012 h -2.60194 -2.60174 l -0.28518,0.89537 c -0.16041,0.50369 -0.17992,0.89538 -0.0446,0.89538 0.38145,0 0.28029,1.28967 -0.19531,2.48987 -0.49091,1.23891 -0.89813,1.42139 -2.89951,1.2993 -1.19734,-0.073 -1.3166,-0.13848 -1.39159,-0.76365 -0.0779,-0.6499 3.14383,-9.158133 3.74105,-9.879591 0.18396,-0.222214 0.80509,-0.306232 1.89079,-0.255798 l 1.61686,0.07505 -0.0431,1.215164 -0.0429,1.214993 h 1.96365 1.96383 l 0.41837,-0.959196 c 0.23006,-0.527613 0.55139,-1.435491 0.71411,-2.017492 0.27762,-0.993013 0.24211,-1.1388 -0.57522,-2.366335 l -0.87095,-1.308037 h -3.45269 z m 16.81006,0 c -1.74949,0 -2.12482,0.07376 -2.27567,0.4476 -1.02682,2.544744 -5.46885,14.244415 -5.60131,14.753085 -0.11211,0.43052 0.0355,1.16193 0.4178,2.06972 l 0.59131,1.40394 3.61879,-0.0159 3.61881,-0.0159 1.96882,-1.21195 1.96864,-1.21214 2.87252,-7.66158 c 1.57989,-4.213875 2.9415,-7.863125 3.02583,-8.109347 0.13684,-0.399515 -0.0592,-0.4476 -1.82345,-0.4476 h -1.97697 l -1.33721,3.38952 c -3.33746,8.459117 -4.61399,11.410847 -4.99559,11.551987 -0.53351,0.19731 -2.32872,0.19498 -2.86604,-0.004 -0.23092,-0.0854 -0.41985,-0.43905 -0.41985,-0.78575 0,-0.3467 1.19443,-3.6297 2.65427,-7.295605 1.45984,-3.66593 2.65427,-6.708308 2.65427,-6.760864 0,-0.05256 -0.94271,-0.09555 -2.09497,-0.09555 z m 15.47783,0 -0.88315,2.366159 c -0.89775,2.405293 -2.34368,6.200136 -4.77753,12.537556 -0.74352,1.93603 -1.35202,3.5764 -1.35202,3.64532 0,0.0689 0.81701,0.12531 1.81551,0.12531 h 1.8155 l 1.47352,-3.38952 c 1.40298,-3.22705 1.51007,-3.38952 2.2324,-3.38952 h 0.75867 l 0.16887,3.32553 c 0.0928,1.82907 0.18235,3.35434 0.199,3.38952 0.0166,0.0352 1.2015,0.064 2.633,0.064 h 2.60266 l 2.74065,-7.35463 c 1.50732,-4.045048 3.08027,-8.246757 3.49543,-9.337165 l 0.7548,-1.982553 h -2.0946 -2.0946 l -1.16595,3.371162 c -1.19868,3.465821 -1.67532,4.151375 -2.52794,3.636221 -0.34401,-0.20785 -0.51835,-0.804801 -0.67194,-2.301091 -0.11406,-1.111202 -0.27194,-2.624654 -0.35086,-3.363319 l -0.14352,-1.342973 h -2.31394 z m -112.182775,0.02835 c -0.365255,-0.0037 -0.869048,0.0042 -1.423217,0.02477 l -2.015069,0.07469 -2.895262,7.631981 c -1.592363,4.197534 -2.895262,7.763844 -2.895262,7.925224 0,0.16136 0.260814,0.89999 0.579645,1.64137 l 0.57983,1.34796 h 5.195712 5.195715 l 0.594808,-1.59877 c 0.327192,-0.87936 0.594842,-1.68522 0.59481,-1.79075 -2.9e-5,-0.10552 -1.648229,-0.1918 -3.662819,-0.1918 -3.834416,0 -4.299981,-0.12336 -4.299981,-1.13887 0,-0.28867 1.134615,-3.5084 2.521471,-7.154965 1.386853,-3.646591 2.521654,-6.672981 2.521654,-6.725388 0,-0.02622 -0.226781,-0.04173 -0.592035,-0.04546 z m 16.899195,0.01283 c -0.24066,-0.0024 -0.50733,0.0014 -0.78956,0.01159 l -2.05262,0.07505 -1.13654,2.941923 c -0.625061,1.618019 -2.092453,5.474422 -3.260912,8.569772 -1.168461,3.09535 -2.250474,5.94452 -2.404395,6.33144 l -0.279834,0.7034 h 2.055942 2.055942 l 3.445127,-9.12381 c 1.89482,-5.018064 3.48663,-9.224844 3.53742,-9.348397 0.0381,-0.09267 -0.44859,-0.153693 -1.17057,-0.160965 z"
             id="path438"
             inkscape:connector-curvature="0" /></g><path
           style="clip-rule:evenodd;fill:#1e90ff;fill-rule:evenodd;stroke:#ff0000;stroke-width:3.73319817;stroke-miterlimit:4;stroke-dasharray:none;stroke-opacity:0.96482412;image-rendering:optimizeQuality;shape-rendering:geometricPrecision;text-rendering:geometricPrecision"
           d="m 42.460486,124.76931 -3.568739,1.87867 -3.568704,1.87889 -4.35658,7.83897 c -2.396244,4.31148 -4.35689,7.96671 -4.35689,8.12272 0,0.156 0.539293,1.08713 1.19834,2.06905 l 1.197983,1.78529 h 6.27787 6.277523 l 3.96725,-1.61292 3.966903,-1.61272 2.279536,-4.16758 c 1.253814,-2.2921 2.279553,-4.2547 2.279553,-4.36131 0,-0.10656 -2.059705,-0.19373 -4.577174,-0.19373 -4.456168,0 -4.592361,0.0222 -5.158773,0.84135 -0.441849,0.63898 -0.446483,1.088 -0.01909,1.86675 0.48477,0.88333 0.401652,1.24757 -0.59965,2.63001 l -1.162139,1.60461 h -3.423938 c -2.970478,0 -3.447768,-0.0809 -3.602861,-0.61159 -0.09841,-0.33641 1.421872,-3.35165 3.378153,-6.70062 l 3.556763,-6.08899 h 3.403423 3.403093 l -0.175191,1.45317 -0.175521,1.45317 h 3.757555 3.757554 l 1.248208,-2.44662 1.248538,-2.44686 -1.571602,-1.58389 -1.571949,-1.58412 -6.654548,-0.006 z m 32.345874,0 -3.564625,1.87686 -3.564955,1.87665 -5.340786,9.66521 c -2.937397,5.31577 -5.340786,9.77512 -5.340786,9.90982 0,0.13463 1.497146,0.24505 3.326953,0.24505 h 3.326918 l 2.949911,-4.76319 2.949911,-4.7632 3.510318,-0.0947 c 3.345628,-0.0902 3.524065,-0.0585 3.804,0.6764 0.193484,0.50796 -0.4704,2.08307 -1.945537,4.61492 -1.231703,2.11403 -2.239583,3.95313 -2.239583,4.08679 0,0.13373 1.61291,0.24302 3.584082,0.24302 h 3.583734 l 5.701756,-10.20212 5.701391,-10.2021 -1.566465,-1.57896 -1.566483,-1.57872 -6.654877,-0.006 z m 27.88377,0 -1.73381,3.14844 c -0.95361,1.73168 -3.846939,6.95125 -6.429493,11.59902 -2.582554,4.64778 -4.695333,8.53499 -4.695333,8.63823 0,0.10326 1.50072,0.18767 3.334797,0.18767 h 3.334433 l 3.618916,-5.66709 3.61891,-5.6671 1.48314,0.0968 c 1.24075,0.0809 1.53693,0.27086 1.81134,1.16245 0.18044,0.58624 0.48602,1.16764 0.67892,1.29184 0.19289,0.12412 1.19956,-0.40215 2.23719,-1.16965 1.51134,-1.11791 2.15969,-1.37496 3.25933,-1.29183 0.93887,0.071 1.41755,0.31076 1.51488,0.75853 0.0783,0.36006 -1.0537,2.55332 -2.51551,4.87391 -3.97952,6.31734 -4.09709,5.6545 0.98251,5.54446 l 4.32412,-0.0937 4.77082,-8.719 c 6.79964,-12.42655 7.73751,-14.1787 7.73541,-14.4509 -4.7e-4,-0.13328 -1.75549,-0.24212 -3.89896,-0.24212 h -3.89725 l -4.03076,3.7137 c -2.97011,2.73638 -4.30452,3.71347 -5.07133,3.71347 -1.96735,0 -2.21738,-0.54191 -1.88748,-4.09443 l 0.30939,-3.33274 h -4.42693 z m 42.4397,0 -3.51235,1.91758 -3.51202,1.91738 -2.12484,3.81451 c -1.16865,2.09792 -3.09839,5.53491 -4.28826,7.6378 -1.18991,2.10291 -2.16343,3.98635 -2.16343,4.18535 0,0.19902 0.49623,1.20589 1.10271,2.23759 l 1.10272,1.87575 9.55527,-0.0869 9.55494,-0.0871 1.07541,-1.93762 c 0.59136,-1.06566 1.088,-2.11529 1.10409,-2.33254 0.0213,-0.29061 -1.8816,-0.41851 -7.1996,-0.48424 -7.19555,-0.089 -7.22974,-0.0929 -7.39389,-0.85777 -0.0908,-0.42258 0.20336,-1.40348 0.65328,-2.17977 l 0.8179,-1.41131 h 8.00623 8.00587 l 1.09212,-2.17976 c 0.60054,-1.19885 1.19335,-2.36143 1.31753,-2.58344 0.17406,-0.31119 -1.40186,-0.40368 -6.88061,-0.40368 -7.97648,0 -8.21318,-0.0737 -7.16066,-2.22904 0.97174,-1.98993 0.87559,-1.9689 9.04096,-1.9689 h 7.50115 l 0.95279,-1.6955 c 0.52412,-0.93244 1.10629,-2.02225 1.29362,-2.42187 l 0.34049,-0.72658 h -9.14071 z m 46.53844,0 -6.68764,10e-4 -6.68768,0.002 -3.43041,1.78055 c -3.38147,1.75512 -3.45246,1.82337 -4.94019,4.75958 l -1.50911,2.97901 1.58629,1.77787 1.58663,1.77789 4.57855,0.16133 c 4.45604,0.15712 4.58278,0.18342 4.72332,0.9768 0.0795,0.44839 -0.41406,1.64712 -1.09656,2.66401 l -1.24103,1.84897 h -3.40377 c -2.88739,0 -3.44773,-0.0911 -3.69304,-0.60034 -0.15898,-0.33021 -0.14666,-0.84515 0.0278,-1.14445 0.28328,-0.48644 -0.091,-0.53432 -3.52807,-0.44937 l -3.84535,0.0952 -0.85511,1.52023 c -0.78957,1.40371 -0.79535,1.61402 -0.0779,2.74478 0.42736,0.67354 0.9658,1.55174 1.19663,1.95135 0.40504,0.70115 0.63884,0.72659 6.68254,0.72659 h 6.26286 l 3.97782,-1.61743 3.97784,-1.61721 1.72529,-2.96913 1.72527,-2.96912 -1.69898,-1.46846 -1.69898,-1.46848 -4.44502,-0.16133 c -5.76157,-0.20929 -5.93528,-0.37243 -4.00174,-3.7576 l 1.45037,-2.53954 h 3.41264 3.41299 l 0.15204,1.21105 0.15238,1.21081 h 3.60592 3.60628 l 1.0638,-2.10639 1.06411,-2.10661 -1.56513,-1.60707 z m -116.554223,4.81289 3.019561,0.0961 c 4.198553,0.13388 4.398407,0.44321 2.598522,4.02063 l -1.437736,2.85706 -3.230974,0.0946 c -5.110107,0.14919 -5.268567,-0.34003 -1.84036,-5.68037 z"
           id="path440"
           inkscape:connector-curvature="0" /><path
           inkscape:connector-curvature="0"
           id="path442"
           d="m 42.460486,124.7694 -3.568739,1.87867 -3.568687,1.87889 -4.356597,7.83894 c -2.396244,4.31146 -4.35689,7.96667 -4.35689,8.12267 0,0.156 0.539289,1.08714 1.198334,2.06904 l 1.197984,1.78529 h 6.277858 6.27754 l 3.96725,-1.61292 3.966903,-1.61272 2.279536,-4.16753 c 1.253814,-2.29211 2.279553,-4.25471 2.279553,-4.3613 0,-0.10656 -2.059705,-0.19373 -4.577174,-0.19373 -4.456168,0 -4.592361,0.0222 -5.158773,0.84133 -0.441849,0.63899 -0.446483,1.08801 -0.01909,1.86676 0.48477,0.88333 0.401652,1.24755 -0.599667,2.62999 l -1.16214,1.6046 h -3.42392 c -2.970478,0 -3.447768,-0.0809 -3.602861,-0.6116 -0.09841,-0.3364 1.421872,-3.35162 3.37817,-6.70057 l 3.556746,-6.08896 h 3.403423 3.403093 l -0.175174,1.45315 -0.175538,1.45317 h 3.757555 3.757554 l 1.248208,-2.44662 1.248538,-2.44684 -1.571602,-1.5839 -1.571949,-1.58412 -6.65453,-0.006 z m 32.345874,0 -3.564643,1.87686 -3.564937,1.87665 -5.340786,9.66518 c -2.937397,5.31574 -5.340786,9.77506 -5.340786,9.90976 0,0.13463 1.497146,0.24505 3.326953,0.24505 h 3.326918 l 2.949911,-4.76317 2.949911,-4.76318 3.510318,-0.0947 c 3.345628,-0.0902 3.524065,-0.0585 3.804,0.6764 0.193484,0.50794 -0.4704,2.08305 -1.945537,4.61489 -1.231703,2.11401 -2.239583,3.95311 -2.239583,4.08675 0,0.13373 1.61291,0.24302 3.584082,0.24302 h 3.583734 l 5.701756,-10.20206 5.701391,-10.20207 -1.566465,-1.57894 -1.566483,-1.57872 -6.654877,-0.006 z m 27.88377,0 -1.73381,3.14843 c -0.95361,1.73169 -3.846939,6.95123 -6.429493,11.59897 -2.582554,4.64776 -4.695333,8.53496 -4.695333,8.6382 0,0.10326 1.50072,0.18767 3.334797,0.18767 h 3.334433 l 3.618916,-5.66706 3.61891,-5.66707 1.48314,0.0968 c 1.24075,0.0809 1.53693,0.27085 1.81134,1.16243 0.18044,0.58625 0.48602,1.16763 0.67892,1.29183 0.19289,0.12427 1.19956,-0.40213 2.23719,-1.16964 1.51134,-1.11789 2.15969,-1.37496 3.25933,-1.29182 0.93887,0.071 1.41755,0.31075 1.51488,0.75853 0.0783,0.36006 -1.0537,2.5533 -2.51551,4.87388 -3.97952,6.3173 -4.09709,5.65447 0.98251,5.54442 l 4.32412,-0.0937 4.77082,-8.71898 c 6.79964,-12.4265 7.73751,-14.17865 7.73541,-14.45085 -4.7e-4,-0.13328 -1.75549,-0.2421 -3.89896,-0.2421 h -3.89725 l -4.03076,3.71369 c -2.97011,2.73637 -4.30452,3.71346 -5.07133,3.71346 -1.96735,0 -2.21738,-0.54191 -1.88748,-4.09443 l 0.30939,-3.33272 h -4.42693 z m 42.4397,0 -3.51235,1.91758 -3.51202,1.91738 -2.12484,3.8145 c -1.16865,2.09792 -3.09839,5.53488 -4.28826,7.63777 -1.18991,2.10289 -2.16343,3.98631 -2.16343,4.18532 0,0.19901 0.49623,1.20587 1.10271,2.23757 l 1.10272,1.87575 9.55527,-0.0869 9.55494,-0.0871 1.07541,-1.93762 c 0.59136,-1.06564 1.088,-2.11527 1.10409,-2.33252 0.0213,-0.2906 -1.8816,-0.4185 -7.1996,-0.48425 -7.19555,-0.089 -7.22974,-0.0931 -7.39389,-0.85777 -0.0908,-0.42257 0.20336,-1.40346 0.65328,-2.17973 l 0.8179,-1.41131 h 8.00623 8.00587 l 1.09212,-2.17975 c 0.60054,-1.19885 1.19335,-2.36142 1.31753,-2.58343 0.17406,-0.31119 -1.40186,-0.40367 -6.88061,-0.40367 -7.97648,0 -8.21318,-0.0737 -7.16066,-2.22903 0.97174,-1.98993 0.87559,-1.9689 9.04096,-1.9689 h 7.50115 l 0.95279,-1.69552 c 0.52412,-0.93244 1.10629,-2.02224 1.29362,-2.42185 l 0.34049,-0.72658 h -9.14071 z m 46.53844,0 -6.68764,10e-4 -6.68768,0.002 -3.43041,1.78055 c -3.38147,1.75512 -3.45246,1.82337 -4.94019,4.75956 l -1.50911,2.97901 1.58629,1.77786 1.58663,1.77787 4.57855,0.16133 c 4.45604,0.15714 4.58278,0.18343 4.72332,0.97681 0.0795,0.44839 -0.41406,1.6471 -1.09656,2.66397 l -1.24103,1.84897 h -3.40377 c -2.88739,0 -3.44773,-0.0911 -3.69304,-0.60034 -0.15898,-0.33019 -0.14666,-0.84513 0.0278,-1.14443 0.28328,-0.48644 -0.091,-0.53432 -3.52807,-0.44937 l -3.84535,0.0952 -0.85511,1.52021 c -0.78957,1.40372 -0.79535,1.61402 -0.0779,2.74477 0.42736,0.67354 0.9658,1.55174 1.19663,1.95135 0.40504,0.70115 0.63884,0.72657 6.68254,0.72657 h 6.26286 l 3.97782,-1.61741 3.97784,-1.6172 1.72529,-2.96911 1.72527,-2.9691 -1.69898,-1.46847 -1.69898,-1.46846 -4.44502,-0.16133 c -5.76157,-0.20929 -5.93528,-0.37243 -4.00174,-3.75757 l 1.45037,-2.53955 h 3.41264 3.41299 l 0.15204,1.21104 0.15238,1.21083 h 3.60592 3.60628 l 1.0638,-2.1064 1.06411,-2.1066 -1.56513,-1.60708 z m -116.554223,4.81289 3.019561,0.0961 c 4.198553,0.13388 4.398407,0.44321 2.598522,4.02061 l -1.437736,2.85705 -3.230974,0.0946 c -5.110107,0.14919 -5.26855,-0.34003 -1.84036,-5.68034 z"
           style="clip-rule:evenodd;fill:#2400ff;fill-opacity:1;fill-rule:evenodd;stroke:none;stroke-width:0.39782134;image-rendering:optimizeQuality;shape-rendering:geometricPrecision;text-rendering:geometricPrecision" /></g></g><g
       inkscape:groupmode="layer"
       id="layer1"
       inkscape:label="Layer 1" /></g><g
     style="clip-rule:evenodd;fill-rule:evenodd;image-rendering:optimizeQuality;shape-rendering:geometricPrecision;text-rendering:geometricPrecision"
     id="g510"
     transform="translate(-195.19478,-17.950265)"><g
       id="g4057"
       transform="matrix(0.78130533,0,0,0.78660872,39.546544,29.450604)"
       style="clip-rule:evenodd;fill-rule:evenodd;image-rendering:optimizeQuality;shape-rendering:geometricPrecision;text-rendering:geometricPrecision" /><g
       style="clip-rule:evenodd;fill-rule:evenodd;image-rendering:optimizeQuality;shape-rendering:geometricPrecision;text-rendering:geometricPrecision"
       id="g4181"
       transform="matrix(-0.78122453,0.01034748,-0.01034748,-0.78122453,255.85904,203.73687)" /><path
       transform="matrix(0.78130533,0,0,0.78660872,39.546544,29.450604)"
       sodipodi:nodetypes="ccccc"
       inkscape:connector-curvature="0"
       id="rect4754"
       d="m 156.54039,66.747452 h 109.30589 v 8.780776 H 156.54039 Z"
       style="clip-rule:evenodd;fill:url(#linearGradient4928);fill-opacity:0.50196078;fill-rule:nonzero;stroke:none;image-rendering:optimizeQuality;shape-rendering:geometricPrecision;text-rendering:geometricPrecision" /><path
       transform="matrix(0.78130533,0,0,0.78660872,39.546544,29.450604)"
       sodipodi:nodetypes="ccccc"
       inkscape:connector-curvature="0"
       id="rect4742"
       d="m 156.54039,70.044594 h 107.04812 c 2.65257,-1.9e-4 2.59016,2.154312 0,2.186488 H 156.54039 Z"
       style="clip-rule:evenodd;fill:#0000ff;fill-opacity:1;fill-rule:nonzero;stroke:none;image-rendering:optimizeQuality;shape-rendering:geometricPrecision;text-rendering:geometricPrecision" /><path
       id="_260682896"
       d="m 86.6173,82.8791 46.4277,-0.8432 -0.131,-10.6795 -44.1128,0.5224 -0.4875,1.7599 -1.4497,8.0301 z"
       style="clip-rule:evenodd;fill:#b3b3b3;fill-rule:evenodd;stroke:#373435;stroke-width:0.2;image-rendering:optimizeQuality;shape-rendering:geometricPrecision;text-rendering:geometricPrecision"
       transform="matrix(0.78130533,0,0,0.78660872,-21.424056,25.369242)"
       inkscape:connector-curvature="0" /><path
       transform="matrix(0.78130533,0,0,0.78660872,39.546544,29.450604)"
       style="clip-rule:evenodd;fill:url(#linearGradient4930);fill-rule:evenodd;stroke:#373435;stroke-width:0.2;image-rendering:optimizeQuality;shape-rendering:geometricPrecision;text-rendering:geometricPrecision"
       inkscape:connector-curvature="0"
       d="m 45.08116,62.152243 -29.1323,0.5582 -3.8683,0.1262 -0.8283,2.0936 -0.4875,1.76 44.1128,-0.5224 1.3566,-1.152 88.36875,0.0197 -89.67485,-2.8892 c 0,0 -0.2254,0.47 -0.4377,0.4902 -0.2124,0.0203 -0.8038,-0.5791 -1.1219,-0.5618 -0.3182,0.0173 -0.3055,0.4941 -0.6228,0.4849 -0.3174,-0.0092 -0.6746,-0.4696 -0.9135,-0.4501 -0.2389,0.0195 -0.3031,0.4148 -0.6999,0.4033 -0.3967,-0.0115 -0.5159,-0.4649 -0.8068,-0.4733 -0.2909,-0.0085 -0.4657,0.5423 -0.7831,0.5331 -0.3173,-0.0092 -0.5959,-0.4407 -0.5959,-0.4407 z"
       class="fil0 str0"
       id="_260682992" /><path
       transform="matrix(0.78130533,0,0,0.78660872,39.546544,29.450604)"
       style="clip-rule:evenodd;fill:url(#radialGradient4932);fill-rule:evenodd;stroke:#373435;stroke-width:0.2;image-rendering:optimizeQuality;shape-rendering:geometricPrecision;text-rendering:geometricPrecision"
       inkscape:connector-curvature="0"
       d="m 18.30846,82.500643 96.24395,-3.5129 0.0752,1.0611 -39.870265,7.5273 -10.399985,1.6728 c 0,0 -1.257,0.2709 -2.5409,1.6691 -1.262,1.7053 -2.5378,7.4116 -3.3988,10.585197 l -7.4833,27.9993 0.0607,7.0427 -0.9019,0.8392 -14.8382,0.5231 -0.0345,-0.6363 -1.8014,0.0537 -0.2782,0.4684 -10.0333,-4.5258 -0.0751,-1.061 15.3253,-36.209797 c 0,0 0.312,-1.632 -0.2423,-2.601 -0.5542,-0.9689 -2.1089,-2.1256 -2.1089,-2.1256 l -17.2235,-5.7666 z"
       class="fil0 str0"
       id="_244917240" /><path
       id="_244918008"
       d="m 116.942,127.773 0.368,-1.466 13.932,-0.113 0.357,-1.333 -13.933,0.024 0.375,-1.493 13.984,-0.126 0.353,-1.321 -13.98,0.025 0.376,-1.498 14.028,-0.113 0.356,-1.333 -14.028,0.025 0.357,-1.422 14.075,-0.114 0.356,-1.333 -14.074,0.025 0.374,-1.494 14.123,-0.114 0.356,-1.333 -14.122,0.025 0.361,-1.44 14.17,-0.115 0.357,-1.333 -14.17,0.025 0.368,-1.467 14.218,-0.115 0.356,-1.333 -14.217,0.025 0.349,-1.388 14.269,-0.139 0.344,-1.33 -14.256,0.046 0.388,-1.547 14.216,-0.118 0.424,-1.33 -14.283,0.025 0.357,-1.425 14.399,-0.116 0.424,-1.33 -14.466,0.0228 2.963,-11.8094 -1.907,0.0506 -13.94,55.28 1.958,0.03 1.879,-7.488 13.837,-0.116 -0.002,-0.165 0.312,-1.168 -13.791,0.028 0.362,-1.442 13.837,-0.112 0.357,-1.333 -13.837,0.025 0.374,-1.495 13.885,-0.112 0.357,-1.334 z"
       style="clip-rule:evenodd;fill:#1a1a1a;fill-opacity:1;fill-rule:evenodd;stroke:none;stroke-width:0.2;image-rendering:optimizeQuality;shape-rendering:geometricPrecision;text-rendering:geometricPrecision"
       transform="matrix(0.78130533,0,0,0.78660872,-21.332116,25.55671)"
       inkscape:connector-curvature="0" /><path
       transform="matrix(0.78130533,0,0,0.78660872,39.546544,29.450604)"
       style="clip-rule:evenodd;fill:url(#linearGradient4934);fill-rule:evenodd;stroke:#373435;stroke-width:0.2;image-rendering:optimizeQuality;shape-rendering:geometricPrecision;text-rendering:geometricPrecision"
       inkscape:connector-curvature="0"
       d="m 45.08116,62.152243 -29.1323,0.5582 -0.0693,-1.2723 c 0,0 -0.1237,-0.2948 0.0153,-0.529 0.139,-0.2342 0.3514,-0.2545 0.3514,-0.2545 9.5362,-0.3237 19.1616,-0.3402 28.7081,-0.5178 0,0 0.0506,0.0809 0.1487,0.3485 0.0981,0.2675 -0.0219,1.6669 -0.0219,1.6669 z"
       class="fil0 str0"
       id="_260403448" /><path
       transform="matrix(0.78130533,0,0,0.78660872,39.546544,29.450604)"
       style="clip-rule:evenodd;fill:url(#linearGradient4936);fill-rule:evenodd;stroke:#373435;stroke-width:0.2;image-rendering:optimizeQuality;shape-rendering:geometricPrecision;text-rendering:geometricPrecision"
       inkscape:connector-curvature="0"
       d="m 26.00416,60.412543 -6.3932,0.1279 c 0,0 0.7532,-1.3283 0.9694,-1.4808 0.2162,-0.1525 4.2666,-0.1675 4.4765,-0.1085 0.21,0.059 0.9473,1.4614 0.9473,1.4614 z"
       class="fil0 str0"
       id="_260975192" /><path
       id="_244917360"
       d="m 86.6173,82.8791 2.3052,6.3137 1.4672,0.519 6.2538,-0.2424 96.0215,-4.232 -0.063,-1.0618 30.059,-1.7576 -88.214,1.4673 -1.402,-1.8494 z"
       style="clip-rule:evenodd;fill:url(#linearGradient4938);fill-rule:evenodd;stroke:#373435;stroke-width:0.2;image-rendering:optimizeQuality;shape-rendering:geometricPrecision;text-rendering:geometricPrecision"
       transform="matrix(0.78130533,0,0,0.78660872,-21.424056,25.369242)"
       inkscape:connector-curvature="0" /><path
       id="_244917936"
       d="m 86.6173,82.8791 46.4277,-0.8432 1.402,1.8494 88.214,-1.4673 v 0"
       style="clip-rule:evenodd;fill:none;fill-rule:evenodd;stroke:#373435;stroke-width:0.2;image-rendering:optimizeQuality;shape-rendering:geometricPrecision;text-rendering:geometricPrecision"
       transform="matrix(0.78130533,0,0,0.78660872,-21.424056,25.369242)"
       inkscape:connector-curvature="0" /><path
       id="_244917648"
       d="M 15.948451,62.710445 45.081146,62.152241"
       style="clip-rule:evenodd;fill:none;fill-rule:evenodd;stroke:#373435;stroke-width:0.2;image-rendering:optimizeQuality;shape-rendering:geometricPrecision;text-rendering:geometricPrecision"
       transform="matrix(0.78130533,0,0,0.78660872,39.546544,29.450604)"
       inkscape:connector-curvature="0" /><path
       id="_244917720"
       d="m 89.2887,70.1188 -0.975,3.5199 -1.4737,8.0257 0.024,0.0044"
       style="clip-rule:evenodd;fill:none;fill-rule:evenodd;stroke:#373435;stroke-width:0.2;image-rendering:optimizeQuality;shape-rendering:geometricPrecision;text-rendering:geometricPrecision"
       transform="matrix(0.78130533,0,0,0.78660872,-21.424056,25.369242)"
       inkscape:connector-curvature="0" /><path
       id="_244917600"
       d="m 88.4961,81.8059 1.2641,-8.6101 41.9238,-0.4618 0.03,8.074 z"
       style="clip-rule:evenodd;fill:url(#linearGradient4940);fill-rule:evenodd;stroke:#373435;stroke-width:0.2;image-rendering:optimizeQuality;shape-rendering:geometricPrecision;text-rendering:geometricPrecision"
       transform="matrix(0.78130533,0,0,0.78660872,-21.424056,25.369242)"
       inkscape:connector-curvature="0" /><path
       transform="matrix(0.78130533,0,0,0.78660872,39.546544,29.450604)"
       style="clip-rule:evenodd;fill:url(#linearGradient4942);fill-rule:evenodd;stroke:#373435;stroke-width:0.2;image-rendering:optimizeQuality;shape-rendering:geometricPrecision;text-rendering:geometricPrecision"
       inkscape:connector-curvature="0"
       d="m 58.38816,101.61344 2.4361,-0.0353 4.7207,-2.139597 -0.8201,-4.5248 c 0,0 -0.3335,-1.2802 1.0999,-3.2503 1.4335,-1.9701 8.107391,-2.0944 8.107391,-2.0944 l 0.795694,-1.8827 -10.370185,1.563 c 0,0 -1.5801,0.4837 -2.5409,1.6691 -0.9607,1.1853 -3.4286,10.694997 -3.4286,10.694997 z"
       class="fil0 str0"
       id="_244917504" /><path
       transform="matrix(0.78130533,0,0,0.78660872,39.546544,29.450604)"
       style="clip-rule:evenodd;fill:url(#linearGradient4944);fill-rule:evenodd;stroke:#373435;stroke-width:0.2;image-rendering:optimizeQuality;shape-rendering:geometricPrecision;text-rendering:geometricPrecision"
       inkscape:connector-curvature="0"
       d="m 144.60301,65.035543 7.301,0.1586 c 0,0 -4.8749,-5.3292 -5.4567,-5.3461 -0.5819,-0.0168 -1.6052,0.5888 -1.7807,1.1661 -0.1755,0.5772 -0.0636,4.0214 -0.0636,4.0214 z"
       class="fil0 str0"
       id="_244916424" /><path
       id="_244917072"
       d="m 133.045,82.0359 -0.131,-10.6795 1.357,-1.152 0.176,13.6809 z"
       style="clip-rule:evenodd;fill:#cccccc;fill-rule:evenodd;stroke:#373435;stroke-width:0.2;image-rendering:optimizeQuality;shape-rendering:geometricPrecision;text-rendering:geometricPrecision"
       transform="matrix(0.78130533,0,0,0.78660872,-21.424056,25.369242)"
       inkscape:connector-curvature="0" /><path
       transform="matrix(0.78130533,0,0,0.78660872,39.546544,29.450604)"
       sodipodi:nodetypes="ccccccc"
       inkscape:connector-curvature="0"
       id="_244915584"
       d="m 56.23416,65.015843 0.176,13.6809 88.21385,-1.4673 10.45958,-0.586505 c 6.10235,-0.339675 5.62418,-10.91475 -0.0322,-11.120095 l -18.241,-0.6507 z"
       style="clip-rule:evenodd;fill:url(#radialGradient4946);fill-rule:evenodd;stroke:#000000;stroke-width:0.2;stroke-opacity:1;image-rendering:optimizeQuality;shape-rendering:geometricPrecision;text-rendering:geometricPrecision" /><path
       transform="matrix(0.78130533,0,0,0.78660872,39.546544,29.450604)"
       style="clip-rule:evenodd;fill:#333333;fill-rule:evenodd;stroke:#373435;stroke-width:0.2;image-rendering:optimizeQuality;shape-rendering:geometricPrecision;text-rendering:geometricPrecision"
       inkscape:connector-curvature="0"
       d="m 11.25186,64.930243 -0.975,3.5199 -1.4496991,8.0301 -1.3700994,-0.2516 0.2296,-1.5286 0.6510997,-3.2898 c 0,0 0.2414997,-2.8516 0.4426997,-3.4017 0.2011997,-0.5501 1.3644991,-3.2428 1.3644991,-3.2428 z"
       class="fil0 str0"
       id="_244916400" /><path
       transform="matrix(0.78130533,0,0,0.78660872,39.546544,29.450604)"
       style="clip-rule:evenodd;fill:#ff0000;fill-rule:evenodd;stroke:#373435;stroke-width:0.2;image-rendering:optimizeQuality;shape-rendering:geometricPrecision;text-rendering:geometricPrecision"
       inkscape:connector-curvature="0"
       d="m 7.6866615,74.700043 c 0,0 -0.4878997,-0.517 -0.3522997,-1.5454 0.1355997,-1.0284 1.0033994,-1.7444 1.0033994,-1.7444 z"
       class="fil0 str0"
       id="_244915464" /><path
       id="path3890"
       d="m 13.732306,70.063637 a 0.6385709,0.6385709 0 0 1 -0.638571,0.638571 0.6385709,0.6385709 0 0 1 -0.638571,-0.638571 0.6385709,0.6385709 0 0 1 0.638571,-0.638571 0.6385709,0.6385709 0 0 1 0.638571,0.638571 z"
       style="clip-rule:evenodd;fill:url(#radialGradient4948);fill-opacity:1;fill-rule:nonzero;stroke:none;stroke-width:0.19538462;image-rendering:optimizeQuality;shape-rendering:geometricPrecision;text-rendering:geometricPrecision"
       transform="matrix(0.78130533,0,0,0.78660872,39.546544,29.450604)"
       inkscape:connector-curvature="0" /><path
       id="path4116"
       d="m 13.83537,74.245209 a 0.77844745,0.77844745 0 0 1 -0.778447,0.778447 0.77844745,0.77844745 0 0 1 -0.778448,-0.778447 0.77844745,0.77844745 0 0 1 0.778448,-0.778448 0.77844745,0.77844745 0 0 1 0.778447,0.778448 z"
       style="clip-rule:evenodd;fill:#ff0000;fill-opacity:0.50196078;fill-rule:nonzero;stroke:none;stroke-width:0.23818289;image-rendering:optimizeQuality;shape-rendering:geometricPrecision;text-rendering:geometricPrecision"
       transform="matrix(0.78130533,0,0,0.78660872,39.546544,29.450604)"
       inkscape:connector-curvature="0" /><path
       id="path4118"
       d="m 13.695498,74.245209 a 0.6385709,0.6385709 0 0 1 -0.638571,0.638571 0.6385709,0.6385709 0 0 1 -0.638571,-0.638571 0.6385709,0.6385709 0 0 1 0.638571,-0.638571 0.6385709,0.6385709 0 0 1 0.638571,0.638571 z"
       style="clip-rule:evenodd;fill:url(#radialGradient4950);fill-opacity:1;fill-rule:nonzero;stroke:none;stroke-width:0.19538462;image-rendering:optimizeQuality;shape-rendering:geometricPrecision;text-rendering:geometricPrecision"
       transform="matrix(0.78130533,0,0,0.78660872,39.546544,29.450604)"
       inkscape:connector-curvature="0" /><path
       id="path4122"
       d="m 13.864819,72.088165 a 0.77844745,0.77844745 0 0 1 -0.778448,0.778448 0.77844745,0.77844745 0 0 1 -0.778447,-0.778448 0.77844745,0.77844745 0 0 1 0.778447,-0.778447 0.77844745,0.77844745 0 0 1 0.778448,0.778447 z"
       style="clip-rule:evenodd;fill:#ff0000;fill-opacity:0.50196078;fill-rule:nonzero;stroke:none;stroke-width:0.23818289;image-rendering:optimizeQuality;shape-rendering:geometricPrecision;text-rendering:geometricPrecision"
       transform="matrix(0.78130533,0,0,0.78660872,39.546544,29.450604)"
       inkscape:connector-curvature="0" /><path
       id="path4124"
       d="m 13.724942,72.088165 a 0.6385709,0.6385709 0 0 1 -0.638571,0.638571 0.6385709,0.6385709 0 0 1 -0.63857,-0.638571 0.6385709,0.6385709 0 0 1 0.63857,-0.638571 0.6385709,0.6385709 0 0 1 0.638571,0.638571 z"
       style="clip-rule:evenodd;fill:url(#radialGradient4952);fill-opacity:1;fill-rule:nonzero;stroke:none;stroke-width:0.19538462;image-rendering:optimizeQuality;shape-rendering:geometricPrecision;text-rendering:geometricPrecision"
       transform="matrix(0.78130533,0,0,0.78660872,39.546544,29.450604)"
       inkscape:connector-curvature="0" /><path
       id="rect4168"
       d="m 51.3633,70.217911 h 0.899044 v 5.769895 H 51.3633 Z"
       style="clip-rule:evenodd;fill:#00ff00;fill-opacity:1;fill-rule:nonzero;stroke:none;image-rendering:optimizeQuality;shape-rendering:geometricPrecision;text-rendering:geometricPrecision"
       transform="matrix(0.78100164,-0.02192979,0.00636141,0.78658263,39.546544,29.450604)"
       inkscape:connector-curvature="0" /><path
       id="rect4170"
       d="m 51.035931,69.875954 h 1.222833 v 6.263196 h -1.222833 z"
       style="clip-rule:evenodd;fill:#00ff00;fill-opacity:0.50196078;fill-rule:nonzero;stroke:none;image-rendering:optimizeQuality;shape-rendering:geometricPrecision;text-rendering:geometricPrecision"
       transform="matrix(0.78103932,-0.02052534,0.00811168,0.78656633,39.546544,29.450604)"
       inkscape:connector-curvature="0" /><path
       id="rect4194"
       d="m 49.676609,70.189957 h 0.899044 v 5.769895 h -0.899044 z"
       style="clip-rule:evenodd;fill:#00ff00;fill-opacity:1;fill-rule:nonzero;stroke:none;image-rendering:optimizeQuality;shape-rendering:geometricPrecision;text-rendering:geometricPrecision"
       transform="matrix(0.78100164,-0.02192979,0.00636141,0.78658263,39.546544,29.450604)"
       inkscape:connector-curvature="0" /><path
       id="rect4196"
       d="m 49.349369,69.851013 h 1.222833 v 6.263197 h -1.222833 z"
       style="clip-rule:evenodd;fill:#00ff00;fill-opacity:0.50196078;fill-rule:nonzero;stroke:none;image-rendering:optimizeQuality;shape-rendering:geometricPrecision;text-rendering:geometricPrecision"
       transform="matrix(0.78103932,-0.02052534,0.00811168,0.78656633,39.546544,29.450604)"
       inkscape:connector-curvature="0" /><path
       id="rect4200"
       d="M 47.989956,70.162003 H 48.889 v 5.769895 h -0.899044 z"
       style="clip-rule:evenodd;fill:#00ff00;fill-opacity:1;fill-rule:nonzero;stroke:none;image-rendering:optimizeQuality;shape-rendering:geometricPrecision;text-rendering:geometricPrecision"
       transform="matrix(0.78100164,-0.02192979,0.00636141,0.78658263,39.546544,29.450604)"
       inkscape:connector-curvature="0" /><path
       id="rect4202"
       d="m 47.662815,69.82608 h 1.222833 v 6.263197 h -1.222833 z"
       style="clip-rule:evenodd;fill:#00ff00;fill-opacity:0.50196078;fill-rule:nonzero;stroke:none;image-rendering:optimizeQuality;shape-rendering:geometricPrecision;text-rendering:geometricPrecision"
       transform="matrix(0.78103932,-0.02052534,0.00811168,0.78656633,39.546544,29.450604)"
       inkscape:connector-curvature="0" /><path
       id="rect4206"
       d="m 46.303272,70.134048 h 0.899044 v 5.769896 h -0.899044 z"
       style="clip-rule:evenodd;fill:#00ff00;fill-opacity:1;fill-rule:nonzero;stroke:none;image-rendering:optimizeQuality;shape-rendering:geometricPrecision;text-rendering:geometricPrecision"
       transform="matrix(0.78100164,-0.02192979,0.00636141,0.78658263,39.546544,29.450604)"
       inkscape:connector-curvature="0" /><path
       id="rect4208"
       d="m 45.976254,69.80114 h 1.222832 v 6.263196 h -1.222832 z"
       style="clip-rule:evenodd;fill:#00ff00;fill-opacity:0.50196078;fill-rule:nonzero;stroke:none;image-rendering:optimizeQuality;shape-rendering:geometricPrecision;text-rendering:geometricPrecision"
       transform="matrix(0.78103932,-0.02052534,0.00811168,0.78656633,39.546544,29.450604)"
       inkscape:connector-curvature="0" /><path
       id="rect4212"
       d="m 44.616604,70.106094 h 0.899044 v 5.769896 h -0.899044 z"
       style="clip-rule:evenodd;fill:#00ff00;fill-opacity:1;fill-rule:nonzero;stroke:none;image-rendering:optimizeQuality;shape-rendering:geometricPrecision;text-rendering:geometricPrecision"
       transform="matrix(0.78100164,-0.02192979,0.00636141,0.78658263,39.546544,29.450604)"
       inkscape:connector-curvature="0" /><path
       id="rect4214"
       d="m 44.289692,69.776199 h 1.222833 v 6.263197 h -1.222833 z"
       style="clip-rule:evenodd;fill:#00ff00;fill-opacity:0.50196078;fill-rule:nonzero;stroke:none;image-rendering:optimizeQuality;shape-rendering:geometricPrecision;text-rendering:geometricPrecision"
       transform="matrix(0.78103932,-0.02052534,0.00811168,0.78656633,39.546544,29.450604)"
       inkscape:connector-curvature="0" /><path
       id="rect4218"
       d="m 42.929935,70.07814 h 0.899044 v 5.769896 h -0.899044 z"
       style="clip-rule:evenodd;fill:#00ff00;fill-opacity:1;fill-rule:nonzero;stroke:none;image-rendering:optimizeQuality;shape-rendering:geometricPrecision;text-rendering:geometricPrecision"
       transform="matrix(0.78100164,-0.02192979,0.00636141,0.78658263,39.546544,29.450604)"
       inkscape:connector-curvature="0" /><path
       id="rect4220"
       d="m 42.60313,69.751259 h 1.222833 v 6.263196 H 42.60313 Z"
       style="clip-rule:evenodd;fill:#00ff00;fill-opacity:0.50196078;fill-rule:nonzero;stroke:none;image-rendering:optimizeQuality;shape-rendering:geometricPrecision;text-rendering:geometricPrecision"
       transform="matrix(0.78103932,-0.02052534,0.00811168,0.78656633,39.546544,29.450604)"
       inkscape:connector-curvature="0" /><path
       id="rect4224"
       d="m 41.243252,70.050186 h 0.899044 v 5.769896 h -0.899044 z"
       style="clip-rule:evenodd;fill:#00ff00;fill-opacity:1;fill-rule:nonzero;stroke:none;image-rendering:optimizeQuality;shape-rendering:geometricPrecision;text-rendering:geometricPrecision"
       transform="matrix(0.78100164,-0.02192979,0.00636141,0.78658263,39.546544,29.450604)"
       inkscape:connector-curvature="0" /><path
       id="rect4226"
       d="m 40.916569,69.726318 h 1.222833 v 6.263197 h -1.222833 z"
       style="clip-rule:evenodd;fill:#00ff00;fill-opacity:0.50196078;fill-rule:nonzero;stroke:none;image-rendering:optimizeQuality;shape-rendering:geometricPrecision;text-rendering:geometricPrecision"
       transform="matrix(0.78103932,-0.02052534,0.00811168,0.78656633,39.546544,29.450604)"
       inkscape:connector-curvature="0" /><path
       id="rect4230"
       d="m 39.556583,70.022232 h 0.899044 v 5.769896 h -0.899044 z"
       style="clip-rule:evenodd;fill:#00ff00;fill-opacity:1;fill-rule:nonzero;stroke:none;image-rendering:optimizeQuality;shape-rendering:geometricPrecision;text-rendering:geometricPrecision"
       transform="matrix(0.78100164,-0.02192979,0.00636141,0.78658263,39.546544,29.450604)"
       inkscape:connector-curvature="0" /><path
       id="rect4232"
       d="m 39.230015,69.701378 h 1.222833 v 6.263196 h -1.222833 z"
       style="clip-rule:evenodd;fill:#00ff00;fill-opacity:0.50196078;fill-rule:nonzero;stroke:none;image-rendering:optimizeQuality;shape-rendering:geometricPrecision;text-rendering:geometricPrecision"
       transform="matrix(0.78103932,-0.02052534,0.00811168,0.78656633,39.546544,29.450604)"
       inkscape:connector-curvature="0" /><path
       id="rect4284"
       d="m 37.8699,69.994278 h 0.899043 v 5.769896 H 37.8699 Z"
       style="clip-rule:evenodd;fill:#00ff00;fill-opacity:1;fill-rule:nonzero;stroke:none;image-rendering:optimizeQuality;shape-rendering:geometricPrecision;text-rendering:geometricPrecision"
       transform="matrix(0.78100164,-0.02192979,0.00636141,0.78658263,39.546544,29.450604)"
       inkscape:connector-curvature="0" /><path
       id="rect4286"
       d="m 37.543446,69.676437 h 1.222833 v 6.263197 h -1.222833 z"
       style="clip-rule:evenodd;fill:#00ff00;fill-opacity:0.50196078;fill-rule:nonzero;stroke:none;image-rendering:optimizeQuality;shape-rendering:geometricPrecision;text-rendering:geometricPrecision"
       transform="matrix(0.78103932,-0.02052534,0.00811168,0.78656633,39.546544,29.450604)"
       inkscape:connector-curvature="0" /><path
       id="rect4290"
       d="m 36.183247,69.966324 h 0.899043 v 5.769895 h -0.899043 z"
       style="clip-rule:evenodd;fill:#00ff00;fill-opacity:1;fill-rule:nonzero;stroke:none;image-rendering:optimizeQuality;shape-rendering:geometricPrecision;text-rendering:geometricPrecision"
       transform="matrix(0.78100164,-0.02192979,0.00636141,0.78658263,39.546544,29.450604)"
       inkscape:connector-curvature="0" /><path
       id="rect4292"
       d="m 35.856892,69.651497 h 1.222833 v 6.263196 h -1.222833 z"
       style="clip-rule:evenodd;fill:#00ff00;fill-opacity:0.50196078;fill-rule:nonzero;stroke:none;image-rendering:optimizeQuality;shape-rendering:geometricPrecision;text-rendering:geometricPrecision"
       transform="matrix(0.78103932,-0.02052534,0.00811168,0.78656633,39.546544,29.450604)"
       inkscape:connector-curvature="0" /><path
       id="rect4296"
       d="m 34.496567,69.93837 h 0.899044 v 5.769895 h -0.899044 z"
       style="clip-rule:evenodd;fill:#00ff00;fill-opacity:1;fill-rule:nonzero;stroke:none;image-rendering:optimizeQuality;shape-rendering:geometricPrecision;text-rendering:geometricPrecision"
       transform="matrix(0.78100164,-0.02192979,0.00636141,0.78658263,39.546544,29.450604)"
       inkscape:connector-curvature="0" /><path
       id="rect4298"
       d="m 34.17033,69.626556 h 1.222833 v 6.263197 H 34.17033 Z"
       style="clip-rule:evenodd;fill:#00ff00;fill-opacity:0.50196078;fill-rule:nonzero;stroke:none;image-rendering:optimizeQuality;shape-rendering:geometricPrecision;text-rendering:geometricPrecision"
       transform="matrix(0.78103932,-0.02052534,0.00811168,0.78656633,39.546544,29.450604)"
       inkscape:connector-curvature="0" /><path
       id="rect4302"
       d="m 32.809898,69.910416 h 0.899044 v 5.769895 h -0.899044 z"
       style="clip-rule:evenodd;fill:#00ff00;fill-opacity:1;fill-rule:nonzero;stroke:none;image-rendering:optimizeQuality;shape-rendering:geometricPrecision;text-rendering:geometricPrecision"
       transform="matrix(0.78100164,-0.02192979,0.00636141,0.78658263,39.546544,29.450604)"
       inkscape:connector-curvature="0" /><path
       id="rect4304"
       d="m 32.483768,69.601616 h 1.222833 v 6.263196 h -1.222833 z"
       style="clip-rule:evenodd;fill:#00ff00;fill-opacity:0.50196078;fill-rule:nonzero;stroke:none;image-rendering:optimizeQuality;shape-rendering:geometricPrecision;text-rendering:geometricPrecision"
       transform="matrix(0.78103932,-0.02052534,0.00811168,0.78656633,39.546544,29.450604)"
       inkscape:connector-curvature="0" /><path
       id="rect4308"
       d="m 31.123226,69.882462 h 0.899044 v 5.769895 h -0.899044 z"
       style="clip-rule:evenodd;fill:#00ff00;fill-opacity:1;fill-rule:nonzero;stroke:none;image-rendering:optimizeQuality;shape-rendering:geometricPrecision;text-rendering:geometricPrecision"
       transform="matrix(0.78100164,-0.02192979,0.00636141,0.78658263,39.546544,29.450604)"
       inkscape:connector-curvature="0" /><path
       id="rect4310"
       d="m 30.79722,69.576675 h 1.222833 v 6.263197 H 30.79722 Z"
       style="clip-rule:evenodd;fill:#00ff00;fill-opacity:0.50196078;fill-rule:nonzero;stroke:none;image-rendering:optimizeQuality;shape-rendering:geometricPrecision;text-rendering:geometricPrecision"
       transform="matrix(0.78103932,-0.02052534,0.00811168,0.78656633,39.546544,29.450604)"
       inkscape:connector-curvature="0" /><path
       id="rect4314"
       d="m 29.436529,69.854507 h 0.899044 v 5.769896 h -0.899044 z"
       style="clip-rule:evenodd;fill:#00ff00;fill-opacity:1;fill-rule:nonzero;stroke:none;image-rendering:optimizeQuality;shape-rendering:geometricPrecision;text-rendering:geometricPrecision"
       transform="matrix(0.78100164,-0.02192979,0.00636141,0.78658263,39.546544,29.450604)"
       inkscape:connector-curvature="0" /><path
       id="rect4316"
       d="m 29.110657,69.551735 h 1.222833 v 6.263196 h -1.222833 z"
       style="clip-rule:evenodd;fill:#00ff00;fill-opacity:0.50196078;fill-rule:nonzero;stroke:none;image-rendering:optimizeQuality;shape-rendering:geometricPrecision;text-rendering:geometricPrecision"
       transform="matrix(0.78103932,-0.02052534,0.00811168,0.78656633,39.546544,29.450604)"
       inkscape:connector-curvature="0" /><path
       id="rect4320"
       d="m 27.749861,69.826553 h 0.899044 v 5.769896 h -0.899044 z"
       style="clip-rule:evenodd;fill:#00ff00;fill-opacity:1;fill-rule:nonzero;stroke:none;image-rendering:optimizeQuality;shape-rendering:geometricPrecision;text-rendering:geometricPrecision"
       transform="matrix(0.78100164,-0.02192979,0.00636141,0.78658263,39.546544,29.450604)"
       inkscape:connector-curvature="0" /><path
       id="rect4322"
       d="m 27.424109,69.526794 h 1.222832 v 6.263197 h -1.222832 z"
       style="clip-rule:evenodd;fill:#00ff00;fill-opacity:0.50196078;fill-rule:nonzero;stroke:none;image-rendering:optimizeQuality;shape-rendering:geometricPrecision;text-rendering:geometricPrecision"
       transform="matrix(0.78103932,-0.02052534,0.00811168,0.78656633,39.546544,29.450604)"
       inkscape:connector-curvature="0" /><path
       id="rect4326"
       d="m 26.063192,69.798599 h 0.899044 v 5.769896 h -0.899044 z"
       style="clip-rule:evenodd;fill:#00ff00;fill-opacity:1;fill-rule:nonzero;stroke:none;image-rendering:optimizeQuality;shape-rendering:geometricPrecision;text-rendering:geometricPrecision"
       transform="matrix(0.78100164,-0.02192979,0.00636141,0.78658263,39.546544,29.450604)"
       inkscape:connector-curvature="0" /><path
       id="rect4328"
       d="m 25.737549,69.501862 h 1.222833 v 6.263196 h -1.222833 z"
       style="clip-rule:evenodd;fill:#00ff00;fill-opacity:0.50196078;fill-rule:nonzero;stroke:none;image-rendering:optimizeQuality;shape-rendering:geometricPrecision;text-rendering:geometricPrecision"
       transform="matrix(0.78103932,-0.02052534,0.00811168,0.78656633,39.546544,29.450604)"
       inkscape:connector-curvature="0" /><path
       id="path4358"
       d="m 25.859214,70.838562 a 5.4848971,1.172188 0 0 1 -5.484897,1.172188 5.4848971,1.172188 0 0 1 -5.484897,-1.172188 5.4848971,1.172188 0 0 1 5.484897,-1.172188 5.4848971,1.172188 0 0 1 5.484897,1.172188 z"
       style="clip-rule:evenodd;fill:url(#linearGradient4954);fill-opacity:1;fill-rule:nonzero;stroke:none;stroke-width:0.31712067;image-rendering:optimizeQuality;shape-rendering:geometricPrecision;text-rendering:geometricPrecision"
       transform="matrix(0.78106594,-0.01947075,0,0.78660872,39.546544,29.450604)"
       inkscape:connector-curvature="0" /><path
       id="path4340"
       d="m 25.421721,70.838554 a 5.0473995,1.0091705 0 0 1 -5.0474,1.009171 5.0473995,1.0091705 0 0 1 -5.0474,-1.009171 5.0473995,1.0091705 0 0 1 5.0474,-1.00917 5.0473995,1.0091705 0 0 1 5.0474,1.00917 z"
       style="clip-rule:evenodd;fill:url(#radialGradient4956);fill-opacity:1;fill-rule:nonzero;stroke:none;stroke-width:0.28226548;image-rendering:optimizeQuality;shape-rendering:geometricPrecision;text-rendering:geometricPrecision"
       transform="matrix(0.78106594,-0.01947076,0,0.78660872,39.546544,29.450604)"
       inkscape:connector-curvature="0" /><path
       id="path4374"
       d="m 25.791311,74.197098 a 5.4848971,1.172188 0 0 1 -5.484897,1.172188 5.4848971,1.172188 0 0 1 -5.484897,-1.172188 5.4848971,1.172188 0 0 1 5.484897,-1.172188 5.4848971,1.172188 0 0 1 5.484897,1.172188 z"
       style="clip-rule:evenodd;fill:url(#linearGradient4958);fill-opacity:1;fill-rule:nonzero;stroke:none;stroke-width:0.31712067;image-rendering:optimizeQuality;shape-rendering:geometricPrecision;text-rendering:geometricPrecision"
       transform="matrix(0.78106594,-0.01947075,0,0.78660872,39.546544,29.450604)"
       inkscape:connector-curvature="0" /><path
       id="path4376"
       d="m 25.353813,74.197098 a 5.0473995,1.0091705 0 0 1 -5.047399,1.00917 5.0473995,1.0091705 0 0 1 -5.0474,-1.00917 5.0473995,1.0091705 0 0 1 5.0474,-1.009171 5.0473995,1.0091705 0 0 1 5.047399,1.009171 z"
       style="clip-rule:evenodd;fill:url(#radialGradient4960);fill-opacity:1;fill-rule:nonzero;stroke:none;stroke-width:0.28226548;image-rendering:optimizeQuality;shape-rendering:geometricPrecision;text-rendering:geometricPrecision"
       transform="matrix(0.78106594,-0.01947076,0,0.78660872,39.546544,29.450604)"
       inkscape:connector-curvature="0" /><path
       id="path4851"
       d="m 159.30686,71.047638 a 2.8415008,5.3189845 0 0 1 -2.8415,5.318984 2.8415008,5.3189845 0 0 1 -2.8415,-5.318984 2.8415008,5.3189845 0 0 1 2.8415,-5.318985 2.8415008,5.3189845 0 0 1 2.8415,5.318985 z"
       style="clip-rule:evenodd;fill:url(#radialGradient4962);fill-rule:evenodd;stroke:none;stroke-width:0.29624087;image-rendering:optimizeQuality;shape-rendering:geometricPrecision;text-rendering:geometricPrecision"
       transform="matrix(0.78130533,0,0,0.78660872,39.546544,29.450604)"
       inkscape:connector-curvature="0" /></g></g></svg>