<?xml version="1.0" encoding="UTF-8" standalone="no"?>
<svg
   xmlns:dc="http://purl.org/dc/elements/1.1/"
   xmlns:cc="http://creativecommons.org/ns#"
   xmlns:rdf="http://www.w3.org/1999/02/22-rdf-syntax-ns#"
   xmlns:svg="http://www.w3.org/2000/svg"
   xmlns="http://www.w3.org/2000/svg"
   xmlns:sodipodi="http://sodipodi.sourceforge.net/DTD/sodipodi-0.dtd"
   xmlns:inkscape="http://www.inkscape.org/namespaces/inkscape"
   viewBox="0 0 602.00003 150.31696"
   version="1.1"
   id="svg4"
   sodipodi:docname="logo.svg"
   width="602"
   height="150.31696"
   inkscape:version="0.92.4 (5da689c313, 2019-01-14)">
  <metadata
     id="metadata10">
    <rdf:RDF>
      <cc:Work
         rdf:about="">
        <dc:format>image/svg+xml</dc:format>
        <dc:type
           rdf:resource="http://purl.org/dc/dcmitype/StillImage" />
        <dc:title></dc:title>
      </cc:Work>
    </rdf:RDF>
  </metadata>
  <defs
     id="defs8" />
  <sodipodi:namedview
     pagecolor="#ffffff"
     bordercolor="#666666"
     borderopacity="1"
     objecttolerance="10"
     gridtolerance="10"
     guidetolerance="10"
     inkscape:pageopacity="0"
     inkscape:pageshadow="2"
     inkscape:window-width="1600"
     inkscape:window-height="837"
     id="namedview6"
     showgrid="false"
     inkscape:zoom="0.68438561"
     inkscape:cx="141.39999"
     inkscape:cy="35.550001"
     inkscape:window-x="-8"
     inkscape:window-y="-8"
     inkscape:window-maximized="1"
     inkscape:current-layer="svg4" />
  <g
     id="g28">
    <path
       style="stroke-width:2.12796068"
       inkscape:connector-curvature="0"
       id="path2"
       d="m 446.65886,95.628367 c -0.42559,-0.212766 -0.63836,-1.489568 -0.63836,-4.25592 0,-3.191936 0.21302,-4.043123 0.63836,-4.255921 0.4256,-0.212766 5.31993,-0.212766 10.85262,-0.212766 15.10852,0 14.68292,0.638388 15.10852,-16.385294 0.21302,-8.086251 0.42559,-11.703783 0.85119,-12.12938 0.21302,-0.212766 2.34075,-0.212766 4.46873,-0.212766 l 3.83031,0.212766 v 13.40615 c 0,11.490991 -0.21303,13.618949 -0.8512,15.108524 -2.34075,4.894309 -6.17105,7.873453 -11.49098,8.724633 -2.55351,0.425596 -21.4924,0.638388 -22.76919,0 z m 39.79286,0 c -1.06396,-0.42559 -1.06396,-0.638382 -0.85113,-4.468712 l 0.21303,-4.043129 8.08627,-0.212766 c 8.9374,-0.212788 10.42695,-0.638389 11.70374,-3.404741 0.63843,-1.489568 1.91515,-23.620358 1.27679,-25.535523 -0.21302,-0.638388 0,-1.063978 0.4256,-1.276777 1.06396,-0.42559 9.15023,-0.638388 8.93746,-0.212766 -0.21302,0.212766 0,0.42559 0.21302,0.638386 0.21302,0.212788 0.21302,0.638384 0.21302,0.851183 -0.21302,0.212809 -0.42553,6.383884 -0.42553,13.83174 0,12.767768 0,13.193358 -1.06402,15.321315 -2.34075,4.681517 -5.74546,7.447863 -10.63979,8.511842 -3.19194,0.425596 -16.3853,0.638388 -18.08769,0 z m 62.34929,-3.830324 0.21302,-4.255921 2.76635,-0.212808 c 1.48955,-0.212788 3.19194,-0.425591 3.61753,-0.851187 1.27679,-0.638389 20.21562,-19.790028 20.21562,-20.215618 0,-1.489575 -0.63837,-1.702373 -12.98054,-1.702373 l -12.1294,-0.212767 -0.21303,-3.83033 c 0,-2.340755 0,-4.043122 0.4256,-4.468719 0.4256,-0.42559 2.97911,-0.638388 13.40613,-0.42559 7.02231,0.212809 13.4062,0.42559 14.25733,0.638388 4.89432,1.489569 7.66067,9.15023 4.89432,14.470129 -0.42559,0.851187 -1.91515,2.766352 -3.61753,4.468719 l -2.76635,2.979144 1.27679,1.276776 c 2.97911,3.191942 8.72463,13.831741 8.72463,16.172496 0,0.425597 -0.85119,0.638389 -4.2559,0.638389 h -4.25596 l -1.27673,-2.766346 c -1.48962,-3.404734 -4.89433,-8.724639 -5.74552,-8.724639 -0.21302,0 -2.55358,1.915165 -4.89433,4.468718 -5.74546,5.745496 -8.29904,7.235065 -13.6189,7.235065 h -3.83037 z m -30.21704,-12.55497 c 0,-2.979144 0.21303,-7.022266 0.4256,-7.447862 0.21302,-0.212767 7.87344,-0.425591 16.81084,-0.425591 14.89575,-0.212766 16.59814,-0.212766 17.02373,0.638389 0.21303,0.42559 0.42554,2.340755 0.42554,4.468719 v 3.617532 l -17.23644,0.212766 -17.2365,0.212766 z m -70.86108,-1.702367 -1.91516,-0.212809 0.21303,-3.830324 c 0,-2.127963 0.21302,-4.043128 0.42559,-4.25592 0.21302,-0.212809 4.46873,-0.425597 9.57583,-0.425597 l 9.15023,-0.212766 0.21302,4.25592 c 0,2.979144 0,4.468713 -0.4256,4.681511 -0.63836,0.42559 -14.68292,0.42559 -17.23643,0 z m 38.51607,-1.915165 c -0.63837,-0.42559 -0.8512,-1.276777 -0.4256,-9.575819 0.21302,-5.958288 0.4256,-9.15023 0.85119,-9.57582 0.21303,-0.212788 2.34075,-0.212788 4.46874,-0.212788 l 3.8303,0.212788 v 8.724633 c 0,4.894309 0,9.363027 -0.21302,9.788618 -0.21302,1.063985 -0.4256,1.063985 -4.04314,1.063985 -1.91515,0 -4.04313,-0.212788 -4.46873,-0.425597 z M 447.72289,65.198535 446.0205,64.985769 V 60.94264 c 0,-2.340756 0.21302,-4.255921 0.63836,-4.255921 0.21303,0 4.68157,-0.212766 9.78866,-0.212766 h 9.15023 l -0.21302,4.255921 c 0,2.340755 -0.21302,4.25592 -0.4256,4.468712 0,0.212809 -13.83173,0.212809 -17.23644,0 z M 0.21279603,34.981501 C 0,34.768702 0.85118418,30.087192 2.1279604,24.554494 3.4047365,19.021796 4.2559206,14.127487 4.2559206,13.489099 c 0,-0.425592 -0.6383878,-1.702368 -1.7023682,-2.553553 L 0.85118418,9.4459737 1.7023683,8.1691977 c 1.7023682,-2.340757 6.3838815,-7.02227 7.0222692,-7.02227 0.6383884,0 0.8511841,0.212797 9.5758225,9.7886183 3.617531,4.043125 6.596675,7.02227 6.809473,6.809473 0.212809,-0.212798 1.063979,-4.043125 2.127957,-8.2990453 1.063985,-5.319901 1.915166,-8.08625 2.340762,-8.299046 1.276777,-0.42559199 7.660655,3.191941 7.235065,4.255921 -0.212809,0.425592 -1.276777,1.06398 -2.553554,1.702368 -1.276777,0.638389 -2.553554,1.276776 -2.766352,1.702368 -0.42559,0.425593 -1.702367,5.9582903 -3.191936,12.5549673 -2.979143,14.257337 -2.766351,13.618949 -3.83033,13.618949 -0.851187,0 -2.553554,-1.702372 -11.065394,-11.278193 -3.191941,-3.617532 -5.9582897,-6.171084 -6.1710854,-5.958289 -0.2127963,0.212797 -2.1279609,8.72464 -2.1279609,10.001417 0,0.42559 0.8511848,1.276771 1.9151646,1.915159 2.7663487,1.915165 2.5535523,2.766352 -1.4895725,4.468719 -3.8303285,1.276777 -4.89430865,1.489575 -5.31990077,0.851187 z m 75.75539297,0 C 73.414635,34.130314 70.009895,31.57676 68.307528,28.810415 65.328384,24.554494 65.115586,19.660184 67.243549,14.127487 69.797103,7.1052167 81.288088,0.29574371 89.587131,0.72133571 l 2.766351,0.212796 1.276777,2.97914399 c 2.127957,4.468718 2.340756,4.894309 0.851181,5.745493 -0.425591,0.4255933 -1.915159,1.0639813 -2.766346,1.0639813 -1.702367,0.212798 -1.915165,0.212798 -3.83033,-2.5535523 -1.276777,-1.915165 -2.127957,-2.766349 -2.766346,-2.766349 -1.702367,0 -5.319905,2.340757 -7.447862,4.6815133 -3.404741,3.617532 -3.830331,7.235066 -1.702367,11.065394 2.340755,4.468717 7.235064,5.107105 13.83174,2.127961 3.191942,-1.489575 3.83033,-1.702367 4.25592,-1.276776 0.638389,0.851186 -4.68151,11.278188 -6.171085,12.342171 -1.702367,0.85118 -9.57582,1.276777 -11.916575,0.638389 z M 416.01623,34.555904 c -0.63836,-1.063978 -0.63836,-5.319899 -0.21302,-5.745489 0.21302,-0.212809 3.83031,-0.42559 7.87344,-0.638389 7.02231,-0.21283 7.66067,-0.42559 8.72463,-1.489575 1.06403,-1.063978 1.48962,-4.468712 0.63843,-5.107101 -0.21302,-0.212808 -2.97918,-0.212808 -5.95829,-0.212808 -6.38388,0 -6.59671,0 -6.38388,-3.830329 l 0.21302,-2.553553 5.74552,-0.212798 c 3.19194,-0.212799 6.17106,-0.425592 6.38389,-0.638389 0.63836,-0.425592 0.63836,-4.2559203 0,-5.3199013 -0.4256,-0.851184 -1.06403,-0.851184 -6.38389,-0.851184 -7.02231,0 -6.80948,0 -8.08627,5.1071053 -1.27679,4.894309 -1.27679,5.107105 -3.8303,5.107105 -3.19195,0 -4.25597,-0.425592 -4.25597,-1.489572 0,-1.702369 3.19194,-12.1293743 3.83037,-13.4061503 0.4256,-0.638389 1.27679,-1.276777 1.91515,-1.489573 0.63837,-0.212796 5.31993,-0.425592 10.63979,-0.638388 10.63978,-0.21279599 11.49098,0 13.40613,2.553553 0.85119,1.276776 1.06402,1.915164 1.06402,12.3421703 0.21302,12.554968 0,13.831745 -3.19194,16.385298 -2.55358,2.127957 -4.46873,2.553554 -13.61896,2.766346 -7.66067,0.212809 -8.08627,0.212809 -8.51187,-0.638389 z m -383.671232,0 c -1.915165,-0.212766 -1.915165,-0.85118 0.42559,-1.915159 2.127963,-0.851186 2.340762,-1.276777 3.40474,-7.660661 0.42559,-2.127957 0.85118,-4.25592 1.063979,-4.681512 0.212809,-0.425592 -0.212809,-0.851184 -1.063979,-1.06398 -1.489575,-0.638389 -1.489575,-1.063981 0.212767,-1.915165 1.489575,-0.638387 1.489575,-0.851184 2.553553,-5.532696 1.276777,-6.3838823 1.276777,-7.0222703 -0.212766,-8.0862503 -0.425597,-0.638389 -0.851187,-1.276776 -0.638389,-1.489573 0.212767,-0.212795 6.596676,-0.425592 14.257331,-0.425592 12.12938,-0.212795 13.831747,0 14.044538,0.638389 0.212809,0.425592 -0.212766,2.553552 -0.638388,4.681512 -0.638388,3.1919413 -1.063979,4.0431253 -1.702367,4.2559213 -0.42559,0 -0.85118,-0.212798 -1.063978,-0.638388 -1.489576,-5.3199013 -2.766352,-6.3838813 -7.235065,-6.3838813 -1.915165,0 -3.617532,0.212798 -4.043129,0.425592 -0.85118,0.425592 -2.979143,10.6398023 -2.340755,11.2781903 0.638388,0.638389 4.255921,-1.276776 5.745496,-2.979144 2.553553,-2.766349 3.617532,-1.702369 2.553553,2.340756 -0.212809,1.276777 -0.638388,3.830329 -1.063985,5.745493 -0.85118,4.255918 -1.702367,4.681515 -3.617532,1.276775 -1.489568,-2.127959 -3.617532,-3.404735 -4.468712,-2.553551 -0.638389,0.638388 -2.766352,10.8526 -2.553554,11.490988 0.212766,0.425591 6.383878,0.425591 7.660655,0 1.489575,-0.638388 5.107107,-4.25592 6.171085,-5.958294 0.851187,-1.489568 1.915166,-1.915158 2.340756,-1.063978 0.212809,0.212809 -0.212766,2.553554 -0.638389,5.107107 -0.85118,3.191942 -1.276776,4.681511 -1.915158,4.681511 -1.063985,0.42559 -25.322732,0.851187 -27.237897,0.42559 z m 64.689995,0 c -0.42559,-0.42559 -0.42559,-5.745489 0,-6.383878 0.212809,-0.21283 1.063979,-0.851186 1.915165,-1.276776 0.851187,-0.425591 2.127962,-1.276777 2.766352,-2.127964 0.85118,-1.27677 1.06398,-1.915159 1.06398,-11.703779 0,-6.1710853 0.21277,-10.6398023 0.42559,-11.0653953 0.42559,-0.638388 1.06398,-0.851184 3.40474,-0.851184 1.48957,0 3.19193,0.212797 3.61753,0.425592 0.42559,0.425592 0.42559,2.340756 0.42559,11.9165793 v 11.490985 l -1.27678,2.766352 c -1.48957,2.979144 -4.25592,5.532693 -7.23506,6.596676 -1.91516,0.638389 -4.68151,0.85118 -5.107107,0.212767 z m 28.514677,-0.638388 c -1.27678,-0.638387 -3.19195,-1.915159 -4.04313,-2.979144 -2.97915,-3.404734 -3.19194,-4.894309 -3.40474,-17.023681 -0.21278,-7.4478623 0,-11.0653943 0.42559,-11.7037833 0.42559,-0.851184 0.85119,-1.06398 4.04313,-0.851184 l 3.61754,0.212796 0.21276,10.8525983 c 0.21281,12.980556 0.21281,12.767765 5.5327,15.10852 0.85119,0.42559 1.27678,4.468719 0.63839,6.383878 -0.21277,0.851186 -0.63839,1.063985 -2.55356,1.063985 -1.27677,0 -2.97914,-0.425597 -4.46871,-1.063985 z m 105.12122,0.425596 c -0.21302,-0.425596 -0.21302,-2.127963 0,-3.83033 0.21302,-3.191942 0.21302,-3.191942 1.70239,-3.617532 3.19194,-1.063979 3.19194,-0.851187 3.40471,-13.618948 l 0.21302,-11.4909863 3.19194,-0.425592 c 4.89433,-0.63838799 4.6815,-1.27677599 4.89433,11.7037833 0,9.150232 0,11.703779 -0.63843,13.831743 -1.06396,3.404733 -3.8303,6.171085 -7.23508,7.235064 -3.4047,1.063978 -5.31986,1.063978 -5.53269,0.212809 z m 36.17532,0.42559 c -0.63836,-0.638388 -0.42559,-7.022266 0.21303,-7.235064 0.21302,0 4.89432,-0.212809 10.00142,-0.42559 l 9.57582,-0.212766 V 9.2331777 l -10.00142,-0.212799 -10.00142,-0.212798 -0.21302,-3.19194 c 0,-1.702369 0,-3.404737 0.21302,-3.617533 0.21302,-0.212796 5.74546,-0.425592 12.34217,-0.425592 13.19337,0 13.40613,0 15.10852,2.766349 0.85119,1.276776 0.85119,2.553552 1.27679,13.1933543 0.42559,13.193355 0.21302,14.257333 -2.55358,16.172498 -1.70239,1.063979 -1.70239,1.063979 -13.83173,1.276777 -6.38388,0 -11.91657,-0.212809 -12.1294,-0.212809 z m 30.42987,0 c -0.21302,-0.212809 -0.4256,-1.915165 -0.4256,-3.617532 v -3.404734 l 2.76635,-0.212809 c 1.48955,-0.212809 5.74552,-0.212809 9.57582,-0.212809 h 6.59665 l 1.48962,-1.276776 1.48956,-1.276777 0.21302,-10.001411 c 0.21302,-8.2990463 0.4256,-10.0014143 0.85119,-10.4270063 0.8512,-0.638389 6.80949,-0.638389 7.23508,0 0.21302,0.212798 0.21302,5.107105 0.4256,10.8525983 0,9.575819 0,10.427005 -0.85119,12.342171 -1.27679,2.979143 -3.40471,5.319899 -6.17106,6.596676 -2.34081,1.063978 -3.19194,1.063978 -12.555,1.276776 -5.53269,-0.42559 -10.42702,-0.638388 -10.63979,-0.638388 z m 38.7289,-0.42559 c -2.55358,-1.063983 -4.25597,-2.553553 -5.31993,-4.468719 -1.06395,-1.915165 -1.06395,-2.553553 -1.06395,-14.47013 0,-10.6398023 0,-12.7677633 0.63836,-12.9805583 0.42559,-0.212799 2.34075,-0.425593 4.2559,-0.425593 l 3.40477,0.212796 0.21302,2.340757 c 0.21303,4.894309 -0.63836,4.468717 9.78866,4.468717 h 9.363 l -0.21303,3.4047363 -0.21302,3.404737 -9.15023,0.212798 c -5.10696,-0.425593 -9.36287,-0.212798 -9.36287,-0.212798 v 4.894309 c 0.21303,6.809474 -0.42559,6.383884 11.06539,6.809474 l 9.36299,0.212809 0.21302,3.191936 c 0,2.340757 0,3.40474 -0.42559,3.617532 -0.4256,0.212809 -5.1071,0.425596 -10.85262,0.425596 -7.87344,0 -10.63978,-0.212809 -11.70374,-0.638388 z m 25.96107,0.212767 c -0.63836,-0.212767 -0.85119,-5.107101 -0.21302,-5.958288 0.21302,-0.42559 1.91515,-0.638388 4.46873,-0.638388 l 4.2559,-0.212767 0.21302,-2.340762 c 0.21302,-3.617532 -0.4256,-4.255918 -3.40471,-4.255918 -2.97917,0 -3.61754,-0.638388 -3.40477,-3.19194 0.21302,-3.191941 0.63843,-3.404737 4.04314,-3.404737 5.74552,0 7.8735,0.638388 9.36306,2.127961 1.27679,1.276776 1.27679,1.702368 1.27679,5.532699 0,5.532697 0,5.532697 2.97911,5.532697 1.91515,0 2.55358,0.212767 2.97917,0.851181 0.63837,1.276776 0.63837,4.894309 0,5.532697 -0.42559,0.42559 -3.40477,0.638388 -11.27821,0.42559 -5.95829,0.425597 -11.06538,0.212809 -11.27821,0 z M 166.40651,34.130314 c -0.63839,-0.638388 -0.4256,-6.596676 0.21276,-7.022266 0.4256,-0.212766 3.61753,-0.638389 7.44786,-0.638389 6.59668,-0.212787 6.80948,-0.212787 8.08626,-1.276776 1.91516,-1.702367 2.34075,-3.404741 3.83033,-13.406152 0.42559,-5.3199023 1.27677,-9.5758233 1.48956,-9.7886193 0.21279,-0.212796 2.12797,-0.425592 4.04313,-0.425592 h 3.61754 v 1.276777 c 0,0.638387 -0.42559,3.617532 -0.63838,6.596677 -0.4256,2.9791443 -1.06398,7.6606583 -1.48958,10.6398023 -0.42559,2.979143 -0.85118,5.958287 -1.27678,6.809474 -1.06397,2.340755 -3.61753,5.107107 -5.74549,6.171085 -1.91516,1.063979 -2.97914,1.063979 -10.8526,1.276777 -4.46871,0.212767 -8.51184,0 -8.72463,-0.212787 z m 34.26016,-3.191942 v -3.830324 h 2.76634 c 1.48958,0 3.40474,-0.212766 4.25592,-0.638389 2.76636,-1.063985 2.97915,-2.127963 2.97915,-8.511843 v -5.745493 h -5.95829 c -3.40473,0 -6.38388,-0.212799 -7.02226,-0.425592 -0.85119,-0.425593 -0.85119,-1.063981 -0.85119,-3.6175333 0.21279,-3.830329 0,-3.830329 8.08625,-3.830329 h 5.74549 l 0.4256,-1.489572 0.42559,-1.489573 h 7.23505 l 0.63842,1.702368 0.63837,1.702369 6.38388,0.212799 6.38388,0.212798 v 6.8094733 h -6.38388 c -3.40471,0 -6.38388,0.212798 -6.59665,0.212798 -0.21302,0.212798 -0.4256,2.979144 -0.4256,6.383881 -0.21302,7.022269 -0.85119,8.937434 -3.83037,11.916578 -2.55352,2.553554 -4.68149,3.404734 -10.21419,3.617532 l -4.68151,0.212788 z m 49.15587,2.340757 -1.06396,-1.276772 -0.21302,-14.895725 c -0.21302,-14.8957243 -0.21302,-14.8957243 0.8512,-15.5341123 0.85119,-0.425592 6.59671,-0.425592 7.02231,0 0.21302,0.212796 0.21302,4.681513 0.21302,10.2142113 0,5.532696 0.21302,11.065396 0.4256,12.342167 0.42559,2.553553 0.42559,2.553553 5.74545,1.915165 l 2.76641,-0.42559 v 3.404734 c 0,2.340761 -0.21302,3.617538 -0.63842,4.043128 -0.8512,0.638389 -6.38389,1.489569 -10.63979,1.489569 -2.97918,0 -3.40477,-0.212766 -4.46873,-1.276775 z m 130.2312,-12.554965 c -0.4256,-1.276776 0,-5.532697 0.4256,-6.171085 0.42559,-0.425592 25.7483,-0.851185 27.45069,-0.425592 1.06396,0.212798 1.06396,0.425592 1.06396,3.617532 v 3.617533 l -1.48956,0.212788 c -0.85119,0.212766 -7.23508,0.212766 -14.25732,0.212766 h -12.9806 z m -238.96997,0.425592 -6.59667,-0.212796 0.21279,-3.617533 0.21278,-3.617533 h 1.27678 c 0.85118,-0.212798 7.23506,-0.212798 14.25733,0 l 12.76776,0.212799 v 3.617533 c 0,2.766348 -0.2128,3.617532 -0.63838,3.830326 -0.63839,0.212788 -6.80948,0.212788 -21.4924,-0.212798 z m 24.25875,-4.043124 c -0.42559,-1.702369 -1.70237,-12.9805593 -1.70237,-14.2573353 0.21279,-1.276777 0.21279,-1.276777 3.83033,-1.489573 2.55356,0 3.61754,0 3.83033,0.425592 0.42559,0.851184 2.12796,13.1933553 2.12796,14.6829273 v 1.276776 h -3.83032 c -3.40474,0 -4.04313,0 -4.25593,-0.638387 z m 195.13397,-5.95829 c -4.89433,-2.1279603 -3.19194,-9.7886183 2.34075,-10.42700629 4.04314,-0.425592 6.80948,2.34075599 6.17112,5.95828899 -0.4256,3.8303293 -4.68156,6.1710853 -8.51187,4.4687173 z m 4.46873,-4.6815133 c 0,-0.425592 -0.21302,-1.276776 -0.63842,-1.489572 -1.48956,-1.276776 -3.19194,0.638388 -2.12792,2.12796 0.85119,0.851184 2.55351,0.638389 2.76634,-0.638388 z M 130.01838,10.509954 c -2.12796,-1.0639803 -3.40473,-3.6175323 -2.97914,-5.7454933 1.27677,-6.171085 10.2142,-6.383881 11.49098,-0.425592 1.06399,4.894309 -4.04312,8.5118413 -8.51184,6.1710853 z m 3.83033,-4.8943093 c 0,-1.06398 -0.21279,-1.489572 -0.85119,-1.489572 -1.06398,0 -1.91516,1.276776 -1.48957,2.340756 0.21277,0.425593 0.63839,0.638388 1.27678,0.638388 0.85118,-0.212798 1.06398,-0.425592 1.06398,-1.489572 z m 163.64013,3.19194 c -0.42559,-0.425592 -0.63836,-1.702368 -0.63836,-3.617532 0,-2.979145 0,-2.979145 1.48956,-3.404737 0.85119,-0.212795 4.6815,-0.425592 8.51186,-0.212795 l 7.02225,0.212795 v 7.235066 l -7.87344,0.212798 c -6.17112,0.212798 -8.08627,0.212798 -8.51187,-0.425595 z M 602,59.027449 c 0,2.127964 -1.70239,3.617532 -3.61754,3.617532 -1.91515,0 -3.61754,-1.702367 -3.61754,-3.617532 0,-2.127957 1.70239,-3.617532 3.61754,-3.617532 1.91515,0 3.61754,1.489575 3.61754,3.617532 z m -8.93746,0 c 0,2.127964 -1.70233,3.617532 -3.61748,3.617532 -1.91521,0 -3.61754,-1.702367 -3.61754,-3.617532 0,-2.127957 1.70233,-3.617532 3.61754,-3.617532 1.91515,0 3.61748,1.489575 3.61748,3.617532 z M 23.620358,116.05679 V 97.117942 H 26.8123 c 3.830331,0 6.809475,-0.851186 8.937438,-2.553553 2.127957,-1.702367 3.191936,-4.043122 3.191936,-7.235065 0,-2.979144 -1.063979,-5.319899 -3.191936,-7.022266 C 33.621775,78.604685 30.642631,77.753504 26.8123,77.753504 H 20.854012 V 149.04018 H 0 V 59.027449 h 25.322732 c 5.532697,0 10.427006,0.425597 14.470128,1.489575 4.043123,0.851187 7.660655,2.553554 10.639799,4.681511 2.97915,2.127963 5.319905,5.107107 6.809474,8.937437 1.702373,3.830324 2.340762,8.299043 2.340762,13.618942 0,4.468719 -0.851187,8.29905 -2.340762,11.916582 -1.702367,3.617534 -3.830324,6.596674 -6.596676,8.937434 -2.766346,2.55355 -6.171086,4.25592 -10.214208,5.74549 -3.830331,1.27678 -8.086251,1.91517 -12.342172,1.91517 h -4.468719 z m 92.140692,-8.29904 V 94.989985 h 47.66631 v 12.767765 z m 91.2895,40.64404 -24.89714,-0.21279 c 7.87345,-8.08624 13.83174,-14.25733 17.66207,-18.51325 3.83033,-4.25592 7.23507,-8.51184 10.00142,-12.98056 l -0.21279,-0.21277 c -1.91516,0.85119 -4.04312,1.27678 -6.59668,1.27678 -5.1071,0 -9.57581,-1.27678 -13.40615,-3.83032 -3.83033,-2.55356 -6.80947,-5.9583 -8.93743,-10.42701 -2.12796,-4.46872 -3.19194,-9.15023 -3.19194,-14.470136 0,-6.383878 1.27678,-11.916575 3.83033,-16.810884 2.55355,-4.894309 6.17108,-8.724639 10.8526,-11.278193 4.68151,-2.553554 10.00141,-4.043122 15.9597,-4.043122 6.17109,0 11.70382,1.276776 16.38532,4.043122 4.89426,2.766352 8.72465,6.596676 11.27815,11.490985 2.76632,4.894309 4.04313,10.852603 4.04313,17.449279 0,10.427009 -2.97911,20.215619 -8.72463,29.365849 -5.95829,9.15023 -13.83173,18.93885 -24.04595,29.15306 z m 12.98056,-59.795689 c 0,-2.127963 -0.4256,-4.255921 -1.48956,-5.958288 -1.06402,-1.915165 -2.34075,-3.191942 -4.25596,-4.468718 -1.70235,-1.063979 -3.61751,-1.702367 -5.74547,-1.702367 -3.19194,0 -5.74549,1.276776 -7.87345,3.617532 -2.12796,2.340755 -3.19194,5.107107 -3.19194,8.511841 0,2.127957 0.42559,4.255921 1.48957,6.171086 1.06398,1.915165 2.34076,3.404734 4.04312,4.468719 1.70237,1.063974 3.61754,1.702364 5.74549,1.702364 3.19195,0 5.95827,-1.276774 8.29902,-3.617529 1.91522,-2.340756 2.97918,-5.319906 2.97918,-8.72464 z M 338.1329,56.899492 c 6.17112,0 11.27821,1.489569 15.32135,4.255921 4.2559,2.766345 7.44784,6.596675 9.57582,11.278186 2.34075,4.681517 3.83031,9.575826 4.89427,14.895725 0.85119,5.3199 1.48962,10.852597 1.48962,16.385296 0,7.44786 -0.8512,14.89572 -2.76635,21.91799 -1.70239,7.02227 -5.10716,12.98056 -9.57583,17.66207 -4.68156,4.68152 -11.06544,7.02227 -18.93888,7.02227 -5.95829,0 -11.06538,-1.48957 -15.10852,-4.25592 -4.04313,-2.76635 -7.23508,-6.59667 -9.57583,-11.27819 -2.34074,-4.68151 -3.8303,-9.78862 -4.89426,-14.89572 -0.85119,-5.31991 -1.27679,-10.6398 -1.27679,-16.1725 0,-5.532699 0.4256,-11.065396 1.27679,-16.385296 0.85113,-5.319899 2.55352,-10.214208 4.89426,-14.895725 2.34075,-4.681511 5.5327,-8.511841 9.57583,-11.278186 4.2559,-2.979144 9.15023,-4.255921 15.10852,-4.255921 z m 0,20.002826 c -2.76635,0 -5.1071,1.063978 -6.59665,3.40474 -1.70239,2.340755 -2.76635,5.319899 -3.40477,9.363022 -0.63837,3.83033 -1.06396,8.724639 -1.06396,14.04454 0,5.3199 0.42559,10.00141 1.06396,14.04454 0.63842,3.83033 1.91515,7.02227 3.40477,9.36302 1.70232,2.34076 3.8303,3.40474 6.59665,3.40474 7.66067,0 11.49098,-8.93743 11.49098,-26.8123 0.21302,-17.874869 -3.61754,-26.812302 -11.49098,-26.812302 z m 65.32839,-20.002826 c 6.17106,0 11.27822,1.489569 15.32129,4.255921 4.25596,2.766345 7.44791,6.596675 9.57582,11.278186 2.34082,4.681517 3.83037,9.575826 4.89433,14.895725 0.8512,5.3199 1.48956,10.852597 1.48956,16.385296 0,7.44786 -0.85113,14.89572 -2.76635,21.91799 -1.70232,7.02227 -5.10709,12.98056 -9.57582,17.66207 -4.6815,4.68152 -11.06539,7.02227 -18.93883,7.02227 -5.95828,0 -11.06538,-1.48957 -15.10851,-4.25592 -4.04314,-2.76635 -7.23508,-6.59667 -9.57583,-11.27819 -2.34075,-4.68151 -3.8303,-9.78862 -4.89433,-14.89572 -0.85119,-5.31991 -1.27672,-10.6398 -1.27672,-16.1725 0,-5.532699 0.42553,-11.065396 1.27672,-16.385296 0.8512,-5.319899 2.55358,-10.214208 4.89433,-14.895725 2.34075,-4.681511 5.53269,-8.511841 9.57583,-11.278186 4.04313,-2.979144 9.15023,-4.255921 15.10851,-4.255921 z m 0,20.002826 c -2.76634,0 -5.10709,1.063978 -6.59665,3.40474 -1.70238,2.340755 -2.76634,5.319899 -3.40477,9.363022 -0.63836,3.83033 -1.06396,8.724639 -1.06396,14.04454 0,5.3199 0.4256,10.00141 1.06396,14.04454 0.63843,3.83033 1.91515,7.02227 3.40477,9.36302 1.70233,2.34076 3.83031,3.40474 6.59665,3.40474 7.66068,0 11.49098,-8.93743 11.49098,-26.8123 0,-17.874869 -3.8303,-26.812302 -11.49098,-26.812302 z m -158.53307,6.383884 c 0,-4.468719 0.63842,-8.511841 2.12798,-11.703783 1.48955,-3.40474 3.61754,-6.171086 6.38388,-8.299049 2.76635,-2.127957 5.95829,-3.830324 9.36302,-4.894309 3.61752,-1.063979 7.23506,-1.489569 11.27819,-1.489569 7.66067,0 14.25733,2.340755 19.36442,7.022266 5.10716,4.681517 7.8735,11.065395 7.8735,19.364444 0,3.617532 -0.85119,7.022266 -2.55358,10.427007 -1.70238,3.191935 -3.8303,5.745489 -6.38388,7.447851 v 0.21279 c 4.04314,2.97915 7.02231,5.95829 8.93746,9.36303 1.91516,3.40473 2.97912,7.66065 2.97912,12.76776 0,4.25592 -0.8512,8.08625 -2.55352,11.49099 -1.70239,3.40473 -4.04314,6.17108 -7.02231,8.51184 -2.97911,2.34075 -6.38388,4.04313 -10.00142,5.1071 -3.61748,1.06398 -7.44785,1.70237 -11.27815,1.70237 -5.31993,0 -10.21425,-1.06398 -14.89575,-3.19194 -4.6815,-2.12796 -8.51181,-5.3199 -11.27815,-9.36302 -2.76641,-4.04313 -4.25597,-8.93744 -4.25597,-14.47014 0,-4.25592 1.06403,-8.29904 3.19195,-12.12937 2.12798,-3.83033 4.89432,-6.80947 8.29903,-9.15023 v -0.21279 c -6.38388,-4.681508 -9.57582,-11.065392 -9.57582,-18.513248 z m 28.9403,-8.299049 c -5.10709,0 -9.15022,4.25592 -9.15022,9.575826 0,5.319899 4.04313,9.57582 9.15022,9.57582 5.1071,0 9.15023,-4.255921 9.15023,-9.57582 0,-5.319906 -4.04313,-9.575826 -9.15023,-9.575826 z m 0,35.536937 c -5.74552,0 -10.21425,4.89431 -10.21425,10.8526 0,5.95829 4.68156,10.8526 10.21425,10.8526 5.5327,0 10.21419,-4.89431 10.21419,-10.8526 0,-5.95829 -4.46873,-10.8526 -10.21419,-10.8526 z M 111.93072,78.604685 c -2.34076,-1.063979 -4.68151,-1.489569 -7.23507,-1.489569 -4.04312,0 -7.873449,1.276777 -11.278189,3.617532 -3.404734,2.553554 -6.171086,5.74549 -8.299043,9.788619 -1.915165,4.043122 -2.979144,8.299042 -2.979144,12.767763 0,4.46872 1.063979,8.72464 2.979144,12.76776 2.127957,4.04312 4.681511,7.44786 8.299043,9.78862 3.40474,2.55355 7.235069,3.61753 11.278189,3.61753 2.55356,0 4.89431,-0.42559 7.23507,-1.48957 v 21.06681 c -2.34076,0.42559 -4.89431,0.63838 -7.23507,0.63838 -7.447859,0 -14.470131,-2.12795 -21.066807,-6.17108 -6.383878,-4.25592 -11.490985,-9.78862 -15.321315,-17.02368 -3.830324,-7.23507 -5.532698,-15.10852 -5.532698,-23.40757 0,-8.511841 1.915165,-16.385294 5.532698,-23.620359 3.83033,-7.235064 8.937437,-12.767761 15.321315,-17.023682 6.383884,-4.25592 13.40615,-6.171085 21.066807,-6.171085 2.55356,0 4.89431,0.212787 7.23507,0.638388 z" />
    <path
       id="path12"
       d="M 30.287109 1.328125 C 29.922128 1.3243806 28.816284 4.6926175 27.830078 8.8125 C 26.843872 12.932382 25.717119 16.658612 25.326172 17.09375 C 24.935225 17.52889 21.227187 14.391985 17.085938 10.121094 C 12.944685 5.8502016 8.9419298 2.3554688 8.1894531 2.3554688 C 7.4369764 2.3554685 5.6471189 3.8548957 4.2128906 5.6875 C 1.8553438 8.6998864 1.7562072 9.1866316 3.1816406 10.761719 C 4.3679672 12.072594 4.5818356 13.676768 4.046875 17.244141 C 3.5359545 20.651203 3.6877042 21.986328 4.5839844 21.986328 C 5.2699667 21.986328 6.0738872 21.056442 6.3710938 19.919922 C 6.6683002 18.783403 7.2904889 17.853516 7.7539062 17.853516 C 8.2173237 17.853516 11.97278 21.573064 16.097656 26.119141 C 20.222531 30.665219 23.9254 34.384766 24.328125 34.384766 C 24.73085 34.384766 25.835577 30.780966 26.78125 26.376953 C 30.100457 10.91937 31.207378 7.9699022 34.214844 6.5996094 L 37.007812 5.328125 L 33.980469 3.3320312 C 32.314774 2.2339952 30.652092 1.331865 30.287109 1.328125 z M 89.875 1.3847656 C 89.206595 1.3847633 88.37154 1.449476 87.302734 1.5527344 C 81.410644 2.121975 76.121479 4.6059269 71.794922 8.8359375 C 67.689811 12.849444 66.595703 15.546859 66.595703 21.658203 C 66.595703 25.744485 67.122694 26.888318 70.607422 30.373047 C 74.43887 34.204495 74.916984 34.384766 81.291016 34.384766 L 87.964844 34.384766 L 90.712891 29.335938 C 94.373125 22.610882 94.249375 21.760977 89.876953 23.587891 C 82.616544 26.621483 76.849191 25.174916 74.994141 19.853516 C 73.543705 15.692792 75.501082 10.743829 79.8125 7.6738281 C 83.813151 4.825113 84.997755 4.8814868 88.326172 8.0703125 C 90.052302 9.724051 91.688954 10.442295 92.775391 10.025391 C 94.814373 9.2429578 94.941508 7.5671156 93.244141 3.8417969 C 92.390174 1.9675462 91.880216 1.3847727 89.875 1.3847656 z M 39.162109 2.3554688 L 39.548828 6.421875 C 39.762096 8.6582002 39.330775 12.260047 38.589844 14.427734 C 37.848913 16.595421 37.336385 18.709755 37.449219 19.125 C 37.824087 20.504554 35.395224 30.752165 34.457031 31.75 C 33.949451 32.289847 33.533203 33.102033 33.533203 33.556641 C 33.533203 34.502728 54.585223 34.667415 58.013672 33.748047 C 59.456566 33.361122 60.52393 32.026373 60.953125 30.072266 C 61.924846 25.648044 60.951878 25.416503 56.779297 29.080078 C 52.086177 33.200692 45.9283 33.718618 45.9375 29.992188 C 45.94566 26.69996 47.8899 20.10798 49.066406 19.380859 C 49.611115 19.04421 51.178508 19.982184 52.550781 21.462891 C 55.435387 24.575432 55.802292 24.239077 56.796875 17.59375 C 57.617241 12.11245 57.226332 11.781293 53.447266 14.753906 C 52.002416 15.890426 50.417406 16.820315 49.925781 16.820312 C 48.71646 16.820312 48.80939 13.015017 50.134766 8.2421875 C 51.21882 4.3383845 51.256568 4.314647 56.070312 4.625 C 59.939723 4.8744695 61.119549 5.4056314 61.935547 7.265625 C 63.318249 10.41737 64.976372 9.6296739 65.371094 5.6328125 L 65.693359 2.3554688 L 52.427734 2.3554688 L 39.162109 2.3554688 z M 4.1640625 21.986328 C 3.2056304 21.986328 2.5371094 22.869554 2.5371094 24.138672 C 2.5371094 26.656625 4.9523737 26.301043 5.4550781 23.708984 C 5.6528047 22.68946 5.1262179 21.986328 4.1640625 21.986328 z M 3.1445312 26.730469 C 2.2383168 26.833368 1.6674991 28.260287 1.125 31.15625 C 0.475506 34.623373 0.49026778 34.637884 3.796875 33.976562 C 8.5582655 33.024285 8.9220354 32.180395 6.0136719 28.822266 C 4.7568672 27.371101 3.8493649 26.650436 3.1445312 26.730469 z "
       style="fill:#0000cd;stroke:#0000cd;stroke-width:1.03319943" />
  </g>
</svg>
