<?xml version="1.0" encoding="UTF-8" standalone="no"?>
<!-- Created with Inkscape (http://www.inkscape.org/) -->

<svg
   xmlns:dc="http://purl.org/dc/elements/1.1/"
   xmlns:cc="http://creativecommons.org/ns#"
   xmlns:rdf="http://www.w3.org/1999/02/22-rdf-syntax-ns#"
   xmlns:svg="http://www.w3.org/2000/svg"
   xmlns="http://www.w3.org/2000/svg"
   xmlns:sodipodi="http://sodipodi.sourceforge.net/DTD/sodipodi-0.dtd"
   xmlns:inkscape="http://www.inkscape.org/namespaces/inkscape"
   version="1.1"
   id="svg2"
   width="601"
   height="335.29199"
   viewBox="0 0 601 335.29199"
   sodipodi:docname="Capture.PNG.9807fa8ef6b30036c1ba700c0e44a39f.svg"
   inkscape:version="0.92.4 (5da689c313, 2019-01-14)">
  <metadata
     id="metadata8">
    <rdf:RDF>
      <cc:Work
         rdf:about="">
        <dc:format>image/svg+xml</dc:format>
        <dc:type
           rdf:resource="http://purl.org/dc/dcmitype/StillImage" />
        <dc:title></dc:title>
      </cc:Work>
    </rdf:RDF>
  </metadata>
  <defs
     id="defs6" />
  <sodipodi:namedview
     pagecolor="#ffffff"
     bordercolor="#666666"
     borderopacity="1"
     objecttolerance="10"
     gridtolerance="10"
     guidetolerance="10"
     inkscape:pageopacity="0"
     inkscape:pageshadow="2"
     inkscape:window-width="1600"
     inkscape:window-height="837"
     id="namedview4"
     showgrid="false"
     inkscape:zoom="0.4500886"
     inkscape:cx="418.00543"
     inkscape:cy="571.43641"
     inkscape:window-x="-8"
     inkscape:window-y="-8"
     inkscape:window-maximized="1"
     inkscape:current-layer="svg2" />
  <g
     id="g395"
     transform="matrix(0.35480959,0,0,0.35480959,-73.095154,-407.4744)">
    <path
       inkscape:connector-curvature="0"
       id="path243"
       d="m 1830.1962,1150.003 -137.9726,0.033 -137.9727,0.033 -33.1094,65.5566 c -18.2097,36.0566 -58.8153,116.4607 -90.2363,178.6738 -31.4211,62.2132 -60.0794,119.1242 -63.6836,126.4688 l -6.5527,13.3535 55.1582,0.7851 55.1582,0.7852 9.0449,4.4395 c 9.5295,4.6777 15.2636,10.8924 18.2305,19.7539 1.2053,3.5998 1.789,23.8605 1.789,62.164 0,64.6623 -0.4382,67.8046 -11.1386,79.961 l -6.4395,7.3144 4.7012,5.3535 c 9.5869,10.9188 11.3066,19.3085 11.3066,55.1582 0,20.187 0.5791,32.1465 1.5567,32.1465 0.8562,0 5.014,-6.8917 9.2402,-15.3164 6.9192,-13.7928 7.9293,-17.1961 10.1426,-34.1719 3.2176,-24.6799 11.2778,-86.1087 14.4297,-109.9726 3.885,-29.4147 10.1273,-77.1468 12.0781,-92.3438 l 1.7715,-13.7949 43.7402,0.4395 43.7402,0.4414 15.4551,-30.6367 c 8.5,-16.8494 52.378,-103.9835 97.5078,-193.6309 z m -497.0898,444.6035 c -3.0357,0 -5.7295,4.2998 -18.459,29.457 l -14.9063,29.457 -0.7851,106.045 -0.7852,106.0449 -34.9551,0.4238 -34.955,0.4219 v -32.3672 c 0,-22.5202 -0.5182,-32.1951 -1.7012,-31.8008 -0.9352,0.3117 -12.4795,21.7579 -25.6543,47.6563 -47.945,94.2481 -121.8945,240.9387 -121.8945,241.7988 0,0.4852 62.1674,0.8828 138.1504,0.8828 h 138.1523 l 33.3164,-66.377 c 18.3245,-36.507 43.8208,-87.085 56.6582,-112.3964 12.8375,-25.3113 23.3399,-46.3225 23.3399,-46.6914 0,-0.369 -9.0124,-0.8696 -20.0293,-1.1114 l -20.0313,-0.4394 -0.7852,-61.7207 c -0.669,-52.5667 -1.1354,-61.9432 -3.1425,-63.211 -3.7283,-2.3551 -8.713,-1.7848 -11.5196,1.3164 -2.284,2.5238 -2.6298,9.8024 -2.9941,63.2344 l -0.4121,60.3809 -35.2363,0.4238 c -27.1412,0.3263 -35.5268,-0.034 -36.502,-1.5703 -0.6963,-1.0971 -1.278,-62.2637 -1.291,-135.9258 l -0.023,-133.9316 z m 80.7324,1.4765 c -3.4668,0.2032 -3.3379,7.9107 -3.3379,37.0137 0,34.8894 0.1585,36.9199 2.9082,36.9199 1.6004,0 5.3122,-1.6182 8.248,-3.5957 l 5.3399,-3.5957 0.4316,-26.6191 c 0.4758,-29.2922 -0.4859,-34.0443 -7.6445,-37.7461 -2.6806,-1.3862 -4.5887,-2.4565 -5.9453,-2.377 z"
       style="fill:#993233;fill-opacity:1;stroke:#993233;stroke-width:1.57103908;stroke-opacity:1" />
    <g
       transform="translate(206.62598,206.62598)"
       id="g285">
      <path
         inkscape:connector-curvature="0"
         style="fill:#656764;fill-opacity:1;stroke:#656764;stroke-width:1.57103908;stroke-opacity:1"
         d="m 1347.625,942.5918 -482.70312,0.39648 -482.70118,0.39844 v 471.31058 471.3125 l 244.36914,-0.3985 244.36719,-0.3965 40.08985,-79.3378 c 69.58505,-137.7117 100.59432,-198.4729 105.67972,-207.0723 l 4.9296,-8.3379 -0.4042,-101.6348 -0.4043,-101.6367 h -14.9239 -14.92575 l -0.78516,30.6348 -0.78516,30.6347 -38.21875,0.4219 c -9.77496,0.1077 -17.35762,0.2598 -23.14257,0.4649 3.07829,-0.348 0.46326,-0.7026 -7.79493,-0.9258 l -10.27539,-0.2774 -0.27734,-27.2168 c -0.26152,-25.6288 -0.34026,-27.3201 -1.34961,-28.9882 -2.52362,-4.1708 -7.96258,-4.6766 -11.28711,-1.0489 l -1.80469,1.9707 0.006,24.3086 0.006,24.3086 9.01953,5.4024 h 0.002 c 4.96048,2.97 9.23236,5.404 9.49414,5.414 0.26183,0.01 0.33997,-0.3386 0.17383,-0.7715 -0.004,-0.011 -0.002,-0.02 -0.006,-0.031 2.1753,1.9363 13.48927,8.9919 26.82226,16.6855 32.27172,18.6221 34.03517,19.9617 38.67578,29.3848 l 3.67188,7.457 v 69.9102 69.9121 l -3.61524,5.0684 c -6.54569,9.177 -12.00237,9.8554 -79.20117,9.8554 -65.18029,0 -66.22628,-0.1305 -73.92773,-9.2832 -6.98751,-8.3042 -7.5013,-13.4211 -7.0586,-70.2988 l 0.41407,-53.1699 37.70507,-0.7852 c 16.13209,-0.336 25.24856,-0.5921 30.10157,-0.9824 -1.21854,0.2301 -2.04955,0.5182 -2.14258,0.7988 -0.17137,0.517 0.91154,0.6953 4.24023,0.6953 3.8512,0 4.54957,0.1488 5.04492,1.0743 0.37906,0.7083 0.57422,13.0968 0.57422,36.3515 v 35.2754 l 1.31836,1.5313 c 0.72463,0.8424 2.1614,1.8375 3.19336,2.2109 4.55015,1.6461 9.66831,0.465 11.58203,-2.6738 1.08855,-1.7854 1.12105,-2.7275 1.12305,-32.5 l 0.002,-30.6602 -1.80468,-1.3515 c -0.99286,-0.7432 -5.30426,-3.6154 -9.58203,-6.3829 l -7.7793,-5.0312 -2.19336,0.2187 c 1.64241,-0.3785 1.35175,-0.8739 0.0996,-1.582 -8.15942,-4.6142 -55.93052,-36.7005 -59.47461,-39.9473 -2.03615,-1.8654 -5.74029,-6.9254 -8.23242,-11.2461 l -4.53125,-7.8554 -0.0137,-52.8438 -0.0137,-52.8418 4.38672,-8.3984 c 4.90383,-9.387 14.58224,-17.681 23.53711,-20.168 3.50557,-0.9736 27.26824,-1.6191 59.26758,-1.6191 52.93913,0.01 53.48727,0.04 61.4375,3.7422 4.76546,2.2189 10.48149,6.6773 14.08008,10.9824 3.33166,3.9857 6.61383,7.2461 7.29492,7.2461 0.68109,0 1.23828,-4.9476 1.23828,-10.9961 v -10.9981 l 81.30084,-0.041 81.3027,-0.041 69.125,-137.5371 c 38.0192,-75.6452 81.851,-162.4057 97.4043,-192.80272 z m 310.3945,0.78515 c -26.2399,0 -34.568,0.467 -34.955,1.96289 -0.8823,3.41116 -193.3594,385.26026 -194.6133,386.08596 -0.6575,0.4332 1.5538,22.3482 4.916,48.7012 3.3622,26.353 7.5356,59.2256 9.2734,73.0507 1.7378,13.8252 8.1057,64.0211 14.1504,111.545 6.0448,47.5239 10.9939,88.3503 11.0039,90.7265 l 0.014,4.3203 h -34.5625 c -26.585,0 -34.5697,-0.4524 -34.5957,-1.9629 -0.018,-1.0801 -1.0594,-14.6888 -2.3125,-30.2421 -1.2531,-15.5533 -2.3002,-28.8091 -2.3242,-29.4571 -0.024,-0.6481 -5.3456,-1.1777 -11.8262,-1.1777 -6.4805,0 -11.7815,0.5296 -11.7715,1.1777 0.024,2.5655 -4.877,51.7697 -5.6328,56.5567 l -0.8047,5.1054 h -32.043 c -17.6233,0 -32.4325,-0.6287 -32.9082,-1.3984 -0.6909,-1.1179 4.8158,-47.1324 9.2793,-77.5449 1.2293,-8.3764 -1.5187,-7.3686 -6.4179,2.3554 -2.2855,4.5364 -5.4628,10.103 -7.0606,12.3692 -2.5356,3.5962 -2.9583,7.8933 -3.332,33.7773 l -0.4297,29.6563 -14.1387,0.5683 -14.1386,0.5684 -55.6641,110.9766 c -30.6146,61.0365 -55.9469,111.8593 -56.2949,112.9394 -0.5044,1.5659 54.3037,1.9629 270.5019,1.9629 h 271.1348 V 1414.6875 943.37695 Z m -183.9257,384.90425 h 56.2695 c 49.8383,0 57.5444,0.3337 67.4101,2.9239 16.9417,4.4479 27.1648,11.8348 33.9746,24.5488 l 3.377,6.3047 v 135.1094 c 0,107.2108 -0.4238,136.3044 -2.0527,140.9004 -2.7142,7.658 -10.0745,14.6403 -18.9903,18.0156 -6.3665,2.4103 -15.2172,2.8103 -73.6132,3.3203 l -66.375,0.5801 v -165.8516 z m -756.44536,0.7852 h 47.125 47.12695 v 164.959 164.959 H 778.12305 744.3457 l -0.41015,-68.7324 c -0.34942,-58.6789 -0.74075,-68.7325 -2.67774,-68.7325 -2.54052,0 -2.93611,1.7957 -6.4082,29.0645 -3.25595,25.5713 -9.68206,75.2312 -12.0957,93.4765 l -1.97461,14.9239 -22.25196,0.4355 -22.2539,0.4356 -0.95703,-4.3633 c -0.52603,-2.3994 -2.63984,-16.7343 -4.69922,-31.8555 -11.68225,-85.7781 -14.01477,-100.5469 -15.87891,-100.5469 -1.47542,0 -2.20217,16.0319 -3.09375,68.3399 l -1.16406,68.3398 h -30.44141 -30.4414 v -164.959 -164.9589 h 47.13086 c 25.92215,0 47.13281,0.2294 47.13281,0.5097 0,0.2804 2.41899,17.7774 5.37695,38.8828 2.95799,21.1054 5.86945,42.448 6.46875,47.4278 0.66895,5.5586 1.73038,9.1232 2.96094,10.2519 -0.12314,-0.056 -0.24276,-0.116 -0.33594,-0.1933 -0.45097,-0.3745 -0.90215,-0.5828 -1.00195,-0.4629 -0.18562,0.223 0.72672,7.989 1.08594,9.2441 0.10929,0.3819 0.40613,0.6953 0.6582,0.6953 0.39805,0 0.72495,-1.2652 2.13476,-8.2382 0.22299,-1.1033 0.0896,-1.2394 -0.89843,-0.9258 -0.0219,0.01 -0.0479,0.01 -0.0703,0.012 0.10142,-0.072 0.20243,-0.1478 0.30469,-0.25 0.42107,-0.4211 4.44101,-22.5843 8.9336,-49.252 z m -259.875,0.7852 h 42.9082 42.9082 l 0.98047,9.0332 c 0.53874,4.9685 3.78915,30.9501 7.22461,57.7363 3.43549,26.7862 9.43516,73.8001 13.33203,104.4746 3.89687,30.6746 9.95386,78.2581 13.45899,105.7422 3.50513,27.4842 5.96025,50.637 5.45703,51.4512 -0.76852,1.2435 -68.03352,2.3134 -68.40039,1.0879 -0.0647,-0.216 -1.30254,-14.5311 -2.75,-31.8125 l -2.63281,-31.4219 -11.3418,-0.461 c -13.47441,-0.5471 -11.81541,-4.2412 -15.2793,34.0176 -1.35805,14.9997 -2.85836,27.9024 -3.33398,28.6719 -0.47563,0.7696 -15.31605,1.3984 -32.97852,1.3984 h -32.11328 l 0.006,-3.5332 c 0.006,-3.4145 1.56536,-15.8524 10.20117,-81.3027 2.22318,-16.8494 6.1556,-46.894 8.73828,-66.7676 2.58268,-19.8736 7.13033,-54.5166 10.10547,-76.9824 2.97515,-22.4659 6.84271,-52.1572 8.59375,-65.9824 1.75105,-13.8251 3.57232,-27.4359 4.04883,-30.2442 z m 1088.90426,58.0371 c -0.2291,0 -0.416,48.8909 -0.416,108.6543 v 108.6601 l 2.291,-0.3652 c 4.5331,-0.7249 8.2088,-3.0608 9.8594,-6.2656 0.4561,-0.8857 0.6213,-28.2495 0.6113,-101.3692 -0.012,-97.1901 -0.043,-100.2253 -1.0664,-102.4804 -1.216,-2.6784 -4.0207,-4.7528 -8.0937,-5.9883 -1.5231,-0.462 -2.9564,-0.8457 -3.1856,-0.8457 z m -163.9082,82.8925 c -0.1197,-0.019 -0.2542,0.084 -0.414,0.2442 -0.538,0.538 -0.9706,4.1729 -2.168,18.2266 -0.4615,5.4168 -1.0467,11.6565 -3.3613,35.8261 -0.3364,3.5132 -0.8063,7.5702 -1.045,9.0157 -0.2382,1.4451 -0.303,2.7575 -0.1445,2.916 0.1586,0.1586 3.2444,0.2871 6.8594,0.2871 4.8943,0 6.5725,-0.1764 6.5625,-0.6934 -0.018,-1.0605 -1.6283,-19.939 -2.2617,-26.5234 -0.9011,-9.3661 -1.4193,-15.121 -2.4239,-26.9395 -0.8424,-9.9106 -1.0848,-12.2775 -1.6035,-12.3594 z m -883.80466,0.9024 c -0.0861,0.013 -0.17562,0.064 -0.26562,0.1543 -0.10641,0.107 -0.46438,2.8196 -0.79688,6.0273 -1.41984,13.6977 -1.78722,17.1942 -2.27734,21.6621 -0.28486,2.5967 -0.90839,8.7196 -1.38477,13.6075 -0.47639,4.8879 -1.10751,10.5608 -1.40234,12.6054 -0.29484,2.0445 -0.53516,5.4808 -0.53516,7.6368 v 3.9199 h 6.35352 c 3.49517,0 6.48298,-0.2052 6.63867,-0.4571 0.15569,-0.2519 -0.0586,-3.9392 -0.47656,-8.1933 -1.08935,-11.0869 -1.85414,-19.8977 -2.52539,-29.1192 -0.32245,-4.4297 -0.82599,-10.4278 -1.11914,-13.33 -0.29314,-2.9022 -0.68067,-7.2126 -0.86133,-9.5782 -0.24691,-3.2327 -0.7446,-5.0235 -1.34766,-4.9355 z"
         id="path251" />
      <path
         inkscape:connector-curvature="0"
         style="fill:#656764;fill-opacity:1;stroke:#656764;stroke-width:1.11089242;stroke-opacity:1"
         d="m 1091.9062,1387.3262 v 27.8652 c 0,19.695 0.357,27.7456 1.2168,27.459 0.6691,-0.223 6.5427,-10.6635 13.0528,-23.2012 6.5101,-12.5376 12.9612,-24.6724 14.3359,-26.9668 1.3748,-2.2945 2.5,-4.3934 2.5,-4.664 0,-0.2706 -6.9989,-0.4922 -15.5527,-0.4922 z"
         id="path280" />
    </g>
    <path
       inkscape:connector-curvature="0"
       id="path314"
       d="m 206.79786,1150.6241 v 432.4277 38.0976 394.3301 76.1953 h 190.09568 190.0957 v -76.1953 -394.3301 -38.0976 -432.4277 h -190.0957 z m 194.80858,169.0488 c 56.0324,-0.045 85.8668,3.7921 115.4727,14.8496 0.7391,0.276 1.4457,0.5704 2.1523,0.8652 3.4366,1.5238 6.4179,3.1222 8.9043,4.7774 2.2683,1.5607 4.2286,3.2558 5.8692,5.0625 4.9455,5.7466 7.0329,13.4217 5.2617,19.2968 -1.3413,3.8033 -4.6923,7.3864 -9.9024,10.6895 -0.3777,0.2343 -0.7435,0.4689 -1.1406,0.7012 -0.1568,0.093 -0.3168,0.1863 -0.4766,0.2793 -4.385,2.5057 -9.8968,4.8809 -16.3535,7.0449 0,0 -0.01,0 -0.014,0 -10.5878,3.4862 -23.9522,6.438 -39.8106,8.7305 -4.2687,0.617 -13.184,1.207 -24.2617,1.7168 -3.5926,0.135 -7.4632,0.268 -12.0313,0.4043 -20.6185,0.6151 -45.0478,1.0774 -61.1074,1.2187 -9.2392,-0.035 -16.4581,-0.2204 -19.6933,-0.6113 -39.8805,-4.8189 -58.7191,-8.8189 -73.83794,-15.6778 -0.5474,-0.2483 -1.05978,-0.5057 -1.58398,-0.7597 -6.76603,-3.3877 -11.709,-7.1574 -14.69336,-11.1524 -0.018,-0.024 -0.0349,-0.05 -0.0527,-0.074 -0.26442,-0.3571 -0.50886,-0.7177 -0.74218,-1.0781 -0.2677,-0.4221 -0.52823,-0.8439 -0.75391,-1.2695 -1.35485,-2.5553 -1.94599,-5.1688 -1.80078,-7.7715 0.005,-0.072 0.004,-0.1431 0.01,-0.2149 0.0192,-0.2685 0.0665,-0.5364 0.10157,-0.8047 0.50013,-3.518 2.39185,-7.0817 5.74023,-10.5996 1.62713,-1.6422 3.58407,-3.2311 5.87891,-4.7461 4.32294,-2.744 10.12475,-5.3847 17.00586,-7.8007 20.43386,-6.6656 40.99066,-10.3645 69.40426,-12.0118 11.5088,-0.5691 24.9307,-0.9258 38.3536,-1.0468 1.3729,-0.01 2.6961,-0.02 4.1015,-0.021 z m -21.6914,30.7031 c -23.6371,0.032 -44.8465,0.3828 -57.6465,1.1328 -30.65945,1.7964 -38.64007,3.0141 -39.65232,6.0508 -0.85868,2.5761 4.75356,3.8848 22.33982,5.209 26.2582,1.977 201.4505,0.6526 210.3125,-1.5899 9.8965,-2.5043 7.9383,-4.3203 -7.7871,-7.2207 -11.8112,-2.1784 -75.5647,-3.6527 -127.5664,-3.582 z m 21.6914,64.9746 c 14.4417,0 25.9362,0.096 35.6543,0.3555 13.9486,0.4973 25.8725,1.2988 32.9863,2.4277 22.0452,3.4983 38.7605,7.8323 50.3125,13.0801 0.029,0.013 0.061,0.026 0.09,0.039 0.019,0.01 0.038,0.019 0.057,0.027 0.5411,0.2471 1.058,0.4969 1.5762,0.748 0.3146,0.1535 0.6351,0.306 0.9414,0.461 0.2129,0.1071 0.4161,0.2164 0.625,0.3242 0.5254,0.2727 1.0488,0.5449 1.5488,0.8223 4.9523,2.7466 8.6484,5.7207 11.125,8.9316 0.089,0.1167 0.1857,0.2323 0.2715,0.3496 0.1237,0.1673 0.2325,0.3373 0.3496,0.5059 0.2052,0.299 0.4135,0.5973 0.5977,0.9004 0.02,0.032 0.037,0.064 0.057,0.096 1.5855,2.6441 2.375,5.4426 2.375,8.4004 0,4.9069 -1.5381,8.9666 -4.9844,12.5976 -2.5184,2.4994 -6.0661,4.9579 -10.5761,7.3184 -2.4475,1.2238 -5.206,2.4288 -8.3203,3.6347 -13.2842,5.1438 -28.233,8.3401 -52.9844,11.3262 v 0 c -8.4561,1.0201 -24.4364,2.0537 -39.6133,2.6328 -12.9557,0.2555 -31.0571,0.3447 -44.168,0.2148 -35.9297,-1.0985 -65.8272,-5.3834 -86.59958,-12.0137 -0.041,-0.013 -0.0802,-0.028 -0.12109,-0.041 -1.24447,-0.3984 -2.43508,-0.8115 -3.61328,-1.2265 -0.45491,-0.1619 -0.91847,-0.3202 -1.36328,-0.4844 -0.56582,-0.207 -1.10092,-0.422 -1.65039,-0.6328 -15.30015,-5.9186 -24.20956,-13.2718 -25,-21.4981 -0.17519,-1.8232 -0.10386,-3.491 0.24414,-5.084 0.0881,-0.341 0.18146,-0.6835 0.29492,-1.0273 0.41029,-1.2432 0.95704,-2.4463 1.62891,-3.6152 1.0936,-1.7648 2.60737,-3.5355 4.60351,-5.4395 2.31446,-2.2076 5.1542,-4.2559 8.56641,-6.164 11.53512,-6.2224 29.76863,-11.101 55.96483,-15.168 0.038,-0.01 0.084,-0.012 0.1231,-0.018 1.9344,-0.2673 3.871,-0.5114 5.8379,-0.7324 7.2777,-0.7626 17.0701,-1.3255 28.0234,-1.707 9.3405,-0.2414 20.5072,-0.3399 35.1406,-0.3399 z m 41.3965,30.8926 c -15.5937,-0.059 -34.2611,0.01 -56.6367,0.1855 -90.3372,0.7109 -106.84612,1.698 -105.31643,6.2871 1.06118,3.1835 9.57097,4.3985 40.43363,5.7754 39.264,1.7517 173.3437,0.6731 187.705,-1.5097 13.1192,-1.9939 15.4328,-3.6912 8.4024,-6.17 -8.677,-3.0594 -27.8067,-4.3911 -74.5879,-4.5683 z m -40.7617,63.7695 c 11.3069,10e-4 22.532,0.098 31.8515,0.2871 40.2042,1.5032 65.4801,6.2593 85.9825,15.6817 5.0221,2.308 8.665,4.2979 11.4316,6.3886 0.1061,0.083 0.218,0.1641 0.3223,0.2481 0.069,0.054 0.1332,0.1082 0.2011,0.1621 1.1564,0.9469 2.193,1.9342 3.1114,2.9629 0.1129,0.131 0.2289,0.2595 0.3379,0.3926 0.06,0.07 0.117,0.1406 0.1757,0.2109 1.3531,1.7 2.4039,3.5832 3.3321,5.8047 1.4711,3.5208 1.822,6.8597 1.0703,10.0098 -0.042,0.1764 -0.094,0.352 -0.1426,0.5273 -1.4349,4.7693 -5.5096,9.2267 -11.9512,13.1367 -0.3512,0.2083 -0.7044,0.4156 -1.0703,0.6211 -0.2386,0.1372 -0.4839,0.2724 -0.7285,0.4082 -13.9589,7.5683 -38.0321,13.1983 -71.709,16.625 -6.1784,0.6287 -14.5415,1.1142 -23.9101,1.4551 -14.1855,0.3593 -32.9759,0.5391 -47.834,0.4805 -12.6917,-0.1871 -24.0302,-0.6352 -31.3789,-1.3731 -43.3588,-4.3537 -72.42413,-12.8447 -84.32424,-24.1387 -0.0669,-0.064 -0.13729,-0.127 -0.20313,-0.1914 -0.38908,-0.3764 -0.74471,-0.758 -1.0957,-1.1406 -0.1474,-0.1622 -0.30474,-0.323 -0.44531,-0.4863 -0.19008,-0.2187 -0.35549,-0.4415 -0.53321,-0.6621 -3.51623,-4.4077 -4.5991,-9.1911 -3.11328,-14.2813 0.0235,-0.078 0.0455,-0.156 0.0703,-0.2344 0.12615,-0.4112 0.27417,-0.825 0.4336,-1.2402 0.0502,-0.1318 0.10019,-0.2648 0.15234,-0.3945 0.19048,-0.4666 0.40036,-0.9349 0.63281,-1.4063 0.0517,-0.1046 0.10671,-0.2072 0.16016,-0.3105 0.11716,-0.2265 0.23342,-0.4539 0.36133,-0.6758 0.0125,-0.022 0.0265,-0.043 0.0391,-0.064 1.49757,-2.571 3.7476,-4.8442 7.11133,-7.1133 0.22074,-0.1463 0.44289,-0.293 0.67383,-0.4395 0.31858,-0.206 0.67592,-0.4127 1.01367,-0.6191 2.40247,-1.4384 5.29934,-2.9073 8.85937,-4.5215 20.75146,-9.4091 47.46006,-14.2869 88.74606,-15.8184 9.486,-0.193 20.9048,-0.2919 32.3692,-0.291 z m -14.0528,30.5352 c -30.0163,-0.045 -57.3065,0.2785 -69.8457,1.0801 -28.54759,1.8249 -36.31461,3.0767 -37.29488,6.0175 -0.7977,2.3931 6.78906,3.8583 27.08208,5.2305 28.2485,1.9101 196.6944,0.6113 205.414,-1.584 12.0398,-3.0313 10.1861,-4.8203 -8.248,-7.957 -9.4829,-1.6136 -67.0801,-2.7117 -117.1075,-2.7871 z m 51.1231,62.3847 9.8184,0.4668 5.2597,0.252 c 2.4588,0.2052 4.2488,0.4269 4.4238,0.6016 0.066,0.065 0.1337,0.3088 0.2032,0.6582 l 0.4121,6.4199 0.4375,6.8359 0.025,0.625 h 0.016 v 0 h 30.4355 30.4356 l 3.8418,-4.9121 c 3.4304,-4.3832 4.3293,-4.747 8.3633,-3.4043 l 4.2968,1.4296 0.3067,4.3438 0.3515,17.2246 0.3497,17.1777 v 4.3516 l -3.9864,1.5156 c -0.7386,0.2809 -1.3954,0.5236 -1.9843,0.7227 -0.023,0.01 -0.038,0.01 -0.061,0.018 -1.4782,0.3606 -2.8388,0.5612 -3.6074,0.5214 -0.4461,-0.1076 -0.8499,-0.3174 -1.2403,-0.6445 -0.2546,-0.238 -0.5398,-0.5424 -0.8398,-0.8926 -0.5609,-0.7072 -1.153,-1.6466 -1.8867,-2.8886 l -2.7832,-4.7129 h -0.2988 -30.7305 -30.957 -0.072 l -0.4453,16.8886 -0.4258,16.1797 c -0.01,0.039 -0.022,0.14 -0.031,0.1485 -0.4283,0.375 -2.2752,0.6903 -4.1875,0.8066 h -0.068 c -0.1922,0.011 -0.3824,0.014 -0.5742,0.022 -3.0779,0.05 -30.36,-4.6489 -61.1426,-10.5332 -64.5388,-12.3371 -115.28676,-21.9559 -123.32618,-23.377 l -5.13086,-0.9082 -0.47266,-4.7871 c -0.0161,-0.1635 -0.0276,-0.39 -0.043,-0.5625 l -0.30078,-10.7929 c -0.19376,-6.9586 -0.0428,-12.8618 0.32812,-15.0879 0.009,-0.019 0.0162,-0.066 0.0254,-0.08 0.29831,-0.4707 1.25888,-0.5627 5.46484,0.3613 12.80893,3.3366 50.02929,13.5114 98.26369,26.8848 25.6328,7.1069 34.2237,8.5995 27.3555,4.7559 -1.9024,-1.0647 -14.1198,-16.9267 -19.377,-24.7051 -1.4629,-2.2849 -2.3101,-3.8732 -2.0605,-4.1231 0.3034,-0.3037 15.192,-0.6516 33.0859,-0.7734 l 25.0469,-0.1699 h 7.4863 v -0.051 -7.8809 -0.064 z m 0,45.709 h -0.2988 -20.2559 c -11.0831,0 -17.4548,0.3707 -19.1797,1.3359 0.062,-0.059 0.1163,-0.097 0.1778,-0.1582 1.0473,-1.0474 0.9571,-1.1777 -0.8165,-1.1777 -1.4508,0 -1.8717,0.3209 -1.5429,1.1777 0.2487,0.648 0.6157,1.1777 0.8164,1.1777 0.1375,0 0.5238,-0.2891 0.9512,-0.6542 -0.7661,1.3475 5.3369,3.6148 18.2812,7.2148 9.8672,2.7443 18.8242,5.0415 19.9043,5.1055 1.2973,0.077 1.9629,-2.2828 1.9629,-6.9532 v -2.8476 z m 91.0508,48.2207 c 0.4744,7e-4 0.9945,0.078 1.5722,0.2071 0.5067,0.1322 1.0638,0.3108 1.7071,0.5351 l 4.6465,1.6192 v 22.4492 0.023 22.4727 l -4.6739,1.6289 c -0.4361,0.152 -0.816,0.2726 -1.1855,0.3847 -1.0288,0.2349 -1.9856,0.3798 -2.6602,0.3848 -1.4458,-0.1908 -2.5363,-1.321 -4.5351,-3.875 l -3.7051,-4.7363 -34.0508,6.7597 c -18.7273,3.7179 -33.8327,7.4102 -33.5684,8.2032 0.4575,1.3725 5.7427,2.7479 48.6368,12.666 l 18.4609,4.2695 3.9824,-4.7344 c 0.628,-0.7462 1.1537,-1.332 1.6465,-1.8476 0.7269,-0.6749 1.373,-1.2147 1.9199,-1.6133 1.3552,-0.7401 2.6629,-0.4871 5.0743,0.3535 l 4.6582,1.6231 v 5.7539 l -0.1524,10.1953 c -0.1322,8.8406 -0.2386,12.8337 -0.5957,14.875 -0.379,1.4974 -0.9338,2.1698 -1.7383,2.4785 -1.215,0.4662 -2.3337,0.7523 -3.3789,0.8594 -1.3719,0.026 -2.8047,-0.1833 -3.9551,-0.666 -0.5862,-0.2461 -1.7522,-1.1477 -2.9707,-2.2442 -0.4139,-0.4575 -0.8208,-0.968 -1.2246,-1.5351 -2.6042,-3.6573 -5.4468,-5.0482 -14.6386,-7.1641 -12.3309,-2.8385 -56.0236,-12.6811 -87.6036,-19.7344 l -19.6386,-4.3867 -34.5625,6.7793 c -19.0096,3.7286 -46.2272,9.0211 -60.4844,11.7598 -25.1534,4.8318 -26.06143,5.142 -30.63477,10.459 -0.30989,0.3602 -0.56732,0.6461 -0.84375,0.9589 -3.05568,3.1291 -4.33478,3.8219 -7.45117,3.1309 -0.24289,-0.084 -0.46849,-0.1532 -0.73829,-0.2559 l -4.32226,-1.6425 v -22.0723 -22.0723 l 4.17773,-1.5879 c 0.34064,-0.1295 0.64297,-0.2276 0.94532,-0.3242 2.18137,-0.4707 3.54918,-0.2802 5.32031,0.9258 0.69775,0.5298 1.4738,1.224 2.41015,2.1211 l 4.49805,4.3105 27.06638,-5.248 c 14.8861,-2.8861 27.6977,-5.823 28.4707,-6.5254 1.6143,-1.4668 2.0769,-1.34 -31.2129,-8.4707 l -25.09371,-5.375 -3.9707,4.7422 c -0.23838,0.2848 -0.43822,0.5077 -0.6543,0.7578 -2.62256,2.6658 -3.99843,3.2414 -6.95312,2.5781 -0.226,-0.079 -0.4324,-0.1451 -0.68165,-0.2402 l -4.32226,-1.6484 v -16.2403 -0.164 -16.4043 l 4.32226,-1.5215 c 1.52447,-0.5373 2.60182,-0.7858 3.61133,-0.6035 0.35781,0.1292 0.73969,0.3072 1.20117,0.5488 0.36718,0.1922 0.8351,0.5057 1.33399,0.8672 0.80573,0.7027 1.716,1.6568 2.88672,2.9765 4.66709,5.2611 5.23353,5.4272 58.16207,16.9297 l 53.4512,11.6153 65.9492,-13.1661 65.9473,-13.166 4.3887,-5.4082 c 2.0289,-2.5001 3.2263,-3.8096 4.4609,-4.3125 0.056,-0.019 0.1114,-0.048 0.168,-0.064 0,-4e-4 0,4e-4 0,0 0.359,-0.1048 0.7272,-0.1529 1.1211,-0.1524 z m -150.75,121.4532 h 5.7793 l 74.7363,0.3789 61.9102,0.3125 18.6054,0.3476 v 3.6641 c 0,3.3898 -0.948,5.132 -4.1875,6.8945 -0.6725,0.2921 -1.4128,0.5934 -2.3125,0.9258 -7.8535,2.9011 -8.3874,4.3165 -2.9687,7.8711 3.1884,2.0916 5.5298,4.5455 7.041,7.1992 1.3299,2.4012 1.9974,4.9955 1.9785,7.7441 -0.01,1.2389 -0.1243,2.3967 -0.3496,3.5098 -0.4696,1.9919 -1.3217,3.9763 -2.5606,5.9024 -1.1703,1.7004 -2.7259,3.4094 -4.7441,5.2539 -2.4135,2.2058 -5.6192,4.3207 -9.498,6.3281 -13.3301,6.5947 -36.0496,12.5497 -61.6329,16.0449 -3.4718,0.4553 -7.0273,0.8689 -10.6562,1.2481 -11.4105,1.0908 -26.939,1.9433 -41.2695,2.373 -12.6559,0.1776 -26.3893,0.038 -36.6621,-0.3887 -32.4597,-2.3775 -60.2895,-7.7177 -80.11333,-14.8886 -0.0393,-0.014 -0.0799,-0.029 -0.11914,-0.043 -1.13083,-0.4101 -2.22875,-0.8242 -3.30664,-1.2461 -0.0119,0 -0.0232,-0.01 -0.0352,-0.014 -0.48483,-0.1902 -0.94779,-0.3857 -1.42188,-0.5781 -0.61941,-0.2512 -1.24125,-0.5027 -1.84179,-0.7578 -0.43637,-0.1853 -0.85871,-0.3734 -1.28516,-0.5606 -0.60593,-0.2663 -1.20764,-0.5324 -1.79297,-0.8027 -0.37372,-0.1721 -0.7401,-0.3459 -1.10547,-0.5195 -0.75275,-0.359 -1.49278,-0.7204 -2.20898,-1.086 -0.13387,-0.068 -0.26974,-0.1349 -0.40235,-0.2031 -10.63526,-5.4994 -17.11779,-11.7236 -18.35351,-18.3105 -0.26805,-1.4289 -0.31777,-2.9346 -0.19141,-4.4453 0.42351,-3.9603 2.10308,-8.0436 4.82031,-11.2188 0.48924,-0.4963 1.00507,-0.9434 1.54883,-1.3242 1.77295,-1.2419 2.91116,-2.4516 2.53125,-2.6875 -0.3799,-0.2359 -2.10389,-1.2284 -3.83203,-2.2071 -1.42564,-0.807 -2.25063,-1.8758 -2.50976,-3.3828 -0.0613,-0.4683 -0.0751,-1.0043 -0.0586,-1.6211 0.0728,-1.2499 0.3985,-2.7261 0.99414,-4.5117 1.74409,-1.6082 10.37395,-1.9464 50.47264,-2.0019 l 41.4356,-0.057 v 5.4434 0.055 c 0,3.0243 -0.2856,5.498 -0.6348,5.498 -4.7491,0 -67.89726,14.5658 -71.7207,16.543 -4.83853,2.5021 -5.01544,2.8511 -2.39453,4.7676 9.05365,6.6202 55.18593,9.1458 146.99803,8.0468 68.7554,-0.823 83.7249,-1.8223 91.7754,-6.1308 2.8853,-1.5441 2.7978,-1.7865 -1.5352,-4.1856 -3.9631,-2.1945 -12.7623,-2.6107 -63.7656,-3.0234 l -59.166,-0.4785 -2.8359,4.7988 c -0.4715,0.7981 -0.9238,1.4742 -1.3692,2.0606 -1.6396,1.881 -3.2583,2.6737 -5.123,2.5117 -1.0434,-0.1812 -2.2206,-0.6499 -3.6231,-1.4004 -0.5374,-0.2876 -0.9778,-0.5996 -1.3437,-1.0313 -1.2404,-2.3172 -1.3819,-7.2702 -1.541,-19.0234 l -0.1543,-11.3926 z"
       style="fill:#000000;fill-opacity:1;stroke:#000000;stroke-width:1.57103908;stroke-opacity:1" />
    <path
       inkscape:connector-curvature="0"
       id="path341"
       d="m 395.03224,1321.6299 c -21.3745,0.043 -41.3828,0.5448 -49.6465,1.543 -54.84462,6.6249 -82.76171,18.3035 -82.76171,34.625 0,9.9425 9.38074,17.2387 31.10551,24.1933 15.7657,5.047 33.4334,8.1992 60.5429,10.8028 18.8772,1.813 16.2066,1.7891 61.8203,0.5508 62.0695,-1.6851 94.6524,-7.4829 113.2129,-20.1485 6.5078,-4.4409 8.8224,-8.2367 8.8164,-14.459 -0.014,-16.9339 -23.8194,-27.9367 -75.9296,-35.0976 -9.9381,-1.3657 -39.6787,-2.0656 -67.1602,-2.0098 z m -15.2422,27.4551 c 10.82,0 22.6567,0.059 35.582,0.1582 61.2172,0.4715 77.9316,0.9211 88.1446,2.375 14.6505,2.0856 20.5119,4.1249 19.9687,6.9453 -0.5137,2.6677 -7.7328,4.5408 -23.0722,5.9844 -16.1629,1.521 -145.3077,2.2428 -175.0235,0.9785 -35.18203,-1.4969 -47.21288,-3.4771 -47.21288,-7.7715 0,-6.3101 25.87348,-8.7034 101.61328,-8.6699 z m 22.5137,67.6367 c -20.5592,0 -41.2258,0.369 -50.3692,1.1016 -46.8387,3.7526 -81.19739,14.8636 -87.58395,28.3222 -3.27741,6.9067 -1.88034,12.2787 4.79492,18.4453 11.4721,10.5981 38.61873,18.3923 78.49223,22.5332 v 0 c 19.8874,2.0653 81.6683,2.144 103.8379,0.1329 39.8054,-3.6109 67.0464,-10.513 79.7636,-20.2129 4.984,-3.8014 8.4481,-11.5185 7.4824,-16.6661 -2.9326,-15.6322 -36.8733,-28.3802 -86.6894,-32.5605 -8.7167,-0.7296 -29.1693,-1.0935 -49.7285,-1.0918 z m -45.7071,27.3848 c 11.3548,-0.031 25.4402,-0.021 43.2227,0.01 84.5409,0.1465 103.6541,1.0085 118.0332,5.3301 10.6781,3.2093 6.3266,7.0134 -10.832,9.4688 -6.5976,0.9441 -34.3769,1.4269 -92.2031,1.6015 -88.4968,0.2672 -91.5918,0.2202 -114.2168,-1.6738 -15.37311,-1.2869 -22.42388,-3.2155 -22.42388,-6.1348 0,-2.8473 6.60335,-4.71 23.98438,-6.7695 10.8965,-1.2911 20.3714,-1.7404 54.4355,-1.832 z m 44.6875,66.9648 c -34.1195,0.066 -68.4036,2.3705 -87.0019,6.6524 -30.11283,6.9328 -45.75217,14.0421 -49.83985,22.6562 -6.94345,14.6323 6.36157,26.083 40.03905,34.4551 17.7268,4.4067 27.792,5.795 64.7891,8.9433 11.2987,0.9614 73.6683,-0.5516 88.3164,-2.1425 42.5519,-4.6215 67.1791,-12.069 77.039,-23.2989 1.908,-2.173 3.7911,-5.2369 4.1856,-6.8086 0.9646,-3.8434 -1.2125,-10.6797 -4.7344,-14.8652 -6.7296,-7.9977 -33.7438,-17.5561 -60.9375,-21.5605 -18.8801,-2.7802 -45.318,-4.0827 -71.8555,-4.0313 z m -1.9511,28.2617 c 45.8819,0.01 91.7789,0.5268 100.3633,1.5547 14.0097,1.6777 23.2745,4.4061 23.7578,6.9961 0.8296,4.4466 -12.3787,6.391 -51.9825,7.6543 -54.2852,1.7315 -158.0298,0.4829 -177.1855,-2.1328 -12.63086,-1.7246 -16.31577,-3.0988 -15.89453,-5.9238 0.46059,-3.0889 5.97446,-4.8549 20.66213,-6.6211 8.5293,-1.0257 54.3973,-1.5335 100.2793,-1.5274 z m 41.0351,64.9864 v 7.8242 7.8262 h -26.5078 c -26.7012,0 -36.8144,0.6394 -36.8144,2.33 0,0.5049 3.8742,6.0621 8.6093,12.3477 l 8.6094,11.4277 22.7735,0.5547 22.7734,0.5566 0.3242,8.6094 c 0.3879,10.2928 1.3389,9.9814 -15.8769,5.211 -6.7209,-1.8624 -14.9677,-4.1302 -18.3282,-5.0391 -3.3604,-0.909 -13.8597,-3.8296 -23.33,-6.4902 -21.8465,-6.1375 -51.4211,-14.3123 -62.209,-17.1934 -4.5824,-1.2238 -18.331,-4.9846 -30.55081,-8.3574 -12.21982,-3.3728 -22.84173,-6.1433 -23.60547,-6.1563 -1.6642,-0.028 -2.02978,27.2219 -0.37891,28.2422 0.55506,0.343 6.17751,1.6059 12.4961,2.8067 20.84669,3.9619 53.50169,10.0946 65.92189,12.3808 6.7209,1.2371 15.7191,2.9554 19.9961,3.8184 4.2769,0.863 20.274,3.9026 35.5488,6.7539 15.2748,2.8513 32.2726,6.0459 37.7715,7.0996 5.4989,1.0537 12.122,1.9796 14.7187,2.0566 l 4.7207,0.1407 v -16.545 c 0,-14.0617 0.2644,-16.6456 1.7579,-17.2187 0.9664,-0.3709 15.4487,-0.6758 32.1816,-0.6758 h 30.4219 l 3.6465,4.957 c 4.0455,5.4993 4.0113,5.4821 8.0175,3.959 l 2.8496,-1.084 v -20.6054 -20.6075 l -2.8496,-1.0839 c -4.0056,-1.5229 -4.0086,-1.5205 -7.6523,3.4043 l -3.2813,4.4336 -32.2675,-0.295 -32.2676,-0.2949 -0.5567,-7.2207 -0.5546,-7.2207 -8.0547,-0.3262 z m 90.6309,94.5703 c -2.0827,0.093 -3.7823,1.4522 -5.8535,4.3945 -2.1141,3.0031 -4.387,4.7756 -7.0156,5.4688 -2.1385,0.5639 -32.2597,6.6411 -66.9356,13.5058 l -63.0469,12.4805 -29.7129,-6.4004 c -16.3418,-3.5204 -33.7116,-7.3096 -38.5996,-8.4199 -4.8879,-1.1102 -12.3851,-2.7764 -16.6621,-3.7032 -23.68855,-5.1327 -23.26579,-4.976 -27.6074,-10.1699 -3.82,-4.57 -4.26281,-4.7934 -7.39063,-3.7031 l -3.32812,1.1602 v 15.3261 c 0,12.9496 0.27298,15.4283 1.75781,15.9981 3.65436,1.4023 5.99787,0.5541 8.87109,-3.2129 1.63109,-2.1384 3.82415,-3.8887 4.87305,-3.8887 2.31978,0 63.736,13.3389 64.3887,13.9844 1.2715,1.2576 -3.5062,2.4738 -32.9766,8.3887 l -31.91796,6.4043 -4.24805,-4.3907 c -4.86131,-5.023 -4.23713,-4.7786 -7.91797,-3.1015 l -2.83007,1.289 v 20.75 20.752 l 2.76367,1.2578 c 3.60888,1.6443 4.91045,1.0203 8.80469,-4.2305 2.68511,-3.6205 4.20053,-4.5532 8.88671,-5.4668 3.10743,-0.6058 21.39828,-4.162 40.64458,-7.9023 19.2462,-3.7404 43.407,-8.5117 53.6914,-10.6035 10.2843,-2.0917 20.2905,-3.8047 22.2363,-3.8047 1.9458,0 16.7761,2.9889 32.957,6.6406 95.4183,21.5342 87.7422,19.6964 87.7422,20.9961 0,0.4538 1.5594,2.4201 3.4649,4.3691 3.5058,3.5858 4.9295,4.0895 8.1093,2.8692 1.4849,-0.5697 1.7578,-3.0505 1.7578,-16 v -15.3242 l -3.3281,-1.1602 c -3.1079,-1.0834 -3.5614,-0.8695 -6.8515,3.2246 -1.9378,2.4113 -4.3143,4.3772 -5.2813,4.3672 -0.967,-0.01 -5.5074,-0.9452 -10.0898,-2.0781 -4.5825,-1.1329 -21.2162,-4.9658 -36.9629,-8.5176 -17.2786,-3.8974 -28.4778,-6.9271 -28.2461,-7.6426 0.2111,-0.652 17.5155,-4.6345 38.4551,-8.8496 l 38.0722,-7.6641 4.0606,4.6973 c 3.7388,4.3238 4.3024,4.6033 7.1152,3.5254 l 3.0566,-1.1719 v -21.5703 c 0,-18.6451 -0.2389,-21.6633 -1.7578,-22.2461 -1.1758,-0.4512 -2.2017,-0.6694 -3.1484,-0.6269 z m -150.0645,121.5957 0.4102,16.1074 c 0.2253,8.8593 0.9102,16.7343 1.5234,17.498 2.2913,2.8535 6.2584,1.5496 9.3067,-3.0566 l 2.9414,-4.4434 h 54.6367 c 54.7499,0 64.1163,0.5364 70.9238,4.0567 3.8408,1.9861 3.5952,4.8077 -0.5918,6.8144 -9.6912,4.645 -45.0236,6.8159 -111.3769,6.8399 -62.9726,0.023 -108.5237,-2.4175 -122.94338,-6.5879 -5.13698,-1.4857 -9.3127,-4.7866 -8.24415,-6.5156 1.55911,-2.5227 9.10414,-5.4823 21.20903,-8.3223 12.223,-2.8678 54.2437,-11.8379 55.457,-11.8379 0.3538,0 0.6426,-1.755 0.6426,-3.9004 v -3.9004 l -44.7129,0.291 -44.71487,0.2891 -0.34375,3.5488 c -0.28997,2.9955 0.18739,3.821 3.05664,5.3047 1.86912,0.9666 3.39844,2.0684 3.39844,2.4492 0,0.3809 -1.7323,2.3754 -3.84961,4.4317 -4.76655,4.6292 -6.78526,11.186 -5.05664,16.4238 5.01915,15.2082 40.03559,28.5942 89.99999,34.4043 8.2484,0.9592 17.9962,1.9019 21.6621,2.0957 65.4556,3.4596 134.304,-7.2795 156.8594,-24.4687 4.9746,-3.7911 8.5454,-11.5182 7.6152,-16.4766 -0.9786,-5.2165 -6.0229,-10.7001 -12.8047,-13.9199 -3.0731,-1.459 -5.5859,-2.9621 -5.5859,-3.3399 0,-0.3777 3.7124,-1.7877 8.25,-3.1347 9.019,-2.6775 10.9918,-4.2074 10.4414,-8.0899 l -0.3633,-2.5605 h -78.873 z"
       style="fill:#d2c411;fill-opacity:1;stroke:#000000;stroke-width:1.11089242" />
    <path
       inkscape:connector-curvature="0"
       id="path374"
       d="m 1682.1474,1536.8799 v 163.7754 163.7773 l 4.9082,0.2579 c 5.9192,0.3109 76.7189,-0.057 103.1367,-0.5352 25.3871,-0.4598 33.1284,-2.2646 41.2754,-9.625 4.9622,-4.4831 6.9399,-8.5526 7.8027,-16.0566 0.4531,-3.941 0.7598,-58.5576 0.7598,-136.6231 0.01,-116.4063 -0.1244,-130.4972 -1.2383,-134.248 -3.7992,-12.7931 -14.362,-21.8875 -32.5332,-28.0098 l -6.6758,-2.248 -58.7187,-0.2325 z m -484.0254,0.039 -0.5175,13.1054 c -0.2843,7.2079 -0.7354,13.3106 -1.002,13.5625 -0.2666,0.2519 -0.8837,-0.2091 -1.373,-1.0254 -7.1599,-11.9423 -13.61,-18.7403 -21.4336,-22.5917 l -5.3457,-2.6309 h -57.3594 -57.3594 l -5.0098,2.6133 c -9.538,4.9784 -17.4546,14.3557 -20.5312,24.3164 -1.4849,4.8077 -1.5586,7.3889 -1.5586,54.0312 0,47.3234 0.053,49.1266 1.5957,53.25 2.0934,5.595 6.791,12.7919 11.0723,16.961 2.9164,2.8401 34.6282,24.3685 55.0879,37.3984 3.3514,2.1344 10.5982,6.8863 16.1035,10.5586 l 10.0097,6.6758 0.2266,29.457 c 0.1244,16.2013 0.027,30.5616 -0.2148,31.9102 -0.4873,2.7199 -2.2642,5.0772 -4.8692,6.457 -2.3956,1.269 -7.7472,1.1345 -10.4511,-0.2637 -4.8702,-2.5185 -4.7227,-1.2553 -4.7227,-40.2422 v -35.5664 h -36.3984 -36.4004 l -0.4688,41.4375 c -0.551,48.6058 0.058,65.9816 2.5469,72.6211 1.8602,4.9621 7.4224,11.7079 10.8047,13.1035 1.1994,0.4949 3.7707,1.2186 5.7148,1.6075 1.95,0.39 30.6526,0.6424 64.0196,0.5644 57.9195,-0.1358 60.6677,-0.207 64.7988,-1.6836 5.511,-1.9699 11.3014,-7.4323 12.4922,-11.7851 0.5905,-2.1588 0.8585,-23.5462 0.8535,-68.3399 -0.01,-54.5434 -0.196,-65.9967 -1.1602,-70.0859 -2.7057,-11.4754 -7.2115,-16.8912 -20.041,-24.0879 -15.2007,-8.5268 -63.4228,-37.1664 -65.3867,-38.834 -1.255,-1.0656 -1.375,-3.3046 -1.375,-25.7285 v -24.5625 l 2.0117,-2.3906 c 3.6124,-4.2931 10.3523,-4.0016 13.4649,0.582 1.2806,1.8859 1.4342,4.6357 1.6543,29.377 l 0.2441,27.2968 h 38.4434 c 21.1442,0 38.5096,-0.087 38.5898,-0.1953 0.08,-0.1081 0.346,-13.806 0.5898,-30.4394 l 0.4434,-30.2422 16.1699,-0.2129 16.1699,-0.211 0.5215,48.4551 c 0.287,26.65 0.5215,87.8095 0.5215,135.9102 v 87.4551 h 33.6523 33.6524 l 0.5175,-17.8008 c 0.2849,-9.7906 0.5196,-70.9494 0.5196,-135.9082 v -118.1074 l 20.2265,0.2089 20.2266,0.211 0.3926,134.7168 c 0.216,74.0941 0.6798,135.1571 1.0293,135.6972 0.4923,0.7607 8.319,0.9825 34.7402,0.9825 h 34.1055 l 0.2148,-59.9297 c 0.2021,-56.2325 0.3029,-60.0646 1.6328,-62.0938 3.2456,-4.9522 9.6799,-6.6014 14.4395,-3.6992 4.7611,2.903 4.532,-0.102 4.959,65.2383 l 0.3925,60.0918 33.1036,0.2051 33.1035,0.205 0.5508,-13.5586 c 0.3021,-7.4572 0.4036,-35.8285 0.2265,-63.0468 -0.285,-43.8002 -0.4769,-50.0239 -1.6699,-54.1446 -2.9727,-10.2685 -9.114,-20.123 -14.2715,-22.9004 -1.5038,-0.8099 -2.7344,-1.7375 -2.7344,-2.0625 0,-0.325 1.3664,-1.2872 3.0352,-2.1386 6.8857,-3.5128 14.1481,-14.7315 15.7988,-24.4063 0.5989,-3.5113 0.7983,-23.2584 0.6406,-63.2344 l -0.2285,-58.1289 -1.9277,-3.9277 c -4.0318,-8.2159 -11.4828,-14.1284 -22.4238,-17.7949 l -5.4981,-1.8418 -134.789,-0.2109 z m -226.87106,0.027 c -25.274,0 -45.9568,0.087 -45.9628,0.1953 -0.01,0.108 -1.7959,10.8006 -3.9766,23.7617 -2.1807,12.961 -5.5243,32.934 -7.4297,44.3829 -6.0176,36.1574 -7.3519,43.434 -8.1094,44.1914 -0.9372,0.9372 -1.3491,-1.0565 -2.8828,-13.9493 -0.6681,-5.6164 -1.3666,-10.7426 -1.5527,-11.3906 -0.1861,-0.6481 -1.078,-6.657 -1.9805,-13.3535 -1.8751,-13.9145 -4.4966,-33.155 -7.3848,-54.2012 -1.0968,-7.9926 -2.205,-15.5033 -2.4628,-16.6914 l -0.4688,-2.1601 h -45.8906 -45.8906 v 163.3867 163.3887 h 29.3652 29.3652 l 0.4668,-32.4024 c 0.5843,-40.4956 1.2782,-94.6765 1.2832,-100.1992 l 0.01,-4.1699 3.3379,0.2422 3.3379,0.2422 0.5449,4.7128 c 0.2996,2.5922 1.0858,8.0715 1.748,12.1758 0.6623,4.1043 2.1067,14.178 3.209,22.3867 1.1023,8.2087 3.5652,26.2374 5.4727,40.0625 1.9075,13.8252 3.6947,27.0809 3.9726,29.4571 0.5916,5.0571 3.3596,23.1563 3.9336,25.7246 l 0.3946,1.7676 h 20.8203 20.8203 l 0.707,-1.8575 c 0.3883,-1.0212 1.4441,-7.8257 2.3457,-15.1211 0.9016,-7.2955 2.5267,-19.9807 3.6133,-28.1894 1.0866,-8.2087 3.198,-24.4678 4.6914,-36.1328 2.5556,-19.9625 6.2814,-47.9378 7.1406,-53.6113 0.3671,-2.4238 0.5581,-2.5528 3.7578,-2.5528 h 3.3711 l 0.5215,43.7246 c 0.2868,24.0491 0.5215,54.9784 0.5215,68.7324 v 25.0079 h 32.5996 32.59766 v -163.7813 -163.7793 z m 578.05856,0.582 -1.7305,12.0801 c -0.952,6.6445 -2.0666,14.9091 -2.4765,18.3653 -1.931,16.2846 -4.0859,32.8857 -5.1485,39.6679 -0.643,4.1043 -2.2324,16.1242 -3.5332,26.709 -1.3009,10.5849 -2.8948,22.7792 -3.541,27.0996 -0.6462,4.3203 -2.3953,17.576 -3.8887,29.457 -1.4934,11.8811 -3.2504,25.4898 -3.9043,30.2422 -0.654,4.7524 -2.0924,15.8875 -3.1953,24.7442 -1.103,8.8568 -2.5264,19.2854 -3.1621,23.1738 -0.6357,3.8883 -1.68,11.6648 -2.3223,17.2813 -0.6422,5.6164 -2.0608,16.7495 -3.1523,24.7421 -1.9246,14.0931 -6.658,51.6271 -6.668,52.836 0,0.3288 14.2239,0.5055 31.6133,0.3926 l 31.6172,-0.2051 0.9375,-8.2481 c 0.5154,-4.5364 1.8622,-18.1452 2.9922,-30.2422 1.13,-12.097 2.1977,-22.4364 2.375,-22.9765 0.2398,-0.7307 3.5098,-0.9824 12.7754,-0.9824 h 12.4512 l 0.916,8.0527 c 0.504,4.4284 1.4752,16.0037 2.1582,25.7246 0.683,9.7208 1.4823,20.1495 1.7773,23.1738 l 0.5371,5.4981 33.1875,0.2051 33.1895,0.205 v -2.7343 c 0,-1.5038 -0.8957,-9.7257 -1.9903,-18.2715 -1.0946,-8.5457 -3.0386,-24.0217 -4.3183,-34.3906 -1.2798,-10.3688 -3.2047,-25.3922 -4.2774,-33.3848 -1.0726,-7.9927 -2.8413,-21.9546 -3.9316,-31.0274 -1.0904,-9.0727 -2.5101,-20.2077 -3.1543,-24.7441 -0.6443,-4.5364 -2.4004,-18.1452 -3.9023,-30.2422 -5.1002,-41.08 -9.8341,-78.5243 -11.0235,-87.1933 -0.6521,-4.7524 -2.426,-18.6929 -3.9414,-30.9786 -2.9391,-23.8273 -4.1725,-32.3815 -4.7578,-32.9668 -0.2002,-0.2003 -18.8464,-0.5226 -41.4355,-0.7148 z m -883.83976,0.1895 -0.4668,2.5586 c -0.256,1.4079 -1.0024,7.155 -1.6602,12.7715 -0.6577,5.6164 -2.2633,18.1659 -3.5683,27.8867 -1.305,9.7208 -3.0591,23.153 -3.8985,29.8496 -0.8393,6.6965 -2.431,18.8909 -3.5351,27.0996 -1.1042,8.2087 -2.6871,20.2284 -3.5195,26.709 -0.8324,6.4805 -2.5831,19.9128 -3.8907,29.8496 -1.3075,9.9368 -3.0713,23.3691 -3.9179,29.8496 -2.458,18.8146 -5.5323,42.276 -7.1543,54.5938 -0.825,6.2646 -3.0922,23.585 -5.0391,38.4902 -1.9469,14.9052 -4.0756,30.9878 -4.7285,35.7402 -0.653,4.7524 -1.1932,9.2597 -1.2012,10.0157 -0.014,1.2867 1.9995,1.375 31.4297,1.375 24.4483,0 31.5223,-0.2191 31.791,-0.9825 0.1901,-0.5401 1.2405,-10.1714 2.334,-21.4043 3.2707,-33.5969 3.6055,-36.8456 3.9785,-38.6171 0.4961,-2.3561 4.5882,-2.9197 16.1563,-2.2247 8.7131,0.5235 9.3783,0.6774 9.6836,2.2422 0.1803,0.9242 1.2671,14.2291 2.414,29.5664 1.147,15.3373 2.2721,28.6803 2.5,29.6524 l 0.4141,1.7676 h 32.5391 c 29.6645,0 32.5823,-0.1152 33.041,-1.3106 0.5977,-1.5576 -2.0155,-24.68 -7.5293,-66.6367 -1.3059,-9.9368 -2.9159,-22.6628 -3.5782,-28.2793 -0.6622,-5.6164 -2.1004,-16.928 -3.1972,-25.1367 -1.0968,-8.2087 -2.8598,-21.994 -3.916,-30.6348 -1.0563,-8.6407 -2.6436,-21.1882 -3.5293,-27.8848 -0.8858,-6.6966 -2.4777,-19.246 -3.5371,-27.8867 -1.0595,-8.6408 -2.6545,-21.1901 -3.545,-27.8867 -0.8905,-6.6965 -2.509,-19.4206 -3.5957,-28.2773 -1.0866,-8.8567 -3.3097,-26.5323 -4.9394,-39.2774 l -2.9629,-23.1719 -41.6856,-0.2031 z m 1086.98036,55.3926 1.9649,0.2636 c 3.7616,0.5056 8.4045,3.0906 10.2832,5.7247 l 1.8925,2.6523 0.1973,101.332 c 0.1948,99.5043 0.1708,101.3777 -1.3437,103.8535 -0.8483,1.3867 -2.8805,3.1986 -4.5176,4.0274 -4.2936,2.1736 -7.991,2.8552 -8.4824,1.5644 -0.2188,-0.5745 -0.3064,-50.1774 -0.1954,-110.2304 z m -341.0117,1.2226 c 2.5047,-0.061 6.403,1.0142 9.3242,2.8203 2.6298,1.6258 4.291,3.467 5.8867,6.5215 l 2.2246,4.2539 -0.2246,27.6817 -0.2246,27.6797 -1.9648,2.1308 c -1.08,1.1727 -3.832,2.9693 -6.1152,3.9922 -2.2834,1.023 -5.5598,2.1777 -7.2813,2.5645 -2.6674,0.5993 -3.2439,0.4903 -3.9004,-0.7364 -0.9734,-1.8188 -1.0237,-74.5485 -0.053,-76.082 0.3392,-0.5356 1.1896,-0.7984 2.3281,-0.8262 z m -705.80456,72.3457 c 0.086,0.01 0.1757,0.072 0.2753,0.1719 0.6089,0.6089 2.4416,18.6232 5.3907,53.0117 1.781,20.7677 1.9428,24.7417 1.0293,25.3203 -1.4405,0.9121 -12.5571,0.8831 -14.0117,-0.037 -0.9926,-0.6278 -0.8079,-4.0973 1.3945,-26.1074 1.3969,-13.9603 3.1062,-31.0367 3.7969,-37.9492 1.1837,-11.8479 1.5242,-14.4731 2.125,-14.4102 z m 883.81436,1.2344 c 0.4282,0.098 1.3869,6.9921 2.1308,15.3184 0.744,8.3262 2.2781,25.3262 3.4082,37.7793 1.1297,12.4486 1.8607,23.1406 1.625,23.7636 -0.6517,1.6785 -14.4802,1.6111 -15.1269,-0.074 -0.2518,-0.6564 0.6691,-12.9401 2.0468,-27.2969 3.678,-38.321 5.0378,-49.6921 5.9161,-49.4902 z"
       style="fill:#ffffff;stroke:#ffffff;stroke-width:0.78551954" />
  </g>
</svg>
